M48
; DRILL file {KiCad 7.0.10} date Sunday, May 19, 2024 at 08:04:38 AM
; FORMAT={-:-/ absolute / metric / decimal}
; #@! TF.CreationDate,2024-05-19T08:04:38-04:00
; #@! TF.GenerationSoftware,Kicad,Pcbnew,7.0.10
; #@! TF.FileFunction,MixedPlating,1,4
FMAT,2
METRIC
; #@! TA.AperFunction,Plated,PTH,ViaDrill
T1C0.300
; #@! TA.AperFunction,Plated,PTH,ViaDrill
T2C0.400
; #@! TA.AperFunction,Plated,PTH,ViaDrill
T3C0.500
; #@! TA.AperFunction,Plated,PTH,ComponentDrill
T4C1.000
; #@! TA.AperFunction,Plated,PTH,ComponentDrill
T5C1.100
; #@! TA.AperFunction,Plated,PTH,ComponentDrill
T6C1.500
; #@! TA.AperFunction,NonPlated,NPTH,ComponentDrill
T7C0.991
; #@! TA.AperFunction,NonPlated,NPTH,ComponentDrill
T8C1.152
; #@! TA.AperFunction,NonPlated,NPTH,ComponentDrill
T9C2.375
%
G90
G05
T1
X199.136Y-93.091
X199.136Y-122.555
X199.136Y-128.27
X199.136Y-131.191
X199.581Y-110.299
X199.581Y-111.569
X199.581Y-112.84
X199.581Y-116.649
X199.581Y-117.919
X199.707Y-119.634
X199.707Y-120.777
X199.771Y-90.932
X199.8Y-103.5
X200.596Y-118.618
X201.486Y-120.777
X201.93Y-131.191
X202.057Y-90.424
X202.35Y-102.95
X202.374Y-109.029
X202.374Y-110.299
X202.374Y-111.569
X202.374Y-112.84
X202.374Y-114.109
X202.374Y-115.379
X202.374Y-116.459
X202.374Y-117.919
X203.54Y-95.6
X203.55Y-99.7
X203.55Y-101.5
X204.47Y-131.191
X204.534Y-114.109
X204.534Y-115.379
X204.534Y-117.729
X204.597Y-106.489
X205.168Y-121.539
X205.25Y-95.6
X205.75Y-92.15
X205.93Y-118.618
X206.121Y-120.65
X206.121Y-124.396
X206.629Y-125.539
X207.01Y-131.191
X207.327Y-114.3
X207.327Y-115.379
X207.327Y-117.919
X207.454Y-124.968
X207.65Y-109.95
X207.7Y-116.45
X208.15Y-113.0
X208.25Y-127.9
X208.8Y-90.85
X208.9Y-112.1
X209.55Y-115.379
X209.55Y-116.522
X209.55Y-131.191
X210.15Y-95.3
X210.15Y-96.65
X210.15Y-100.1
X210.15Y-101.3
X210.15Y-104.1
X210.15Y-105.3
X210.4Y-107.7
X210.502Y-90.424
X210.6Y-115.45
X210.9Y-92.1
X210.95Y-94.3
X211.0Y-97.45
X211.0Y-99.0
X211.0Y-102.3
X211.0Y-103.1
X211.15Y-106.8
X211.5Y-108.8
X211.9Y-96.65
X211.9Y-101.45
X211.9Y-103.85
X211.9Y-105.45
X211.9Y-115.75
X211.95Y-95.45
X212.026Y-122.936
X212.09Y-131.191
X212.95Y-123.35
X213.05Y-94.35
X213.05Y-116.55
X213.05Y-118.85
X213.25Y-92.25
X213.55Y-122.05
X213.55Y-125.6
X214.2Y-95.05
X214.2Y-96.65
X214.2Y-99.05
X214.2Y-101.45
X214.2Y-103.85
X214.2Y-105.45
X214.2Y-115.8
X214.3Y-107.85
X214.3Y-109.45
X214.3Y-111.05
X214.3Y-112.65
X214.3Y-114.25
X214.45Y-126.55
X214.55Y-92.25
X214.55Y-94.05
X214.55Y-116.95
X214.55Y-118.85
X214.63Y-131.191
X214.75Y-106.25
X214.85Y-108.65
X214.85Y-110.25
X214.85Y-111.85
X214.85Y-113.45
X214.85Y-125.65
X214.9Y-95.85
X214.9Y-97.35
X214.9Y-98.35
X214.9Y-99.75
X214.9Y-100.75
X214.9Y-102.15
X214.9Y-103.15
X214.9Y-104.65
X214.9Y-115.05
X215.3Y-107.05
X215.45Y-121.65
X215.45Y-124.8
X215.45Y-126.45
X215.5Y-117.95
X215.5Y-123.0
X215.582Y-90.424
X216.325Y-120.7
X216.35Y-123.95
X216.5Y-119.6
X217.17Y-131.191
X217.225Y-121.65
X217.225Y-123.3
X217.25Y-124.8
X217.25Y-126.3
X217.6Y-105.45
X217.85Y-120.5
X217.85Y-122.8
X217.85Y-128.7
X218.44Y-130.429
X218.65Y-122.8
X218.65Y-126.05
X218.8Y-95.05
X218.8Y-96.65
X218.8Y-97.85
X218.8Y-99.05
X218.8Y-100.25
X218.8Y-101.45
X218.8Y-102.65
X218.8Y-103.85
X219.0Y-118.1
X219.15Y-120.55
X219.71Y-131.191
X219.8Y-122.75
X220.0Y-105.45
X220.45Y-120.55
X221.1Y-122.75
X221.4Y-118.8
X221.551Y-90.424
X221.7Y-120.55
X222.2Y-116.8
X222.25Y-131.191
X222.45Y-122.75
X222.7Y-95.85
X222.7Y-97.35
X222.7Y-98.35
X222.7Y-99.75
X222.7Y-100.75
X222.7Y-102.15
X222.7Y-103.15
X222.7Y-104.65
X223.05Y-92.25
X223.05Y-94.05
X223.05Y-117.1
X223.05Y-118.8
X223.05Y-120.55
X223.4Y-95.05
X223.4Y-96.65
X223.4Y-99.05
X223.4Y-101.45
X223.4Y-103.85
X223.4Y-105.45
X223.4Y-115.7
X223.52Y-130.5
X223.7Y-122.75
X223.7Y-126.4
X223.7Y-128.65
X224.55Y-92.25
X224.55Y-94.35
X224.55Y-116.55
X224.55Y-118.8
X224.55Y-123.15
X224.7Y-121.65
X224.79Y-131.191
X225.7Y-95.05
X225.7Y-96.65
X225.7Y-99.05
X225.7Y-103.85
X225.7Y-105.45
X225.7Y-115.85
X225.75Y-111.05
X225.75Y-112.65
X225.75Y-114.25
X225.8Y-107.05
X226.25Y-127.55
X226.3Y-91.3
X226.3Y-108.65
X226.35Y-110.25
X226.35Y-111.85
X226.35Y-113.45
X226.35Y-115.05
X226.4Y-106.2
X226.425Y-121.65
X226.425Y-123.3
X226.6Y-101.4
X226.6Y-102.9
X226.75Y-98.1
X226.8Y-93.7
X226.949Y-90.424
X227.05Y-122.8
X227.33Y-131.191
X227.4Y-91.44
X227.4Y-92.45
X227.475Y-105.15
X227.5Y-100.75
X227.5Y-103.85
X227.7Y-126.4
X228.25Y-91.9
X228.35Y-128.7
X228.6Y-130.81
X228.85Y-102.55
X229.0Y-92.55
X229.35Y-107.1
X229.35Y-108.85
X229.65Y-117.5
X229.65Y-125.65
X229.75Y-115.35
X229.87Y-93.599
X229.87Y-131.191
X230.25Y-124.8
X230.3Y-126.4
X230.35Y-110.75
X231.14Y-130.302
X231.2Y-102.85
X231.2Y-103.85
X231.2Y-104.85
X231.2Y-105.85
X231.25Y-100.8
X231.25Y-107.25
X231.25Y-108.35
X231.25Y-115.35
X231.6Y-126.4
X231.65Y-118.6
X232.1Y-116.25
X232.4Y-101.55
X232.41Y-90.424
X232.41Y-95.504
X232.41Y-131.191
X232.45Y-117.95
X232.75Y-118.95
X232.9Y-128.7
X233.45Y-116.0
X233.55Y-103.35
X233.55Y-104.35
X233.55Y-106.95
X233.55Y-118.3
X233.55Y-127.55
X233.6Y-102.35
X233.65Y-106.15
X233.65Y-112.35
X233.75Y-108.0
X233.75Y-111.35
X233.75Y-123.15
X233.85Y-110.35
X233.9Y-121.65
X233.95Y-109.35
X234.1Y-130.15
X234.2Y-105.3
X234.45Y-114.75
X234.5Y-118.65
X234.55Y-99.55
X234.6Y-102.4
X234.6Y-103.2
X234.6Y-111.85
X234.7Y-110.85
X234.75Y-124.15
X234.8Y-108.85
X234.8Y-109.85
X234.95Y-131.191
X235.2Y-117.95
X235.5Y-114.75
X235.55Y-102.55
X235.6Y-127.55
X235.625Y-121.65
X235.625Y-123.3
X235.7Y-98.5
X235.8Y-109.75
X235.9Y-99.45
X236.0Y-113.75
X236.2Y-103.4
X236.2Y-129.55
X236.25Y-122.8
X236.3Y-106.2
X236.4Y-117.2
X236.5Y-114.85
X236.7Y-97.8
X236.8Y-105.35
X236.9Y-99.5
X236.9Y-101.95
X237.05Y-122.8
X237.1Y-102.95
X237.2Y-117.2
X237.3Y-106.2
X237.3Y-114.65
X237.35Y-118.95
X237.49Y-131.191
X237.7Y-99.5
X237.7Y-101.95
X237.7Y-113.5
X237.8Y-105.35
X237.9Y-97.8
X237.998Y-90.424
X238.4Y-117.9
X238.45Y-103.5
X238.55Y-114.45
X238.9Y-98.55
X239.15Y-99.5
X239.2Y-102.8
X239.55Y-101.85
X239.55Y-114.85
X239.95Y-98.85
X240.03Y-131.191
X240.25Y-102.7
X240.55Y-114.85
X241.0Y-106.5
X241.3Y-120.15
X241.3Y-130.55
X241.45Y-97.25
X241.5Y-118.9
X241.6Y-104.45
X242.05Y-114.35
X242.1Y-128.7
X242.15Y-96.55
X242.15Y-126.4
X242.2Y-118.2
X242.57Y-90.424
X242.57Y-131.191
X242.7Y-98.65
X242.75Y-127.55
X242.8Y-99.45
X242.8Y-120.55
X242.95Y-113.85
X242.95Y-123.15
X243.05Y-118.9
X243.1Y-121.65
X243.2Y-130.35
X243.4Y-114.75
X243.4Y-117.2
X243.55Y-97.7
X243.9Y-99.5
X243.9Y-101.85
X243.925Y-120.7
X244.2Y-114.75
X244.2Y-117.2
X244.4Y-110.1
X244.4Y-113.75
X244.55Y-119.0
X244.7Y-99.5
X244.7Y-101.85
X244.825Y-121.65
X244.825Y-123.3
X244.85Y-105.25
X244.95Y-108.85
X245.05Y-97.65
X245.1Y-112.95
X245.11Y-131.191
X245.15Y-111.25
X245.4Y-118.2
X245.45Y-120.5
X245.45Y-122.8
X245.45Y-126.4
X245.5Y-110.15
X245.8Y-128.85
X245.8Y-130.45
X245.9Y-98.65
X246.0Y-119.65
X246.1Y-106.6
X246.45Y-110.5
X246.5Y-109.7
X246.55Y-112.85
X246.55Y-113.85
X246.7Y-117.45
X246.75Y-128.7
X247.0Y-119.75
X247.4Y-98.6
X247.65Y-90.424
X247.65Y-95.504
X247.65Y-131.191
X247.7Y-114.95
X247.8Y-99.9
X248.412Y-130.429
X248.55Y-117.7
X248.6Y-115.35
X248.85Y-107.35
X248.85Y-108.35
X248.85Y-109.8
X248.95Y-113.5
X249.3Y-110.7
X249.3Y-112.2
X249.6Y-128.95
X249.75Y-106.15
X249.75Y-109.4
X250.19Y-92.964
X250.19Y-98.044
X250.19Y-131.191
X250.25Y-113.0
X250.25Y-114.9
X250.35Y-102.45
X250.45Y-116.3
X250.65Y-128.7
X250.75Y-107.1
X250.8Y-114.1
X251.05Y-110.7
X251.2Y-112.2
X251.3Y-126.4
X251.35Y-113.3
X251.95Y-127.55
X252.15Y-123.15
X252.3Y-121.65
X252.73Y-90.424
X252.73Y-95.504
X252.73Y-100.584
X252.73Y-131.191
X253.125Y-120.7
X253.55Y-111.05
X253.55Y-117.6
X254.025Y-121.65
X254.025Y-123.3
X254.25Y-128.85
X254.45Y-119.3
X254.65Y-120.5
X254.65Y-122.8
X254.65Y-126.4
X255.27Y-98.044
X255.27Y-103.124
X255.27Y-131.191
X255.45Y-119.6
X256.6Y-129.15
X257.2Y-110.5
X257.25Y-113.6
X257.7Y-129.85
X257.81Y-90.424
X257.81Y-100.584
X257.81Y-131.191
X258.15Y-115.95
X258.85Y-129.85
X260.223Y-123.45
X260.35Y-98.044
X260.35Y-131.191
X260.5Y-126.4
X260.5Y-128.7
X261.15Y-127.55
X262.763Y-115.57
X262.763Y-120.65
X262.89Y-90.424
X262.89Y-100.584
X262.89Y-131.191
X263.144Y-125.73
X264.2Y-124.5
X265.303Y-118.11
X265.303Y-123.45
X265.43Y-98.044
X265.43Y-131.191
X265.85Y-129.85
X267.3Y-124.5
X267.6Y-105.15
X267.7Y-109.85
X267.7Y-111.85
X267.843Y-115.57
X267.843Y-120.65
X267.97Y-90.424
X267.97Y-100.584
X267.97Y-131.191
X268.7Y-103.45
X268.7Y-106.9
X269.05Y-127.35
X269.8Y-105.0
X269.8Y-106.1
X270.383Y-118.11
X270.383Y-123.45
X270.51Y-98.044
X270.51Y-131.191
X271.35Y-103.45
X272.923Y-90.424
X272.923Y-115.57
X272.923Y-120.65
X273.05Y-95.504
X273.05Y-100.584
X273.05Y-131.699
X275.209Y-90.932
X275.844Y-93.091
X275.844Y-98.044
X275.844Y-103.124
X275.844Y-108.204
X275.844Y-113.284
X275.844Y-118.364
X275.844Y-123.444
X275.844Y-131.191
T2
X230.35Y-109.55
X250.75Y-108.6
T3
X258.5Y-105.0
X258.5Y-109.1
X258.5Y-112.8
X259.85Y-104.4
X259.85Y-106.1
X259.85Y-109.95
X259.85Y-111.65
X259.85Y-113.95
X261.2Y-103.25
X261.2Y-107.3
X261.2Y-108.8
X261.2Y-112.8
X262.55Y-109.95
X262.55Y-111.65
X262.55Y-113.95
X262.6Y-104.4
X262.6Y-106.1
X263.9Y-103.25
X263.9Y-107.25
X263.9Y-108.8
X263.9Y-112.8
X265.2Y-104.4
X265.25Y-106.1
X265.25Y-109.95
X265.25Y-111.65
X265.25Y-113.95
X266.6Y-108.8
X266.6Y-112.8
X267.85Y-126.2
X267.95Y-113.95
X269.05Y-124.85
X269.3Y-112.8
X271.35Y-107.25
X271.35Y-113.65
X272.65Y-104.4
X272.65Y-106.1
X272.7Y-112.5
X274.193Y-123.19
T4
X207.264Y-93.853
X207.264Y-96.393
T5
X274.32Y-128.397
T6
X200.088Y-106.489
T7
X203.581Y-122.936
X211.201Y-121.92
X211.201Y-123.952
T8
X200.66Y-129.54
X200.914Y-92.202
X274.066Y-92.202
X274.32Y-125.857
T9
X203.581Y-120.396
X203.581Y-125.476
X209.296Y-120.396
X209.296Y-125.476
M30
