G04 #@! TF.GenerationSoftware,KiCad,Pcbnew,(5.1.10-1-10_14)*
G04 #@! TF.CreationDate,2021-06-01T03:35:06-04:00*
G04 #@! TF.ProjectId,RAM2E,52414d32-452e-46b6-9963-61645f706362,2.0*
G04 #@! TF.SameCoordinates,Original*
G04 #@! TF.FileFunction,Soldermask,Bot*
G04 #@! TF.FilePolarity,Negative*
%FSLAX46Y46*%
G04 Gerber Fmt 4.6, Leading zero omitted, Abs format (unit mm)*
G04 Created by KiCad (PCBNEW (5.1.10-1-10_14)) date 2021-06-01 03:35:06*
%MOMM*%
%LPD*%
G01*
G04 APERTURE LIST*
%ADD10C,0.100000*%
%ADD11O,1.800000X1.800000*%
%ADD12C,2.100000*%
%ADD13C,2.474900*%
%ADD14C,1.090600*%
%ADD15C,1.448000*%
G04 APERTURE END LIST*
D10*
G36*
X276606000Y-139446000D02*
G01*
X276098000Y-139954000D01*
X198882000Y-139954000D01*
X198374000Y-139446000D01*
X198374000Y-132080000D01*
X276606000Y-132080000D01*
X276606000Y-139446000D01*
G37*
G36*
X276606000Y-139446000D02*
G01*
X276098000Y-139954000D01*
X198882000Y-139954000D01*
X198374000Y-139446000D01*
X198374000Y-132080000D01*
X276606000Y-132080000D01*
X276606000Y-139446000D01*
G37*
D11*
X202946000Y-100965000D03*
G36*
G01*
X202046000Y-99275000D02*
X202046000Y-97575000D01*
G75*
G02*
X202096000Y-97525000I50000J0D01*
G01*
X203796000Y-97525000D01*
G75*
G02*
X203846000Y-97575000I0J-50000D01*
G01*
X203846000Y-99275000D01*
G75*
G02*
X203796000Y-99325000I-50000J0D01*
G01*
X202096000Y-99325000D01*
G75*
G02*
X202046000Y-99275000I0J50000D01*
G01*
G37*
D12*
X274320000Y-128397000D03*
D13*
X208026000Y-117475000D03*
X202946000Y-117475000D03*
X202946000Y-111760000D03*
X208026000Y-111760000D03*
D14*
X205486000Y-111760000D03*
X204470000Y-119380000D03*
X206502000Y-119380000D03*
G36*
G01*
X201472000Y-131968000D02*
X201472000Y-138596000D01*
G75*
G02*
X201066000Y-139002000I-406000J0D01*
G01*
X200254000Y-139002000D01*
G75*
G02*
X199848000Y-138596000I0J406000D01*
G01*
X199848000Y-131968000D01*
G75*
G02*
X200254000Y-131562000I406000J0D01*
G01*
X201066000Y-131562000D01*
G75*
G02*
X201472000Y-131968000I0J-406000D01*
G01*
G37*
G36*
G01*
X204012000Y-131968000D02*
X204012000Y-138596000D01*
G75*
G02*
X203606000Y-139002000I-406000J0D01*
G01*
X202794000Y-139002000D01*
G75*
G02*
X202388000Y-138596000I0J406000D01*
G01*
X202388000Y-131968000D01*
G75*
G02*
X202794000Y-131562000I406000J0D01*
G01*
X203606000Y-131562000D01*
G75*
G02*
X204012000Y-131968000I0J-406000D01*
G01*
G37*
G36*
G01*
X206552000Y-131968000D02*
X206552000Y-138596000D01*
G75*
G02*
X206146000Y-139002000I-406000J0D01*
G01*
X205334000Y-139002000D01*
G75*
G02*
X204928000Y-138596000I0J406000D01*
G01*
X204928000Y-131968000D01*
G75*
G02*
X205334000Y-131562000I406000J0D01*
G01*
X206146000Y-131562000D01*
G75*
G02*
X206552000Y-131968000I0J-406000D01*
G01*
G37*
G36*
G01*
X209092000Y-131968000D02*
X209092000Y-138596000D01*
G75*
G02*
X208686000Y-139002000I-406000J0D01*
G01*
X207874000Y-139002000D01*
G75*
G02*
X207468000Y-138596000I0J406000D01*
G01*
X207468000Y-131968000D01*
G75*
G02*
X207874000Y-131562000I406000J0D01*
G01*
X208686000Y-131562000D01*
G75*
G02*
X209092000Y-131968000I0J-406000D01*
G01*
G37*
G36*
G01*
X211632000Y-131968000D02*
X211632000Y-138596000D01*
G75*
G02*
X211226000Y-139002000I-406000J0D01*
G01*
X210414000Y-139002000D01*
G75*
G02*
X210008000Y-138596000I0J406000D01*
G01*
X210008000Y-131968000D01*
G75*
G02*
X210414000Y-131562000I406000J0D01*
G01*
X211226000Y-131562000D01*
G75*
G02*
X211632000Y-131968000I0J-406000D01*
G01*
G37*
G36*
G01*
X214172000Y-131968000D02*
X214172000Y-138596000D01*
G75*
G02*
X213766000Y-139002000I-406000J0D01*
G01*
X212954000Y-139002000D01*
G75*
G02*
X212548000Y-138596000I0J406000D01*
G01*
X212548000Y-131968000D01*
G75*
G02*
X212954000Y-131562000I406000J0D01*
G01*
X213766000Y-131562000D01*
G75*
G02*
X214172000Y-131968000I0J-406000D01*
G01*
G37*
G36*
G01*
X216712000Y-131968000D02*
X216712000Y-138596000D01*
G75*
G02*
X216306000Y-139002000I-406000J0D01*
G01*
X215494000Y-139002000D01*
G75*
G02*
X215088000Y-138596000I0J406000D01*
G01*
X215088000Y-131968000D01*
G75*
G02*
X215494000Y-131562000I406000J0D01*
G01*
X216306000Y-131562000D01*
G75*
G02*
X216712000Y-131968000I0J-406000D01*
G01*
G37*
G36*
G01*
X219252000Y-131968000D02*
X219252000Y-138596000D01*
G75*
G02*
X218846000Y-139002000I-406000J0D01*
G01*
X218034000Y-139002000D01*
G75*
G02*
X217628000Y-138596000I0J406000D01*
G01*
X217628000Y-131968000D01*
G75*
G02*
X218034000Y-131562000I406000J0D01*
G01*
X218846000Y-131562000D01*
G75*
G02*
X219252000Y-131968000I0J-406000D01*
G01*
G37*
G36*
G01*
X221792000Y-131968000D02*
X221792000Y-138596000D01*
G75*
G02*
X221386000Y-139002000I-406000J0D01*
G01*
X220574000Y-139002000D01*
G75*
G02*
X220168000Y-138596000I0J406000D01*
G01*
X220168000Y-131968000D01*
G75*
G02*
X220574000Y-131562000I406000J0D01*
G01*
X221386000Y-131562000D01*
G75*
G02*
X221792000Y-131968000I0J-406000D01*
G01*
G37*
G36*
G01*
X224332000Y-131968000D02*
X224332000Y-138596000D01*
G75*
G02*
X223926000Y-139002000I-406000J0D01*
G01*
X223114000Y-139002000D01*
G75*
G02*
X222708000Y-138596000I0J406000D01*
G01*
X222708000Y-131968000D01*
G75*
G02*
X223114000Y-131562000I406000J0D01*
G01*
X223926000Y-131562000D01*
G75*
G02*
X224332000Y-131968000I0J-406000D01*
G01*
G37*
G36*
G01*
X226872000Y-131968000D02*
X226872000Y-138596000D01*
G75*
G02*
X226466000Y-139002000I-406000J0D01*
G01*
X225654000Y-139002000D01*
G75*
G02*
X225248000Y-138596000I0J406000D01*
G01*
X225248000Y-131968000D01*
G75*
G02*
X225654000Y-131562000I406000J0D01*
G01*
X226466000Y-131562000D01*
G75*
G02*
X226872000Y-131968000I0J-406000D01*
G01*
G37*
G36*
G01*
X229412000Y-131968000D02*
X229412000Y-138596000D01*
G75*
G02*
X229006000Y-139002000I-406000J0D01*
G01*
X228194000Y-139002000D01*
G75*
G02*
X227788000Y-138596000I0J406000D01*
G01*
X227788000Y-131968000D01*
G75*
G02*
X228194000Y-131562000I406000J0D01*
G01*
X229006000Y-131562000D01*
G75*
G02*
X229412000Y-131968000I0J-406000D01*
G01*
G37*
G36*
G01*
X231952000Y-131968000D02*
X231952000Y-138596000D01*
G75*
G02*
X231546000Y-139002000I-406000J0D01*
G01*
X230734000Y-139002000D01*
G75*
G02*
X230328000Y-138596000I0J406000D01*
G01*
X230328000Y-131968000D01*
G75*
G02*
X230734000Y-131562000I406000J0D01*
G01*
X231546000Y-131562000D01*
G75*
G02*
X231952000Y-131968000I0J-406000D01*
G01*
G37*
G36*
G01*
X234492000Y-131968000D02*
X234492000Y-138596000D01*
G75*
G02*
X234086000Y-139002000I-406000J0D01*
G01*
X233274000Y-139002000D01*
G75*
G02*
X232868000Y-138596000I0J406000D01*
G01*
X232868000Y-131968000D01*
G75*
G02*
X233274000Y-131562000I406000J0D01*
G01*
X234086000Y-131562000D01*
G75*
G02*
X234492000Y-131968000I0J-406000D01*
G01*
G37*
G36*
G01*
X237032000Y-131968000D02*
X237032000Y-138596000D01*
G75*
G02*
X236626000Y-139002000I-406000J0D01*
G01*
X235814000Y-139002000D01*
G75*
G02*
X235408000Y-138596000I0J406000D01*
G01*
X235408000Y-131968000D01*
G75*
G02*
X235814000Y-131562000I406000J0D01*
G01*
X236626000Y-131562000D01*
G75*
G02*
X237032000Y-131968000I0J-406000D01*
G01*
G37*
G36*
G01*
X239572000Y-131968000D02*
X239572000Y-138596000D01*
G75*
G02*
X239166000Y-139002000I-406000J0D01*
G01*
X238354000Y-139002000D01*
G75*
G02*
X237948000Y-138596000I0J406000D01*
G01*
X237948000Y-131968000D01*
G75*
G02*
X238354000Y-131562000I406000J0D01*
G01*
X239166000Y-131562000D01*
G75*
G02*
X239572000Y-131968000I0J-406000D01*
G01*
G37*
G36*
G01*
X242112000Y-131968000D02*
X242112000Y-138596000D01*
G75*
G02*
X241706000Y-139002000I-406000J0D01*
G01*
X240894000Y-139002000D01*
G75*
G02*
X240488000Y-138596000I0J406000D01*
G01*
X240488000Y-131968000D01*
G75*
G02*
X240894000Y-131562000I406000J0D01*
G01*
X241706000Y-131562000D01*
G75*
G02*
X242112000Y-131968000I0J-406000D01*
G01*
G37*
G36*
G01*
X244652000Y-131968000D02*
X244652000Y-138596000D01*
G75*
G02*
X244246000Y-139002000I-406000J0D01*
G01*
X243434000Y-139002000D01*
G75*
G02*
X243028000Y-138596000I0J406000D01*
G01*
X243028000Y-131968000D01*
G75*
G02*
X243434000Y-131562000I406000J0D01*
G01*
X244246000Y-131562000D01*
G75*
G02*
X244652000Y-131968000I0J-406000D01*
G01*
G37*
G36*
G01*
X247192000Y-131968000D02*
X247192000Y-138596000D01*
G75*
G02*
X246786000Y-139002000I-406000J0D01*
G01*
X245974000Y-139002000D01*
G75*
G02*
X245568000Y-138596000I0J406000D01*
G01*
X245568000Y-131968000D01*
G75*
G02*
X245974000Y-131562000I406000J0D01*
G01*
X246786000Y-131562000D01*
G75*
G02*
X247192000Y-131968000I0J-406000D01*
G01*
G37*
G36*
G01*
X249732000Y-131968000D02*
X249732000Y-138596000D01*
G75*
G02*
X249326000Y-139002000I-406000J0D01*
G01*
X248514000Y-139002000D01*
G75*
G02*
X248108000Y-138596000I0J406000D01*
G01*
X248108000Y-131968000D01*
G75*
G02*
X248514000Y-131562000I406000J0D01*
G01*
X249326000Y-131562000D01*
G75*
G02*
X249732000Y-131968000I0J-406000D01*
G01*
G37*
G36*
G01*
X252272000Y-131968000D02*
X252272000Y-138596000D01*
G75*
G02*
X251866000Y-139002000I-406000J0D01*
G01*
X251054000Y-139002000D01*
G75*
G02*
X250648000Y-138596000I0J406000D01*
G01*
X250648000Y-131968000D01*
G75*
G02*
X251054000Y-131562000I406000J0D01*
G01*
X251866000Y-131562000D01*
G75*
G02*
X252272000Y-131968000I0J-406000D01*
G01*
G37*
G36*
G01*
X254812000Y-131968000D02*
X254812000Y-138596000D01*
G75*
G02*
X254406000Y-139002000I-406000J0D01*
G01*
X253594000Y-139002000D01*
G75*
G02*
X253188000Y-138596000I0J406000D01*
G01*
X253188000Y-131968000D01*
G75*
G02*
X253594000Y-131562000I406000J0D01*
G01*
X254406000Y-131562000D01*
G75*
G02*
X254812000Y-131968000I0J-406000D01*
G01*
G37*
G36*
G01*
X257352000Y-131968000D02*
X257352000Y-138596000D01*
G75*
G02*
X256946000Y-139002000I-406000J0D01*
G01*
X256134000Y-139002000D01*
G75*
G02*
X255728000Y-138596000I0J406000D01*
G01*
X255728000Y-131968000D01*
G75*
G02*
X256134000Y-131562000I406000J0D01*
G01*
X256946000Y-131562000D01*
G75*
G02*
X257352000Y-131968000I0J-406000D01*
G01*
G37*
G36*
G01*
X259892000Y-131968000D02*
X259892000Y-138596000D01*
G75*
G02*
X259486000Y-139002000I-406000J0D01*
G01*
X258674000Y-139002000D01*
G75*
G02*
X258268000Y-138596000I0J406000D01*
G01*
X258268000Y-131968000D01*
G75*
G02*
X258674000Y-131562000I406000J0D01*
G01*
X259486000Y-131562000D01*
G75*
G02*
X259892000Y-131968000I0J-406000D01*
G01*
G37*
G36*
G01*
X262432000Y-131968000D02*
X262432000Y-138596000D01*
G75*
G02*
X262026000Y-139002000I-406000J0D01*
G01*
X261214000Y-139002000D01*
G75*
G02*
X260808000Y-138596000I0J406000D01*
G01*
X260808000Y-131968000D01*
G75*
G02*
X261214000Y-131562000I406000J0D01*
G01*
X262026000Y-131562000D01*
G75*
G02*
X262432000Y-131968000I0J-406000D01*
G01*
G37*
G36*
G01*
X264972000Y-131968000D02*
X264972000Y-138596000D01*
G75*
G02*
X264566000Y-139002000I-406000J0D01*
G01*
X263754000Y-139002000D01*
G75*
G02*
X263348000Y-138596000I0J406000D01*
G01*
X263348000Y-131968000D01*
G75*
G02*
X263754000Y-131562000I406000J0D01*
G01*
X264566000Y-131562000D01*
G75*
G02*
X264972000Y-131968000I0J-406000D01*
G01*
G37*
G36*
G01*
X267512000Y-131968000D02*
X267512000Y-138596000D01*
G75*
G02*
X267106000Y-139002000I-406000J0D01*
G01*
X266294000Y-139002000D01*
G75*
G02*
X265888000Y-138596000I0J406000D01*
G01*
X265888000Y-131968000D01*
G75*
G02*
X266294000Y-131562000I406000J0D01*
G01*
X267106000Y-131562000D01*
G75*
G02*
X267512000Y-131968000I0J-406000D01*
G01*
G37*
G36*
G01*
X270052000Y-131968000D02*
X270052000Y-138596000D01*
G75*
G02*
X269646000Y-139002000I-406000J0D01*
G01*
X268834000Y-139002000D01*
G75*
G02*
X268428000Y-138596000I0J406000D01*
G01*
X268428000Y-131968000D01*
G75*
G02*
X268834000Y-131562000I406000J0D01*
G01*
X269646000Y-131562000D01*
G75*
G02*
X270052000Y-131968000I0J-406000D01*
G01*
G37*
G36*
G01*
X272592000Y-131968000D02*
X272592000Y-138596000D01*
G75*
G02*
X272186000Y-139002000I-406000J0D01*
G01*
X271374000Y-139002000D01*
G75*
G02*
X270968000Y-138596000I0J406000D01*
G01*
X270968000Y-131968000D01*
G75*
G02*
X271374000Y-131562000I406000J0D01*
G01*
X272186000Y-131562000D01*
G75*
G02*
X272592000Y-131968000I0J-406000D01*
G01*
G37*
G36*
G01*
X275132000Y-131968000D02*
X275132000Y-138596000D01*
G75*
G02*
X274726000Y-139002000I-406000J0D01*
G01*
X273914000Y-139002000D01*
G75*
G02*
X273508000Y-138596000I0J406000D01*
G01*
X273508000Y-131968000D01*
G75*
G02*
X273914000Y-131562000I406000J0D01*
G01*
X274726000Y-131562000D01*
G75*
G02*
X275132000Y-131968000I0J-406000D01*
G01*
G37*
D15*
X200660000Y-129540000D03*
X200914000Y-92202000D03*
X274066000Y-92202000D03*
X274320000Y-125857000D03*
M02*
