G04 #@! TF.GenerationSoftware,KiCad,Pcbnew,7.0.10*
G04 #@! TF.CreationDate,2024-04-24T06:19:36-04:00*
G04 #@! TF.ProjectId,RAM2E,52414d32-452e-46b6-9963-61645f706362,2.1*
G04 #@! TF.SameCoordinates,Original*
G04 #@! TF.FileFunction,Soldermask,Bot*
G04 #@! TF.FilePolarity,Negative*
%FSLAX46Y46*%
G04 Gerber Fmt 4.6, Leading zero omitted, Abs format (unit mm)*
G04 Created by KiCad (PCBNEW 7.0.10) date 2024-04-24 06:19:36*
%MOMM*%
%LPD*%
G01*
G04 APERTURE LIST*
G04 APERTURE END LIST*
G36*
X201125999Y-131543771D02*
G01*
X201137712Y-131547869D01*
X201148592Y-131549176D01*
X201204857Y-131571364D01*
X201254635Y-131588782D01*
X201261071Y-131593532D01*
X201264788Y-131594998D01*
X201327758Y-131642749D01*
X201364289Y-131669711D01*
X201391259Y-131706253D01*
X201439001Y-131769211D01*
X201440466Y-131772926D01*
X201445218Y-131779365D01*
X201462642Y-131829162D01*
X201484822Y-131885406D01*
X201486127Y-131896280D01*
X201490229Y-131908001D01*
X201498200Y-131993000D01*
X201498200Y-132042804D01*
X201535396Y-132080000D01*
X202324603Y-132080000D01*
X202361800Y-132042803D01*
X202361800Y-131996798D01*
X202361800Y-131993000D01*
X202369771Y-131908001D01*
X202373869Y-131896288D01*
X202375176Y-131885407D01*
X202397367Y-131829133D01*
X202414782Y-131779365D01*
X202419531Y-131772929D01*
X202420998Y-131769211D01*
X202468777Y-131706204D01*
X202495711Y-131669711D01*
X202532204Y-131642777D01*
X202595211Y-131594998D01*
X202598929Y-131593531D01*
X202605365Y-131588782D01*
X202655140Y-131571365D01*
X202711406Y-131549177D01*
X202722284Y-131547870D01*
X202734001Y-131543771D01*
X202819000Y-131535800D01*
X203581000Y-131535800D01*
X203665999Y-131543771D01*
X203677712Y-131547869D01*
X203688592Y-131549176D01*
X203744857Y-131571364D01*
X203794635Y-131588782D01*
X203801071Y-131593532D01*
X203804788Y-131594998D01*
X203867758Y-131642749D01*
X203904289Y-131669711D01*
X203931259Y-131706253D01*
X203979001Y-131769211D01*
X203980466Y-131772926D01*
X203985218Y-131779365D01*
X204002642Y-131829162D01*
X204024822Y-131885406D01*
X204026127Y-131896280D01*
X204030229Y-131908001D01*
X204038200Y-131993000D01*
X204038200Y-132042804D01*
X204075396Y-132080000D01*
X204864603Y-132080000D01*
X204901800Y-132042803D01*
X204901800Y-131996798D01*
X204901800Y-131993000D01*
X204909771Y-131908001D01*
X204913869Y-131896288D01*
X204915176Y-131885407D01*
X204937367Y-131829133D01*
X204954782Y-131779365D01*
X204959531Y-131772929D01*
X204960998Y-131769211D01*
X205008777Y-131706204D01*
X205035711Y-131669711D01*
X205072204Y-131642777D01*
X205135211Y-131594998D01*
X205138929Y-131593531D01*
X205145365Y-131588782D01*
X205195140Y-131571365D01*
X205251406Y-131549177D01*
X205262284Y-131547870D01*
X205274001Y-131543771D01*
X205359000Y-131535800D01*
X206121000Y-131535800D01*
X206205999Y-131543771D01*
X206217712Y-131547869D01*
X206228592Y-131549176D01*
X206284857Y-131571364D01*
X206334635Y-131588782D01*
X206341071Y-131593532D01*
X206344788Y-131594998D01*
X206407758Y-131642749D01*
X206444289Y-131669711D01*
X206471259Y-131706253D01*
X206519001Y-131769211D01*
X206520466Y-131772926D01*
X206525218Y-131779365D01*
X206542642Y-131829162D01*
X206564822Y-131885406D01*
X206566127Y-131896280D01*
X206570229Y-131908001D01*
X206578200Y-131993000D01*
X206578200Y-132042804D01*
X206615396Y-132080000D01*
X207404603Y-132080000D01*
X207441800Y-132042803D01*
X207441800Y-131996798D01*
X207441800Y-131993000D01*
X207449771Y-131908001D01*
X207453869Y-131896288D01*
X207455176Y-131885407D01*
X207477367Y-131829133D01*
X207494782Y-131779365D01*
X207499531Y-131772929D01*
X207500998Y-131769211D01*
X207548777Y-131706204D01*
X207575711Y-131669711D01*
X207612204Y-131642777D01*
X207675211Y-131594998D01*
X207678929Y-131593531D01*
X207685365Y-131588782D01*
X207735140Y-131571365D01*
X207791406Y-131549177D01*
X207802284Y-131547870D01*
X207814001Y-131543771D01*
X207899000Y-131535800D01*
X208661000Y-131535800D01*
X208745999Y-131543771D01*
X208757712Y-131547869D01*
X208768592Y-131549176D01*
X208824857Y-131571364D01*
X208874635Y-131588782D01*
X208881071Y-131593532D01*
X208884788Y-131594998D01*
X208947758Y-131642749D01*
X208984289Y-131669711D01*
X209011259Y-131706253D01*
X209059001Y-131769211D01*
X209060466Y-131772926D01*
X209065218Y-131779365D01*
X209082642Y-131829162D01*
X209104822Y-131885406D01*
X209106127Y-131896280D01*
X209110229Y-131908001D01*
X209118200Y-131993000D01*
X209118200Y-132042804D01*
X209155396Y-132080000D01*
X209944603Y-132080000D01*
X209981800Y-132042803D01*
X209981800Y-131996798D01*
X209981800Y-131993000D01*
X209989771Y-131908001D01*
X209993869Y-131896288D01*
X209995176Y-131885407D01*
X210017367Y-131829133D01*
X210034782Y-131779365D01*
X210039531Y-131772929D01*
X210040998Y-131769211D01*
X210088777Y-131706204D01*
X210115711Y-131669711D01*
X210152204Y-131642777D01*
X210215211Y-131594998D01*
X210218929Y-131593531D01*
X210225365Y-131588782D01*
X210275140Y-131571365D01*
X210331406Y-131549177D01*
X210342284Y-131547870D01*
X210354001Y-131543771D01*
X210439000Y-131535800D01*
X211201000Y-131535800D01*
X211285999Y-131543771D01*
X211297712Y-131547869D01*
X211308592Y-131549176D01*
X211364857Y-131571364D01*
X211414635Y-131588782D01*
X211421071Y-131593532D01*
X211424788Y-131594998D01*
X211487758Y-131642749D01*
X211524289Y-131669711D01*
X211551259Y-131706253D01*
X211599001Y-131769211D01*
X211600466Y-131772926D01*
X211605218Y-131779365D01*
X211622642Y-131829162D01*
X211644822Y-131885406D01*
X211646127Y-131896280D01*
X211650229Y-131908001D01*
X211658200Y-131993000D01*
X211658200Y-132042804D01*
X211695396Y-132080000D01*
X212484603Y-132080000D01*
X212521800Y-132042803D01*
X212521800Y-131996798D01*
X212521800Y-131993000D01*
X212529771Y-131908001D01*
X212533869Y-131896288D01*
X212535176Y-131885407D01*
X212557367Y-131829133D01*
X212574782Y-131779365D01*
X212579531Y-131772929D01*
X212580998Y-131769211D01*
X212628777Y-131706204D01*
X212655711Y-131669711D01*
X212692204Y-131642777D01*
X212755211Y-131594998D01*
X212758929Y-131593531D01*
X212765365Y-131588782D01*
X212815140Y-131571365D01*
X212871406Y-131549177D01*
X212882284Y-131547870D01*
X212894001Y-131543771D01*
X212979000Y-131535800D01*
X213741000Y-131535800D01*
X213825999Y-131543771D01*
X213837712Y-131547869D01*
X213848592Y-131549176D01*
X213904857Y-131571364D01*
X213954635Y-131588782D01*
X213961071Y-131593532D01*
X213964788Y-131594998D01*
X214027758Y-131642749D01*
X214064289Y-131669711D01*
X214091259Y-131706253D01*
X214139001Y-131769211D01*
X214140466Y-131772926D01*
X214145218Y-131779365D01*
X214162642Y-131829162D01*
X214184822Y-131885406D01*
X214186127Y-131896280D01*
X214190229Y-131908001D01*
X214198200Y-131993000D01*
X214198200Y-132042804D01*
X214235396Y-132080000D01*
X215024603Y-132080000D01*
X215061800Y-132042803D01*
X215061800Y-131996798D01*
X215061800Y-131993000D01*
X215069771Y-131908001D01*
X215073869Y-131896288D01*
X215075176Y-131885407D01*
X215097367Y-131829133D01*
X215114782Y-131779365D01*
X215119531Y-131772929D01*
X215120998Y-131769211D01*
X215168777Y-131706204D01*
X215195711Y-131669711D01*
X215232204Y-131642777D01*
X215295211Y-131594998D01*
X215298929Y-131593531D01*
X215305365Y-131588782D01*
X215355140Y-131571365D01*
X215411406Y-131549177D01*
X215422284Y-131547870D01*
X215434001Y-131543771D01*
X215519000Y-131535800D01*
X216281000Y-131535800D01*
X216365999Y-131543771D01*
X216377712Y-131547869D01*
X216388592Y-131549176D01*
X216444857Y-131571364D01*
X216494635Y-131588782D01*
X216501071Y-131593532D01*
X216504788Y-131594998D01*
X216567758Y-131642749D01*
X216604289Y-131669711D01*
X216631259Y-131706253D01*
X216679001Y-131769211D01*
X216680466Y-131772926D01*
X216685218Y-131779365D01*
X216702642Y-131829162D01*
X216724822Y-131885406D01*
X216726127Y-131896280D01*
X216730229Y-131908001D01*
X216738200Y-131993000D01*
X216738200Y-132042804D01*
X216775396Y-132080000D01*
X217564603Y-132080000D01*
X217601800Y-132042803D01*
X217601800Y-131996798D01*
X217601800Y-131993000D01*
X217609771Y-131908001D01*
X217613869Y-131896288D01*
X217615176Y-131885407D01*
X217637367Y-131829133D01*
X217654782Y-131779365D01*
X217659531Y-131772929D01*
X217660998Y-131769211D01*
X217708777Y-131706204D01*
X217735711Y-131669711D01*
X217772204Y-131642777D01*
X217835211Y-131594998D01*
X217838929Y-131593531D01*
X217845365Y-131588782D01*
X217895140Y-131571365D01*
X217951406Y-131549177D01*
X217962284Y-131547870D01*
X217974001Y-131543771D01*
X218059000Y-131535800D01*
X218821000Y-131535800D01*
X218905999Y-131543771D01*
X218917712Y-131547869D01*
X218928592Y-131549176D01*
X218984857Y-131571364D01*
X219034635Y-131588782D01*
X219041071Y-131593532D01*
X219044788Y-131594998D01*
X219107758Y-131642749D01*
X219144289Y-131669711D01*
X219171259Y-131706253D01*
X219219001Y-131769211D01*
X219220466Y-131772926D01*
X219225218Y-131779365D01*
X219242642Y-131829162D01*
X219264822Y-131885406D01*
X219266127Y-131896280D01*
X219270229Y-131908001D01*
X219278200Y-131993000D01*
X219278200Y-132042804D01*
X219315396Y-132080000D01*
X220104603Y-132080000D01*
X220141800Y-132042803D01*
X220141800Y-131996798D01*
X220141800Y-131993000D01*
X220149771Y-131908001D01*
X220153869Y-131896288D01*
X220155176Y-131885407D01*
X220177367Y-131829133D01*
X220194782Y-131779365D01*
X220199531Y-131772929D01*
X220200998Y-131769211D01*
X220248777Y-131706204D01*
X220275711Y-131669711D01*
X220312204Y-131642777D01*
X220375211Y-131594998D01*
X220378929Y-131593531D01*
X220385365Y-131588782D01*
X220435140Y-131571365D01*
X220491406Y-131549177D01*
X220502284Y-131547870D01*
X220514001Y-131543771D01*
X220599000Y-131535800D01*
X221361000Y-131535800D01*
X221445999Y-131543771D01*
X221457712Y-131547869D01*
X221468592Y-131549176D01*
X221524857Y-131571364D01*
X221574635Y-131588782D01*
X221581071Y-131593532D01*
X221584788Y-131594998D01*
X221647758Y-131642749D01*
X221684289Y-131669711D01*
X221711259Y-131706253D01*
X221759001Y-131769211D01*
X221760466Y-131772926D01*
X221765218Y-131779365D01*
X221782642Y-131829162D01*
X221804822Y-131885406D01*
X221806127Y-131896280D01*
X221810229Y-131908001D01*
X221818200Y-131993000D01*
X221818200Y-132042804D01*
X221855396Y-132080000D01*
X222644603Y-132080000D01*
X222681800Y-132042803D01*
X222681800Y-131996798D01*
X222681800Y-131993000D01*
X222689771Y-131908001D01*
X222693869Y-131896288D01*
X222695176Y-131885407D01*
X222717367Y-131829133D01*
X222734782Y-131779365D01*
X222739531Y-131772929D01*
X222740998Y-131769211D01*
X222788777Y-131706204D01*
X222815711Y-131669711D01*
X222852204Y-131642777D01*
X222915211Y-131594998D01*
X222918929Y-131593531D01*
X222925365Y-131588782D01*
X222975140Y-131571365D01*
X223031406Y-131549177D01*
X223042284Y-131547870D01*
X223054001Y-131543771D01*
X223139000Y-131535800D01*
X223901000Y-131535800D01*
X223985999Y-131543771D01*
X223997712Y-131547869D01*
X224008592Y-131549176D01*
X224064857Y-131571364D01*
X224114635Y-131588782D01*
X224121071Y-131593532D01*
X224124788Y-131594998D01*
X224187758Y-131642749D01*
X224224289Y-131669711D01*
X224251259Y-131706253D01*
X224299001Y-131769211D01*
X224300466Y-131772926D01*
X224305218Y-131779365D01*
X224322642Y-131829162D01*
X224344822Y-131885406D01*
X224346127Y-131896280D01*
X224350229Y-131908001D01*
X224358200Y-131993000D01*
X224358200Y-132042804D01*
X224395396Y-132080000D01*
X225184603Y-132080000D01*
X225221800Y-132042803D01*
X225221800Y-131996798D01*
X225221800Y-131993000D01*
X225229771Y-131908001D01*
X225233869Y-131896288D01*
X225235176Y-131885407D01*
X225257367Y-131829133D01*
X225274782Y-131779365D01*
X225279531Y-131772929D01*
X225280998Y-131769211D01*
X225328777Y-131706204D01*
X225355711Y-131669711D01*
X225392204Y-131642777D01*
X225455211Y-131594998D01*
X225458929Y-131593531D01*
X225465365Y-131588782D01*
X225515140Y-131571365D01*
X225571406Y-131549177D01*
X225582284Y-131547870D01*
X225594001Y-131543771D01*
X225679000Y-131535800D01*
X226441000Y-131535800D01*
X226525999Y-131543771D01*
X226537712Y-131547869D01*
X226548592Y-131549176D01*
X226604857Y-131571364D01*
X226654635Y-131588782D01*
X226661071Y-131593532D01*
X226664788Y-131594998D01*
X226727758Y-131642749D01*
X226764289Y-131669711D01*
X226791259Y-131706253D01*
X226839001Y-131769211D01*
X226840466Y-131772926D01*
X226845218Y-131779365D01*
X226862642Y-131829162D01*
X226884822Y-131885406D01*
X226886127Y-131896280D01*
X226890229Y-131908001D01*
X226898200Y-131993000D01*
X226898200Y-132042804D01*
X226935396Y-132080000D01*
X227724603Y-132080000D01*
X227761800Y-132042803D01*
X227761800Y-131996798D01*
X227761800Y-131993000D01*
X227769771Y-131908001D01*
X227773869Y-131896288D01*
X227775176Y-131885407D01*
X227797367Y-131829133D01*
X227814782Y-131779365D01*
X227819531Y-131772929D01*
X227820998Y-131769211D01*
X227868777Y-131706204D01*
X227895711Y-131669711D01*
X227932204Y-131642777D01*
X227995211Y-131594998D01*
X227998929Y-131593531D01*
X228005365Y-131588782D01*
X228055140Y-131571365D01*
X228111406Y-131549177D01*
X228122284Y-131547870D01*
X228134001Y-131543771D01*
X228219000Y-131535800D01*
X228981000Y-131535800D01*
X229065999Y-131543771D01*
X229077712Y-131547869D01*
X229088592Y-131549176D01*
X229144857Y-131571364D01*
X229194635Y-131588782D01*
X229201071Y-131593532D01*
X229204788Y-131594998D01*
X229267758Y-131642749D01*
X229304289Y-131669711D01*
X229331259Y-131706253D01*
X229379001Y-131769211D01*
X229380466Y-131772926D01*
X229385218Y-131779365D01*
X229402642Y-131829162D01*
X229424822Y-131885406D01*
X229426127Y-131896280D01*
X229430229Y-131908001D01*
X229438200Y-131993000D01*
X229438200Y-132042804D01*
X229475396Y-132080000D01*
X230264603Y-132080000D01*
X230301800Y-132042803D01*
X230301800Y-131996798D01*
X230301800Y-131993000D01*
X230309771Y-131908001D01*
X230313869Y-131896288D01*
X230315176Y-131885407D01*
X230337367Y-131829133D01*
X230354782Y-131779365D01*
X230359531Y-131772929D01*
X230360998Y-131769211D01*
X230408777Y-131706204D01*
X230435711Y-131669711D01*
X230472204Y-131642777D01*
X230535211Y-131594998D01*
X230538929Y-131593531D01*
X230545365Y-131588782D01*
X230595140Y-131571365D01*
X230651406Y-131549177D01*
X230662284Y-131547870D01*
X230674001Y-131543771D01*
X230759000Y-131535800D01*
X231521000Y-131535800D01*
X231605999Y-131543771D01*
X231617712Y-131547869D01*
X231628592Y-131549176D01*
X231684857Y-131571364D01*
X231734635Y-131588782D01*
X231741071Y-131593532D01*
X231744788Y-131594998D01*
X231807758Y-131642749D01*
X231844289Y-131669711D01*
X231871259Y-131706253D01*
X231919001Y-131769211D01*
X231920466Y-131772926D01*
X231925218Y-131779365D01*
X231942642Y-131829162D01*
X231964822Y-131885406D01*
X231966127Y-131896280D01*
X231970229Y-131908001D01*
X231978200Y-131993000D01*
X231978200Y-132042804D01*
X232015396Y-132080000D01*
X232804603Y-132080000D01*
X232841800Y-132042803D01*
X232841800Y-131996798D01*
X232841800Y-131993000D01*
X232849771Y-131908001D01*
X232853869Y-131896288D01*
X232855176Y-131885407D01*
X232877367Y-131829133D01*
X232894782Y-131779365D01*
X232899531Y-131772929D01*
X232900998Y-131769211D01*
X232948777Y-131706204D01*
X232975711Y-131669711D01*
X233012204Y-131642777D01*
X233075211Y-131594998D01*
X233078929Y-131593531D01*
X233085365Y-131588782D01*
X233135140Y-131571365D01*
X233191406Y-131549177D01*
X233202284Y-131547870D01*
X233214001Y-131543771D01*
X233299000Y-131535800D01*
X234061000Y-131535800D01*
X234145999Y-131543771D01*
X234157712Y-131547869D01*
X234168592Y-131549176D01*
X234224857Y-131571364D01*
X234274635Y-131588782D01*
X234281071Y-131593532D01*
X234284788Y-131594998D01*
X234347758Y-131642749D01*
X234384289Y-131669711D01*
X234411259Y-131706253D01*
X234459001Y-131769211D01*
X234460466Y-131772926D01*
X234465218Y-131779365D01*
X234482642Y-131829162D01*
X234504822Y-131885406D01*
X234506127Y-131896280D01*
X234510229Y-131908001D01*
X234518200Y-131993000D01*
X234518200Y-132042804D01*
X234555396Y-132080000D01*
X235344603Y-132080000D01*
X235381800Y-132042803D01*
X235381800Y-131996798D01*
X235381800Y-131993000D01*
X235389771Y-131908001D01*
X235393869Y-131896288D01*
X235395176Y-131885407D01*
X235417367Y-131829133D01*
X235434782Y-131779365D01*
X235439531Y-131772929D01*
X235440998Y-131769211D01*
X235488777Y-131706204D01*
X235515711Y-131669711D01*
X235552204Y-131642777D01*
X235615211Y-131594998D01*
X235618929Y-131593531D01*
X235625365Y-131588782D01*
X235675140Y-131571365D01*
X235731406Y-131549177D01*
X235742284Y-131547870D01*
X235754001Y-131543771D01*
X235839000Y-131535800D01*
X236601000Y-131535800D01*
X236685999Y-131543771D01*
X236697712Y-131547869D01*
X236708592Y-131549176D01*
X236764857Y-131571364D01*
X236814635Y-131588782D01*
X236821071Y-131593532D01*
X236824788Y-131594998D01*
X236887758Y-131642749D01*
X236924289Y-131669711D01*
X236951259Y-131706253D01*
X236999001Y-131769211D01*
X237000466Y-131772926D01*
X237005218Y-131779365D01*
X237022642Y-131829162D01*
X237044822Y-131885406D01*
X237046127Y-131896280D01*
X237050229Y-131908001D01*
X237058200Y-131993000D01*
X237058200Y-132042804D01*
X237095396Y-132080000D01*
X237884603Y-132080000D01*
X237921800Y-132042803D01*
X237921800Y-131996798D01*
X237921800Y-131993000D01*
X237929771Y-131908001D01*
X237933869Y-131896288D01*
X237935176Y-131885407D01*
X237957367Y-131829133D01*
X237974782Y-131779365D01*
X237979531Y-131772929D01*
X237980998Y-131769211D01*
X238028777Y-131706204D01*
X238055711Y-131669711D01*
X238092204Y-131642777D01*
X238155211Y-131594998D01*
X238158929Y-131593531D01*
X238165365Y-131588782D01*
X238215140Y-131571365D01*
X238271406Y-131549177D01*
X238282284Y-131547870D01*
X238294001Y-131543771D01*
X238379000Y-131535800D01*
X239141000Y-131535800D01*
X239225999Y-131543771D01*
X239237712Y-131547869D01*
X239248592Y-131549176D01*
X239304857Y-131571364D01*
X239354635Y-131588782D01*
X239361071Y-131593532D01*
X239364788Y-131594998D01*
X239427758Y-131642749D01*
X239464289Y-131669711D01*
X239491259Y-131706253D01*
X239539001Y-131769211D01*
X239540466Y-131772926D01*
X239545218Y-131779365D01*
X239562642Y-131829162D01*
X239584822Y-131885406D01*
X239586127Y-131896280D01*
X239590229Y-131908001D01*
X239598200Y-131993000D01*
X239598200Y-132042804D01*
X239635396Y-132080000D01*
X240424603Y-132080000D01*
X240461800Y-132042803D01*
X240461800Y-131996798D01*
X240461800Y-131993000D01*
X240469771Y-131908001D01*
X240473869Y-131896288D01*
X240475176Y-131885407D01*
X240497367Y-131829133D01*
X240514782Y-131779365D01*
X240519531Y-131772929D01*
X240520998Y-131769211D01*
X240568777Y-131706204D01*
X240595711Y-131669711D01*
X240632204Y-131642777D01*
X240695211Y-131594998D01*
X240698929Y-131593531D01*
X240705365Y-131588782D01*
X240755140Y-131571365D01*
X240811406Y-131549177D01*
X240822284Y-131547870D01*
X240834001Y-131543771D01*
X240919000Y-131535800D01*
X241681000Y-131535800D01*
X241765999Y-131543771D01*
X241777712Y-131547869D01*
X241788592Y-131549176D01*
X241844857Y-131571364D01*
X241894635Y-131588782D01*
X241901071Y-131593532D01*
X241904788Y-131594998D01*
X241967758Y-131642749D01*
X242004289Y-131669711D01*
X242031259Y-131706253D01*
X242079001Y-131769211D01*
X242080466Y-131772926D01*
X242085218Y-131779365D01*
X242102642Y-131829162D01*
X242124822Y-131885406D01*
X242126127Y-131896280D01*
X242130229Y-131908001D01*
X242138200Y-131993000D01*
X242138200Y-132042804D01*
X242175396Y-132080000D01*
X242964603Y-132080000D01*
X243001800Y-132042803D01*
X243001800Y-131996798D01*
X243001800Y-131993000D01*
X243009771Y-131908001D01*
X243013869Y-131896288D01*
X243015176Y-131885407D01*
X243037367Y-131829133D01*
X243054782Y-131779365D01*
X243059531Y-131772929D01*
X243060998Y-131769211D01*
X243108777Y-131706204D01*
X243135711Y-131669711D01*
X243172204Y-131642777D01*
X243235211Y-131594998D01*
X243238929Y-131593531D01*
X243245365Y-131588782D01*
X243295140Y-131571365D01*
X243351406Y-131549177D01*
X243362284Y-131547870D01*
X243374001Y-131543771D01*
X243459000Y-131535800D01*
X244221000Y-131535800D01*
X244305999Y-131543771D01*
X244317712Y-131547869D01*
X244328592Y-131549176D01*
X244384857Y-131571364D01*
X244434635Y-131588782D01*
X244441071Y-131593532D01*
X244444788Y-131594998D01*
X244507758Y-131642749D01*
X244544289Y-131669711D01*
X244571259Y-131706253D01*
X244619001Y-131769211D01*
X244620466Y-131772926D01*
X244625218Y-131779365D01*
X244642642Y-131829162D01*
X244664822Y-131885406D01*
X244666127Y-131896280D01*
X244670229Y-131908001D01*
X244678200Y-131993000D01*
X244678200Y-132042804D01*
X244715396Y-132080000D01*
X245504603Y-132080000D01*
X245541800Y-132042803D01*
X245541800Y-131996798D01*
X245541800Y-131993000D01*
X245549771Y-131908001D01*
X245553869Y-131896288D01*
X245555176Y-131885407D01*
X245577367Y-131829133D01*
X245594782Y-131779365D01*
X245599531Y-131772929D01*
X245600998Y-131769211D01*
X245648777Y-131706204D01*
X245675711Y-131669711D01*
X245712204Y-131642777D01*
X245775211Y-131594998D01*
X245778929Y-131593531D01*
X245785365Y-131588782D01*
X245835140Y-131571365D01*
X245891406Y-131549177D01*
X245902284Y-131547870D01*
X245914001Y-131543771D01*
X245999000Y-131535800D01*
X246761000Y-131535800D01*
X246845999Y-131543771D01*
X246857712Y-131547869D01*
X246868592Y-131549176D01*
X246924857Y-131571364D01*
X246974635Y-131588782D01*
X246981071Y-131593532D01*
X246984788Y-131594998D01*
X247047758Y-131642749D01*
X247084289Y-131669711D01*
X247111259Y-131706253D01*
X247159001Y-131769211D01*
X247160466Y-131772926D01*
X247165218Y-131779365D01*
X247182642Y-131829162D01*
X247204822Y-131885406D01*
X247206127Y-131896280D01*
X247210229Y-131908001D01*
X247218200Y-131993000D01*
X247218200Y-132042804D01*
X247255396Y-132080000D01*
X248044603Y-132080000D01*
X248081800Y-132042803D01*
X248081800Y-131996798D01*
X248081800Y-131993000D01*
X248089771Y-131908001D01*
X248093869Y-131896288D01*
X248095176Y-131885407D01*
X248117367Y-131829133D01*
X248134782Y-131779365D01*
X248139531Y-131772929D01*
X248140998Y-131769211D01*
X248188777Y-131706204D01*
X248215711Y-131669711D01*
X248252204Y-131642777D01*
X248315211Y-131594998D01*
X248318929Y-131593531D01*
X248325365Y-131588782D01*
X248375140Y-131571365D01*
X248431406Y-131549177D01*
X248442284Y-131547870D01*
X248454001Y-131543771D01*
X248539000Y-131535800D01*
X249301000Y-131535800D01*
X249385999Y-131543771D01*
X249397712Y-131547869D01*
X249408592Y-131549176D01*
X249464857Y-131571364D01*
X249514635Y-131588782D01*
X249521071Y-131593532D01*
X249524788Y-131594998D01*
X249587758Y-131642749D01*
X249624289Y-131669711D01*
X249651259Y-131706253D01*
X249699001Y-131769211D01*
X249700466Y-131772926D01*
X249705218Y-131779365D01*
X249722642Y-131829162D01*
X249744822Y-131885406D01*
X249746127Y-131896280D01*
X249750229Y-131908001D01*
X249758200Y-131993000D01*
X249758200Y-132042804D01*
X249795396Y-132080000D01*
X250584603Y-132080000D01*
X250621800Y-132042803D01*
X250621800Y-131996798D01*
X250621800Y-131993000D01*
X250629771Y-131908001D01*
X250633869Y-131896288D01*
X250635176Y-131885407D01*
X250657367Y-131829133D01*
X250674782Y-131779365D01*
X250679531Y-131772929D01*
X250680998Y-131769211D01*
X250728777Y-131706204D01*
X250755711Y-131669711D01*
X250792204Y-131642777D01*
X250855211Y-131594998D01*
X250858929Y-131593531D01*
X250865365Y-131588782D01*
X250915140Y-131571365D01*
X250971406Y-131549177D01*
X250982284Y-131547870D01*
X250994001Y-131543771D01*
X251079000Y-131535800D01*
X251841000Y-131535800D01*
X251925999Y-131543771D01*
X251937712Y-131547869D01*
X251948592Y-131549176D01*
X252004857Y-131571364D01*
X252054635Y-131588782D01*
X252061071Y-131593532D01*
X252064788Y-131594998D01*
X252127758Y-131642749D01*
X252164289Y-131669711D01*
X252191259Y-131706253D01*
X252239001Y-131769211D01*
X252240466Y-131772926D01*
X252245218Y-131779365D01*
X252262642Y-131829162D01*
X252284822Y-131885406D01*
X252286127Y-131896280D01*
X252290229Y-131908001D01*
X252298200Y-131993000D01*
X252298200Y-132042804D01*
X252335396Y-132080000D01*
X253124603Y-132080000D01*
X253161800Y-132042803D01*
X253161800Y-131996798D01*
X253161800Y-131993000D01*
X253169771Y-131908001D01*
X253173869Y-131896288D01*
X253175176Y-131885407D01*
X253197367Y-131829133D01*
X253214782Y-131779365D01*
X253219531Y-131772929D01*
X253220998Y-131769211D01*
X253268777Y-131706204D01*
X253295711Y-131669711D01*
X253332204Y-131642777D01*
X253395211Y-131594998D01*
X253398929Y-131593531D01*
X253405365Y-131588782D01*
X253455140Y-131571365D01*
X253511406Y-131549177D01*
X253522284Y-131547870D01*
X253534001Y-131543771D01*
X253619000Y-131535800D01*
X254381000Y-131535800D01*
X254465999Y-131543771D01*
X254477712Y-131547869D01*
X254488592Y-131549176D01*
X254544857Y-131571364D01*
X254594635Y-131588782D01*
X254601071Y-131593532D01*
X254604788Y-131594998D01*
X254667758Y-131642749D01*
X254704289Y-131669711D01*
X254731259Y-131706253D01*
X254779001Y-131769211D01*
X254780466Y-131772926D01*
X254785218Y-131779365D01*
X254802642Y-131829162D01*
X254824822Y-131885406D01*
X254826127Y-131896280D01*
X254830229Y-131908001D01*
X254838200Y-131993000D01*
X254838200Y-132042804D01*
X254875396Y-132080000D01*
X255664603Y-132080000D01*
X255701800Y-132042803D01*
X255701800Y-131996798D01*
X255701800Y-131993000D01*
X255709771Y-131908001D01*
X255713869Y-131896288D01*
X255715176Y-131885407D01*
X255737367Y-131829133D01*
X255754782Y-131779365D01*
X255759531Y-131772929D01*
X255760998Y-131769211D01*
X255808777Y-131706204D01*
X255835711Y-131669711D01*
X255872204Y-131642777D01*
X255935211Y-131594998D01*
X255938929Y-131593531D01*
X255945365Y-131588782D01*
X255995140Y-131571365D01*
X256051406Y-131549177D01*
X256062284Y-131547870D01*
X256074001Y-131543771D01*
X256159000Y-131535800D01*
X256921000Y-131535800D01*
X257005999Y-131543771D01*
X257017712Y-131547869D01*
X257028592Y-131549176D01*
X257084857Y-131571364D01*
X257134635Y-131588782D01*
X257141071Y-131593532D01*
X257144788Y-131594998D01*
X257207758Y-131642749D01*
X257244289Y-131669711D01*
X257271259Y-131706253D01*
X257319001Y-131769211D01*
X257320466Y-131772926D01*
X257325218Y-131779365D01*
X257342642Y-131829162D01*
X257364822Y-131885406D01*
X257366127Y-131896280D01*
X257370229Y-131908001D01*
X257378200Y-131993000D01*
X257378200Y-132042804D01*
X257415396Y-132080000D01*
X258204603Y-132080000D01*
X258241800Y-132042803D01*
X258241800Y-131996798D01*
X258241800Y-131993000D01*
X258249771Y-131908001D01*
X258253869Y-131896288D01*
X258255176Y-131885407D01*
X258277367Y-131829133D01*
X258294782Y-131779365D01*
X258299531Y-131772929D01*
X258300998Y-131769211D01*
X258348777Y-131706204D01*
X258375711Y-131669711D01*
X258412204Y-131642777D01*
X258475211Y-131594998D01*
X258478929Y-131593531D01*
X258485365Y-131588782D01*
X258535140Y-131571365D01*
X258591406Y-131549177D01*
X258602284Y-131547870D01*
X258614001Y-131543771D01*
X258699000Y-131535800D01*
X259461000Y-131535800D01*
X259545999Y-131543771D01*
X259557712Y-131547869D01*
X259568592Y-131549176D01*
X259624857Y-131571364D01*
X259674635Y-131588782D01*
X259681071Y-131593532D01*
X259684788Y-131594998D01*
X259747758Y-131642749D01*
X259784289Y-131669711D01*
X259811259Y-131706253D01*
X259859001Y-131769211D01*
X259860466Y-131772926D01*
X259865218Y-131779365D01*
X259882642Y-131829162D01*
X259904822Y-131885406D01*
X259906127Y-131896280D01*
X259910229Y-131908001D01*
X259918200Y-131993000D01*
X259918200Y-132042804D01*
X259955396Y-132080000D01*
X260744603Y-132080000D01*
X260781800Y-132042803D01*
X260781800Y-131996798D01*
X260781800Y-131993000D01*
X260789771Y-131908001D01*
X260793869Y-131896288D01*
X260795176Y-131885407D01*
X260817367Y-131829133D01*
X260834782Y-131779365D01*
X260839531Y-131772929D01*
X260840998Y-131769211D01*
X260888777Y-131706204D01*
X260915711Y-131669711D01*
X260952204Y-131642777D01*
X261015211Y-131594998D01*
X261018929Y-131593531D01*
X261025365Y-131588782D01*
X261075140Y-131571365D01*
X261131406Y-131549177D01*
X261142284Y-131547870D01*
X261154001Y-131543771D01*
X261239000Y-131535800D01*
X262001000Y-131535800D01*
X262085999Y-131543771D01*
X262097712Y-131547869D01*
X262108592Y-131549176D01*
X262164857Y-131571364D01*
X262214635Y-131588782D01*
X262221071Y-131593532D01*
X262224788Y-131594998D01*
X262287758Y-131642749D01*
X262324289Y-131669711D01*
X262351259Y-131706253D01*
X262399001Y-131769211D01*
X262400466Y-131772926D01*
X262405218Y-131779365D01*
X262422642Y-131829162D01*
X262444822Y-131885406D01*
X262446127Y-131896280D01*
X262450229Y-131908001D01*
X262458200Y-131993000D01*
X262458200Y-132042804D01*
X262495396Y-132080000D01*
X263284603Y-132080000D01*
X263321800Y-132042803D01*
X263321800Y-131996798D01*
X263321800Y-131993000D01*
X263329771Y-131908001D01*
X263333869Y-131896288D01*
X263335176Y-131885407D01*
X263357367Y-131829133D01*
X263374782Y-131779365D01*
X263379531Y-131772929D01*
X263380998Y-131769211D01*
X263428777Y-131706204D01*
X263455711Y-131669711D01*
X263492204Y-131642777D01*
X263555211Y-131594998D01*
X263558929Y-131593531D01*
X263565365Y-131588782D01*
X263615140Y-131571365D01*
X263671406Y-131549177D01*
X263682284Y-131547870D01*
X263694001Y-131543771D01*
X263779000Y-131535800D01*
X264541000Y-131535800D01*
X264625999Y-131543771D01*
X264637712Y-131547869D01*
X264648592Y-131549176D01*
X264704857Y-131571364D01*
X264754635Y-131588782D01*
X264761071Y-131593532D01*
X264764788Y-131594998D01*
X264827758Y-131642749D01*
X264864289Y-131669711D01*
X264891259Y-131706253D01*
X264939001Y-131769211D01*
X264940466Y-131772926D01*
X264945218Y-131779365D01*
X264962642Y-131829162D01*
X264984822Y-131885406D01*
X264986127Y-131896280D01*
X264990229Y-131908001D01*
X264998200Y-131993000D01*
X264998200Y-132042804D01*
X265035396Y-132080000D01*
X265824603Y-132080000D01*
X265861800Y-132042803D01*
X265861800Y-131996798D01*
X265861800Y-131993000D01*
X265869771Y-131908001D01*
X265873869Y-131896288D01*
X265875176Y-131885407D01*
X265897367Y-131829133D01*
X265914782Y-131779365D01*
X265919531Y-131772929D01*
X265920998Y-131769211D01*
X265968777Y-131706204D01*
X265995711Y-131669711D01*
X266032204Y-131642777D01*
X266095211Y-131594998D01*
X266098929Y-131593531D01*
X266105365Y-131588782D01*
X266155140Y-131571365D01*
X266211406Y-131549177D01*
X266222284Y-131547870D01*
X266234001Y-131543771D01*
X266319000Y-131535800D01*
X267081000Y-131535800D01*
X267165999Y-131543771D01*
X267177712Y-131547869D01*
X267188592Y-131549176D01*
X267244857Y-131571364D01*
X267294635Y-131588782D01*
X267301071Y-131593532D01*
X267304788Y-131594998D01*
X267367758Y-131642749D01*
X267404289Y-131669711D01*
X267431259Y-131706253D01*
X267479001Y-131769211D01*
X267480466Y-131772926D01*
X267485218Y-131779365D01*
X267502642Y-131829162D01*
X267524822Y-131885406D01*
X267526127Y-131896280D01*
X267530229Y-131908001D01*
X267538200Y-131993000D01*
X267538200Y-132042804D01*
X267575396Y-132080000D01*
X268364603Y-132080000D01*
X268401800Y-132042803D01*
X268401800Y-131996798D01*
X268401800Y-131993000D01*
X268409771Y-131908001D01*
X268413869Y-131896288D01*
X268415176Y-131885407D01*
X268437367Y-131829133D01*
X268454782Y-131779365D01*
X268459531Y-131772929D01*
X268460998Y-131769211D01*
X268508777Y-131706204D01*
X268535711Y-131669711D01*
X268572204Y-131642777D01*
X268635211Y-131594998D01*
X268638929Y-131593531D01*
X268645365Y-131588782D01*
X268695140Y-131571365D01*
X268751406Y-131549177D01*
X268762284Y-131547870D01*
X268774001Y-131543771D01*
X268859000Y-131535800D01*
X269621000Y-131535800D01*
X269705999Y-131543771D01*
X269717712Y-131547869D01*
X269728592Y-131549176D01*
X269784857Y-131571364D01*
X269834635Y-131588782D01*
X269841071Y-131593532D01*
X269844788Y-131594998D01*
X269907758Y-131642749D01*
X269944289Y-131669711D01*
X269971259Y-131706253D01*
X270019001Y-131769211D01*
X270020466Y-131772926D01*
X270025218Y-131779365D01*
X270042642Y-131829162D01*
X270064822Y-131885406D01*
X270066127Y-131896280D01*
X270070229Y-131908001D01*
X270078200Y-131993000D01*
X270078200Y-132042804D01*
X270115396Y-132080000D01*
X270904603Y-132080000D01*
X270941800Y-132042803D01*
X270941800Y-131996798D01*
X270941800Y-131993000D01*
X270949771Y-131908001D01*
X270953869Y-131896288D01*
X270955176Y-131885407D01*
X270977367Y-131829133D01*
X270994782Y-131779365D01*
X270999531Y-131772929D01*
X271000998Y-131769211D01*
X271048777Y-131706204D01*
X271075711Y-131669711D01*
X271112204Y-131642777D01*
X271175211Y-131594998D01*
X271178929Y-131593531D01*
X271185365Y-131588782D01*
X271235140Y-131571365D01*
X271291406Y-131549177D01*
X271302284Y-131547870D01*
X271314001Y-131543771D01*
X271399000Y-131535800D01*
X272161000Y-131535800D01*
X272245999Y-131543771D01*
X272257712Y-131547869D01*
X272268592Y-131549176D01*
X272324857Y-131571364D01*
X272374635Y-131588782D01*
X272381071Y-131593532D01*
X272384788Y-131594998D01*
X272447758Y-131642749D01*
X272484289Y-131669711D01*
X272511259Y-131706253D01*
X272559001Y-131769211D01*
X272560466Y-131772926D01*
X272565218Y-131779365D01*
X272582642Y-131829162D01*
X272604822Y-131885406D01*
X272606127Y-131896280D01*
X272610229Y-131908001D01*
X272618200Y-131993000D01*
X272618200Y-132042804D01*
X272655396Y-132080000D01*
X273444603Y-132080000D01*
X273481800Y-132042803D01*
X273481800Y-131996798D01*
X273481800Y-131993000D01*
X273489771Y-131908001D01*
X273493869Y-131896288D01*
X273495176Y-131885407D01*
X273517367Y-131829133D01*
X273534782Y-131779365D01*
X273539531Y-131772929D01*
X273540998Y-131769211D01*
X273588777Y-131706204D01*
X273615711Y-131669711D01*
X273652204Y-131642777D01*
X273715211Y-131594998D01*
X273718929Y-131593531D01*
X273725365Y-131588782D01*
X273775140Y-131571365D01*
X273831406Y-131549177D01*
X273842284Y-131547870D01*
X273854001Y-131543771D01*
X273939000Y-131535800D01*
X274701000Y-131535800D01*
X274785999Y-131543771D01*
X274797712Y-131547869D01*
X274808592Y-131549176D01*
X274864857Y-131571364D01*
X274914635Y-131588782D01*
X274921071Y-131593532D01*
X274924788Y-131594998D01*
X274987758Y-131642749D01*
X275024289Y-131669711D01*
X275051259Y-131706253D01*
X275099001Y-131769211D01*
X275100466Y-131772926D01*
X275105218Y-131779365D01*
X275122642Y-131829162D01*
X275144822Y-131885406D01*
X275146127Y-131896280D01*
X275150229Y-131908001D01*
X275158200Y-131993000D01*
X275158200Y-132042804D01*
X275195396Y-132080000D01*
X276606000Y-132080000D01*
X276606000Y-139446000D01*
X276098000Y-139954000D01*
X276085372Y-139954000D01*
X198894631Y-139954000D01*
X198882000Y-139954000D01*
X198374000Y-139446000D01*
X198374000Y-132080000D01*
X199784603Y-132080000D01*
X199821800Y-132042803D01*
X199821800Y-131996798D01*
X199821800Y-131993000D01*
X199829771Y-131908001D01*
X199833869Y-131896288D01*
X199835176Y-131885407D01*
X199857367Y-131829133D01*
X199874782Y-131779365D01*
X199879531Y-131772929D01*
X199880998Y-131769211D01*
X199928777Y-131706204D01*
X199955711Y-131669711D01*
X199992204Y-131642777D01*
X200055211Y-131594998D01*
X200058929Y-131593531D01*
X200065365Y-131588782D01*
X200115140Y-131571365D01*
X200171406Y-131549177D01*
X200182284Y-131547870D01*
X200194001Y-131543771D01*
X200279000Y-131535800D01*
X201041000Y-131535800D01*
X201125999Y-131543771D01*
G37*
G36*
X200821105Y-128834152D02*
G01*
X200974132Y-128887699D01*
X201111407Y-128973954D01*
X201226046Y-129088593D01*
X201312301Y-129225868D01*
X201365848Y-129378895D01*
X201384000Y-129540000D01*
X201365848Y-129701105D01*
X201312301Y-129854132D01*
X201226046Y-129991407D01*
X201111407Y-130106046D01*
X200974132Y-130192301D01*
X200821105Y-130245848D01*
X200660000Y-130264000D01*
X200498895Y-130245848D01*
X200345868Y-130192301D01*
X200208593Y-130106046D01*
X200093954Y-129991407D01*
X200007699Y-129854132D01*
X199954152Y-129701105D01*
X199936000Y-129540000D01*
X199954152Y-129378895D01*
X200007699Y-129225868D01*
X200093954Y-129088593D01*
X200208593Y-128973954D01*
X200345868Y-128887699D01*
X200498895Y-128834152D01*
X200660000Y-128816000D01*
X200821105Y-128834152D01*
G37*
G36*
X274614516Y-127361883D02*
G01*
X274799704Y-127433625D01*
X274968555Y-127538174D01*
X275115321Y-127671969D01*
X275235004Y-127830454D01*
X275323527Y-128008232D01*
X275377876Y-128199249D01*
X275396200Y-128397000D01*
X275377876Y-128594751D01*
X275323527Y-128785768D01*
X275235004Y-128963546D01*
X275115321Y-129122031D01*
X274968555Y-129255826D01*
X274799704Y-129360375D01*
X274614516Y-129432117D01*
X274419299Y-129468609D01*
X274220701Y-129468609D01*
X274025484Y-129432117D01*
X273840296Y-129360375D01*
X273671445Y-129255826D01*
X273524679Y-129122031D01*
X273404996Y-128963546D01*
X273316473Y-128785768D01*
X273262124Y-128594751D01*
X273243800Y-128397000D01*
X273262124Y-128199249D01*
X273316473Y-128008232D01*
X273404996Y-127830454D01*
X273524679Y-127671969D01*
X273671445Y-127538174D01*
X273840296Y-127433625D01*
X274025484Y-127361883D01*
X274220701Y-127325391D01*
X274419299Y-127325391D01*
X274614516Y-127361883D01*
G37*
G36*
X203800431Y-124231548D02*
G01*
X204013194Y-124288557D01*
X204212825Y-124381647D01*
X204393259Y-124507988D01*
X204549012Y-124663741D01*
X204675353Y-124844175D01*
X204768443Y-125043806D01*
X204825452Y-125256569D01*
X204844650Y-125476000D01*
X204825452Y-125695431D01*
X204768443Y-125908194D01*
X204675353Y-126107825D01*
X204549012Y-126288259D01*
X204393259Y-126444012D01*
X204212825Y-126570353D01*
X204013194Y-126663443D01*
X203800431Y-126720452D01*
X203581000Y-126739650D01*
X203361569Y-126720452D01*
X203148806Y-126663443D01*
X202949175Y-126570353D01*
X202768741Y-126444012D01*
X202612988Y-126288259D01*
X202486647Y-126107825D01*
X202393557Y-125908194D01*
X202336548Y-125695431D01*
X202317350Y-125476000D01*
X202336548Y-125256569D01*
X202393557Y-125043806D01*
X202486647Y-124844175D01*
X202612988Y-124663741D01*
X202768741Y-124507988D01*
X202949175Y-124381647D01*
X203148806Y-124288557D01*
X203361569Y-124231548D01*
X203581000Y-124212350D01*
X203800431Y-124231548D01*
G37*
G36*
X209515431Y-124231548D02*
G01*
X209728194Y-124288557D01*
X209927825Y-124381647D01*
X210108259Y-124507988D01*
X210264012Y-124663741D01*
X210390353Y-124844175D01*
X210483443Y-125043806D01*
X210540452Y-125256569D01*
X210559650Y-125476000D01*
X210540452Y-125695431D01*
X210483443Y-125908194D01*
X210390353Y-126107825D01*
X210264012Y-126288259D01*
X210108259Y-126444012D01*
X209927825Y-126570353D01*
X209728194Y-126663443D01*
X209515431Y-126720452D01*
X209296000Y-126739650D01*
X209076569Y-126720452D01*
X208863806Y-126663443D01*
X208664175Y-126570353D01*
X208483741Y-126444012D01*
X208327988Y-126288259D01*
X208201647Y-126107825D01*
X208108557Y-125908194D01*
X208051548Y-125695431D01*
X208032350Y-125476000D01*
X208051548Y-125256569D01*
X208108557Y-125043806D01*
X208201647Y-124844175D01*
X208327988Y-124663741D01*
X208483741Y-124507988D01*
X208664175Y-124381647D01*
X208863806Y-124288557D01*
X209076569Y-124231548D01*
X209296000Y-124212350D01*
X209515431Y-124231548D01*
G37*
G36*
X274481105Y-125151152D02*
G01*
X274634132Y-125204699D01*
X274771407Y-125290954D01*
X274886046Y-125405593D01*
X274972301Y-125542868D01*
X275025848Y-125695895D01*
X275044000Y-125857000D01*
X275025848Y-126018105D01*
X274972301Y-126171132D01*
X274886046Y-126308407D01*
X274771407Y-126423046D01*
X274634132Y-126509301D01*
X274481105Y-126562848D01*
X274320000Y-126581000D01*
X274158895Y-126562848D01*
X274005868Y-126509301D01*
X273868593Y-126423046D01*
X273753954Y-126308407D01*
X273667699Y-126171132D01*
X273614152Y-126018105D01*
X273596000Y-125857000D01*
X273614152Y-125695895D01*
X273667699Y-125542868D01*
X273753954Y-125405593D01*
X273868593Y-125290954D01*
X274005868Y-125204699D01*
X274158895Y-125151152D01*
X274320000Y-125133000D01*
X274481105Y-125151152D01*
G37*
G36*
X211236169Y-123385130D02*
G01*
X211269830Y-123385130D01*
X211308423Y-123394642D01*
X211348915Y-123399973D01*
X211376633Y-123411454D01*
X211403491Y-123418074D01*
X211444213Y-123439446D01*
X211486750Y-123457066D01*
X211506156Y-123471957D01*
X211525383Y-123482048D01*
X211564690Y-123516871D01*
X211605112Y-123547888D01*
X211616600Y-123562860D01*
X211628424Y-123573335D01*
X211662331Y-123622458D01*
X211695934Y-123666250D01*
X211700998Y-123678476D01*
X211706625Y-123686628D01*
X211731030Y-123750979D01*
X211753027Y-123804085D01*
X211754014Y-123811584D01*
X211755440Y-123815344D01*
X211766489Y-123906342D01*
X211772500Y-123952000D01*
X211766488Y-123997661D01*
X211755440Y-124088655D01*
X211754014Y-124092413D01*
X211753027Y-124099915D01*
X211731025Y-124153031D01*
X211706625Y-124217371D01*
X211700999Y-124225521D01*
X211695934Y-124237750D01*
X211662324Y-124281550D01*
X211628424Y-124330664D01*
X211616603Y-124341136D01*
X211605112Y-124356112D01*
X211564681Y-124387135D01*
X211525383Y-124421951D01*
X211506160Y-124432039D01*
X211486750Y-124446934D01*
X211444204Y-124464556D01*
X211403491Y-124485925D01*
X211376638Y-124492543D01*
X211348915Y-124504027D01*
X211308420Y-124509358D01*
X211269830Y-124518870D01*
X211236169Y-124518870D01*
X211201000Y-124523500D01*
X211165831Y-124518870D01*
X211132170Y-124518870D01*
X211093578Y-124509357D01*
X211053085Y-124504027D01*
X211025363Y-124492544D01*
X210998508Y-124485925D01*
X210957790Y-124464555D01*
X210915250Y-124446934D01*
X210895841Y-124432041D01*
X210876616Y-124421951D01*
X210837310Y-124387129D01*
X210796888Y-124356112D01*
X210785399Y-124341139D01*
X210773575Y-124330664D01*
X210739665Y-124281537D01*
X210706066Y-124237750D01*
X210701002Y-124225524D01*
X210695374Y-124217371D01*
X210670962Y-124153002D01*
X210648973Y-124099915D01*
X210647985Y-124092417D01*
X210646559Y-124088655D01*
X210635498Y-123997563D01*
X210629500Y-123952000D01*
X210635497Y-123906439D01*
X210646559Y-123815344D01*
X210647986Y-123811580D01*
X210648973Y-123804085D01*
X210670958Y-123751008D01*
X210695374Y-123686628D01*
X210701003Y-123678472D01*
X210706066Y-123666250D01*
X210739658Y-123622471D01*
X210773575Y-123573335D01*
X210785401Y-123562857D01*
X210796888Y-123547888D01*
X210837302Y-123516877D01*
X210876616Y-123482048D01*
X210895845Y-123471955D01*
X210915250Y-123457066D01*
X210957781Y-123439448D01*
X210998508Y-123418074D01*
X211025367Y-123411453D01*
X211053085Y-123399973D01*
X211093575Y-123394642D01*
X211132170Y-123385130D01*
X211165831Y-123385130D01*
X211201000Y-123380500D01*
X211236169Y-123385130D01*
G37*
G36*
X203616169Y-122369130D02*
G01*
X203649830Y-122369130D01*
X203688423Y-122378642D01*
X203728915Y-122383973D01*
X203756633Y-122395454D01*
X203783491Y-122402074D01*
X203824213Y-122423446D01*
X203866750Y-122441066D01*
X203886156Y-122455957D01*
X203905383Y-122466048D01*
X203944690Y-122500871D01*
X203985112Y-122531888D01*
X203996600Y-122546860D01*
X204008424Y-122557335D01*
X204042331Y-122606458D01*
X204075934Y-122650250D01*
X204080998Y-122662476D01*
X204086625Y-122670628D01*
X204111030Y-122734979D01*
X204133027Y-122788085D01*
X204134014Y-122795584D01*
X204135440Y-122799344D01*
X204146489Y-122890342D01*
X204152500Y-122936000D01*
X204146488Y-122981661D01*
X204135440Y-123072655D01*
X204134014Y-123076413D01*
X204133027Y-123083915D01*
X204111025Y-123137031D01*
X204086625Y-123201371D01*
X204080999Y-123209521D01*
X204075934Y-123221750D01*
X204042324Y-123265550D01*
X204008424Y-123314664D01*
X203996603Y-123325136D01*
X203985112Y-123340112D01*
X203944681Y-123371135D01*
X203905383Y-123405951D01*
X203886160Y-123416039D01*
X203866750Y-123430934D01*
X203824204Y-123448556D01*
X203783491Y-123469925D01*
X203756638Y-123476543D01*
X203728915Y-123488027D01*
X203688420Y-123493358D01*
X203649830Y-123502870D01*
X203616169Y-123502870D01*
X203581000Y-123507500D01*
X203545831Y-123502870D01*
X203512170Y-123502870D01*
X203473578Y-123493357D01*
X203433085Y-123488027D01*
X203405363Y-123476544D01*
X203378508Y-123469925D01*
X203337790Y-123448555D01*
X203295250Y-123430934D01*
X203275841Y-123416041D01*
X203256616Y-123405951D01*
X203217310Y-123371129D01*
X203176888Y-123340112D01*
X203165399Y-123325139D01*
X203153575Y-123314664D01*
X203119665Y-123265537D01*
X203086066Y-123221750D01*
X203081002Y-123209524D01*
X203075374Y-123201371D01*
X203050962Y-123137002D01*
X203028973Y-123083915D01*
X203027985Y-123076417D01*
X203026559Y-123072655D01*
X203015498Y-122981563D01*
X203009500Y-122936000D01*
X203015497Y-122890439D01*
X203026559Y-122799344D01*
X203027986Y-122795580D01*
X203028973Y-122788085D01*
X203050958Y-122735008D01*
X203075374Y-122670628D01*
X203081003Y-122662472D01*
X203086066Y-122650250D01*
X203119658Y-122606471D01*
X203153575Y-122557335D01*
X203165401Y-122546857D01*
X203176888Y-122531888D01*
X203217302Y-122500877D01*
X203256616Y-122466048D01*
X203275845Y-122455955D01*
X203295250Y-122441066D01*
X203337781Y-122423448D01*
X203378508Y-122402074D01*
X203405367Y-122395453D01*
X203433085Y-122383973D01*
X203473575Y-122378642D01*
X203512170Y-122369130D01*
X203545831Y-122369130D01*
X203581000Y-122364500D01*
X203616169Y-122369130D01*
G37*
G36*
X211236169Y-121353130D02*
G01*
X211269830Y-121353130D01*
X211308423Y-121362642D01*
X211348915Y-121367973D01*
X211376633Y-121379454D01*
X211403491Y-121386074D01*
X211444213Y-121407446D01*
X211486750Y-121425066D01*
X211506156Y-121439957D01*
X211525383Y-121450048D01*
X211564690Y-121484871D01*
X211605112Y-121515888D01*
X211616600Y-121530860D01*
X211628424Y-121541335D01*
X211662331Y-121590458D01*
X211695934Y-121634250D01*
X211700998Y-121646476D01*
X211706625Y-121654628D01*
X211731030Y-121718979D01*
X211753027Y-121772085D01*
X211754014Y-121779584D01*
X211755440Y-121783344D01*
X211766489Y-121874342D01*
X211772500Y-121920000D01*
X211766488Y-121965661D01*
X211755440Y-122056655D01*
X211754014Y-122060413D01*
X211753027Y-122067915D01*
X211731025Y-122121031D01*
X211706625Y-122185371D01*
X211700999Y-122193521D01*
X211695934Y-122205750D01*
X211662324Y-122249550D01*
X211628424Y-122298664D01*
X211616603Y-122309136D01*
X211605112Y-122324112D01*
X211564681Y-122355135D01*
X211525383Y-122389951D01*
X211506160Y-122400039D01*
X211486750Y-122414934D01*
X211444204Y-122432556D01*
X211403491Y-122453925D01*
X211376638Y-122460543D01*
X211348915Y-122472027D01*
X211308420Y-122477358D01*
X211269830Y-122486870D01*
X211236169Y-122486870D01*
X211201000Y-122491500D01*
X211165831Y-122486870D01*
X211132170Y-122486870D01*
X211093578Y-122477357D01*
X211053085Y-122472027D01*
X211025363Y-122460544D01*
X210998508Y-122453925D01*
X210957790Y-122432555D01*
X210915250Y-122414934D01*
X210895841Y-122400041D01*
X210876616Y-122389951D01*
X210837310Y-122355129D01*
X210796888Y-122324112D01*
X210785399Y-122309139D01*
X210773575Y-122298664D01*
X210739665Y-122249537D01*
X210706066Y-122205750D01*
X210701002Y-122193524D01*
X210695374Y-122185371D01*
X210670962Y-122121002D01*
X210648973Y-122067915D01*
X210647985Y-122060417D01*
X210646559Y-122056655D01*
X210635498Y-121965563D01*
X210629500Y-121920000D01*
X210635497Y-121874439D01*
X210646559Y-121783344D01*
X210647986Y-121779580D01*
X210648973Y-121772085D01*
X210670958Y-121719008D01*
X210695374Y-121654628D01*
X210701003Y-121646472D01*
X210706066Y-121634250D01*
X210739658Y-121590471D01*
X210773575Y-121541335D01*
X210785401Y-121530857D01*
X210796888Y-121515888D01*
X210837302Y-121484877D01*
X210876616Y-121450048D01*
X210895845Y-121439955D01*
X210915250Y-121425066D01*
X210957781Y-121407448D01*
X210998508Y-121386074D01*
X211025367Y-121379453D01*
X211053085Y-121367973D01*
X211093575Y-121362642D01*
X211132170Y-121353130D01*
X211165831Y-121353130D01*
X211201000Y-121348500D01*
X211236169Y-121353130D01*
G37*
G36*
X203800431Y-119151548D02*
G01*
X204013194Y-119208557D01*
X204212825Y-119301647D01*
X204393259Y-119427988D01*
X204549012Y-119583741D01*
X204675353Y-119764175D01*
X204768443Y-119963806D01*
X204825452Y-120176569D01*
X204844650Y-120396000D01*
X204825452Y-120615431D01*
X204768443Y-120828194D01*
X204675353Y-121027825D01*
X204549012Y-121208259D01*
X204393259Y-121364012D01*
X204212825Y-121490353D01*
X204013194Y-121583443D01*
X203800431Y-121640452D01*
X203581000Y-121659650D01*
X203361569Y-121640452D01*
X203148806Y-121583443D01*
X202949175Y-121490353D01*
X202768741Y-121364012D01*
X202612988Y-121208259D01*
X202486647Y-121027825D01*
X202393557Y-120828194D01*
X202336548Y-120615431D01*
X202317350Y-120396000D01*
X202336548Y-120176569D01*
X202393557Y-119963806D01*
X202486647Y-119764175D01*
X202612988Y-119583741D01*
X202768741Y-119427988D01*
X202949175Y-119301647D01*
X203148806Y-119208557D01*
X203361569Y-119151548D01*
X203581000Y-119132350D01*
X203800431Y-119151548D01*
G37*
G36*
X209515431Y-119151548D02*
G01*
X209728194Y-119208557D01*
X209927825Y-119301647D01*
X210108259Y-119427988D01*
X210264012Y-119583741D01*
X210390353Y-119764175D01*
X210483443Y-119963806D01*
X210540452Y-120176569D01*
X210559650Y-120396000D01*
X210540452Y-120615431D01*
X210483443Y-120828194D01*
X210390353Y-121027825D01*
X210264012Y-121208259D01*
X210108259Y-121364012D01*
X209927825Y-121490353D01*
X209728194Y-121583443D01*
X209515431Y-121640452D01*
X209296000Y-121659650D01*
X209076569Y-121640452D01*
X208863806Y-121583443D01*
X208664175Y-121490353D01*
X208483741Y-121364012D01*
X208327988Y-121208259D01*
X208201647Y-121027825D01*
X208108557Y-120828194D01*
X208051548Y-120615431D01*
X208032350Y-120396000D01*
X208051548Y-120176569D01*
X208108557Y-119963806D01*
X208201647Y-119764175D01*
X208327988Y-119583741D01*
X208483741Y-119427988D01*
X208664175Y-119301647D01*
X208863806Y-119208557D01*
X209076569Y-119151548D01*
X209296000Y-119132350D01*
X209515431Y-119151548D01*
G37*
G36*
X201215515Y-105124756D02*
G01*
X201225637Y-105129476D01*
X201232146Y-105130507D01*
X201278513Y-105154132D01*
X201321336Y-105174101D01*
X201325109Y-105177874D01*
X201325646Y-105178148D01*
X201399851Y-105252353D01*
X201400124Y-105252889D01*
X201403899Y-105256664D01*
X201423872Y-105299498D01*
X201447492Y-105345853D01*
X201448522Y-105352359D01*
X201453244Y-105362485D01*
X201464700Y-105449500D01*
X201464700Y-107529500D01*
X201453244Y-107616515D01*
X201448522Y-107626640D01*
X201447492Y-107633146D01*
X201423878Y-107679490D01*
X201403899Y-107722336D01*
X201400123Y-107726111D01*
X201399851Y-107726646D01*
X201325646Y-107800851D01*
X201325111Y-107801123D01*
X201321336Y-107804899D01*
X201278490Y-107824878D01*
X201232146Y-107848492D01*
X201225640Y-107849522D01*
X201215515Y-107854244D01*
X201128500Y-107865700D01*
X199048500Y-107865700D01*
X198961485Y-107854244D01*
X198951359Y-107849522D01*
X198944853Y-107848492D01*
X198898498Y-107824872D01*
X198855664Y-107804899D01*
X198851889Y-107801124D01*
X198851353Y-107800851D01*
X198777148Y-107726646D01*
X198776874Y-107726109D01*
X198773101Y-107722336D01*
X198753132Y-107679513D01*
X198729507Y-107633146D01*
X198728476Y-107626637D01*
X198723756Y-107616515D01*
X198712300Y-107529500D01*
X198712300Y-105449500D01*
X198723756Y-105362485D01*
X198728475Y-105352363D01*
X198729507Y-105345853D01*
X198753138Y-105299474D01*
X198773101Y-105256664D01*
X198776873Y-105252891D01*
X198777148Y-105252353D01*
X198851353Y-105178148D01*
X198851891Y-105177873D01*
X198855664Y-105174101D01*
X198898474Y-105154138D01*
X198944853Y-105130507D01*
X198951363Y-105129475D01*
X198961485Y-105124756D01*
X199048500Y-105113300D01*
X201128500Y-105113300D01*
X201215515Y-105124756D01*
G37*
G36*
X207312402Y-95471874D02*
G01*
X207360814Y-95471874D01*
X207402615Y-95480759D01*
X207444630Y-95484897D01*
X207497411Y-95500908D01*
X207550212Y-95512131D01*
X207584000Y-95527174D01*
X207618325Y-95537587D01*
X207672873Y-95566743D01*
X207727100Y-95590887D01*
X207752310Y-95609203D01*
X207778399Y-95623148D01*
X207831618Y-95666823D01*
X207883749Y-95704699D01*
X207900674Y-95723497D01*
X207918705Y-95738294D01*
X207967154Y-95797330D01*
X208013312Y-95848593D01*
X208023009Y-95865389D01*
X208033851Y-95878600D01*
X208073961Y-95953642D01*
X208110126Y-96016281D01*
X208114285Y-96029083D01*
X208119412Y-96038674D01*
X208147680Y-96131862D01*
X208169960Y-96200432D01*
X208170744Y-96207892D01*
X208172102Y-96212369D01*
X208185308Y-96346457D01*
X208190200Y-96393000D01*
X208185307Y-96439546D01*
X208172102Y-96573630D01*
X208170744Y-96578105D01*
X208169960Y-96585568D01*
X208147675Y-96654151D01*
X208119412Y-96747325D01*
X208114286Y-96756914D01*
X208110126Y-96769719D01*
X208073954Y-96832370D01*
X208033851Y-96907399D01*
X208023011Y-96920607D01*
X208013312Y-96937407D01*
X207967145Y-96988679D01*
X207918705Y-97047705D01*
X207900678Y-97062499D01*
X207883749Y-97081301D01*
X207831607Y-97119183D01*
X207778399Y-97162851D01*
X207752315Y-97176792D01*
X207727100Y-97195113D01*
X207672862Y-97219261D01*
X207618325Y-97248412D01*
X207584007Y-97258822D01*
X207550212Y-97273869D01*
X207497400Y-97285094D01*
X207444630Y-97301102D01*
X207402624Y-97305239D01*
X207360814Y-97314126D01*
X207312391Y-97314126D01*
X207264000Y-97318892D01*
X207215608Y-97314126D01*
X207167186Y-97314126D01*
X207125376Y-97305239D01*
X207083369Y-97301102D01*
X207030596Y-97285093D01*
X206977788Y-97273869D01*
X206943994Y-97258822D01*
X206909674Y-97248412D01*
X206855131Y-97219258D01*
X206800900Y-97195113D01*
X206775687Y-97176794D01*
X206749600Y-97162851D01*
X206696383Y-97119177D01*
X206644251Y-97081301D01*
X206627324Y-97062502D01*
X206609294Y-97047705D01*
X206560843Y-96988667D01*
X206514688Y-96937407D01*
X206504991Y-96920611D01*
X206494148Y-96907399D01*
X206454032Y-96832347D01*
X206417874Y-96769719D01*
X206413714Y-96756918D01*
X206408587Y-96747325D01*
X206380308Y-96654105D01*
X206358040Y-96585568D01*
X206357256Y-96578110D01*
X206355897Y-96573630D01*
X206342676Y-96439394D01*
X206337800Y-96393000D01*
X206342675Y-96346608D01*
X206355897Y-96212369D01*
X206357256Y-96207887D01*
X206358040Y-96200432D01*
X206380304Y-96131908D01*
X206408587Y-96038674D01*
X206413715Y-96029078D01*
X206417874Y-96016281D01*
X206454024Y-95953665D01*
X206494148Y-95878600D01*
X206504993Y-95865385D01*
X206514688Y-95848593D01*
X206560833Y-95797342D01*
X206609294Y-95738294D01*
X206627327Y-95723494D01*
X206644251Y-95704699D01*
X206696373Y-95666830D01*
X206749600Y-95623148D01*
X206775692Y-95609201D01*
X206800900Y-95590887D01*
X206855120Y-95566746D01*
X206909674Y-95537587D01*
X206944001Y-95527173D01*
X206977788Y-95512131D01*
X207030585Y-95500908D01*
X207083369Y-95484897D01*
X207125384Y-95480758D01*
X207167186Y-95471874D01*
X207215598Y-95471874D01*
X207264000Y-95467107D01*
X207312402Y-95471874D01*
G37*
G36*
X207948427Y-92937915D02*
G01*
X207958323Y-92942529D01*
X207964556Y-92943517D01*
X208008954Y-92966139D01*
X208051101Y-92985793D01*
X208054815Y-92989507D01*
X208055268Y-92989738D01*
X208127261Y-93061731D01*
X208127491Y-93062183D01*
X208131207Y-93065899D01*
X208150865Y-93108056D01*
X208173482Y-93152443D01*
X208174468Y-93158673D01*
X208179085Y-93168573D01*
X208190200Y-93253000D01*
X208190200Y-94453000D01*
X208179085Y-94537427D01*
X208174468Y-94547326D01*
X208173482Y-94553556D01*
X208150871Y-94597931D01*
X208131207Y-94640101D01*
X208127490Y-94643817D01*
X208127261Y-94644268D01*
X208055268Y-94716261D01*
X208054817Y-94716490D01*
X208051101Y-94720207D01*
X208008931Y-94739871D01*
X207964556Y-94762482D01*
X207958327Y-94763468D01*
X207948427Y-94768085D01*
X207864000Y-94779200D01*
X206664000Y-94779200D01*
X206579573Y-94768085D01*
X206569673Y-94763468D01*
X206563443Y-94762482D01*
X206519056Y-94739865D01*
X206476899Y-94720207D01*
X206473183Y-94716491D01*
X206472731Y-94716261D01*
X206400738Y-94644268D01*
X206400507Y-94643815D01*
X206396793Y-94640101D01*
X206377139Y-94597954D01*
X206354517Y-94553556D01*
X206353529Y-94547323D01*
X206348915Y-94537427D01*
X206337800Y-94453000D01*
X206337800Y-93253000D01*
X206348915Y-93168573D01*
X206353529Y-93158676D01*
X206354517Y-93152443D01*
X206377145Y-93108033D01*
X206396793Y-93065899D01*
X206400506Y-93062185D01*
X206400738Y-93061731D01*
X206472731Y-92989738D01*
X206473185Y-92989506D01*
X206476899Y-92985793D01*
X206519033Y-92966145D01*
X206563443Y-92943517D01*
X206569676Y-92942529D01*
X206579573Y-92937915D01*
X206664000Y-92926800D01*
X207864000Y-92926800D01*
X207948427Y-92937915D01*
G37*
G36*
X201075105Y-91496152D02*
G01*
X201228132Y-91549699D01*
X201365407Y-91635954D01*
X201480046Y-91750593D01*
X201566301Y-91887868D01*
X201619848Y-92040895D01*
X201638000Y-92202000D01*
X201619848Y-92363105D01*
X201566301Y-92516132D01*
X201480046Y-92653407D01*
X201365407Y-92768046D01*
X201228132Y-92854301D01*
X201075105Y-92907848D01*
X200914000Y-92926000D01*
X200752895Y-92907848D01*
X200599868Y-92854301D01*
X200462593Y-92768046D01*
X200347954Y-92653407D01*
X200261699Y-92516132D01*
X200208152Y-92363105D01*
X200190000Y-92202000D01*
X200208152Y-92040895D01*
X200261699Y-91887868D01*
X200347954Y-91750593D01*
X200462593Y-91635954D01*
X200599868Y-91549699D01*
X200752895Y-91496152D01*
X200914000Y-91478000D01*
X201075105Y-91496152D01*
G37*
G36*
X274227105Y-91496152D02*
G01*
X274380132Y-91549699D01*
X274517407Y-91635954D01*
X274632046Y-91750593D01*
X274718301Y-91887868D01*
X274771848Y-92040895D01*
X274790000Y-92202000D01*
X274771848Y-92363105D01*
X274718301Y-92516132D01*
X274632046Y-92653407D01*
X274517407Y-92768046D01*
X274380132Y-92854301D01*
X274227105Y-92907848D01*
X274066000Y-92926000D01*
X273904895Y-92907848D01*
X273751868Y-92854301D01*
X273614593Y-92768046D01*
X273499954Y-92653407D01*
X273413699Y-92516132D01*
X273360152Y-92363105D01*
X273342000Y-92202000D01*
X273360152Y-92040895D01*
X273413699Y-91887868D01*
X273499954Y-91750593D01*
X273614593Y-91635954D01*
X273751868Y-91549699D01*
X273904895Y-91496152D01*
X274066000Y-91478000D01*
X274227105Y-91496152D01*
G37*
M02*
