M48
; DRILL file {KiCad (5.1.2-1)-1} date Tuesday, July 30, 2019 at 05:06:58 PM
; FORMAT={-:-/ absolute / inch / decimal}
; #@! TF.CreationDate,2019-07-30T17:06:58-04:00
; #@! TF.GenerationSoftware,Kicad,Pcbnew,(5.1.2-1)-1
FMAT,2
INCH
T1C0.0118
T2C0.0157
T3C0.0300
T4C0.0433
%
G90
G05
T1
X7.84Y-3.55
X7.84Y-3.65
X7.84Y-3.75
X7.84Y-3.85
X7.84Y-3.95
X7.84Y-4.05
X7.84Y-4.15
X7.84Y-4.25
X7.84Y-4.35
X7.84Y-4.45
X7.84Y-4.55
X7.84Y-4.65
X7.84Y-4.75
X7.84Y-4.85
X7.84Y-4.95
X7.84Y-5.05
X7.84Y-5.16
X7.865Y-3.465
X7.895Y-3.6
X7.895Y-3.7
X7.895Y-3.8
X7.895Y-3.9
X7.895Y-4.0
X7.895Y-4.1
X7.895Y-4.2
X7.895Y-4.3
X7.895Y-4.4
X7.895Y-4.5
X7.895Y-4.6
X7.895Y-4.7
X7.895Y-4.8
X7.895Y-4.9
X7.895Y-5.0
X7.925Y-5.11
X7.95Y-3.65
X7.95Y-3.75
X7.95Y-3.85
X7.95Y-3.95
X7.95Y-4.05
X7.95Y-4.15
X7.95Y-4.25
X7.95Y-4.35
X7.95Y-4.45
X7.95Y-4.55
X7.95Y-4.65
X7.95Y-4.75
X7.95Y-4.85
X7.95Y-4.95
X7.95Y-5.16
X7.955Y-3.445
X8.0Y-3.5
X8.0Y-3.6
X8.0Y-3.7
X8.0Y-3.8
X8.0Y-3.9
X8.0Y-4.0
X8.0Y-4.1
X8.0Y-4.2
X8.0Y-4.3
X8.0Y-4.4
X8.0Y-4.6
X8.0Y-4.7
X8.0Y-4.8
X8.0Y-4.9
X8.0Y-5.035
X8.015Y-4.51
X8.045Y-4.55
X8.05Y-3.445
X8.05Y-3.65
X8.05Y-4.65
X8.05Y-4.75
X8.05Y-4.85
X8.05Y-5.16
X8.075Y-5.075
X8.1Y-3.6
X8.1Y-5.015
X8.105Y-4.7
X8.105Y-4.8
X8.115Y-4.545
X8.115Y-4.92
X8.13Y-3.74
X8.13Y-3.85
X8.13Y-3.95
X8.13Y-4.05
X8.13Y-4.15
X8.13Y-4.25
X8.13Y-4.35
X8.15Y-3.445
X8.15Y-3.55
X8.16Y-4.45
X8.16Y-4.59
X8.16Y-4.66
X8.16Y-4.75
X8.16Y-4.85
X8.17Y-3.69
X8.175Y-3.795
X8.175Y-3.9
X8.175Y-4.0
X8.175Y-4.1
X8.175Y-4.2
X8.175Y-4.3
X8.2Y-3.5
X8.215Y-3.645
X8.215Y-3.745
X8.215Y-3.85
X8.215Y-3.95
X8.215Y-4.05
X8.215Y-4.15
X8.215Y-4.25
X8.215Y-4.35
X8.215Y-4.97
X8.2325Y-4.8375
X8.235Y-4.87
X8.24Y-4.92
X8.25Y-3.445
X8.25Y-5.065
X8.25Y-5.16
X8.265Y-3.595
X8.265Y-3.685
X8.265Y-3.795
X8.265Y-3.9
X8.265Y-4.0
X8.265Y-4.1
X8.265Y-4.2
X8.265Y-4.3
X8.2675Y-4.8725
X8.27Y-4.905
X8.27Y-4.97
X8.295Y-4.59
X8.295Y-4.66
X8.3Y-5.01
X8.3025Y-4.9075
X8.305Y-4.51
X8.305Y-4.94
X8.315Y-3.545
X8.315Y-3.645
X8.315Y-3.745
X8.315Y-3.85
X8.315Y-3.95
X8.315Y-4.05
X8.315Y-4.15
X8.315Y-4.25
X8.3325Y-4.7375
X8.3375Y-4.9425
X8.34Y-4.975
X8.35Y-3.445
X8.35Y-5.03
X8.35Y-5.16
X8.355Y-3.595
X8.355Y-3.685
X8.355Y-3.795
X8.365Y-4.74
X8.3675Y-4.7725
X8.37Y-4.695
X8.3725Y-4.9775
X8.375Y-5.01
X8.39Y-3.725
X8.395Y-3.545
X8.395Y-3.645
X8.4Y-4.775
X8.4Y-5.09
X8.4025Y-4.8075
X8.4075Y-5.0125
X8.41Y-5.045
X8.43Y-5.1
X8.435Y-4.81
X8.4375Y-4.8425
X8.4425Y-5.0475
X8.45Y-3.445
X8.45Y-5.16
X8.465Y-3.545
X8.465Y-3.645
X8.47Y-4.845
X8.4725Y-4.8775
X8.5Y-5.145
X8.505Y-3.595
X8.505Y-4.88
X8.5075Y-4.9125
X8.54Y-4.915
X8.5425Y-4.9475
X8.55Y-3.445
X8.55Y-3.545
X8.55Y-3.645
X8.55Y-5.16
X8.575Y-3.875
X8.575Y-4.15
X8.575Y-4.525
X8.575Y-4.85
X8.575Y-4.9
X8.5825Y-4.9575
X8.585Y-3.925
X8.585Y-3.975
X8.585Y-4.025
X8.585Y-4.075
X8.585Y-4.225
X8.585Y-4.275
X8.595Y-4.995
X8.6Y-3.695
X8.6Y-3.795
X8.61Y-4.83
X8.645Y-4.85
X8.645Y-4.9
X8.65Y-3.445
X8.65Y-3.545
X8.65Y-3.645
X8.65Y-3.745
X8.65Y-5.16
X8.665Y-4.705
X8.675Y-4.995
X8.7Y-3.695
X8.7Y-3.795
X8.7Y-4.975
X8.705Y-4.735
X8.72Y-4.845
X8.725Y-4.995
X8.73Y-4.905
X8.735Y-4.875
X8.74Y-4.935
X8.75Y-3.445
X8.75Y-3.545
X8.75Y-3.645
X8.75Y-5.125
X8.75Y-5.16
X8.765Y-4.875
X8.77Y-4.945
X8.795Y-4.88
X8.8Y-3.795
X8.8Y-4.845
X8.805Y-4.91
X8.82Y-5.105
X8.825Y-4.995
X8.835Y-4.56
X8.84Y-4.735
X8.845Y-4.325
X8.85Y-3.445
X8.85Y-3.545
X8.85Y-3.645
X8.85Y-3.845
X8.85Y-4.975
X8.85Y-5.16
X8.855Y-4.1
X8.865Y-4.78
X8.87Y-4.565
X8.875Y-4.15
X8.875Y-4.225
X8.875Y-4.995
X8.88Y-4.595
X8.88Y-4.91
X8.885Y-4.045
X8.895Y-4.785
X8.895Y-5.105
X8.9Y-3.795
X8.9Y-3.895
X8.91Y-4.6
X8.915Y-4.63
X8.925Y-4.175
X8.945Y-4.635
X8.95Y-3.445
X8.95Y-3.545
X8.95Y-3.645
X8.95Y-3.845
X8.95Y-4.665
X8.95Y-4.995
X8.95Y-5.09
X8.95Y-5.125
X8.95Y-5.16
X8.955Y-4.475
X8.975Y-4.035
X8.975Y-4.1
X8.975Y-4.15
X8.975Y-4.225
X8.98Y-4.67
X8.985Y-4.525
X8.985Y-4.7
X9.0Y-3.795
X9.0Y-3.895
X9.015Y-4.705
X9.015Y-4.74
X9.02Y-4.575
X9.025Y-4.175
X9.03Y-4.77
X9.035Y-4.995
X9.035Y-5.075
X9.05Y-3.445
X9.05Y-3.545
X9.05Y-3.645
X9.05Y-3.845
X9.05Y-5.125
X9.05Y-5.16
X9.065Y-4.045
X9.065Y-4.365
X9.075Y-4.15
X9.075Y-4.225
X9.09Y-4.1
X9.09Y-4.31
X9.095Y-4.755
X9.095Y-4.825
X9.1Y-3.795
X9.1Y-3.895
X9.1Y-4.675
X9.1Y-4.995
X9.1Y-5.06
X9.125Y-4.175
X9.135Y-4.35
X9.135Y-4.6
X9.15Y-3.445
X9.15Y-3.545
X9.15Y-3.645
X9.15Y-3.845
X9.15Y-5.16
X9.2Y-3.695
X9.2Y-3.795
X9.205Y-5.03
X9.235Y-4.35
X9.235Y-4.6
X9.25Y-3.445
X9.25Y-3.545
X9.25Y-3.645
X9.25Y-3.745
X9.25Y-3.785
X9.25Y-3.885
X9.25Y-4.225
X9.25Y-5.125
X9.25Y-5.16
X9.255Y-4.65
X9.26Y-3.95
X9.27Y-4.0
X9.275Y-4.775
X9.275Y-5.1
X9.28Y-4.05
X9.28Y-4.425
X9.28Y-4.475
X9.28Y-4.525
X9.28Y-4.575
X9.28Y-4.625
X9.29Y-4.1
X9.3Y-3.695
X9.305Y-4.4
X9.305Y-4.45
X9.305Y-4.5
X9.305Y-4.55
X9.305Y-4.6
X9.31Y-4.3
X9.33Y-4.625
X9.345Y-4.115
X9.35Y-3.445
X9.35Y-3.545
X9.35Y-3.645
X9.35Y-3.745
X9.35Y-4.85
X9.35Y-5.015
X9.35Y-5.16
X9.355Y-4.6
X9.375Y-4.325
X9.38Y-4.575
X9.4Y-3.595
X9.4Y-3.695
X9.4Y-4.65
X9.4Y-4.705
X9.4Y-4.8
X9.4Y-5.015
X9.425Y-4.275
X9.45Y-3.445
X9.45Y-3.745
X9.45Y-4.7
X9.45Y-4.85
X9.45Y-5.16
X9.475Y-4.225
X9.5Y-4.65
X9.5Y-4.8
X9.5Y-4.915
X9.5Y-5.015
X9.525Y-4.175
X9.55Y-3.445
X9.55Y-4.6
X9.55Y-4.7
X9.55Y-4.85
X9.55Y-5.16
X9.575Y-4.125
X9.6Y-3.655
X9.6Y-4.55
X9.6Y-4.65
X9.6Y-4.8
X9.6Y-5.015
X9.625Y-4.075
X9.65Y-3.445
X9.65Y-3.545
X9.65Y-3.74
X9.65Y-4.5
X9.65Y-4.6
X9.65Y-4.7
X9.65Y-4.85
X9.65Y-5.06
X9.65Y-5.16
X9.675Y-4.025
X9.7Y-3.655
X9.7Y-4.35
X9.7Y-4.45
X9.7Y-4.55
X9.7Y-4.65
X9.7Y-4.8
X9.7Y-5.015
X9.725Y-3.975
X9.75Y-3.445
X9.75Y-3.545
X9.75Y-3.74
X9.75Y-4.3
X9.75Y-4.5
X9.75Y-4.6
X9.75Y-4.7
X9.75Y-4.85
X9.75Y-5.16
X9.76Y-4.125
X9.76Y-4.175
X9.76Y-4.225
X9.8Y-3.655
X9.8Y-4.35
X9.8Y-4.45
X9.8Y-4.55
X9.8Y-4.65
X9.8Y-4.8
X9.81Y-3.975
X9.81Y-4.025
X9.81Y-4.075
X9.85Y-3.445
X9.85Y-3.545
X9.85Y-4.125
X9.85Y-4.3
X9.85Y-4.5
X9.85Y-4.6
X9.85Y-4.7
X9.85Y-5.06
X9.85Y-5.16
X9.855Y-3.74
X9.9Y-3.655
X9.9Y-3.785
X9.9Y-3.885
X9.9Y-4.075
X9.9Y-4.175
X9.9Y-4.225
X9.9Y-4.35
X9.9Y-4.45
X9.9Y-4.55
X9.9Y-4.65
X9.9Y-4.8
X9.9Y-5.015
X9.95Y-3.445
X9.95Y-3.545
X9.95Y-3.74
X9.95Y-4.125
X9.95Y-4.3
X9.95Y-4.5
X9.95Y-4.6
X9.95Y-4.7
X9.95Y-4.85
X9.95Y-5.015
X9.95Y-5.16
X10.0Y-3.655
X10.0Y-4.075
X10.0Y-4.175
X10.0Y-4.225
X10.0Y-4.35
X10.0Y-4.45
X10.0Y-4.55
X10.0Y-4.65
X10.0Y-4.8
X10.05Y-3.445
X10.05Y-3.545
X10.05Y-3.74
X10.05Y-4.125
X10.05Y-4.3
X10.05Y-4.5
X10.05Y-4.6
X10.05Y-4.7
X10.05Y-4.85
X10.05Y-5.16
X10.1Y-3.655
X10.1Y-4.075
X10.1Y-4.175
X10.1Y-4.225
X10.1Y-4.35
X10.1Y-4.45
X10.1Y-4.55
X10.1Y-4.65
X10.1Y-4.8
X10.1Y-5.11
X10.15Y-3.445
X10.15Y-3.545
X10.15Y-3.74
X10.15Y-4.125
X10.15Y-4.3
X10.15Y-4.5
X10.15Y-4.6
X10.15Y-4.7
X10.15Y-4.85
X10.15Y-4.915
X10.15Y-5.015
X10.15Y-5.16
X10.2Y-3.975
X10.2Y-4.025
X10.2Y-4.075
X10.2Y-4.175
X10.2Y-4.225
X10.2Y-4.35
X10.2Y-4.45
X10.2Y-4.55
X10.2Y-4.65
X10.2Y-4.8
X10.2Y-5.015
X10.25Y-3.445
X10.25Y-3.74
X10.25Y-5.015
X10.25Y-5.16
X10.265Y-4.1
X10.265Y-4.55
X10.295Y-3.795
X10.3Y-5.105
X10.35Y-3.445
X10.35Y-3.545
X10.35Y-3.645
X10.35Y-3.73
X10.35Y-3.85
X10.35Y-5.05
X10.35Y-5.05
X10.35Y-5.16
X10.365Y-4.1
X10.365Y-4.5
X10.365Y-4.55
X10.365Y-4.6
X10.365Y-4.65
X10.365Y-4.7
X10.365Y-4.8
X10.4Y-3.595
X10.4Y-3.685
X10.4Y-3.795
X10.4Y-4.0
X10.4Y-4.2
X10.4Y-4.4
X10.4Y-4.785
X10.405Y-4.625
X10.405Y-4.675
X10.45Y-3.445
X10.45Y-3.545
X10.45Y-3.645
X10.45Y-3.73
X10.45Y-3.85
X10.45Y-3.95
X10.45Y-4.05
X10.45Y-4.15
X10.45Y-4.25
X10.45Y-4.35
X10.45Y-4.45
X10.45Y-4.55
X10.45Y-4.715
X10.45Y-4.785
X10.45Y-4.9
X10.45Y-5.0
X10.45Y-5.16
X10.5Y-4.4
X10.5Y-4.785
X10.5Y-4.85
X10.5Y-4.95
X10.5Y-5.05
X10.51Y-3.595
X10.51Y-3.695
X10.51Y-4.1
X10.55Y-3.445
X10.55Y-4.35
X10.55Y-4.45
X10.555Y-4.82
X10.555Y-4.9
X10.555Y-5.0
X10.56Y-3.645
X10.56Y-4.05
X10.565Y-3.545
X10.565Y-4.575
X10.6Y-4.4
X10.6Y-4.5
X10.605Y-4.1
X10.61Y-3.595
X10.61Y-4.785
X10.61Y-4.85
X10.61Y-4.95
X10.61Y-5.05
X10.65Y-3.445
X10.65Y-3.75
X10.65Y-3.85
X10.65Y-3.95
X10.65Y-4.05
X10.65Y-4.15
X10.65Y-4.265
X10.65Y-4.35
X10.65Y-4.45
X10.65Y-4.55
X10.65Y-5.16
X10.67Y-4.715
X10.67Y-4.785
X10.67Y-4.85
X10.67Y-4.95
X10.695Y-3.495
X10.7Y-3.7
X10.7Y-3.8
X10.7Y-3.9
X10.7Y-4.0
X10.7Y-4.1
X10.7Y-4.21
X10.7Y-4.4
X10.7Y-4.5
X10.7Y-4.6
X10.745Y-3.445
X10.75Y-3.75
X10.75Y-3.85
X10.75Y-3.95
X10.75Y-4.05
X10.75Y-4.15
X10.75Y-4.265
X10.75Y-4.335
X10.75Y-4.45
X10.75Y-4.55
X10.75Y-4.65
X10.75Y-4.715
X10.75Y-4.785
X10.75Y-4.85
X10.75Y-4.95
X10.75Y-5.05
X10.75Y-5.16
X10.8Y-3.6
X10.835Y-3.465
X10.86Y-3.55
X10.86Y-3.65
X10.86Y-3.75
X10.86Y-3.85
X10.86Y-3.95
X10.86Y-4.05
X10.86Y-4.15
X10.86Y-4.25
X10.86Y-4.35
X10.86Y-4.45
X10.86Y-4.55
X10.86Y-4.65
X10.86Y-4.75
X10.86Y-4.85
X10.86Y-4.95
X10.86Y-5.05
X10.86Y-5.16
T2
X8.145Y-4.625
X8.315Y-4.625
X8.495Y-3.725
X8.495Y-4.675
X8.54Y-3.775
X8.54Y-4.625
X8.72Y-3.84
X8.72Y-4.56
X8.825Y-3.875
X8.825Y-4.175
X8.825Y-4.525
X8.9Y-4.335
X8.9Y-4.4
X8.9Y-4.835
X8.95Y-4.79
X9.0Y-4.335
X9.0Y-4.835
X9.44Y-3.6
X9.485Y-3.55
X9.485Y-3.65
X10.27Y-3.55
X10.27Y-3.65
X10.31Y-3.6
X10.5Y-4.235
X10.5Y-4.685
X10.55Y-4.19
X10.55Y-4.64
X10.6Y-4.235
X10.6Y-4.685
T3
X8.08Y-4.4
T4
X10.63Y-3.665
X8.07Y-3.515
X8.15Y-5.1
X10.55Y-5.1
T0
M30
