G04 #@! TF.GenerationSoftware,KiCad,Pcbnew,(5.1.2-1)-1*
G04 #@! TF.CreationDate,2019-07-30T17:06:57-04:00*
G04 #@! TF.ProjectId,RAM2E,52414d32-452e-46b6-9963-61645f706362,rev?*
G04 #@! TF.SameCoordinates,Original*
G04 #@! TF.FileFunction,Legend,Bot*
G04 #@! TF.FilePolarity,Positive*
%FSLAX46Y46*%
G04 Gerber Fmt 4.6, Leading zero omitted, Abs format (unit mm)*
G04 Created by KiCad (PCBNEW (5.1.2-1)-1) date 2019-07-30 17:06:57*
%MOMM*%
%LPD*%
G04 APERTURE LIST*
%ADD10C,0.203200*%
%ADD11C,0.200000*%
%ADD12C,0.190500*%
%ADD13C,0.100000*%
%ADD14C,2.152400*%
%ADD15C,1.676400*%
G04 APERTURE END LIST*
D10*
X225340333Y-127443895D02*
X225340333Y-128024466D01*
X225379038Y-128140580D01*
X225456447Y-128217990D01*
X225572561Y-128256695D01*
X225649971Y-128256695D01*
X224566238Y-128256695D02*
X224953285Y-128256695D01*
X224953285Y-127443895D01*
X223830847Y-128179285D02*
X223869552Y-128217990D01*
X223985666Y-128256695D01*
X224063076Y-128256695D01*
X224179190Y-128217990D01*
X224256600Y-128140580D01*
X224295304Y-128063171D01*
X224334009Y-127908352D01*
X224334009Y-127792238D01*
X224295304Y-127637419D01*
X224256600Y-127560009D01*
X224179190Y-127482600D01*
X224063076Y-127443895D01*
X223985666Y-127443895D01*
X223869552Y-127482600D01*
X223830847Y-127521304D01*
X223250276Y-127443895D02*
X223250276Y-128024466D01*
X223288980Y-128140580D01*
X223366390Y-128217990D01*
X223482504Y-128256695D01*
X223559914Y-128256695D01*
X222476180Y-128256695D02*
X222863228Y-128256695D01*
X222863228Y-127443895D01*
X221740790Y-128179285D02*
X221779495Y-128217990D01*
X221895609Y-128256695D01*
X221973019Y-128256695D01*
X222089133Y-128217990D01*
X222166542Y-128140580D01*
X222205247Y-128063171D01*
X222243952Y-127908352D01*
X222243952Y-127792238D01*
X222205247Y-127637419D01*
X222166542Y-127560009D01*
X222089133Y-127482600D01*
X221973019Y-127443895D01*
X221895609Y-127443895D01*
X221779495Y-127482600D01*
X221740790Y-127521304D01*
X221160219Y-127443895D02*
X221160219Y-128024466D01*
X221198923Y-128140580D01*
X221276333Y-128217990D01*
X221392447Y-128256695D01*
X221469857Y-128256695D01*
X220386123Y-128256695D02*
X220773171Y-128256695D01*
X220773171Y-127443895D01*
X219650733Y-128179285D02*
X219689438Y-128217990D01*
X219805552Y-128256695D01*
X219882961Y-128256695D01*
X219999076Y-128217990D01*
X220076485Y-128140580D01*
X220115190Y-128063171D01*
X220153895Y-127908352D01*
X220153895Y-127792238D01*
X220115190Y-127637419D01*
X220076485Y-127560009D01*
X219999076Y-127482600D01*
X219882961Y-127443895D01*
X219805552Y-127443895D01*
X219689438Y-127482600D01*
X219650733Y-127521304D01*
X207675238Y-127189895D02*
X207133371Y-127189895D01*
X207675238Y-128002695D01*
X207133371Y-128002695D01*
X206823733Y-128002695D02*
X206823733Y-127189895D01*
X206359276Y-128002695D02*
X206707619Y-127538238D01*
X206359276Y-127189895D02*
X206823733Y-127654352D01*
X205972228Y-127963990D02*
X205972228Y-128002695D01*
X206010933Y-128080104D01*
X206049638Y-128118809D01*
X204578857Y-127228600D02*
X204656266Y-127189895D01*
X204772380Y-127189895D01*
X204888495Y-127228600D01*
X204965904Y-127306009D01*
X205004609Y-127383419D01*
X205043314Y-127538238D01*
X205043314Y-127654352D01*
X205004609Y-127809171D01*
X204965904Y-127886580D01*
X204888495Y-127963990D01*
X204772380Y-128002695D01*
X204694971Y-128002695D01*
X204578857Y-127963990D01*
X204540152Y-127925285D01*
X204540152Y-127654352D01*
X204694971Y-127654352D01*
X203920876Y-127576942D02*
X204191809Y-127576942D01*
X204191809Y-128002695D02*
X204191809Y-127189895D01*
X203804761Y-127189895D01*
D11*
X259207000Y-123571000D02*
X260223000Y-125349000D01*
X258191000Y-125349000D02*
X259207000Y-123571000D01*
X260223000Y-125349000D02*
X258191000Y-125349000D01*
X257090333Y-123764523D02*
X256364619Y-123764523D01*
X256727476Y-125034523D02*
X256727476Y-123764523D01*
X255941285Y-125034523D02*
X255941285Y-123764523D01*
X255397000Y-125034523D02*
X255397000Y-124369285D01*
X255457476Y-124248333D01*
X255578428Y-124187857D01*
X255759857Y-124187857D01*
X255880809Y-124248333D01*
X255941285Y-124308809D01*
X254792238Y-125034523D02*
X254792238Y-124187857D01*
X254792238Y-123764523D02*
X254852714Y-123825000D01*
X254792238Y-123885476D01*
X254731761Y-123825000D01*
X254792238Y-123764523D01*
X254792238Y-123885476D01*
X254247952Y-124974047D02*
X254127000Y-125034523D01*
X253885095Y-125034523D01*
X253764142Y-124974047D01*
X253703666Y-124853095D01*
X253703666Y-124792619D01*
X253764142Y-124671666D01*
X253885095Y-124611190D01*
X254066523Y-124611190D01*
X254187476Y-124550714D01*
X254247952Y-124429761D01*
X254247952Y-124369285D01*
X254187476Y-124248333D01*
X254066523Y-124187857D01*
X253885095Y-124187857D01*
X253764142Y-124248333D01*
X252252238Y-124974047D02*
X252070809Y-125034523D01*
X251768428Y-125034523D01*
X251647476Y-124974047D01*
X251587000Y-124913571D01*
X251526523Y-124792619D01*
X251526523Y-124671666D01*
X251587000Y-124550714D01*
X251647476Y-124490238D01*
X251768428Y-124429761D01*
X252010333Y-124369285D01*
X252131285Y-124308809D01*
X252191761Y-124248333D01*
X252252238Y-124127380D01*
X252252238Y-124006428D01*
X252191761Y-123885476D01*
X252131285Y-123825000D01*
X252010333Y-123764523D01*
X251707952Y-123764523D01*
X251526523Y-123825000D01*
X250982238Y-125034523D02*
X250982238Y-124187857D01*
X250982238Y-123764523D02*
X251042714Y-123825000D01*
X250982238Y-123885476D01*
X250921761Y-123825000D01*
X250982238Y-123764523D01*
X250982238Y-123885476D01*
X249833190Y-125034523D02*
X249833190Y-123764523D01*
X249833190Y-124974047D02*
X249954142Y-125034523D01*
X250196047Y-125034523D01*
X250317000Y-124974047D01*
X250377476Y-124913571D01*
X250437952Y-124792619D01*
X250437952Y-124429761D01*
X250377476Y-124308809D01*
X250317000Y-124248333D01*
X250196047Y-124187857D01*
X249954142Y-124187857D01*
X249833190Y-124248333D01*
X248744619Y-124974047D02*
X248865571Y-125034523D01*
X249107476Y-125034523D01*
X249228428Y-124974047D01*
X249288904Y-124853095D01*
X249288904Y-124369285D01*
X249228428Y-124248333D01*
X249107476Y-124187857D01*
X248865571Y-124187857D01*
X248744619Y-124248333D01*
X248684142Y-124369285D01*
X248684142Y-124490238D01*
X249288904Y-124611190D01*
X246748904Y-124369285D02*
X247172238Y-124369285D01*
X247172238Y-125034523D02*
X247172238Y-123764523D01*
X246567476Y-123764523D01*
X245539380Y-125034523D02*
X245539380Y-124369285D01*
X245599857Y-124248333D01*
X245720809Y-124187857D01*
X245962714Y-124187857D01*
X246083666Y-124248333D01*
X245539380Y-124974047D02*
X245660333Y-125034523D01*
X245962714Y-125034523D01*
X246083666Y-124974047D01*
X246144142Y-124853095D01*
X246144142Y-124732142D01*
X246083666Y-124611190D01*
X245962714Y-124550714D01*
X245660333Y-124550714D01*
X245539380Y-124490238D01*
X244390333Y-124974047D02*
X244511285Y-125034523D01*
X244753190Y-125034523D01*
X244874142Y-124974047D01*
X244934619Y-124913571D01*
X244995095Y-124792619D01*
X244995095Y-124429761D01*
X244934619Y-124308809D01*
X244874142Y-124248333D01*
X244753190Y-124187857D01*
X244511285Y-124187857D01*
X244390333Y-124248333D01*
X243362238Y-124974047D02*
X243483190Y-125034523D01*
X243725095Y-125034523D01*
X243846047Y-124974047D01*
X243906523Y-124853095D01*
X243906523Y-124369285D01*
X243846047Y-124248333D01*
X243725095Y-124187857D01*
X243483190Y-124187857D01*
X243362238Y-124248333D01*
X243301761Y-124369285D01*
X243301761Y-124490238D01*
X243906523Y-124611190D01*
X242817952Y-124974047D02*
X242697000Y-125034523D01*
X242455095Y-125034523D01*
X242334142Y-124974047D01*
X242273666Y-124853095D01*
X242273666Y-124792619D01*
X242334142Y-124671666D01*
X242455095Y-124611190D01*
X242636523Y-124611190D01*
X242757476Y-124550714D01*
X242817952Y-124429761D01*
X242817952Y-124369285D01*
X242757476Y-124248333D01*
X242636523Y-124187857D01*
X242455095Y-124187857D01*
X242334142Y-124248333D01*
X240761761Y-125034523D02*
X240761761Y-123764523D01*
X240277952Y-123764523D01*
X240157000Y-123825000D01*
X240096523Y-123885476D01*
X240036047Y-124006428D01*
X240036047Y-124187857D01*
X240096523Y-124308809D01*
X240157000Y-124369285D01*
X240277952Y-124429761D01*
X240761761Y-124429761D01*
X239310333Y-125034523D02*
X239431285Y-124974047D01*
X239491761Y-124913571D01*
X239552238Y-124792619D01*
X239552238Y-124429761D01*
X239491761Y-124308809D01*
X239431285Y-124248333D01*
X239310333Y-124187857D01*
X239128904Y-124187857D01*
X239007952Y-124248333D01*
X238947476Y-124308809D01*
X238887000Y-124429761D01*
X238887000Y-124792619D01*
X238947476Y-124913571D01*
X239007952Y-124974047D01*
X239128904Y-125034523D01*
X239310333Y-125034523D01*
X238463666Y-124187857D02*
X238221761Y-125034523D01*
X237979857Y-124429761D01*
X237737952Y-125034523D01*
X237496047Y-124187857D01*
X236528428Y-124974047D02*
X236649380Y-125034523D01*
X236891285Y-125034523D01*
X237012238Y-124974047D01*
X237072714Y-124853095D01*
X237072714Y-124369285D01*
X237012238Y-124248333D01*
X236891285Y-124187857D01*
X236649380Y-124187857D01*
X236528428Y-124248333D01*
X236467952Y-124369285D01*
X236467952Y-124490238D01*
X237072714Y-124611190D01*
X235923666Y-125034523D02*
X235923666Y-124187857D01*
X235923666Y-124429761D02*
X235863190Y-124308809D01*
X235802714Y-124248333D01*
X235681761Y-124187857D01*
X235560809Y-124187857D01*
X234230333Y-124974047D02*
X234048904Y-125034523D01*
X233746523Y-125034523D01*
X233625571Y-124974047D01*
X233565095Y-124913571D01*
X233504619Y-124792619D01*
X233504619Y-124671666D01*
X233565095Y-124550714D01*
X233625571Y-124490238D01*
X233746523Y-124429761D01*
X233988428Y-124369285D01*
X234109380Y-124308809D01*
X234169857Y-124248333D01*
X234230333Y-124127380D01*
X234230333Y-124006428D01*
X234169857Y-123885476D01*
X234109380Y-123825000D01*
X233988428Y-123764523D01*
X233686047Y-123764523D01*
X233504619Y-123825000D01*
X232416047Y-124187857D02*
X232416047Y-125034523D01*
X232960333Y-124187857D02*
X232960333Y-124853095D01*
X232899857Y-124974047D01*
X232778904Y-125034523D01*
X232597476Y-125034523D01*
X232476523Y-124974047D01*
X232416047Y-124913571D01*
X231811285Y-124187857D02*
X231811285Y-125457857D01*
X231811285Y-124248333D02*
X231690333Y-124187857D01*
X231448428Y-124187857D01*
X231327476Y-124248333D01*
X231267000Y-124308809D01*
X231206523Y-124429761D01*
X231206523Y-124792619D01*
X231267000Y-124913571D01*
X231327476Y-124974047D01*
X231448428Y-125034523D01*
X231690333Y-125034523D01*
X231811285Y-124974047D01*
X230662238Y-124187857D02*
X230662238Y-125457857D01*
X230662238Y-124248333D02*
X230541285Y-124187857D01*
X230299380Y-124187857D01*
X230178428Y-124248333D01*
X230117952Y-124308809D01*
X230057476Y-124429761D01*
X230057476Y-124792619D01*
X230117952Y-124913571D01*
X230178428Y-124974047D01*
X230299380Y-125034523D01*
X230541285Y-125034523D01*
X230662238Y-124974047D01*
X229331761Y-125034523D02*
X229452714Y-124974047D01*
X229513190Y-124853095D01*
X229513190Y-123764523D01*
X228968904Y-124187857D02*
X228666523Y-125034523D01*
X228364142Y-124187857D02*
X228666523Y-125034523D01*
X228787476Y-125336904D01*
X228847952Y-125397380D01*
X228968904Y-125457857D01*
D12*
X259207000Y-124986142D02*
X259170714Y-125022428D01*
X259207000Y-125058714D01*
X259243285Y-125022428D01*
X259207000Y-124986142D01*
X259207000Y-125058714D01*
X259207000Y-124768428D02*
X259243285Y-124333000D01*
X259207000Y-124296714D01*
X259170714Y-124333000D01*
X259207000Y-124768428D01*
X259207000Y-124296714D01*
%LPC*%
D13*
G36*
X276606000Y-139446000D02*
G01*
X276098000Y-139954000D01*
X198882000Y-139954000D01*
X198374000Y-139446000D01*
X198374000Y-132080000D01*
X276606000Y-132080000D01*
X276606000Y-139446000D01*
G37*
D14*
X270002000Y-93091000D03*
D13*
G36*
X201120179Y-131537818D02*
G01*
X201160862Y-131543853D01*
X201200758Y-131553846D01*
X201239483Y-131567702D01*
X201276662Y-131585287D01*
X201311939Y-131606431D01*
X201344974Y-131630931D01*
X201375448Y-131658552D01*
X201403069Y-131689026D01*
X201427569Y-131722061D01*
X201448713Y-131757338D01*
X201466298Y-131794517D01*
X201480154Y-131833242D01*
X201490147Y-131873138D01*
X201496182Y-131913821D01*
X201498200Y-131954900D01*
X201498200Y-138809100D01*
X201496182Y-138850179D01*
X201490147Y-138890862D01*
X201480154Y-138930758D01*
X201466298Y-138969483D01*
X201448713Y-139006662D01*
X201427569Y-139041939D01*
X201403069Y-139074974D01*
X201375448Y-139105448D01*
X201344974Y-139133069D01*
X201311939Y-139157569D01*
X201276662Y-139178713D01*
X201239483Y-139196298D01*
X201200758Y-139210154D01*
X201160862Y-139220147D01*
X201120179Y-139226182D01*
X201079100Y-139228200D01*
X200240900Y-139228200D01*
X200199821Y-139226182D01*
X200159138Y-139220147D01*
X200119242Y-139210154D01*
X200080517Y-139196298D01*
X200043338Y-139178713D01*
X200008061Y-139157569D01*
X199975026Y-139133069D01*
X199944552Y-139105448D01*
X199916931Y-139074974D01*
X199892431Y-139041939D01*
X199871287Y-139006662D01*
X199853702Y-138969483D01*
X199839846Y-138930758D01*
X199829853Y-138890862D01*
X199823818Y-138850179D01*
X199821800Y-138809100D01*
X199821800Y-131954900D01*
X199823818Y-131913821D01*
X199829853Y-131873138D01*
X199839846Y-131833242D01*
X199853702Y-131794517D01*
X199871287Y-131757338D01*
X199892431Y-131722061D01*
X199916931Y-131689026D01*
X199944552Y-131658552D01*
X199975026Y-131630931D01*
X200008061Y-131606431D01*
X200043338Y-131585287D01*
X200080517Y-131567702D01*
X200119242Y-131553846D01*
X200159138Y-131543853D01*
X200199821Y-131537818D01*
X200240900Y-131535800D01*
X201079100Y-131535800D01*
X201120179Y-131537818D01*
X201120179Y-131537818D01*
G37*
D15*
X200660000Y-135382000D03*
D13*
G36*
X203660179Y-131537818D02*
G01*
X203700862Y-131543853D01*
X203740758Y-131553846D01*
X203779483Y-131567702D01*
X203816662Y-131585287D01*
X203851939Y-131606431D01*
X203884974Y-131630931D01*
X203915448Y-131658552D01*
X203943069Y-131689026D01*
X203967569Y-131722061D01*
X203988713Y-131757338D01*
X204006298Y-131794517D01*
X204020154Y-131833242D01*
X204030147Y-131873138D01*
X204036182Y-131913821D01*
X204038200Y-131954900D01*
X204038200Y-138809100D01*
X204036182Y-138850179D01*
X204030147Y-138890862D01*
X204020154Y-138930758D01*
X204006298Y-138969483D01*
X203988713Y-139006662D01*
X203967569Y-139041939D01*
X203943069Y-139074974D01*
X203915448Y-139105448D01*
X203884974Y-139133069D01*
X203851939Y-139157569D01*
X203816662Y-139178713D01*
X203779483Y-139196298D01*
X203740758Y-139210154D01*
X203700862Y-139220147D01*
X203660179Y-139226182D01*
X203619100Y-139228200D01*
X202780900Y-139228200D01*
X202739821Y-139226182D01*
X202699138Y-139220147D01*
X202659242Y-139210154D01*
X202620517Y-139196298D01*
X202583338Y-139178713D01*
X202548061Y-139157569D01*
X202515026Y-139133069D01*
X202484552Y-139105448D01*
X202456931Y-139074974D01*
X202432431Y-139041939D01*
X202411287Y-139006662D01*
X202393702Y-138969483D01*
X202379846Y-138930758D01*
X202369853Y-138890862D01*
X202363818Y-138850179D01*
X202361800Y-138809100D01*
X202361800Y-131954900D01*
X202363818Y-131913821D01*
X202369853Y-131873138D01*
X202379846Y-131833242D01*
X202393702Y-131794517D01*
X202411287Y-131757338D01*
X202432431Y-131722061D01*
X202456931Y-131689026D01*
X202484552Y-131658552D01*
X202515026Y-131630931D01*
X202548061Y-131606431D01*
X202583338Y-131585287D01*
X202620517Y-131567702D01*
X202659242Y-131553846D01*
X202699138Y-131543853D01*
X202739821Y-131537818D01*
X202780900Y-131535800D01*
X203619100Y-131535800D01*
X203660179Y-131537818D01*
X203660179Y-131537818D01*
G37*
D15*
X203200000Y-135382000D03*
D13*
G36*
X206200179Y-131537818D02*
G01*
X206240862Y-131543853D01*
X206280758Y-131553846D01*
X206319483Y-131567702D01*
X206356662Y-131585287D01*
X206391939Y-131606431D01*
X206424974Y-131630931D01*
X206455448Y-131658552D01*
X206483069Y-131689026D01*
X206507569Y-131722061D01*
X206528713Y-131757338D01*
X206546298Y-131794517D01*
X206560154Y-131833242D01*
X206570147Y-131873138D01*
X206576182Y-131913821D01*
X206578200Y-131954900D01*
X206578200Y-138809100D01*
X206576182Y-138850179D01*
X206570147Y-138890862D01*
X206560154Y-138930758D01*
X206546298Y-138969483D01*
X206528713Y-139006662D01*
X206507569Y-139041939D01*
X206483069Y-139074974D01*
X206455448Y-139105448D01*
X206424974Y-139133069D01*
X206391939Y-139157569D01*
X206356662Y-139178713D01*
X206319483Y-139196298D01*
X206280758Y-139210154D01*
X206240862Y-139220147D01*
X206200179Y-139226182D01*
X206159100Y-139228200D01*
X205320900Y-139228200D01*
X205279821Y-139226182D01*
X205239138Y-139220147D01*
X205199242Y-139210154D01*
X205160517Y-139196298D01*
X205123338Y-139178713D01*
X205088061Y-139157569D01*
X205055026Y-139133069D01*
X205024552Y-139105448D01*
X204996931Y-139074974D01*
X204972431Y-139041939D01*
X204951287Y-139006662D01*
X204933702Y-138969483D01*
X204919846Y-138930758D01*
X204909853Y-138890862D01*
X204903818Y-138850179D01*
X204901800Y-138809100D01*
X204901800Y-131954900D01*
X204903818Y-131913821D01*
X204909853Y-131873138D01*
X204919846Y-131833242D01*
X204933702Y-131794517D01*
X204951287Y-131757338D01*
X204972431Y-131722061D01*
X204996931Y-131689026D01*
X205024552Y-131658552D01*
X205055026Y-131630931D01*
X205088061Y-131606431D01*
X205123338Y-131585287D01*
X205160517Y-131567702D01*
X205199242Y-131553846D01*
X205239138Y-131543853D01*
X205279821Y-131537818D01*
X205320900Y-131535800D01*
X206159100Y-131535800D01*
X206200179Y-131537818D01*
X206200179Y-131537818D01*
G37*
D15*
X205740000Y-135382000D03*
D13*
G36*
X208740179Y-131537818D02*
G01*
X208780862Y-131543853D01*
X208820758Y-131553846D01*
X208859483Y-131567702D01*
X208896662Y-131585287D01*
X208931939Y-131606431D01*
X208964974Y-131630931D01*
X208995448Y-131658552D01*
X209023069Y-131689026D01*
X209047569Y-131722061D01*
X209068713Y-131757338D01*
X209086298Y-131794517D01*
X209100154Y-131833242D01*
X209110147Y-131873138D01*
X209116182Y-131913821D01*
X209118200Y-131954900D01*
X209118200Y-138809100D01*
X209116182Y-138850179D01*
X209110147Y-138890862D01*
X209100154Y-138930758D01*
X209086298Y-138969483D01*
X209068713Y-139006662D01*
X209047569Y-139041939D01*
X209023069Y-139074974D01*
X208995448Y-139105448D01*
X208964974Y-139133069D01*
X208931939Y-139157569D01*
X208896662Y-139178713D01*
X208859483Y-139196298D01*
X208820758Y-139210154D01*
X208780862Y-139220147D01*
X208740179Y-139226182D01*
X208699100Y-139228200D01*
X207860900Y-139228200D01*
X207819821Y-139226182D01*
X207779138Y-139220147D01*
X207739242Y-139210154D01*
X207700517Y-139196298D01*
X207663338Y-139178713D01*
X207628061Y-139157569D01*
X207595026Y-139133069D01*
X207564552Y-139105448D01*
X207536931Y-139074974D01*
X207512431Y-139041939D01*
X207491287Y-139006662D01*
X207473702Y-138969483D01*
X207459846Y-138930758D01*
X207449853Y-138890862D01*
X207443818Y-138850179D01*
X207441800Y-138809100D01*
X207441800Y-131954900D01*
X207443818Y-131913821D01*
X207449853Y-131873138D01*
X207459846Y-131833242D01*
X207473702Y-131794517D01*
X207491287Y-131757338D01*
X207512431Y-131722061D01*
X207536931Y-131689026D01*
X207564552Y-131658552D01*
X207595026Y-131630931D01*
X207628061Y-131606431D01*
X207663338Y-131585287D01*
X207700517Y-131567702D01*
X207739242Y-131553846D01*
X207779138Y-131543853D01*
X207819821Y-131537818D01*
X207860900Y-131535800D01*
X208699100Y-131535800D01*
X208740179Y-131537818D01*
X208740179Y-131537818D01*
G37*
D15*
X208280000Y-135382000D03*
D13*
G36*
X211280179Y-131537818D02*
G01*
X211320862Y-131543853D01*
X211360758Y-131553846D01*
X211399483Y-131567702D01*
X211436662Y-131585287D01*
X211471939Y-131606431D01*
X211504974Y-131630931D01*
X211535448Y-131658552D01*
X211563069Y-131689026D01*
X211587569Y-131722061D01*
X211608713Y-131757338D01*
X211626298Y-131794517D01*
X211640154Y-131833242D01*
X211650147Y-131873138D01*
X211656182Y-131913821D01*
X211658200Y-131954900D01*
X211658200Y-138809100D01*
X211656182Y-138850179D01*
X211650147Y-138890862D01*
X211640154Y-138930758D01*
X211626298Y-138969483D01*
X211608713Y-139006662D01*
X211587569Y-139041939D01*
X211563069Y-139074974D01*
X211535448Y-139105448D01*
X211504974Y-139133069D01*
X211471939Y-139157569D01*
X211436662Y-139178713D01*
X211399483Y-139196298D01*
X211360758Y-139210154D01*
X211320862Y-139220147D01*
X211280179Y-139226182D01*
X211239100Y-139228200D01*
X210400900Y-139228200D01*
X210359821Y-139226182D01*
X210319138Y-139220147D01*
X210279242Y-139210154D01*
X210240517Y-139196298D01*
X210203338Y-139178713D01*
X210168061Y-139157569D01*
X210135026Y-139133069D01*
X210104552Y-139105448D01*
X210076931Y-139074974D01*
X210052431Y-139041939D01*
X210031287Y-139006662D01*
X210013702Y-138969483D01*
X209999846Y-138930758D01*
X209989853Y-138890862D01*
X209983818Y-138850179D01*
X209981800Y-138809100D01*
X209981800Y-131954900D01*
X209983818Y-131913821D01*
X209989853Y-131873138D01*
X209999846Y-131833242D01*
X210013702Y-131794517D01*
X210031287Y-131757338D01*
X210052431Y-131722061D01*
X210076931Y-131689026D01*
X210104552Y-131658552D01*
X210135026Y-131630931D01*
X210168061Y-131606431D01*
X210203338Y-131585287D01*
X210240517Y-131567702D01*
X210279242Y-131553846D01*
X210319138Y-131543853D01*
X210359821Y-131537818D01*
X210400900Y-131535800D01*
X211239100Y-131535800D01*
X211280179Y-131537818D01*
X211280179Y-131537818D01*
G37*
D15*
X210820000Y-135382000D03*
D13*
G36*
X213820179Y-131537818D02*
G01*
X213860862Y-131543853D01*
X213900758Y-131553846D01*
X213939483Y-131567702D01*
X213976662Y-131585287D01*
X214011939Y-131606431D01*
X214044974Y-131630931D01*
X214075448Y-131658552D01*
X214103069Y-131689026D01*
X214127569Y-131722061D01*
X214148713Y-131757338D01*
X214166298Y-131794517D01*
X214180154Y-131833242D01*
X214190147Y-131873138D01*
X214196182Y-131913821D01*
X214198200Y-131954900D01*
X214198200Y-138809100D01*
X214196182Y-138850179D01*
X214190147Y-138890862D01*
X214180154Y-138930758D01*
X214166298Y-138969483D01*
X214148713Y-139006662D01*
X214127569Y-139041939D01*
X214103069Y-139074974D01*
X214075448Y-139105448D01*
X214044974Y-139133069D01*
X214011939Y-139157569D01*
X213976662Y-139178713D01*
X213939483Y-139196298D01*
X213900758Y-139210154D01*
X213860862Y-139220147D01*
X213820179Y-139226182D01*
X213779100Y-139228200D01*
X212940900Y-139228200D01*
X212899821Y-139226182D01*
X212859138Y-139220147D01*
X212819242Y-139210154D01*
X212780517Y-139196298D01*
X212743338Y-139178713D01*
X212708061Y-139157569D01*
X212675026Y-139133069D01*
X212644552Y-139105448D01*
X212616931Y-139074974D01*
X212592431Y-139041939D01*
X212571287Y-139006662D01*
X212553702Y-138969483D01*
X212539846Y-138930758D01*
X212529853Y-138890862D01*
X212523818Y-138850179D01*
X212521800Y-138809100D01*
X212521800Y-131954900D01*
X212523818Y-131913821D01*
X212529853Y-131873138D01*
X212539846Y-131833242D01*
X212553702Y-131794517D01*
X212571287Y-131757338D01*
X212592431Y-131722061D01*
X212616931Y-131689026D01*
X212644552Y-131658552D01*
X212675026Y-131630931D01*
X212708061Y-131606431D01*
X212743338Y-131585287D01*
X212780517Y-131567702D01*
X212819242Y-131553846D01*
X212859138Y-131543853D01*
X212899821Y-131537818D01*
X212940900Y-131535800D01*
X213779100Y-131535800D01*
X213820179Y-131537818D01*
X213820179Y-131537818D01*
G37*
D15*
X213360000Y-135382000D03*
D13*
G36*
X216360179Y-131537818D02*
G01*
X216400862Y-131543853D01*
X216440758Y-131553846D01*
X216479483Y-131567702D01*
X216516662Y-131585287D01*
X216551939Y-131606431D01*
X216584974Y-131630931D01*
X216615448Y-131658552D01*
X216643069Y-131689026D01*
X216667569Y-131722061D01*
X216688713Y-131757338D01*
X216706298Y-131794517D01*
X216720154Y-131833242D01*
X216730147Y-131873138D01*
X216736182Y-131913821D01*
X216738200Y-131954900D01*
X216738200Y-138809100D01*
X216736182Y-138850179D01*
X216730147Y-138890862D01*
X216720154Y-138930758D01*
X216706298Y-138969483D01*
X216688713Y-139006662D01*
X216667569Y-139041939D01*
X216643069Y-139074974D01*
X216615448Y-139105448D01*
X216584974Y-139133069D01*
X216551939Y-139157569D01*
X216516662Y-139178713D01*
X216479483Y-139196298D01*
X216440758Y-139210154D01*
X216400862Y-139220147D01*
X216360179Y-139226182D01*
X216319100Y-139228200D01*
X215480900Y-139228200D01*
X215439821Y-139226182D01*
X215399138Y-139220147D01*
X215359242Y-139210154D01*
X215320517Y-139196298D01*
X215283338Y-139178713D01*
X215248061Y-139157569D01*
X215215026Y-139133069D01*
X215184552Y-139105448D01*
X215156931Y-139074974D01*
X215132431Y-139041939D01*
X215111287Y-139006662D01*
X215093702Y-138969483D01*
X215079846Y-138930758D01*
X215069853Y-138890862D01*
X215063818Y-138850179D01*
X215061800Y-138809100D01*
X215061800Y-131954900D01*
X215063818Y-131913821D01*
X215069853Y-131873138D01*
X215079846Y-131833242D01*
X215093702Y-131794517D01*
X215111287Y-131757338D01*
X215132431Y-131722061D01*
X215156931Y-131689026D01*
X215184552Y-131658552D01*
X215215026Y-131630931D01*
X215248061Y-131606431D01*
X215283338Y-131585287D01*
X215320517Y-131567702D01*
X215359242Y-131553846D01*
X215399138Y-131543853D01*
X215439821Y-131537818D01*
X215480900Y-131535800D01*
X216319100Y-131535800D01*
X216360179Y-131537818D01*
X216360179Y-131537818D01*
G37*
D15*
X215900000Y-135382000D03*
D13*
G36*
X218900179Y-131537818D02*
G01*
X218940862Y-131543853D01*
X218980758Y-131553846D01*
X219019483Y-131567702D01*
X219056662Y-131585287D01*
X219091939Y-131606431D01*
X219124974Y-131630931D01*
X219155448Y-131658552D01*
X219183069Y-131689026D01*
X219207569Y-131722061D01*
X219228713Y-131757338D01*
X219246298Y-131794517D01*
X219260154Y-131833242D01*
X219270147Y-131873138D01*
X219276182Y-131913821D01*
X219278200Y-131954900D01*
X219278200Y-138809100D01*
X219276182Y-138850179D01*
X219270147Y-138890862D01*
X219260154Y-138930758D01*
X219246298Y-138969483D01*
X219228713Y-139006662D01*
X219207569Y-139041939D01*
X219183069Y-139074974D01*
X219155448Y-139105448D01*
X219124974Y-139133069D01*
X219091939Y-139157569D01*
X219056662Y-139178713D01*
X219019483Y-139196298D01*
X218980758Y-139210154D01*
X218940862Y-139220147D01*
X218900179Y-139226182D01*
X218859100Y-139228200D01*
X218020900Y-139228200D01*
X217979821Y-139226182D01*
X217939138Y-139220147D01*
X217899242Y-139210154D01*
X217860517Y-139196298D01*
X217823338Y-139178713D01*
X217788061Y-139157569D01*
X217755026Y-139133069D01*
X217724552Y-139105448D01*
X217696931Y-139074974D01*
X217672431Y-139041939D01*
X217651287Y-139006662D01*
X217633702Y-138969483D01*
X217619846Y-138930758D01*
X217609853Y-138890862D01*
X217603818Y-138850179D01*
X217601800Y-138809100D01*
X217601800Y-131954900D01*
X217603818Y-131913821D01*
X217609853Y-131873138D01*
X217619846Y-131833242D01*
X217633702Y-131794517D01*
X217651287Y-131757338D01*
X217672431Y-131722061D01*
X217696931Y-131689026D01*
X217724552Y-131658552D01*
X217755026Y-131630931D01*
X217788061Y-131606431D01*
X217823338Y-131585287D01*
X217860517Y-131567702D01*
X217899242Y-131553846D01*
X217939138Y-131543853D01*
X217979821Y-131537818D01*
X218020900Y-131535800D01*
X218859100Y-131535800D01*
X218900179Y-131537818D01*
X218900179Y-131537818D01*
G37*
D15*
X218440000Y-135382000D03*
D13*
G36*
X221440179Y-131537818D02*
G01*
X221480862Y-131543853D01*
X221520758Y-131553846D01*
X221559483Y-131567702D01*
X221596662Y-131585287D01*
X221631939Y-131606431D01*
X221664974Y-131630931D01*
X221695448Y-131658552D01*
X221723069Y-131689026D01*
X221747569Y-131722061D01*
X221768713Y-131757338D01*
X221786298Y-131794517D01*
X221800154Y-131833242D01*
X221810147Y-131873138D01*
X221816182Y-131913821D01*
X221818200Y-131954900D01*
X221818200Y-138809100D01*
X221816182Y-138850179D01*
X221810147Y-138890862D01*
X221800154Y-138930758D01*
X221786298Y-138969483D01*
X221768713Y-139006662D01*
X221747569Y-139041939D01*
X221723069Y-139074974D01*
X221695448Y-139105448D01*
X221664974Y-139133069D01*
X221631939Y-139157569D01*
X221596662Y-139178713D01*
X221559483Y-139196298D01*
X221520758Y-139210154D01*
X221480862Y-139220147D01*
X221440179Y-139226182D01*
X221399100Y-139228200D01*
X220560900Y-139228200D01*
X220519821Y-139226182D01*
X220479138Y-139220147D01*
X220439242Y-139210154D01*
X220400517Y-139196298D01*
X220363338Y-139178713D01*
X220328061Y-139157569D01*
X220295026Y-139133069D01*
X220264552Y-139105448D01*
X220236931Y-139074974D01*
X220212431Y-139041939D01*
X220191287Y-139006662D01*
X220173702Y-138969483D01*
X220159846Y-138930758D01*
X220149853Y-138890862D01*
X220143818Y-138850179D01*
X220141800Y-138809100D01*
X220141800Y-131954900D01*
X220143818Y-131913821D01*
X220149853Y-131873138D01*
X220159846Y-131833242D01*
X220173702Y-131794517D01*
X220191287Y-131757338D01*
X220212431Y-131722061D01*
X220236931Y-131689026D01*
X220264552Y-131658552D01*
X220295026Y-131630931D01*
X220328061Y-131606431D01*
X220363338Y-131585287D01*
X220400517Y-131567702D01*
X220439242Y-131553846D01*
X220479138Y-131543853D01*
X220519821Y-131537818D01*
X220560900Y-131535800D01*
X221399100Y-131535800D01*
X221440179Y-131537818D01*
X221440179Y-131537818D01*
G37*
D15*
X220980000Y-135382000D03*
D13*
G36*
X223980179Y-131537818D02*
G01*
X224020862Y-131543853D01*
X224060758Y-131553846D01*
X224099483Y-131567702D01*
X224136662Y-131585287D01*
X224171939Y-131606431D01*
X224204974Y-131630931D01*
X224235448Y-131658552D01*
X224263069Y-131689026D01*
X224287569Y-131722061D01*
X224308713Y-131757338D01*
X224326298Y-131794517D01*
X224340154Y-131833242D01*
X224350147Y-131873138D01*
X224356182Y-131913821D01*
X224358200Y-131954900D01*
X224358200Y-138809100D01*
X224356182Y-138850179D01*
X224350147Y-138890862D01*
X224340154Y-138930758D01*
X224326298Y-138969483D01*
X224308713Y-139006662D01*
X224287569Y-139041939D01*
X224263069Y-139074974D01*
X224235448Y-139105448D01*
X224204974Y-139133069D01*
X224171939Y-139157569D01*
X224136662Y-139178713D01*
X224099483Y-139196298D01*
X224060758Y-139210154D01*
X224020862Y-139220147D01*
X223980179Y-139226182D01*
X223939100Y-139228200D01*
X223100900Y-139228200D01*
X223059821Y-139226182D01*
X223019138Y-139220147D01*
X222979242Y-139210154D01*
X222940517Y-139196298D01*
X222903338Y-139178713D01*
X222868061Y-139157569D01*
X222835026Y-139133069D01*
X222804552Y-139105448D01*
X222776931Y-139074974D01*
X222752431Y-139041939D01*
X222731287Y-139006662D01*
X222713702Y-138969483D01*
X222699846Y-138930758D01*
X222689853Y-138890862D01*
X222683818Y-138850179D01*
X222681800Y-138809100D01*
X222681800Y-131954900D01*
X222683818Y-131913821D01*
X222689853Y-131873138D01*
X222699846Y-131833242D01*
X222713702Y-131794517D01*
X222731287Y-131757338D01*
X222752431Y-131722061D01*
X222776931Y-131689026D01*
X222804552Y-131658552D01*
X222835026Y-131630931D01*
X222868061Y-131606431D01*
X222903338Y-131585287D01*
X222940517Y-131567702D01*
X222979242Y-131553846D01*
X223019138Y-131543853D01*
X223059821Y-131537818D01*
X223100900Y-131535800D01*
X223939100Y-131535800D01*
X223980179Y-131537818D01*
X223980179Y-131537818D01*
G37*
D15*
X223520000Y-135382000D03*
D13*
G36*
X226520179Y-131537818D02*
G01*
X226560862Y-131543853D01*
X226600758Y-131553846D01*
X226639483Y-131567702D01*
X226676662Y-131585287D01*
X226711939Y-131606431D01*
X226744974Y-131630931D01*
X226775448Y-131658552D01*
X226803069Y-131689026D01*
X226827569Y-131722061D01*
X226848713Y-131757338D01*
X226866298Y-131794517D01*
X226880154Y-131833242D01*
X226890147Y-131873138D01*
X226896182Y-131913821D01*
X226898200Y-131954900D01*
X226898200Y-138809100D01*
X226896182Y-138850179D01*
X226890147Y-138890862D01*
X226880154Y-138930758D01*
X226866298Y-138969483D01*
X226848713Y-139006662D01*
X226827569Y-139041939D01*
X226803069Y-139074974D01*
X226775448Y-139105448D01*
X226744974Y-139133069D01*
X226711939Y-139157569D01*
X226676662Y-139178713D01*
X226639483Y-139196298D01*
X226600758Y-139210154D01*
X226560862Y-139220147D01*
X226520179Y-139226182D01*
X226479100Y-139228200D01*
X225640900Y-139228200D01*
X225599821Y-139226182D01*
X225559138Y-139220147D01*
X225519242Y-139210154D01*
X225480517Y-139196298D01*
X225443338Y-139178713D01*
X225408061Y-139157569D01*
X225375026Y-139133069D01*
X225344552Y-139105448D01*
X225316931Y-139074974D01*
X225292431Y-139041939D01*
X225271287Y-139006662D01*
X225253702Y-138969483D01*
X225239846Y-138930758D01*
X225229853Y-138890862D01*
X225223818Y-138850179D01*
X225221800Y-138809100D01*
X225221800Y-131954900D01*
X225223818Y-131913821D01*
X225229853Y-131873138D01*
X225239846Y-131833242D01*
X225253702Y-131794517D01*
X225271287Y-131757338D01*
X225292431Y-131722061D01*
X225316931Y-131689026D01*
X225344552Y-131658552D01*
X225375026Y-131630931D01*
X225408061Y-131606431D01*
X225443338Y-131585287D01*
X225480517Y-131567702D01*
X225519242Y-131553846D01*
X225559138Y-131543853D01*
X225599821Y-131537818D01*
X225640900Y-131535800D01*
X226479100Y-131535800D01*
X226520179Y-131537818D01*
X226520179Y-131537818D01*
G37*
D15*
X226060000Y-135382000D03*
D13*
G36*
X229060179Y-131537818D02*
G01*
X229100862Y-131543853D01*
X229140758Y-131553846D01*
X229179483Y-131567702D01*
X229216662Y-131585287D01*
X229251939Y-131606431D01*
X229284974Y-131630931D01*
X229315448Y-131658552D01*
X229343069Y-131689026D01*
X229367569Y-131722061D01*
X229388713Y-131757338D01*
X229406298Y-131794517D01*
X229420154Y-131833242D01*
X229430147Y-131873138D01*
X229436182Y-131913821D01*
X229438200Y-131954900D01*
X229438200Y-138809100D01*
X229436182Y-138850179D01*
X229430147Y-138890862D01*
X229420154Y-138930758D01*
X229406298Y-138969483D01*
X229388713Y-139006662D01*
X229367569Y-139041939D01*
X229343069Y-139074974D01*
X229315448Y-139105448D01*
X229284974Y-139133069D01*
X229251939Y-139157569D01*
X229216662Y-139178713D01*
X229179483Y-139196298D01*
X229140758Y-139210154D01*
X229100862Y-139220147D01*
X229060179Y-139226182D01*
X229019100Y-139228200D01*
X228180900Y-139228200D01*
X228139821Y-139226182D01*
X228099138Y-139220147D01*
X228059242Y-139210154D01*
X228020517Y-139196298D01*
X227983338Y-139178713D01*
X227948061Y-139157569D01*
X227915026Y-139133069D01*
X227884552Y-139105448D01*
X227856931Y-139074974D01*
X227832431Y-139041939D01*
X227811287Y-139006662D01*
X227793702Y-138969483D01*
X227779846Y-138930758D01*
X227769853Y-138890862D01*
X227763818Y-138850179D01*
X227761800Y-138809100D01*
X227761800Y-131954900D01*
X227763818Y-131913821D01*
X227769853Y-131873138D01*
X227779846Y-131833242D01*
X227793702Y-131794517D01*
X227811287Y-131757338D01*
X227832431Y-131722061D01*
X227856931Y-131689026D01*
X227884552Y-131658552D01*
X227915026Y-131630931D01*
X227948061Y-131606431D01*
X227983338Y-131585287D01*
X228020517Y-131567702D01*
X228059242Y-131553846D01*
X228099138Y-131543853D01*
X228139821Y-131537818D01*
X228180900Y-131535800D01*
X229019100Y-131535800D01*
X229060179Y-131537818D01*
X229060179Y-131537818D01*
G37*
D15*
X228600000Y-135382000D03*
D13*
G36*
X231600179Y-131537818D02*
G01*
X231640862Y-131543853D01*
X231680758Y-131553846D01*
X231719483Y-131567702D01*
X231756662Y-131585287D01*
X231791939Y-131606431D01*
X231824974Y-131630931D01*
X231855448Y-131658552D01*
X231883069Y-131689026D01*
X231907569Y-131722061D01*
X231928713Y-131757338D01*
X231946298Y-131794517D01*
X231960154Y-131833242D01*
X231970147Y-131873138D01*
X231976182Y-131913821D01*
X231978200Y-131954900D01*
X231978200Y-138809100D01*
X231976182Y-138850179D01*
X231970147Y-138890862D01*
X231960154Y-138930758D01*
X231946298Y-138969483D01*
X231928713Y-139006662D01*
X231907569Y-139041939D01*
X231883069Y-139074974D01*
X231855448Y-139105448D01*
X231824974Y-139133069D01*
X231791939Y-139157569D01*
X231756662Y-139178713D01*
X231719483Y-139196298D01*
X231680758Y-139210154D01*
X231640862Y-139220147D01*
X231600179Y-139226182D01*
X231559100Y-139228200D01*
X230720900Y-139228200D01*
X230679821Y-139226182D01*
X230639138Y-139220147D01*
X230599242Y-139210154D01*
X230560517Y-139196298D01*
X230523338Y-139178713D01*
X230488061Y-139157569D01*
X230455026Y-139133069D01*
X230424552Y-139105448D01*
X230396931Y-139074974D01*
X230372431Y-139041939D01*
X230351287Y-139006662D01*
X230333702Y-138969483D01*
X230319846Y-138930758D01*
X230309853Y-138890862D01*
X230303818Y-138850179D01*
X230301800Y-138809100D01*
X230301800Y-131954900D01*
X230303818Y-131913821D01*
X230309853Y-131873138D01*
X230319846Y-131833242D01*
X230333702Y-131794517D01*
X230351287Y-131757338D01*
X230372431Y-131722061D01*
X230396931Y-131689026D01*
X230424552Y-131658552D01*
X230455026Y-131630931D01*
X230488061Y-131606431D01*
X230523338Y-131585287D01*
X230560517Y-131567702D01*
X230599242Y-131553846D01*
X230639138Y-131543853D01*
X230679821Y-131537818D01*
X230720900Y-131535800D01*
X231559100Y-131535800D01*
X231600179Y-131537818D01*
X231600179Y-131537818D01*
G37*
D15*
X231140000Y-135382000D03*
D13*
G36*
X234140179Y-131537818D02*
G01*
X234180862Y-131543853D01*
X234220758Y-131553846D01*
X234259483Y-131567702D01*
X234296662Y-131585287D01*
X234331939Y-131606431D01*
X234364974Y-131630931D01*
X234395448Y-131658552D01*
X234423069Y-131689026D01*
X234447569Y-131722061D01*
X234468713Y-131757338D01*
X234486298Y-131794517D01*
X234500154Y-131833242D01*
X234510147Y-131873138D01*
X234516182Y-131913821D01*
X234518200Y-131954900D01*
X234518200Y-138809100D01*
X234516182Y-138850179D01*
X234510147Y-138890862D01*
X234500154Y-138930758D01*
X234486298Y-138969483D01*
X234468713Y-139006662D01*
X234447569Y-139041939D01*
X234423069Y-139074974D01*
X234395448Y-139105448D01*
X234364974Y-139133069D01*
X234331939Y-139157569D01*
X234296662Y-139178713D01*
X234259483Y-139196298D01*
X234220758Y-139210154D01*
X234180862Y-139220147D01*
X234140179Y-139226182D01*
X234099100Y-139228200D01*
X233260900Y-139228200D01*
X233219821Y-139226182D01*
X233179138Y-139220147D01*
X233139242Y-139210154D01*
X233100517Y-139196298D01*
X233063338Y-139178713D01*
X233028061Y-139157569D01*
X232995026Y-139133069D01*
X232964552Y-139105448D01*
X232936931Y-139074974D01*
X232912431Y-139041939D01*
X232891287Y-139006662D01*
X232873702Y-138969483D01*
X232859846Y-138930758D01*
X232849853Y-138890862D01*
X232843818Y-138850179D01*
X232841800Y-138809100D01*
X232841800Y-131954900D01*
X232843818Y-131913821D01*
X232849853Y-131873138D01*
X232859846Y-131833242D01*
X232873702Y-131794517D01*
X232891287Y-131757338D01*
X232912431Y-131722061D01*
X232936931Y-131689026D01*
X232964552Y-131658552D01*
X232995026Y-131630931D01*
X233028061Y-131606431D01*
X233063338Y-131585287D01*
X233100517Y-131567702D01*
X233139242Y-131553846D01*
X233179138Y-131543853D01*
X233219821Y-131537818D01*
X233260900Y-131535800D01*
X234099100Y-131535800D01*
X234140179Y-131537818D01*
X234140179Y-131537818D01*
G37*
D15*
X233680000Y-135382000D03*
D13*
G36*
X236680179Y-131537818D02*
G01*
X236720862Y-131543853D01*
X236760758Y-131553846D01*
X236799483Y-131567702D01*
X236836662Y-131585287D01*
X236871939Y-131606431D01*
X236904974Y-131630931D01*
X236935448Y-131658552D01*
X236963069Y-131689026D01*
X236987569Y-131722061D01*
X237008713Y-131757338D01*
X237026298Y-131794517D01*
X237040154Y-131833242D01*
X237050147Y-131873138D01*
X237056182Y-131913821D01*
X237058200Y-131954900D01*
X237058200Y-138809100D01*
X237056182Y-138850179D01*
X237050147Y-138890862D01*
X237040154Y-138930758D01*
X237026298Y-138969483D01*
X237008713Y-139006662D01*
X236987569Y-139041939D01*
X236963069Y-139074974D01*
X236935448Y-139105448D01*
X236904974Y-139133069D01*
X236871939Y-139157569D01*
X236836662Y-139178713D01*
X236799483Y-139196298D01*
X236760758Y-139210154D01*
X236720862Y-139220147D01*
X236680179Y-139226182D01*
X236639100Y-139228200D01*
X235800900Y-139228200D01*
X235759821Y-139226182D01*
X235719138Y-139220147D01*
X235679242Y-139210154D01*
X235640517Y-139196298D01*
X235603338Y-139178713D01*
X235568061Y-139157569D01*
X235535026Y-139133069D01*
X235504552Y-139105448D01*
X235476931Y-139074974D01*
X235452431Y-139041939D01*
X235431287Y-139006662D01*
X235413702Y-138969483D01*
X235399846Y-138930758D01*
X235389853Y-138890862D01*
X235383818Y-138850179D01*
X235381800Y-138809100D01*
X235381800Y-131954900D01*
X235383818Y-131913821D01*
X235389853Y-131873138D01*
X235399846Y-131833242D01*
X235413702Y-131794517D01*
X235431287Y-131757338D01*
X235452431Y-131722061D01*
X235476931Y-131689026D01*
X235504552Y-131658552D01*
X235535026Y-131630931D01*
X235568061Y-131606431D01*
X235603338Y-131585287D01*
X235640517Y-131567702D01*
X235679242Y-131553846D01*
X235719138Y-131543853D01*
X235759821Y-131537818D01*
X235800900Y-131535800D01*
X236639100Y-131535800D01*
X236680179Y-131537818D01*
X236680179Y-131537818D01*
G37*
D15*
X236220000Y-135382000D03*
D13*
G36*
X239220179Y-131537818D02*
G01*
X239260862Y-131543853D01*
X239300758Y-131553846D01*
X239339483Y-131567702D01*
X239376662Y-131585287D01*
X239411939Y-131606431D01*
X239444974Y-131630931D01*
X239475448Y-131658552D01*
X239503069Y-131689026D01*
X239527569Y-131722061D01*
X239548713Y-131757338D01*
X239566298Y-131794517D01*
X239580154Y-131833242D01*
X239590147Y-131873138D01*
X239596182Y-131913821D01*
X239598200Y-131954900D01*
X239598200Y-138809100D01*
X239596182Y-138850179D01*
X239590147Y-138890862D01*
X239580154Y-138930758D01*
X239566298Y-138969483D01*
X239548713Y-139006662D01*
X239527569Y-139041939D01*
X239503069Y-139074974D01*
X239475448Y-139105448D01*
X239444974Y-139133069D01*
X239411939Y-139157569D01*
X239376662Y-139178713D01*
X239339483Y-139196298D01*
X239300758Y-139210154D01*
X239260862Y-139220147D01*
X239220179Y-139226182D01*
X239179100Y-139228200D01*
X238340900Y-139228200D01*
X238299821Y-139226182D01*
X238259138Y-139220147D01*
X238219242Y-139210154D01*
X238180517Y-139196298D01*
X238143338Y-139178713D01*
X238108061Y-139157569D01*
X238075026Y-139133069D01*
X238044552Y-139105448D01*
X238016931Y-139074974D01*
X237992431Y-139041939D01*
X237971287Y-139006662D01*
X237953702Y-138969483D01*
X237939846Y-138930758D01*
X237929853Y-138890862D01*
X237923818Y-138850179D01*
X237921800Y-138809100D01*
X237921800Y-131954900D01*
X237923818Y-131913821D01*
X237929853Y-131873138D01*
X237939846Y-131833242D01*
X237953702Y-131794517D01*
X237971287Y-131757338D01*
X237992431Y-131722061D01*
X238016931Y-131689026D01*
X238044552Y-131658552D01*
X238075026Y-131630931D01*
X238108061Y-131606431D01*
X238143338Y-131585287D01*
X238180517Y-131567702D01*
X238219242Y-131553846D01*
X238259138Y-131543853D01*
X238299821Y-131537818D01*
X238340900Y-131535800D01*
X239179100Y-131535800D01*
X239220179Y-131537818D01*
X239220179Y-131537818D01*
G37*
D15*
X238760000Y-135382000D03*
D13*
G36*
X241760179Y-131537818D02*
G01*
X241800862Y-131543853D01*
X241840758Y-131553846D01*
X241879483Y-131567702D01*
X241916662Y-131585287D01*
X241951939Y-131606431D01*
X241984974Y-131630931D01*
X242015448Y-131658552D01*
X242043069Y-131689026D01*
X242067569Y-131722061D01*
X242088713Y-131757338D01*
X242106298Y-131794517D01*
X242120154Y-131833242D01*
X242130147Y-131873138D01*
X242136182Y-131913821D01*
X242138200Y-131954900D01*
X242138200Y-138809100D01*
X242136182Y-138850179D01*
X242130147Y-138890862D01*
X242120154Y-138930758D01*
X242106298Y-138969483D01*
X242088713Y-139006662D01*
X242067569Y-139041939D01*
X242043069Y-139074974D01*
X242015448Y-139105448D01*
X241984974Y-139133069D01*
X241951939Y-139157569D01*
X241916662Y-139178713D01*
X241879483Y-139196298D01*
X241840758Y-139210154D01*
X241800862Y-139220147D01*
X241760179Y-139226182D01*
X241719100Y-139228200D01*
X240880900Y-139228200D01*
X240839821Y-139226182D01*
X240799138Y-139220147D01*
X240759242Y-139210154D01*
X240720517Y-139196298D01*
X240683338Y-139178713D01*
X240648061Y-139157569D01*
X240615026Y-139133069D01*
X240584552Y-139105448D01*
X240556931Y-139074974D01*
X240532431Y-139041939D01*
X240511287Y-139006662D01*
X240493702Y-138969483D01*
X240479846Y-138930758D01*
X240469853Y-138890862D01*
X240463818Y-138850179D01*
X240461800Y-138809100D01*
X240461800Y-131954900D01*
X240463818Y-131913821D01*
X240469853Y-131873138D01*
X240479846Y-131833242D01*
X240493702Y-131794517D01*
X240511287Y-131757338D01*
X240532431Y-131722061D01*
X240556931Y-131689026D01*
X240584552Y-131658552D01*
X240615026Y-131630931D01*
X240648061Y-131606431D01*
X240683338Y-131585287D01*
X240720517Y-131567702D01*
X240759242Y-131553846D01*
X240799138Y-131543853D01*
X240839821Y-131537818D01*
X240880900Y-131535800D01*
X241719100Y-131535800D01*
X241760179Y-131537818D01*
X241760179Y-131537818D01*
G37*
D15*
X241300000Y-135382000D03*
D13*
G36*
X244300179Y-131537818D02*
G01*
X244340862Y-131543853D01*
X244380758Y-131553846D01*
X244419483Y-131567702D01*
X244456662Y-131585287D01*
X244491939Y-131606431D01*
X244524974Y-131630931D01*
X244555448Y-131658552D01*
X244583069Y-131689026D01*
X244607569Y-131722061D01*
X244628713Y-131757338D01*
X244646298Y-131794517D01*
X244660154Y-131833242D01*
X244670147Y-131873138D01*
X244676182Y-131913821D01*
X244678200Y-131954900D01*
X244678200Y-138809100D01*
X244676182Y-138850179D01*
X244670147Y-138890862D01*
X244660154Y-138930758D01*
X244646298Y-138969483D01*
X244628713Y-139006662D01*
X244607569Y-139041939D01*
X244583069Y-139074974D01*
X244555448Y-139105448D01*
X244524974Y-139133069D01*
X244491939Y-139157569D01*
X244456662Y-139178713D01*
X244419483Y-139196298D01*
X244380758Y-139210154D01*
X244340862Y-139220147D01*
X244300179Y-139226182D01*
X244259100Y-139228200D01*
X243420900Y-139228200D01*
X243379821Y-139226182D01*
X243339138Y-139220147D01*
X243299242Y-139210154D01*
X243260517Y-139196298D01*
X243223338Y-139178713D01*
X243188061Y-139157569D01*
X243155026Y-139133069D01*
X243124552Y-139105448D01*
X243096931Y-139074974D01*
X243072431Y-139041939D01*
X243051287Y-139006662D01*
X243033702Y-138969483D01*
X243019846Y-138930758D01*
X243009853Y-138890862D01*
X243003818Y-138850179D01*
X243001800Y-138809100D01*
X243001800Y-131954900D01*
X243003818Y-131913821D01*
X243009853Y-131873138D01*
X243019846Y-131833242D01*
X243033702Y-131794517D01*
X243051287Y-131757338D01*
X243072431Y-131722061D01*
X243096931Y-131689026D01*
X243124552Y-131658552D01*
X243155026Y-131630931D01*
X243188061Y-131606431D01*
X243223338Y-131585287D01*
X243260517Y-131567702D01*
X243299242Y-131553846D01*
X243339138Y-131543853D01*
X243379821Y-131537818D01*
X243420900Y-131535800D01*
X244259100Y-131535800D01*
X244300179Y-131537818D01*
X244300179Y-131537818D01*
G37*
D15*
X243840000Y-135382000D03*
D13*
G36*
X246840179Y-131537818D02*
G01*
X246880862Y-131543853D01*
X246920758Y-131553846D01*
X246959483Y-131567702D01*
X246996662Y-131585287D01*
X247031939Y-131606431D01*
X247064974Y-131630931D01*
X247095448Y-131658552D01*
X247123069Y-131689026D01*
X247147569Y-131722061D01*
X247168713Y-131757338D01*
X247186298Y-131794517D01*
X247200154Y-131833242D01*
X247210147Y-131873138D01*
X247216182Y-131913821D01*
X247218200Y-131954900D01*
X247218200Y-138809100D01*
X247216182Y-138850179D01*
X247210147Y-138890862D01*
X247200154Y-138930758D01*
X247186298Y-138969483D01*
X247168713Y-139006662D01*
X247147569Y-139041939D01*
X247123069Y-139074974D01*
X247095448Y-139105448D01*
X247064974Y-139133069D01*
X247031939Y-139157569D01*
X246996662Y-139178713D01*
X246959483Y-139196298D01*
X246920758Y-139210154D01*
X246880862Y-139220147D01*
X246840179Y-139226182D01*
X246799100Y-139228200D01*
X245960900Y-139228200D01*
X245919821Y-139226182D01*
X245879138Y-139220147D01*
X245839242Y-139210154D01*
X245800517Y-139196298D01*
X245763338Y-139178713D01*
X245728061Y-139157569D01*
X245695026Y-139133069D01*
X245664552Y-139105448D01*
X245636931Y-139074974D01*
X245612431Y-139041939D01*
X245591287Y-139006662D01*
X245573702Y-138969483D01*
X245559846Y-138930758D01*
X245549853Y-138890862D01*
X245543818Y-138850179D01*
X245541800Y-138809100D01*
X245541800Y-131954900D01*
X245543818Y-131913821D01*
X245549853Y-131873138D01*
X245559846Y-131833242D01*
X245573702Y-131794517D01*
X245591287Y-131757338D01*
X245612431Y-131722061D01*
X245636931Y-131689026D01*
X245664552Y-131658552D01*
X245695026Y-131630931D01*
X245728061Y-131606431D01*
X245763338Y-131585287D01*
X245800517Y-131567702D01*
X245839242Y-131553846D01*
X245879138Y-131543853D01*
X245919821Y-131537818D01*
X245960900Y-131535800D01*
X246799100Y-131535800D01*
X246840179Y-131537818D01*
X246840179Y-131537818D01*
G37*
D15*
X246380000Y-135382000D03*
D13*
G36*
X249380179Y-131537818D02*
G01*
X249420862Y-131543853D01*
X249460758Y-131553846D01*
X249499483Y-131567702D01*
X249536662Y-131585287D01*
X249571939Y-131606431D01*
X249604974Y-131630931D01*
X249635448Y-131658552D01*
X249663069Y-131689026D01*
X249687569Y-131722061D01*
X249708713Y-131757338D01*
X249726298Y-131794517D01*
X249740154Y-131833242D01*
X249750147Y-131873138D01*
X249756182Y-131913821D01*
X249758200Y-131954900D01*
X249758200Y-138809100D01*
X249756182Y-138850179D01*
X249750147Y-138890862D01*
X249740154Y-138930758D01*
X249726298Y-138969483D01*
X249708713Y-139006662D01*
X249687569Y-139041939D01*
X249663069Y-139074974D01*
X249635448Y-139105448D01*
X249604974Y-139133069D01*
X249571939Y-139157569D01*
X249536662Y-139178713D01*
X249499483Y-139196298D01*
X249460758Y-139210154D01*
X249420862Y-139220147D01*
X249380179Y-139226182D01*
X249339100Y-139228200D01*
X248500900Y-139228200D01*
X248459821Y-139226182D01*
X248419138Y-139220147D01*
X248379242Y-139210154D01*
X248340517Y-139196298D01*
X248303338Y-139178713D01*
X248268061Y-139157569D01*
X248235026Y-139133069D01*
X248204552Y-139105448D01*
X248176931Y-139074974D01*
X248152431Y-139041939D01*
X248131287Y-139006662D01*
X248113702Y-138969483D01*
X248099846Y-138930758D01*
X248089853Y-138890862D01*
X248083818Y-138850179D01*
X248081800Y-138809100D01*
X248081800Y-131954900D01*
X248083818Y-131913821D01*
X248089853Y-131873138D01*
X248099846Y-131833242D01*
X248113702Y-131794517D01*
X248131287Y-131757338D01*
X248152431Y-131722061D01*
X248176931Y-131689026D01*
X248204552Y-131658552D01*
X248235026Y-131630931D01*
X248268061Y-131606431D01*
X248303338Y-131585287D01*
X248340517Y-131567702D01*
X248379242Y-131553846D01*
X248419138Y-131543853D01*
X248459821Y-131537818D01*
X248500900Y-131535800D01*
X249339100Y-131535800D01*
X249380179Y-131537818D01*
X249380179Y-131537818D01*
G37*
D15*
X248920000Y-135382000D03*
D13*
G36*
X251920179Y-131537818D02*
G01*
X251960862Y-131543853D01*
X252000758Y-131553846D01*
X252039483Y-131567702D01*
X252076662Y-131585287D01*
X252111939Y-131606431D01*
X252144974Y-131630931D01*
X252175448Y-131658552D01*
X252203069Y-131689026D01*
X252227569Y-131722061D01*
X252248713Y-131757338D01*
X252266298Y-131794517D01*
X252280154Y-131833242D01*
X252290147Y-131873138D01*
X252296182Y-131913821D01*
X252298200Y-131954900D01*
X252298200Y-138809100D01*
X252296182Y-138850179D01*
X252290147Y-138890862D01*
X252280154Y-138930758D01*
X252266298Y-138969483D01*
X252248713Y-139006662D01*
X252227569Y-139041939D01*
X252203069Y-139074974D01*
X252175448Y-139105448D01*
X252144974Y-139133069D01*
X252111939Y-139157569D01*
X252076662Y-139178713D01*
X252039483Y-139196298D01*
X252000758Y-139210154D01*
X251960862Y-139220147D01*
X251920179Y-139226182D01*
X251879100Y-139228200D01*
X251040900Y-139228200D01*
X250999821Y-139226182D01*
X250959138Y-139220147D01*
X250919242Y-139210154D01*
X250880517Y-139196298D01*
X250843338Y-139178713D01*
X250808061Y-139157569D01*
X250775026Y-139133069D01*
X250744552Y-139105448D01*
X250716931Y-139074974D01*
X250692431Y-139041939D01*
X250671287Y-139006662D01*
X250653702Y-138969483D01*
X250639846Y-138930758D01*
X250629853Y-138890862D01*
X250623818Y-138850179D01*
X250621800Y-138809100D01*
X250621800Y-131954900D01*
X250623818Y-131913821D01*
X250629853Y-131873138D01*
X250639846Y-131833242D01*
X250653702Y-131794517D01*
X250671287Y-131757338D01*
X250692431Y-131722061D01*
X250716931Y-131689026D01*
X250744552Y-131658552D01*
X250775026Y-131630931D01*
X250808061Y-131606431D01*
X250843338Y-131585287D01*
X250880517Y-131567702D01*
X250919242Y-131553846D01*
X250959138Y-131543853D01*
X250999821Y-131537818D01*
X251040900Y-131535800D01*
X251879100Y-131535800D01*
X251920179Y-131537818D01*
X251920179Y-131537818D01*
G37*
D15*
X251460000Y-135382000D03*
D13*
G36*
X254460179Y-131537818D02*
G01*
X254500862Y-131543853D01*
X254540758Y-131553846D01*
X254579483Y-131567702D01*
X254616662Y-131585287D01*
X254651939Y-131606431D01*
X254684974Y-131630931D01*
X254715448Y-131658552D01*
X254743069Y-131689026D01*
X254767569Y-131722061D01*
X254788713Y-131757338D01*
X254806298Y-131794517D01*
X254820154Y-131833242D01*
X254830147Y-131873138D01*
X254836182Y-131913821D01*
X254838200Y-131954900D01*
X254838200Y-138809100D01*
X254836182Y-138850179D01*
X254830147Y-138890862D01*
X254820154Y-138930758D01*
X254806298Y-138969483D01*
X254788713Y-139006662D01*
X254767569Y-139041939D01*
X254743069Y-139074974D01*
X254715448Y-139105448D01*
X254684974Y-139133069D01*
X254651939Y-139157569D01*
X254616662Y-139178713D01*
X254579483Y-139196298D01*
X254540758Y-139210154D01*
X254500862Y-139220147D01*
X254460179Y-139226182D01*
X254419100Y-139228200D01*
X253580900Y-139228200D01*
X253539821Y-139226182D01*
X253499138Y-139220147D01*
X253459242Y-139210154D01*
X253420517Y-139196298D01*
X253383338Y-139178713D01*
X253348061Y-139157569D01*
X253315026Y-139133069D01*
X253284552Y-139105448D01*
X253256931Y-139074974D01*
X253232431Y-139041939D01*
X253211287Y-139006662D01*
X253193702Y-138969483D01*
X253179846Y-138930758D01*
X253169853Y-138890862D01*
X253163818Y-138850179D01*
X253161800Y-138809100D01*
X253161800Y-131954900D01*
X253163818Y-131913821D01*
X253169853Y-131873138D01*
X253179846Y-131833242D01*
X253193702Y-131794517D01*
X253211287Y-131757338D01*
X253232431Y-131722061D01*
X253256931Y-131689026D01*
X253284552Y-131658552D01*
X253315026Y-131630931D01*
X253348061Y-131606431D01*
X253383338Y-131585287D01*
X253420517Y-131567702D01*
X253459242Y-131553846D01*
X253499138Y-131543853D01*
X253539821Y-131537818D01*
X253580900Y-131535800D01*
X254419100Y-131535800D01*
X254460179Y-131537818D01*
X254460179Y-131537818D01*
G37*
D15*
X254000000Y-135382000D03*
D13*
G36*
X257000179Y-131537818D02*
G01*
X257040862Y-131543853D01*
X257080758Y-131553846D01*
X257119483Y-131567702D01*
X257156662Y-131585287D01*
X257191939Y-131606431D01*
X257224974Y-131630931D01*
X257255448Y-131658552D01*
X257283069Y-131689026D01*
X257307569Y-131722061D01*
X257328713Y-131757338D01*
X257346298Y-131794517D01*
X257360154Y-131833242D01*
X257370147Y-131873138D01*
X257376182Y-131913821D01*
X257378200Y-131954900D01*
X257378200Y-138809100D01*
X257376182Y-138850179D01*
X257370147Y-138890862D01*
X257360154Y-138930758D01*
X257346298Y-138969483D01*
X257328713Y-139006662D01*
X257307569Y-139041939D01*
X257283069Y-139074974D01*
X257255448Y-139105448D01*
X257224974Y-139133069D01*
X257191939Y-139157569D01*
X257156662Y-139178713D01*
X257119483Y-139196298D01*
X257080758Y-139210154D01*
X257040862Y-139220147D01*
X257000179Y-139226182D01*
X256959100Y-139228200D01*
X256120900Y-139228200D01*
X256079821Y-139226182D01*
X256039138Y-139220147D01*
X255999242Y-139210154D01*
X255960517Y-139196298D01*
X255923338Y-139178713D01*
X255888061Y-139157569D01*
X255855026Y-139133069D01*
X255824552Y-139105448D01*
X255796931Y-139074974D01*
X255772431Y-139041939D01*
X255751287Y-139006662D01*
X255733702Y-138969483D01*
X255719846Y-138930758D01*
X255709853Y-138890862D01*
X255703818Y-138850179D01*
X255701800Y-138809100D01*
X255701800Y-131954900D01*
X255703818Y-131913821D01*
X255709853Y-131873138D01*
X255719846Y-131833242D01*
X255733702Y-131794517D01*
X255751287Y-131757338D01*
X255772431Y-131722061D01*
X255796931Y-131689026D01*
X255824552Y-131658552D01*
X255855026Y-131630931D01*
X255888061Y-131606431D01*
X255923338Y-131585287D01*
X255960517Y-131567702D01*
X255999242Y-131553846D01*
X256039138Y-131543853D01*
X256079821Y-131537818D01*
X256120900Y-131535800D01*
X256959100Y-131535800D01*
X257000179Y-131537818D01*
X257000179Y-131537818D01*
G37*
D15*
X256540000Y-135382000D03*
D13*
G36*
X259540179Y-131537818D02*
G01*
X259580862Y-131543853D01*
X259620758Y-131553846D01*
X259659483Y-131567702D01*
X259696662Y-131585287D01*
X259731939Y-131606431D01*
X259764974Y-131630931D01*
X259795448Y-131658552D01*
X259823069Y-131689026D01*
X259847569Y-131722061D01*
X259868713Y-131757338D01*
X259886298Y-131794517D01*
X259900154Y-131833242D01*
X259910147Y-131873138D01*
X259916182Y-131913821D01*
X259918200Y-131954900D01*
X259918200Y-138809100D01*
X259916182Y-138850179D01*
X259910147Y-138890862D01*
X259900154Y-138930758D01*
X259886298Y-138969483D01*
X259868713Y-139006662D01*
X259847569Y-139041939D01*
X259823069Y-139074974D01*
X259795448Y-139105448D01*
X259764974Y-139133069D01*
X259731939Y-139157569D01*
X259696662Y-139178713D01*
X259659483Y-139196298D01*
X259620758Y-139210154D01*
X259580862Y-139220147D01*
X259540179Y-139226182D01*
X259499100Y-139228200D01*
X258660900Y-139228200D01*
X258619821Y-139226182D01*
X258579138Y-139220147D01*
X258539242Y-139210154D01*
X258500517Y-139196298D01*
X258463338Y-139178713D01*
X258428061Y-139157569D01*
X258395026Y-139133069D01*
X258364552Y-139105448D01*
X258336931Y-139074974D01*
X258312431Y-139041939D01*
X258291287Y-139006662D01*
X258273702Y-138969483D01*
X258259846Y-138930758D01*
X258249853Y-138890862D01*
X258243818Y-138850179D01*
X258241800Y-138809100D01*
X258241800Y-131954900D01*
X258243818Y-131913821D01*
X258249853Y-131873138D01*
X258259846Y-131833242D01*
X258273702Y-131794517D01*
X258291287Y-131757338D01*
X258312431Y-131722061D01*
X258336931Y-131689026D01*
X258364552Y-131658552D01*
X258395026Y-131630931D01*
X258428061Y-131606431D01*
X258463338Y-131585287D01*
X258500517Y-131567702D01*
X258539242Y-131553846D01*
X258579138Y-131543853D01*
X258619821Y-131537818D01*
X258660900Y-131535800D01*
X259499100Y-131535800D01*
X259540179Y-131537818D01*
X259540179Y-131537818D01*
G37*
D15*
X259080000Y-135382000D03*
D13*
G36*
X262080179Y-131537818D02*
G01*
X262120862Y-131543853D01*
X262160758Y-131553846D01*
X262199483Y-131567702D01*
X262236662Y-131585287D01*
X262271939Y-131606431D01*
X262304974Y-131630931D01*
X262335448Y-131658552D01*
X262363069Y-131689026D01*
X262387569Y-131722061D01*
X262408713Y-131757338D01*
X262426298Y-131794517D01*
X262440154Y-131833242D01*
X262450147Y-131873138D01*
X262456182Y-131913821D01*
X262458200Y-131954900D01*
X262458200Y-138809100D01*
X262456182Y-138850179D01*
X262450147Y-138890862D01*
X262440154Y-138930758D01*
X262426298Y-138969483D01*
X262408713Y-139006662D01*
X262387569Y-139041939D01*
X262363069Y-139074974D01*
X262335448Y-139105448D01*
X262304974Y-139133069D01*
X262271939Y-139157569D01*
X262236662Y-139178713D01*
X262199483Y-139196298D01*
X262160758Y-139210154D01*
X262120862Y-139220147D01*
X262080179Y-139226182D01*
X262039100Y-139228200D01*
X261200900Y-139228200D01*
X261159821Y-139226182D01*
X261119138Y-139220147D01*
X261079242Y-139210154D01*
X261040517Y-139196298D01*
X261003338Y-139178713D01*
X260968061Y-139157569D01*
X260935026Y-139133069D01*
X260904552Y-139105448D01*
X260876931Y-139074974D01*
X260852431Y-139041939D01*
X260831287Y-139006662D01*
X260813702Y-138969483D01*
X260799846Y-138930758D01*
X260789853Y-138890862D01*
X260783818Y-138850179D01*
X260781800Y-138809100D01*
X260781800Y-131954900D01*
X260783818Y-131913821D01*
X260789853Y-131873138D01*
X260799846Y-131833242D01*
X260813702Y-131794517D01*
X260831287Y-131757338D01*
X260852431Y-131722061D01*
X260876931Y-131689026D01*
X260904552Y-131658552D01*
X260935026Y-131630931D01*
X260968061Y-131606431D01*
X261003338Y-131585287D01*
X261040517Y-131567702D01*
X261079242Y-131553846D01*
X261119138Y-131543853D01*
X261159821Y-131537818D01*
X261200900Y-131535800D01*
X262039100Y-131535800D01*
X262080179Y-131537818D01*
X262080179Y-131537818D01*
G37*
D15*
X261620000Y-135382000D03*
D13*
G36*
X264620179Y-131537818D02*
G01*
X264660862Y-131543853D01*
X264700758Y-131553846D01*
X264739483Y-131567702D01*
X264776662Y-131585287D01*
X264811939Y-131606431D01*
X264844974Y-131630931D01*
X264875448Y-131658552D01*
X264903069Y-131689026D01*
X264927569Y-131722061D01*
X264948713Y-131757338D01*
X264966298Y-131794517D01*
X264980154Y-131833242D01*
X264990147Y-131873138D01*
X264996182Y-131913821D01*
X264998200Y-131954900D01*
X264998200Y-138809100D01*
X264996182Y-138850179D01*
X264990147Y-138890862D01*
X264980154Y-138930758D01*
X264966298Y-138969483D01*
X264948713Y-139006662D01*
X264927569Y-139041939D01*
X264903069Y-139074974D01*
X264875448Y-139105448D01*
X264844974Y-139133069D01*
X264811939Y-139157569D01*
X264776662Y-139178713D01*
X264739483Y-139196298D01*
X264700758Y-139210154D01*
X264660862Y-139220147D01*
X264620179Y-139226182D01*
X264579100Y-139228200D01*
X263740900Y-139228200D01*
X263699821Y-139226182D01*
X263659138Y-139220147D01*
X263619242Y-139210154D01*
X263580517Y-139196298D01*
X263543338Y-139178713D01*
X263508061Y-139157569D01*
X263475026Y-139133069D01*
X263444552Y-139105448D01*
X263416931Y-139074974D01*
X263392431Y-139041939D01*
X263371287Y-139006662D01*
X263353702Y-138969483D01*
X263339846Y-138930758D01*
X263329853Y-138890862D01*
X263323818Y-138850179D01*
X263321800Y-138809100D01*
X263321800Y-131954900D01*
X263323818Y-131913821D01*
X263329853Y-131873138D01*
X263339846Y-131833242D01*
X263353702Y-131794517D01*
X263371287Y-131757338D01*
X263392431Y-131722061D01*
X263416931Y-131689026D01*
X263444552Y-131658552D01*
X263475026Y-131630931D01*
X263508061Y-131606431D01*
X263543338Y-131585287D01*
X263580517Y-131567702D01*
X263619242Y-131553846D01*
X263659138Y-131543853D01*
X263699821Y-131537818D01*
X263740900Y-131535800D01*
X264579100Y-131535800D01*
X264620179Y-131537818D01*
X264620179Y-131537818D01*
G37*
D15*
X264160000Y-135382000D03*
D13*
G36*
X267160179Y-131537818D02*
G01*
X267200862Y-131543853D01*
X267240758Y-131553846D01*
X267279483Y-131567702D01*
X267316662Y-131585287D01*
X267351939Y-131606431D01*
X267384974Y-131630931D01*
X267415448Y-131658552D01*
X267443069Y-131689026D01*
X267467569Y-131722061D01*
X267488713Y-131757338D01*
X267506298Y-131794517D01*
X267520154Y-131833242D01*
X267530147Y-131873138D01*
X267536182Y-131913821D01*
X267538200Y-131954900D01*
X267538200Y-138809100D01*
X267536182Y-138850179D01*
X267530147Y-138890862D01*
X267520154Y-138930758D01*
X267506298Y-138969483D01*
X267488713Y-139006662D01*
X267467569Y-139041939D01*
X267443069Y-139074974D01*
X267415448Y-139105448D01*
X267384974Y-139133069D01*
X267351939Y-139157569D01*
X267316662Y-139178713D01*
X267279483Y-139196298D01*
X267240758Y-139210154D01*
X267200862Y-139220147D01*
X267160179Y-139226182D01*
X267119100Y-139228200D01*
X266280900Y-139228200D01*
X266239821Y-139226182D01*
X266199138Y-139220147D01*
X266159242Y-139210154D01*
X266120517Y-139196298D01*
X266083338Y-139178713D01*
X266048061Y-139157569D01*
X266015026Y-139133069D01*
X265984552Y-139105448D01*
X265956931Y-139074974D01*
X265932431Y-139041939D01*
X265911287Y-139006662D01*
X265893702Y-138969483D01*
X265879846Y-138930758D01*
X265869853Y-138890862D01*
X265863818Y-138850179D01*
X265861800Y-138809100D01*
X265861800Y-131954900D01*
X265863818Y-131913821D01*
X265869853Y-131873138D01*
X265879846Y-131833242D01*
X265893702Y-131794517D01*
X265911287Y-131757338D01*
X265932431Y-131722061D01*
X265956931Y-131689026D01*
X265984552Y-131658552D01*
X266015026Y-131630931D01*
X266048061Y-131606431D01*
X266083338Y-131585287D01*
X266120517Y-131567702D01*
X266159242Y-131553846D01*
X266199138Y-131543853D01*
X266239821Y-131537818D01*
X266280900Y-131535800D01*
X267119100Y-131535800D01*
X267160179Y-131537818D01*
X267160179Y-131537818D01*
G37*
D15*
X266700000Y-135382000D03*
D13*
G36*
X269700179Y-131537818D02*
G01*
X269740862Y-131543853D01*
X269780758Y-131553846D01*
X269819483Y-131567702D01*
X269856662Y-131585287D01*
X269891939Y-131606431D01*
X269924974Y-131630931D01*
X269955448Y-131658552D01*
X269983069Y-131689026D01*
X270007569Y-131722061D01*
X270028713Y-131757338D01*
X270046298Y-131794517D01*
X270060154Y-131833242D01*
X270070147Y-131873138D01*
X270076182Y-131913821D01*
X270078200Y-131954900D01*
X270078200Y-138809100D01*
X270076182Y-138850179D01*
X270070147Y-138890862D01*
X270060154Y-138930758D01*
X270046298Y-138969483D01*
X270028713Y-139006662D01*
X270007569Y-139041939D01*
X269983069Y-139074974D01*
X269955448Y-139105448D01*
X269924974Y-139133069D01*
X269891939Y-139157569D01*
X269856662Y-139178713D01*
X269819483Y-139196298D01*
X269780758Y-139210154D01*
X269740862Y-139220147D01*
X269700179Y-139226182D01*
X269659100Y-139228200D01*
X268820900Y-139228200D01*
X268779821Y-139226182D01*
X268739138Y-139220147D01*
X268699242Y-139210154D01*
X268660517Y-139196298D01*
X268623338Y-139178713D01*
X268588061Y-139157569D01*
X268555026Y-139133069D01*
X268524552Y-139105448D01*
X268496931Y-139074974D01*
X268472431Y-139041939D01*
X268451287Y-139006662D01*
X268433702Y-138969483D01*
X268419846Y-138930758D01*
X268409853Y-138890862D01*
X268403818Y-138850179D01*
X268401800Y-138809100D01*
X268401800Y-131954900D01*
X268403818Y-131913821D01*
X268409853Y-131873138D01*
X268419846Y-131833242D01*
X268433702Y-131794517D01*
X268451287Y-131757338D01*
X268472431Y-131722061D01*
X268496931Y-131689026D01*
X268524552Y-131658552D01*
X268555026Y-131630931D01*
X268588061Y-131606431D01*
X268623338Y-131585287D01*
X268660517Y-131567702D01*
X268699242Y-131553846D01*
X268739138Y-131543853D01*
X268779821Y-131537818D01*
X268820900Y-131535800D01*
X269659100Y-131535800D01*
X269700179Y-131537818D01*
X269700179Y-131537818D01*
G37*
D15*
X269240000Y-135382000D03*
D13*
G36*
X272240179Y-131537818D02*
G01*
X272280862Y-131543853D01*
X272320758Y-131553846D01*
X272359483Y-131567702D01*
X272396662Y-131585287D01*
X272431939Y-131606431D01*
X272464974Y-131630931D01*
X272495448Y-131658552D01*
X272523069Y-131689026D01*
X272547569Y-131722061D01*
X272568713Y-131757338D01*
X272586298Y-131794517D01*
X272600154Y-131833242D01*
X272610147Y-131873138D01*
X272616182Y-131913821D01*
X272618200Y-131954900D01*
X272618200Y-138809100D01*
X272616182Y-138850179D01*
X272610147Y-138890862D01*
X272600154Y-138930758D01*
X272586298Y-138969483D01*
X272568713Y-139006662D01*
X272547569Y-139041939D01*
X272523069Y-139074974D01*
X272495448Y-139105448D01*
X272464974Y-139133069D01*
X272431939Y-139157569D01*
X272396662Y-139178713D01*
X272359483Y-139196298D01*
X272320758Y-139210154D01*
X272280862Y-139220147D01*
X272240179Y-139226182D01*
X272199100Y-139228200D01*
X271360900Y-139228200D01*
X271319821Y-139226182D01*
X271279138Y-139220147D01*
X271239242Y-139210154D01*
X271200517Y-139196298D01*
X271163338Y-139178713D01*
X271128061Y-139157569D01*
X271095026Y-139133069D01*
X271064552Y-139105448D01*
X271036931Y-139074974D01*
X271012431Y-139041939D01*
X270991287Y-139006662D01*
X270973702Y-138969483D01*
X270959846Y-138930758D01*
X270949853Y-138890862D01*
X270943818Y-138850179D01*
X270941800Y-138809100D01*
X270941800Y-131954900D01*
X270943818Y-131913821D01*
X270949853Y-131873138D01*
X270959846Y-131833242D01*
X270973702Y-131794517D01*
X270991287Y-131757338D01*
X271012431Y-131722061D01*
X271036931Y-131689026D01*
X271064552Y-131658552D01*
X271095026Y-131630931D01*
X271128061Y-131606431D01*
X271163338Y-131585287D01*
X271200517Y-131567702D01*
X271239242Y-131553846D01*
X271279138Y-131543853D01*
X271319821Y-131537818D01*
X271360900Y-131535800D01*
X272199100Y-131535800D01*
X272240179Y-131537818D01*
X272240179Y-131537818D01*
G37*
D15*
X271780000Y-135382000D03*
D13*
G36*
X274780179Y-131537818D02*
G01*
X274820862Y-131543853D01*
X274860758Y-131553846D01*
X274899483Y-131567702D01*
X274936662Y-131585287D01*
X274971939Y-131606431D01*
X275004974Y-131630931D01*
X275035448Y-131658552D01*
X275063069Y-131689026D01*
X275087569Y-131722061D01*
X275108713Y-131757338D01*
X275126298Y-131794517D01*
X275140154Y-131833242D01*
X275150147Y-131873138D01*
X275156182Y-131913821D01*
X275158200Y-131954900D01*
X275158200Y-138809100D01*
X275156182Y-138850179D01*
X275150147Y-138890862D01*
X275140154Y-138930758D01*
X275126298Y-138969483D01*
X275108713Y-139006662D01*
X275087569Y-139041939D01*
X275063069Y-139074974D01*
X275035448Y-139105448D01*
X275004974Y-139133069D01*
X274971939Y-139157569D01*
X274936662Y-139178713D01*
X274899483Y-139196298D01*
X274860758Y-139210154D01*
X274820862Y-139220147D01*
X274780179Y-139226182D01*
X274739100Y-139228200D01*
X273900900Y-139228200D01*
X273859821Y-139226182D01*
X273819138Y-139220147D01*
X273779242Y-139210154D01*
X273740517Y-139196298D01*
X273703338Y-139178713D01*
X273668061Y-139157569D01*
X273635026Y-139133069D01*
X273604552Y-139105448D01*
X273576931Y-139074974D01*
X273552431Y-139041939D01*
X273531287Y-139006662D01*
X273513702Y-138969483D01*
X273499846Y-138930758D01*
X273489853Y-138890862D01*
X273483818Y-138850179D01*
X273481800Y-138809100D01*
X273481800Y-131954900D01*
X273483818Y-131913821D01*
X273489853Y-131873138D01*
X273499846Y-131833242D01*
X273513702Y-131794517D01*
X273531287Y-131757338D01*
X273552431Y-131722061D01*
X273576931Y-131689026D01*
X273604552Y-131658552D01*
X273635026Y-131630931D01*
X273668061Y-131606431D01*
X273703338Y-131585287D01*
X273740517Y-131567702D01*
X273779242Y-131553846D01*
X273819138Y-131543853D01*
X273859821Y-131537818D01*
X273900900Y-131535800D01*
X274739100Y-131535800D01*
X274780179Y-131537818D01*
X274780179Y-131537818D01*
G37*
D15*
X274320000Y-135382000D03*
D14*
X207010000Y-129540000D03*
X204978000Y-89281000D03*
X267970000Y-129540000D03*
M02*
