G04 #@! TF.GenerationSoftware,KiCad,Pcbnew,(5.1.2-1)-1*
G04 #@! TF.CreationDate,2019-07-30T17:06:57-04:00*
G04 #@! TF.ProjectId,RAM2E,52414d32-452e-46b6-9963-61645f706362,rev?*
G04 #@! TF.SameCoordinates,Original*
G04 #@! TF.FileFunction,Soldermask,Bot*
G04 #@! TF.FilePolarity,Negative*
%FSLAX46Y46*%
G04 Gerber Fmt 4.6, Leading zero omitted, Abs format (unit mm)*
G04 Created by KiCad (PCBNEW (5.1.2-1)-1) date 2019-07-30 17:06:57*
%MOMM*%
%LPD*%
G04 APERTURE LIST*
%ADD10C,0.100000*%
G04 APERTURE END LIST*
D10*
G36*
X276606000Y-139446000D02*
G01*
X276098000Y-139954000D01*
X198882000Y-139954000D01*
X198374000Y-139446000D01*
X198374000Y-132080000D01*
X276606000Y-132080000D01*
X276606000Y-139446000D01*
G37*
G36*
X274846355Y-131543544D02*
G01*
X274918967Y-131565570D01*
X274985881Y-131601336D01*
X275044531Y-131649469D01*
X275092664Y-131708119D01*
X275128430Y-131775033D01*
X275150456Y-131847645D01*
X275158200Y-131926267D01*
X275158200Y-138837733D01*
X275150456Y-138916355D01*
X275128430Y-138988967D01*
X275092664Y-139055881D01*
X275044531Y-139114531D01*
X274985881Y-139162664D01*
X274918967Y-139198430D01*
X274846355Y-139220456D01*
X274767733Y-139228200D01*
X273872267Y-139228200D01*
X273793645Y-139220456D01*
X273721033Y-139198430D01*
X273654119Y-139162664D01*
X273595469Y-139114531D01*
X273547336Y-139055881D01*
X273511570Y-138988967D01*
X273489544Y-138916355D01*
X273481800Y-138837733D01*
X273481800Y-131926267D01*
X273489544Y-131847645D01*
X273511570Y-131775033D01*
X273547336Y-131708119D01*
X273595469Y-131649469D01*
X273654119Y-131601336D01*
X273721033Y-131565570D01*
X273793645Y-131543544D01*
X273872267Y-131535800D01*
X274767733Y-131535800D01*
X274846355Y-131543544D01*
X274846355Y-131543544D01*
G37*
G36*
X272306355Y-131543544D02*
G01*
X272378967Y-131565570D01*
X272445881Y-131601336D01*
X272504531Y-131649469D01*
X272552664Y-131708119D01*
X272588430Y-131775033D01*
X272610456Y-131847645D01*
X272618200Y-131926267D01*
X272618200Y-138837733D01*
X272610456Y-138916355D01*
X272588430Y-138988967D01*
X272552664Y-139055881D01*
X272504531Y-139114531D01*
X272445881Y-139162664D01*
X272378967Y-139198430D01*
X272306355Y-139220456D01*
X272227733Y-139228200D01*
X271332267Y-139228200D01*
X271253645Y-139220456D01*
X271181033Y-139198430D01*
X271114119Y-139162664D01*
X271055469Y-139114531D01*
X271007336Y-139055881D01*
X270971570Y-138988967D01*
X270949544Y-138916355D01*
X270941800Y-138837733D01*
X270941800Y-131926267D01*
X270949544Y-131847645D01*
X270971570Y-131775033D01*
X271007336Y-131708119D01*
X271055469Y-131649469D01*
X271114119Y-131601336D01*
X271181033Y-131565570D01*
X271253645Y-131543544D01*
X271332267Y-131535800D01*
X272227733Y-131535800D01*
X272306355Y-131543544D01*
X272306355Y-131543544D01*
G37*
G36*
X269766355Y-131543544D02*
G01*
X269838967Y-131565570D01*
X269905881Y-131601336D01*
X269964531Y-131649469D01*
X270012664Y-131708119D01*
X270048430Y-131775033D01*
X270070456Y-131847645D01*
X270078200Y-131926267D01*
X270078200Y-138837733D01*
X270070456Y-138916355D01*
X270048430Y-138988967D01*
X270012664Y-139055881D01*
X269964531Y-139114531D01*
X269905881Y-139162664D01*
X269838967Y-139198430D01*
X269766355Y-139220456D01*
X269687733Y-139228200D01*
X268792267Y-139228200D01*
X268713645Y-139220456D01*
X268641033Y-139198430D01*
X268574119Y-139162664D01*
X268515469Y-139114531D01*
X268467336Y-139055881D01*
X268431570Y-138988967D01*
X268409544Y-138916355D01*
X268401800Y-138837733D01*
X268401800Y-131926267D01*
X268409544Y-131847645D01*
X268431570Y-131775033D01*
X268467336Y-131708119D01*
X268515469Y-131649469D01*
X268574119Y-131601336D01*
X268641033Y-131565570D01*
X268713645Y-131543544D01*
X268792267Y-131535800D01*
X269687733Y-131535800D01*
X269766355Y-131543544D01*
X269766355Y-131543544D01*
G37*
G36*
X267226355Y-131543544D02*
G01*
X267298967Y-131565570D01*
X267365881Y-131601336D01*
X267424531Y-131649469D01*
X267472664Y-131708119D01*
X267508430Y-131775033D01*
X267530456Y-131847645D01*
X267538200Y-131926267D01*
X267538200Y-138837733D01*
X267530456Y-138916355D01*
X267508430Y-138988967D01*
X267472664Y-139055881D01*
X267424531Y-139114531D01*
X267365881Y-139162664D01*
X267298967Y-139198430D01*
X267226355Y-139220456D01*
X267147733Y-139228200D01*
X266252267Y-139228200D01*
X266173645Y-139220456D01*
X266101033Y-139198430D01*
X266034119Y-139162664D01*
X265975469Y-139114531D01*
X265927336Y-139055881D01*
X265891570Y-138988967D01*
X265869544Y-138916355D01*
X265861800Y-138837733D01*
X265861800Y-131926267D01*
X265869544Y-131847645D01*
X265891570Y-131775033D01*
X265927336Y-131708119D01*
X265975469Y-131649469D01*
X266034119Y-131601336D01*
X266101033Y-131565570D01*
X266173645Y-131543544D01*
X266252267Y-131535800D01*
X267147733Y-131535800D01*
X267226355Y-131543544D01*
X267226355Y-131543544D01*
G37*
G36*
X264686355Y-131543544D02*
G01*
X264758967Y-131565570D01*
X264825881Y-131601336D01*
X264884531Y-131649469D01*
X264932664Y-131708119D01*
X264968430Y-131775033D01*
X264990456Y-131847645D01*
X264998200Y-131926267D01*
X264998200Y-138837733D01*
X264990456Y-138916355D01*
X264968430Y-138988967D01*
X264932664Y-139055881D01*
X264884531Y-139114531D01*
X264825881Y-139162664D01*
X264758967Y-139198430D01*
X264686355Y-139220456D01*
X264607733Y-139228200D01*
X263712267Y-139228200D01*
X263633645Y-139220456D01*
X263561033Y-139198430D01*
X263494119Y-139162664D01*
X263435469Y-139114531D01*
X263387336Y-139055881D01*
X263351570Y-138988967D01*
X263329544Y-138916355D01*
X263321800Y-138837733D01*
X263321800Y-131926267D01*
X263329544Y-131847645D01*
X263351570Y-131775033D01*
X263387336Y-131708119D01*
X263435469Y-131649469D01*
X263494119Y-131601336D01*
X263561033Y-131565570D01*
X263633645Y-131543544D01*
X263712267Y-131535800D01*
X264607733Y-131535800D01*
X264686355Y-131543544D01*
X264686355Y-131543544D01*
G37*
G36*
X262146355Y-131543544D02*
G01*
X262218967Y-131565570D01*
X262285881Y-131601336D01*
X262344531Y-131649469D01*
X262392664Y-131708119D01*
X262428430Y-131775033D01*
X262450456Y-131847645D01*
X262458200Y-131926267D01*
X262458200Y-138837733D01*
X262450456Y-138916355D01*
X262428430Y-138988967D01*
X262392664Y-139055881D01*
X262344531Y-139114531D01*
X262285881Y-139162664D01*
X262218967Y-139198430D01*
X262146355Y-139220456D01*
X262067733Y-139228200D01*
X261172267Y-139228200D01*
X261093645Y-139220456D01*
X261021033Y-139198430D01*
X260954119Y-139162664D01*
X260895469Y-139114531D01*
X260847336Y-139055881D01*
X260811570Y-138988967D01*
X260789544Y-138916355D01*
X260781800Y-138837733D01*
X260781800Y-131926267D01*
X260789544Y-131847645D01*
X260811570Y-131775033D01*
X260847336Y-131708119D01*
X260895469Y-131649469D01*
X260954119Y-131601336D01*
X261021033Y-131565570D01*
X261093645Y-131543544D01*
X261172267Y-131535800D01*
X262067733Y-131535800D01*
X262146355Y-131543544D01*
X262146355Y-131543544D01*
G37*
G36*
X259606355Y-131543544D02*
G01*
X259678967Y-131565570D01*
X259745881Y-131601336D01*
X259804531Y-131649469D01*
X259852664Y-131708119D01*
X259888430Y-131775033D01*
X259910456Y-131847645D01*
X259918200Y-131926267D01*
X259918200Y-138837733D01*
X259910456Y-138916355D01*
X259888430Y-138988967D01*
X259852664Y-139055881D01*
X259804531Y-139114531D01*
X259745881Y-139162664D01*
X259678967Y-139198430D01*
X259606355Y-139220456D01*
X259527733Y-139228200D01*
X258632267Y-139228200D01*
X258553645Y-139220456D01*
X258481033Y-139198430D01*
X258414119Y-139162664D01*
X258355469Y-139114531D01*
X258307336Y-139055881D01*
X258271570Y-138988967D01*
X258249544Y-138916355D01*
X258241800Y-138837733D01*
X258241800Y-131926267D01*
X258249544Y-131847645D01*
X258271570Y-131775033D01*
X258307336Y-131708119D01*
X258355469Y-131649469D01*
X258414119Y-131601336D01*
X258481033Y-131565570D01*
X258553645Y-131543544D01*
X258632267Y-131535800D01*
X259527733Y-131535800D01*
X259606355Y-131543544D01*
X259606355Y-131543544D01*
G37*
G36*
X257066355Y-131543544D02*
G01*
X257138967Y-131565570D01*
X257205881Y-131601336D01*
X257264531Y-131649469D01*
X257312664Y-131708119D01*
X257348430Y-131775033D01*
X257370456Y-131847645D01*
X257378200Y-131926267D01*
X257378200Y-138837733D01*
X257370456Y-138916355D01*
X257348430Y-138988967D01*
X257312664Y-139055881D01*
X257264531Y-139114531D01*
X257205881Y-139162664D01*
X257138967Y-139198430D01*
X257066355Y-139220456D01*
X256987733Y-139228200D01*
X256092267Y-139228200D01*
X256013645Y-139220456D01*
X255941033Y-139198430D01*
X255874119Y-139162664D01*
X255815469Y-139114531D01*
X255767336Y-139055881D01*
X255731570Y-138988967D01*
X255709544Y-138916355D01*
X255701800Y-138837733D01*
X255701800Y-131926267D01*
X255709544Y-131847645D01*
X255731570Y-131775033D01*
X255767336Y-131708119D01*
X255815469Y-131649469D01*
X255874119Y-131601336D01*
X255941033Y-131565570D01*
X256013645Y-131543544D01*
X256092267Y-131535800D01*
X256987733Y-131535800D01*
X257066355Y-131543544D01*
X257066355Y-131543544D01*
G37*
G36*
X254526355Y-131543544D02*
G01*
X254598967Y-131565570D01*
X254665881Y-131601336D01*
X254724531Y-131649469D01*
X254772664Y-131708119D01*
X254808430Y-131775033D01*
X254830456Y-131847645D01*
X254838200Y-131926267D01*
X254838200Y-138837733D01*
X254830456Y-138916355D01*
X254808430Y-138988967D01*
X254772664Y-139055881D01*
X254724531Y-139114531D01*
X254665881Y-139162664D01*
X254598967Y-139198430D01*
X254526355Y-139220456D01*
X254447733Y-139228200D01*
X253552267Y-139228200D01*
X253473645Y-139220456D01*
X253401033Y-139198430D01*
X253334119Y-139162664D01*
X253275469Y-139114531D01*
X253227336Y-139055881D01*
X253191570Y-138988967D01*
X253169544Y-138916355D01*
X253161800Y-138837733D01*
X253161800Y-131926267D01*
X253169544Y-131847645D01*
X253191570Y-131775033D01*
X253227336Y-131708119D01*
X253275469Y-131649469D01*
X253334119Y-131601336D01*
X253401033Y-131565570D01*
X253473645Y-131543544D01*
X253552267Y-131535800D01*
X254447733Y-131535800D01*
X254526355Y-131543544D01*
X254526355Y-131543544D01*
G37*
G36*
X251986355Y-131543544D02*
G01*
X252058967Y-131565570D01*
X252125881Y-131601336D01*
X252184531Y-131649469D01*
X252232664Y-131708119D01*
X252268430Y-131775033D01*
X252290456Y-131847645D01*
X252298200Y-131926267D01*
X252298200Y-138837733D01*
X252290456Y-138916355D01*
X252268430Y-138988967D01*
X252232664Y-139055881D01*
X252184531Y-139114531D01*
X252125881Y-139162664D01*
X252058967Y-139198430D01*
X251986355Y-139220456D01*
X251907733Y-139228200D01*
X251012267Y-139228200D01*
X250933645Y-139220456D01*
X250861033Y-139198430D01*
X250794119Y-139162664D01*
X250735469Y-139114531D01*
X250687336Y-139055881D01*
X250651570Y-138988967D01*
X250629544Y-138916355D01*
X250621800Y-138837733D01*
X250621800Y-131926267D01*
X250629544Y-131847645D01*
X250651570Y-131775033D01*
X250687336Y-131708119D01*
X250735469Y-131649469D01*
X250794119Y-131601336D01*
X250861033Y-131565570D01*
X250933645Y-131543544D01*
X251012267Y-131535800D01*
X251907733Y-131535800D01*
X251986355Y-131543544D01*
X251986355Y-131543544D01*
G37*
G36*
X249446355Y-131543544D02*
G01*
X249518967Y-131565570D01*
X249585881Y-131601336D01*
X249644531Y-131649469D01*
X249692664Y-131708119D01*
X249728430Y-131775033D01*
X249750456Y-131847645D01*
X249758200Y-131926267D01*
X249758200Y-138837733D01*
X249750456Y-138916355D01*
X249728430Y-138988967D01*
X249692664Y-139055881D01*
X249644531Y-139114531D01*
X249585881Y-139162664D01*
X249518967Y-139198430D01*
X249446355Y-139220456D01*
X249367733Y-139228200D01*
X248472267Y-139228200D01*
X248393645Y-139220456D01*
X248321033Y-139198430D01*
X248254119Y-139162664D01*
X248195469Y-139114531D01*
X248147336Y-139055881D01*
X248111570Y-138988967D01*
X248089544Y-138916355D01*
X248081800Y-138837733D01*
X248081800Y-131926267D01*
X248089544Y-131847645D01*
X248111570Y-131775033D01*
X248147336Y-131708119D01*
X248195469Y-131649469D01*
X248254119Y-131601336D01*
X248321033Y-131565570D01*
X248393645Y-131543544D01*
X248472267Y-131535800D01*
X249367733Y-131535800D01*
X249446355Y-131543544D01*
X249446355Y-131543544D01*
G37*
G36*
X246906355Y-131543544D02*
G01*
X246978967Y-131565570D01*
X247045881Y-131601336D01*
X247104531Y-131649469D01*
X247152664Y-131708119D01*
X247188430Y-131775033D01*
X247210456Y-131847645D01*
X247218200Y-131926267D01*
X247218200Y-138837733D01*
X247210456Y-138916355D01*
X247188430Y-138988967D01*
X247152664Y-139055881D01*
X247104531Y-139114531D01*
X247045881Y-139162664D01*
X246978967Y-139198430D01*
X246906355Y-139220456D01*
X246827733Y-139228200D01*
X245932267Y-139228200D01*
X245853645Y-139220456D01*
X245781033Y-139198430D01*
X245714119Y-139162664D01*
X245655469Y-139114531D01*
X245607336Y-139055881D01*
X245571570Y-138988967D01*
X245549544Y-138916355D01*
X245541800Y-138837733D01*
X245541800Y-131926267D01*
X245549544Y-131847645D01*
X245571570Y-131775033D01*
X245607336Y-131708119D01*
X245655469Y-131649469D01*
X245714119Y-131601336D01*
X245781033Y-131565570D01*
X245853645Y-131543544D01*
X245932267Y-131535800D01*
X246827733Y-131535800D01*
X246906355Y-131543544D01*
X246906355Y-131543544D01*
G37*
G36*
X244366355Y-131543544D02*
G01*
X244438967Y-131565570D01*
X244505881Y-131601336D01*
X244564531Y-131649469D01*
X244612664Y-131708119D01*
X244648430Y-131775033D01*
X244670456Y-131847645D01*
X244678200Y-131926267D01*
X244678200Y-138837733D01*
X244670456Y-138916355D01*
X244648430Y-138988967D01*
X244612664Y-139055881D01*
X244564531Y-139114531D01*
X244505881Y-139162664D01*
X244438967Y-139198430D01*
X244366355Y-139220456D01*
X244287733Y-139228200D01*
X243392267Y-139228200D01*
X243313645Y-139220456D01*
X243241033Y-139198430D01*
X243174119Y-139162664D01*
X243115469Y-139114531D01*
X243067336Y-139055881D01*
X243031570Y-138988967D01*
X243009544Y-138916355D01*
X243001800Y-138837733D01*
X243001800Y-131926267D01*
X243009544Y-131847645D01*
X243031570Y-131775033D01*
X243067336Y-131708119D01*
X243115469Y-131649469D01*
X243174119Y-131601336D01*
X243241033Y-131565570D01*
X243313645Y-131543544D01*
X243392267Y-131535800D01*
X244287733Y-131535800D01*
X244366355Y-131543544D01*
X244366355Y-131543544D01*
G37*
G36*
X241826355Y-131543544D02*
G01*
X241898967Y-131565570D01*
X241965881Y-131601336D01*
X242024531Y-131649469D01*
X242072664Y-131708119D01*
X242108430Y-131775033D01*
X242130456Y-131847645D01*
X242138200Y-131926267D01*
X242138200Y-138837733D01*
X242130456Y-138916355D01*
X242108430Y-138988967D01*
X242072664Y-139055881D01*
X242024531Y-139114531D01*
X241965881Y-139162664D01*
X241898967Y-139198430D01*
X241826355Y-139220456D01*
X241747733Y-139228200D01*
X240852267Y-139228200D01*
X240773645Y-139220456D01*
X240701033Y-139198430D01*
X240634119Y-139162664D01*
X240575469Y-139114531D01*
X240527336Y-139055881D01*
X240491570Y-138988967D01*
X240469544Y-138916355D01*
X240461800Y-138837733D01*
X240461800Y-131926267D01*
X240469544Y-131847645D01*
X240491570Y-131775033D01*
X240527336Y-131708119D01*
X240575469Y-131649469D01*
X240634119Y-131601336D01*
X240701033Y-131565570D01*
X240773645Y-131543544D01*
X240852267Y-131535800D01*
X241747733Y-131535800D01*
X241826355Y-131543544D01*
X241826355Y-131543544D01*
G37*
G36*
X239286355Y-131543544D02*
G01*
X239358967Y-131565570D01*
X239425881Y-131601336D01*
X239484531Y-131649469D01*
X239532664Y-131708119D01*
X239568430Y-131775033D01*
X239590456Y-131847645D01*
X239598200Y-131926267D01*
X239598200Y-138837733D01*
X239590456Y-138916355D01*
X239568430Y-138988967D01*
X239532664Y-139055881D01*
X239484531Y-139114531D01*
X239425881Y-139162664D01*
X239358967Y-139198430D01*
X239286355Y-139220456D01*
X239207733Y-139228200D01*
X238312267Y-139228200D01*
X238233645Y-139220456D01*
X238161033Y-139198430D01*
X238094119Y-139162664D01*
X238035469Y-139114531D01*
X237987336Y-139055881D01*
X237951570Y-138988967D01*
X237929544Y-138916355D01*
X237921800Y-138837733D01*
X237921800Y-131926267D01*
X237929544Y-131847645D01*
X237951570Y-131775033D01*
X237987336Y-131708119D01*
X238035469Y-131649469D01*
X238094119Y-131601336D01*
X238161033Y-131565570D01*
X238233645Y-131543544D01*
X238312267Y-131535800D01*
X239207733Y-131535800D01*
X239286355Y-131543544D01*
X239286355Y-131543544D01*
G37*
G36*
X236746355Y-131543544D02*
G01*
X236818967Y-131565570D01*
X236885881Y-131601336D01*
X236944531Y-131649469D01*
X236992664Y-131708119D01*
X237028430Y-131775033D01*
X237050456Y-131847645D01*
X237058200Y-131926267D01*
X237058200Y-138837733D01*
X237050456Y-138916355D01*
X237028430Y-138988967D01*
X236992664Y-139055881D01*
X236944531Y-139114531D01*
X236885881Y-139162664D01*
X236818967Y-139198430D01*
X236746355Y-139220456D01*
X236667733Y-139228200D01*
X235772267Y-139228200D01*
X235693645Y-139220456D01*
X235621033Y-139198430D01*
X235554119Y-139162664D01*
X235495469Y-139114531D01*
X235447336Y-139055881D01*
X235411570Y-138988967D01*
X235389544Y-138916355D01*
X235381800Y-138837733D01*
X235381800Y-131926267D01*
X235389544Y-131847645D01*
X235411570Y-131775033D01*
X235447336Y-131708119D01*
X235495469Y-131649469D01*
X235554119Y-131601336D01*
X235621033Y-131565570D01*
X235693645Y-131543544D01*
X235772267Y-131535800D01*
X236667733Y-131535800D01*
X236746355Y-131543544D01*
X236746355Y-131543544D01*
G37*
G36*
X234206355Y-131543544D02*
G01*
X234278967Y-131565570D01*
X234345881Y-131601336D01*
X234404531Y-131649469D01*
X234452664Y-131708119D01*
X234488430Y-131775033D01*
X234510456Y-131847645D01*
X234518200Y-131926267D01*
X234518200Y-138837733D01*
X234510456Y-138916355D01*
X234488430Y-138988967D01*
X234452664Y-139055881D01*
X234404531Y-139114531D01*
X234345881Y-139162664D01*
X234278967Y-139198430D01*
X234206355Y-139220456D01*
X234127733Y-139228200D01*
X233232267Y-139228200D01*
X233153645Y-139220456D01*
X233081033Y-139198430D01*
X233014119Y-139162664D01*
X232955469Y-139114531D01*
X232907336Y-139055881D01*
X232871570Y-138988967D01*
X232849544Y-138916355D01*
X232841800Y-138837733D01*
X232841800Y-131926267D01*
X232849544Y-131847645D01*
X232871570Y-131775033D01*
X232907336Y-131708119D01*
X232955469Y-131649469D01*
X233014119Y-131601336D01*
X233081033Y-131565570D01*
X233153645Y-131543544D01*
X233232267Y-131535800D01*
X234127733Y-131535800D01*
X234206355Y-131543544D01*
X234206355Y-131543544D01*
G37*
G36*
X231666355Y-131543544D02*
G01*
X231738967Y-131565570D01*
X231805881Y-131601336D01*
X231864531Y-131649469D01*
X231912664Y-131708119D01*
X231948430Y-131775033D01*
X231970456Y-131847645D01*
X231978200Y-131926267D01*
X231978200Y-138837733D01*
X231970456Y-138916355D01*
X231948430Y-138988967D01*
X231912664Y-139055881D01*
X231864531Y-139114531D01*
X231805881Y-139162664D01*
X231738967Y-139198430D01*
X231666355Y-139220456D01*
X231587733Y-139228200D01*
X230692267Y-139228200D01*
X230613645Y-139220456D01*
X230541033Y-139198430D01*
X230474119Y-139162664D01*
X230415469Y-139114531D01*
X230367336Y-139055881D01*
X230331570Y-138988967D01*
X230309544Y-138916355D01*
X230301800Y-138837733D01*
X230301800Y-131926267D01*
X230309544Y-131847645D01*
X230331570Y-131775033D01*
X230367336Y-131708119D01*
X230415469Y-131649469D01*
X230474119Y-131601336D01*
X230541033Y-131565570D01*
X230613645Y-131543544D01*
X230692267Y-131535800D01*
X231587733Y-131535800D01*
X231666355Y-131543544D01*
X231666355Y-131543544D01*
G37*
G36*
X229126355Y-131543544D02*
G01*
X229198967Y-131565570D01*
X229265881Y-131601336D01*
X229324531Y-131649469D01*
X229372664Y-131708119D01*
X229408430Y-131775033D01*
X229430456Y-131847645D01*
X229438200Y-131926267D01*
X229438200Y-138837733D01*
X229430456Y-138916355D01*
X229408430Y-138988967D01*
X229372664Y-139055881D01*
X229324531Y-139114531D01*
X229265881Y-139162664D01*
X229198967Y-139198430D01*
X229126355Y-139220456D01*
X229047733Y-139228200D01*
X228152267Y-139228200D01*
X228073645Y-139220456D01*
X228001033Y-139198430D01*
X227934119Y-139162664D01*
X227875469Y-139114531D01*
X227827336Y-139055881D01*
X227791570Y-138988967D01*
X227769544Y-138916355D01*
X227761800Y-138837733D01*
X227761800Y-131926267D01*
X227769544Y-131847645D01*
X227791570Y-131775033D01*
X227827336Y-131708119D01*
X227875469Y-131649469D01*
X227934119Y-131601336D01*
X228001033Y-131565570D01*
X228073645Y-131543544D01*
X228152267Y-131535800D01*
X229047733Y-131535800D01*
X229126355Y-131543544D01*
X229126355Y-131543544D01*
G37*
G36*
X226586355Y-131543544D02*
G01*
X226658967Y-131565570D01*
X226725881Y-131601336D01*
X226784531Y-131649469D01*
X226832664Y-131708119D01*
X226868430Y-131775033D01*
X226890456Y-131847645D01*
X226898200Y-131926267D01*
X226898200Y-138837733D01*
X226890456Y-138916355D01*
X226868430Y-138988967D01*
X226832664Y-139055881D01*
X226784531Y-139114531D01*
X226725881Y-139162664D01*
X226658967Y-139198430D01*
X226586355Y-139220456D01*
X226507733Y-139228200D01*
X225612267Y-139228200D01*
X225533645Y-139220456D01*
X225461033Y-139198430D01*
X225394119Y-139162664D01*
X225335469Y-139114531D01*
X225287336Y-139055881D01*
X225251570Y-138988967D01*
X225229544Y-138916355D01*
X225221800Y-138837733D01*
X225221800Y-131926267D01*
X225229544Y-131847645D01*
X225251570Y-131775033D01*
X225287336Y-131708119D01*
X225335469Y-131649469D01*
X225394119Y-131601336D01*
X225461033Y-131565570D01*
X225533645Y-131543544D01*
X225612267Y-131535800D01*
X226507733Y-131535800D01*
X226586355Y-131543544D01*
X226586355Y-131543544D01*
G37*
G36*
X224046355Y-131543544D02*
G01*
X224118967Y-131565570D01*
X224185881Y-131601336D01*
X224244531Y-131649469D01*
X224292664Y-131708119D01*
X224328430Y-131775033D01*
X224350456Y-131847645D01*
X224358200Y-131926267D01*
X224358200Y-138837733D01*
X224350456Y-138916355D01*
X224328430Y-138988967D01*
X224292664Y-139055881D01*
X224244531Y-139114531D01*
X224185881Y-139162664D01*
X224118967Y-139198430D01*
X224046355Y-139220456D01*
X223967733Y-139228200D01*
X223072267Y-139228200D01*
X222993645Y-139220456D01*
X222921033Y-139198430D01*
X222854119Y-139162664D01*
X222795469Y-139114531D01*
X222747336Y-139055881D01*
X222711570Y-138988967D01*
X222689544Y-138916355D01*
X222681800Y-138837733D01*
X222681800Y-131926267D01*
X222689544Y-131847645D01*
X222711570Y-131775033D01*
X222747336Y-131708119D01*
X222795469Y-131649469D01*
X222854119Y-131601336D01*
X222921033Y-131565570D01*
X222993645Y-131543544D01*
X223072267Y-131535800D01*
X223967733Y-131535800D01*
X224046355Y-131543544D01*
X224046355Y-131543544D01*
G37*
G36*
X221506355Y-131543544D02*
G01*
X221578967Y-131565570D01*
X221645881Y-131601336D01*
X221704531Y-131649469D01*
X221752664Y-131708119D01*
X221788430Y-131775033D01*
X221810456Y-131847645D01*
X221818200Y-131926267D01*
X221818200Y-138837733D01*
X221810456Y-138916355D01*
X221788430Y-138988967D01*
X221752664Y-139055881D01*
X221704531Y-139114531D01*
X221645881Y-139162664D01*
X221578967Y-139198430D01*
X221506355Y-139220456D01*
X221427733Y-139228200D01*
X220532267Y-139228200D01*
X220453645Y-139220456D01*
X220381033Y-139198430D01*
X220314119Y-139162664D01*
X220255469Y-139114531D01*
X220207336Y-139055881D01*
X220171570Y-138988967D01*
X220149544Y-138916355D01*
X220141800Y-138837733D01*
X220141800Y-131926267D01*
X220149544Y-131847645D01*
X220171570Y-131775033D01*
X220207336Y-131708119D01*
X220255469Y-131649469D01*
X220314119Y-131601336D01*
X220381033Y-131565570D01*
X220453645Y-131543544D01*
X220532267Y-131535800D01*
X221427733Y-131535800D01*
X221506355Y-131543544D01*
X221506355Y-131543544D01*
G37*
G36*
X218966355Y-131543544D02*
G01*
X219038967Y-131565570D01*
X219105881Y-131601336D01*
X219164531Y-131649469D01*
X219212664Y-131708119D01*
X219248430Y-131775033D01*
X219270456Y-131847645D01*
X219278200Y-131926267D01*
X219278200Y-138837733D01*
X219270456Y-138916355D01*
X219248430Y-138988967D01*
X219212664Y-139055881D01*
X219164531Y-139114531D01*
X219105881Y-139162664D01*
X219038967Y-139198430D01*
X218966355Y-139220456D01*
X218887733Y-139228200D01*
X217992267Y-139228200D01*
X217913645Y-139220456D01*
X217841033Y-139198430D01*
X217774119Y-139162664D01*
X217715469Y-139114531D01*
X217667336Y-139055881D01*
X217631570Y-138988967D01*
X217609544Y-138916355D01*
X217601800Y-138837733D01*
X217601800Y-131926267D01*
X217609544Y-131847645D01*
X217631570Y-131775033D01*
X217667336Y-131708119D01*
X217715469Y-131649469D01*
X217774119Y-131601336D01*
X217841033Y-131565570D01*
X217913645Y-131543544D01*
X217992267Y-131535800D01*
X218887733Y-131535800D01*
X218966355Y-131543544D01*
X218966355Y-131543544D01*
G37*
G36*
X216426355Y-131543544D02*
G01*
X216498967Y-131565570D01*
X216565881Y-131601336D01*
X216624531Y-131649469D01*
X216672664Y-131708119D01*
X216708430Y-131775033D01*
X216730456Y-131847645D01*
X216738200Y-131926267D01*
X216738200Y-138837733D01*
X216730456Y-138916355D01*
X216708430Y-138988967D01*
X216672664Y-139055881D01*
X216624531Y-139114531D01*
X216565881Y-139162664D01*
X216498967Y-139198430D01*
X216426355Y-139220456D01*
X216347733Y-139228200D01*
X215452267Y-139228200D01*
X215373645Y-139220456D01*
X215301033Y-139198430D01*
X215234119Y-139162664D01*
X215175469Y-139114531D01*
X215127336Y-139055881D01*
X215091570Y-138988967D01*
X215069544Y-138916355D01*
X215061800Y-138837733D01*
X215061800Y-131926267D01*
X215069544Y-131847645D01*
X215091570Y-131775033D01*
X215127336Y-131708119D01*
X215175469Y-131649469D01*
X215234119Y-131601336D01*
X215301033Y-131565570D01*
X215373645Y-131543544D01*
X215452267Y-131535800D01*
X216347733Y-131535800D01*
X216426355Y-131543544D01*
X216426355Y-131543544D01*
G37*
G36*
X213886355Y-131543544D02*
G01*
X213958967Y-131565570D01*
X214025881Y-131601336D01*
X214084531Y-131649469D01*
X214132664Y-131708119D01*
X214168430Y-131775033D01*
X214190456Y-131847645D01*
X214198200Y-131926267D01*
X214198200Y-138837733D01*
X214190456Y-138916355D01*
X214168430Y-138988967D01*
X214132664Y-139055881D01*
X214084531Y-139114531D01*
X214025881Y-139162664D01*
X213958967Y-139198430D01*
X213886355Y-139220456D01*
X213807733Y-139228200D01*
X212912267Y-139228200D01*
X212833645Y-139220456D01*
X212761033Y-139198430D01*
X212694119Y-139162664D01*
X212635469Y-139114531D01*
X212587336Y-139055881D01*
X212551570Y-138988967D01*
X212529544Y-138916355D01*
X212521800Y-138837733D01*
X212521800Y-131926267D01*
X212529544Y-131847645D01*
X212551570Y-131775033D01*
X212587336Y-131708119D01*
X212635469Y-131649469D01*
X212694119Y-131601336D01*
X212761033Y-131565570D01*
X212833645Y-131543544D01*
X212912267Y-131535800D01*
X213807733Y-131535800D01*
X213886355Y-131543544D01*
X213886355Y-131543544D01*
G37*
G36*
X211346355Y-131543544D02*
G01*
X211418967Y-131565570D01*
X211485881Y-131601336D01*
X211544531Y-131649469D01*
X211592664Y-131708119D01*
X211628430Y-131775033D01*
X211650456Y-131847645D01*
X211658200Y-131926267D01*
X211658200Y-138837733D01*
X211650456Y-138916355D01*
X211628430Y-138988967D01*
X211592664Y-139055881D01*
X211544531Y-139114531D01*
X211485881Y-139162664D01*
X211418967Y-139198430D01*
X211346355Y-139220456D01*
X211267733Y-139228200D01*
X210372267Y-139228200D01*
X210293645Y-139220456D01*
X210221033Y-139198430D01*
X210154119Y-139162664D01*
X210095469Y-139114531D01*
X210047336Y-139055881D01*
X210011570Y-138988967D01*
X209989544Y-138916355D01*
X209981800Y-138837733D01*
X209981800Y-131926267D01*
X209989544Y-131847645D01*
X210011570Y-131775033D01*
X210047336Y-131708119D01*
X210095469Y-131649469D01*
X210154119Y-131601336D01*
X210221033Y-131565570D01*
X210293645Y-131543544D01*
X210372267Y-131535800D01*
X211267733Y-131535800D01*
X211346355Y-131543544D01*
X211346355Y-131543544D01*
G37*
G36*
X208806355Y-131543544D02*
G01*
X208878967Y-131565570D01*
X208945881Y-131601336D01*
X209004531Y-131649469D01*
X209052664Y-131708119D01*
X209088430Y-131775033D01*
X209110456Y-131847645D01*
X209118200Y-131926267D01*
X209118200Y-138837733D01*
X209110456Y-138916355D01*
X209088430Y-138988967D01*
X209052664Y-139055881D01*
X209004531Y-139114531D01*
X208945881Y-139162664D01*
X208878967Y-139198430D01*
X208806355Y-139220456D01*
X208727733Y-139228200D01*
X207832267Y-139228200D01*
X207753645Y-139220456D01*
X207681033Y-139198430D01*
X207614119Y-139162664D01*
X207555469Y-139114531D01*
X207507336Y-139055881D01*
X207471570Y-138988967D01*
X207449544Y-138916355D01*
X207441800Y-138837733D01*
X207441800Y-131926267D01*
X207449544Y-131847645D01*
X207471570Y-131775033D01*
X207507336Y-131708119D01*
X207555469Y-131649469D01*
X207614119Y-131601336D01*
X207681033Y-131565570D01*
X207753645Y-131543544D01*
X207832267Y-131535800D01*
X208727733Y-131535800D01*
X208806355Y-131543544D01*
X208806355Y-131543544D01*
G37*
G36*
X206266355Y-131543544D02*
G01*
X206338967Y-131565570D01*
X206405881Y-131601336D01*
X206464531Y-131649469D01*
X206512664Y-131708119D01*
X206548430Y-131775033D01*
X206570456Y-131847645D01*
X206578200Y-131926267D01*
X206578200Y-138837733D01*
X206570456Y-138916355D01*
X206548430Y-138988967D01*
X206512664Y-139055881D01*
X206464531Y-139114531D01*
X206405881Y-139162664D01*
X206338967Y-139198430D01*
X206266355Y-139220456D01*
X206187733Y-139228200D01*
X205292267Y-139228200D01*
X205213645Y-139220456D01*
X205141033Y-139198430D01*
X205074119Y-139162664D01*
X205015469Y-139114531D01*
X204967336Y-139055881D01*
X204931570Y-138988967D01*
X204909544Y-138916355D01*
X204901800Y-138837733D01*
X204901800Y-131926267D01*
X204909544Y-131847645D01*
X204931570Y-131775033D01*
X204967336Y-131708119D01*
X205015469Y-131649469D01*
X205074119Y-131601336D01*
X205141033Y-131565570D01*
X205213645Y-131543544D01*
X205292267Y-131535800D01*
X206187733Y-131535800D01*
X206266355Y-131543544D01*
X206266355Y-131543544D01*
G37*
G36*
X203726355Y-131543544D02*
G01*
X203798967Y-131565570D01*
X203865881Y-131601336D01*
X203924531Y-131649469D01*
X203972664Y-131708119D01*
X204008430Y-131775033D01*
X204030456Y-131847645D01*
X204038200Y-131926267D01*
X204038200Y-138837733D01*
X204030456Y-138916355D01*
X204008430Y-138988967D01*
X203972664Y-139055881D01*
X203924531Y-139114531D01*
X203865881Y-139162664D01*
X203798967Y-139198430D01*
X203726355Y-139220456D01*
X203647733Y-139228200D01*
X202752267Y-139228200D01*
X202673645Y-139220456D01*
X202601033Y-139198430D01*
X202534119Y-139162664D01*
X202475469Y-139114531D01*
X202427336Y-139055881D01*
X202391570Y-138988967D01*
X202369544Y-138916355D01*
X202361800Y-138837733D01*
X202361800Y-131926267D01*
X202369544Y-131847645D01*
X202391570Y-131775033D01*
X202427336Y-131708119D01*
X202475469Y-131649469D01*
X202534119Y-131601336D01*
X202601033Y-131565570D01*
X202673645Y-131543544D01*
X202752267Y-131535800D01*
X203647733Y-131535800D01*
X203726355Y-131543544D01*
X203726355Y-131543544D01*
G37*
G36*
X201186355Y-131543544D02*
G01*
X201258967Y-131565570D01*
X201325881Y-131601336D01*
X201384531Y-131649469D01*
X201432664Y-131708119D01*
X201468430Y-131775033D01*
X201490456Y-131847645D01*
X201498200Y-131926267D01*
X201498200Y-138837733D01*
X201490456Y-138916355D01*
X201468430Y-138988967D01*
X201432664Y-139055881D01*
X201384531Y-139114531D01*
X201325881Y-139162664D01*
X201258967Y-139198430D01*
X201186355Y-139220456D01*
X201107733Y-139228200D01*
X200212267Y-139228200D01*
X200133645Y-139220456D01*
X200061033Y-139198430D01*
X199994119Y-139162664D01*
X199935469Y-139114531D01*
X199887336Y-139055881D01*
X199851570Y-138988967D01*
X199829544Y-138916355D01*
X199821800Y-138837733D01*
X199821800Y-131926267D01*
X199829544Y-131847645D01*
X199851570Y-131775033D01*
X199887336Y-131708119D01*
X199935469Y-131649469D01*
X199994119Y-131601336D01*
X200061033Y-131565570D01*
X200133645Y-131543544D01*
X200212267Y-131535800D01*
X201107733Y-131535800D01*
X201186355Y-131543544D01*
X201186355Y-131543544D01*
G37*
G36*
X268283914Y-128505157D02*
G01*
X268479777Y-128586286D01*
X268656033Y-128704057D01*
X268805943Y-128853967D01*
X268923714Y-129030223D01*
X269004843Y-129226086D01*
X269046200Y-129434004D01*
X269046200Y-129645996D01*
X269004843Y-129853914D01*
X268923714Y-130049777D01*
X268805943Y-130226033D01*
X268656033Y-130375943D01*
X268479777Y-130493714D01*
X268283914Y-130574843D01*
X268075996Y-130616200D01*
X267864004Y-130616200D01*
X267656086Y-130574843D01*
X267460223Y-130493714D01*
X267283967Y-130375943D01*
X267134057Y-130226033D01*
X267016286Y-130049777D01*
X266935157Y-129853914D01*
X266893800Y-129645996D01*
X266893800Y-129434004D01*
X266935157Y-129226086D01*
X267016286Y-129030223D01*
X267134057Y-128853967D01*
X267283967Y-128704057D01*
X267460223Y-128586286D01*
X267656086Y-128505157D01*
X267864004Y-128463800D01*
X268075996Y-128463800D01*
X268283914Y-128505157D01*
X268283914Y-128505157D01*
G37*
G36*
X207323914Y-128505157D02*
G01*
X207519777Y-128586286D01*
X207696033Y-128704057D01*
X207845943Y-128853967D01*
X207963714Y-129030223D01*
X208044843Y-129226086D01*
X208086200Y-129434004D01*
X208086200Y-129645996D01*
X208044843Y-129853914D01*
X207963714Y-130049777D01*
X207845943Y-130226033D01*
X207696033Y-130375943D01*
X207519777Y-130493714D01*
X207323914Y-130574843D01*
X207115996Y-130616200D01*
X206904004Y-130616200D01*
X206696086Y-130574843D01*
X206500223Y-130493714D01*
X206323967Y-130375943D01*
X206174057Y-130226033D01*
X206056286Y-130049777D01*
X205975157Y-129853914D01*
X205933800Y-129645996D01*
X205933800Y-129434004D01*
X205975157Y-129226086D01*
X206056286Y-129030223D01*
X206174057Y-128853967D01*
X206323967Y-128704057D01*
X206500223Y-128586286D01*
X206696086Y-128505157D01*
X206904004Y-128463800D01*
X207115996Y-128463800D01*
X207323914Y-128505157D01*
X207323914Y-128505157D01*
G37*
G36*
X270315914Y-92056157D02*
G01*
X270511777Y-92137286D01*
X270688033Y-92255057D01*
X270837943Y-92404967D01*
X270955714Y-92581223D01*
X271036843Y-92777086D01*
X271078200Y-92985004D01*
X271078200Y-93196996D01*
X271036843Y-93404914D01*
X270955714Y-93600777D01*
X270837943Y-93777033D01*
X270688033Y-93926943D01*
X270511777Y-94044714D01*
X270315914Y-94125843D01*
X270107996Y-94167200D01*
X269896004Y-94167200D01*
X269688086Y-94125843D01*
X269492223Y-94044714D01*
X269315967Y-93926943D01*
X269166057Y-93777033D01*
X269048286Y-93600777D01*
X268967157Y-93404914D01*
X268925800Y-93196996D01*
X268925800Y-92985004D01*
X268967157Y-92777086D01*
X269048286Y-92581223D01*
X269166057Y-92404967D01*
X269315967Y-92255057D01*
X269492223Y-92137286D01*
X269688086Y-92056157D01*
X269896004Y-92014800D01*
X270107996Y-92014800D01*
X270315914Y-92056157D01*
X270315914Y-92056157D01*
G37*
G36*
X205291914Y-88246157D02*
G01*
X205487777Y-88327286D01*
X205664033Y-88445057D01*
X205813943Y-88594967D01*
X205931714Y-88771223D01*
X206012843Y-88967086D01*
X206054200Y-89175004D01*
X206054200Y-89386996D01*
X206012843Y-89594914D01*
X205931714Y-89790777D01*
X205813943Y-89967033D01*
X205664033Y-90116943D01*
X205487777Y-90234714D01*
X205291914Y-90315843D01*
X205083996Y-90357200D01*
X204872004Y-90357200D01*
X204664086Y-90315843D01*
X204468223Y-90234714D01*
X204291967Y-90116943D01*
X204142057Y-89967033D01*
X204024286Y-89790777D01*
X203943157Y-89594914D01*
X203901800Y-89386996D01*
X203901800Y-89175004D01*
X203943157Y-88967086D01*
X204024286Y-88771223D01*
X204142057Y-88594967D01*
X204291967Y-88445057D01*
X204468223Y-88327286D01*
X204664086Y-88246157D01*
X204872004Y-88204800D01*
X205083996Y-88204800D01*
X205291914Y-88246157D01*
X205291914Y-88246157D01*
G37*
M02*
