G04 #@! TF.GenerationSoftware,KiCad,Pcbnew,(5.1.2-1)-1*
G04 #@! TF.CreationDate,2019-07-30T17:06:57-04:00*
G04 #@! TF.ProjectId,RAM2E,52414d32-452e-46b6-9963-61645f706362,rev?*
G04 #@! TF.SameCoordinates,Original*
G04 #@! TF.FileFunction,Soldermask,Top*
G04 #@! TF.FilePolarity,Negative*
%FSLAX46Y46*%
G04 Gerber Fmt 4.6, Leading zero omitted, Abs format (unit mm)*
G04 Created by KiCad (PCBNEW (5.1.2-1)-1) date 2019-07-30 17:06:57*
%MOMM*%
%LPD*%
G04 APERTURE LIST*
%ADD10C,0.100000*%
G04 APERTURE END LIST*
D10*
G36*
X276860000Y-139446000D02*
G01*
X276352000Y-139954000D01*
X198628000Y-139954000D01*
X198120000Y-139446000D01*
X198120000Y-132080000D01*
X276860000Y-132080000D01*
X276860000Y-139446000D01*
G37*
G36*
X274846355Y-131543544D02*
G01*
X274918967Y-131565570D01*
X274985881Y-131601336D01*
X275044531Y-131649469D01*
X275092664Y-131708119D01*
X275128430Y-131775033D01*
X275150456Y-131847645D01*
X275158200Y-131926267D01*
X275158200Y-138837733D01*
X275150456Y-138916355D01*
X275128430Y-138988967D01*
X275092664Y-139055881D01*
X275044531Y-139114531D01*
X274985881Y-139162664D01*
X274918967Y-139198430D01*
X274846355Y-139220456D01*
X274767733Y-139228200D01*
X273872267Y-139228200D01*
X273793645Y-139220456D01*
X273721033Y-139198430D01*
X273654119Y-139162664D01*
X273595469Y-139114531D01*
X273547336Y-139055881D01*
X273511570Y-138988967D01*
X273489544Y-138916355D01*
X273481800Y-138837733D01*
X273481800Y-131926267D01*
X273489544Y-131847645D01*
X273511570Y-131775033D01*
X273547336Y-131708119D01*
X273595469Y-131649469D01*
X273654119Y-131601336D01*
X273721033Y-131565570D01*
X273793645Y-131543544D01*
X273872267Y-131535800D01*
X274767733Y-131535800D01*
X274846355Y-131543544D01*
X274846355Y-131543544D01*
G37*
G36*
X272306355Y-131543544D02*
G01*
X272378967Y-131565570D01*
X272445881Y-131601336D01*
X272504531Y-131649469D01*
X272552664Y-131708119D01*
X272588430Y-131775033D01*
X272610456Y-131847645D01*
X272618200Y-131926267D01*
X272618200Y-138837733D01*
X272610456Y-138916355D01*
X272588430Y-138988967D01*
X272552664Y-139055881D01*
X272504531Y-139114531D01*
X272445881Y-139162664D01*
X272378967Y-139198430D01*
X272306355Y-139220456D01*
X272227733Y-139228200D01*
X271332267Y-139228200D01*
X271253645Y-139220456D01*
X271181033Y-139198430D01*
X271114119Y-139162664D01*
X271055469Y-139114531D01*
X271007336Y-139055881D01*
X270971570Y-138988967D01*
X270949544Y-138916355D01*
X270941800Y-138837733D01*
X270941800Y-131926267D01*
X270949544Y-131847645D01*
X270971570Y-131775033D01*
X271007336Y-131708119D01*
X271055469Y-131649469D01*
X271114119Y-131601336D01*
X271181033Y-131565570D01*
X271253645Y-131543544D01*
X271332267Y-131535800D01*
X272227733Y-131535800D01*
X272306355Y-131543544D01*
X272306355Y-131543544D01*
G37*
G36*
X269766355Y-131543544D02*
G01*
X269838967Y-131565570D01*
X269905881Y-131601336D01*
X269964531Y-131649469D01*
X270012664Y-131708119D01*
X270048430Y-131775033D01*
X270070456Y-131847645D01*
X270078200Y-131926267D01*
X270078200Y-138837733D01*
X270070456Y-138916355D01*
X270048430Y-138988967D01*
X270012664Y-139055881D01*
X269964531Y-139114531D01*
X269905881Y-139162664D01*
X269838967Y-139198430D01*
X269766355Y-139220456D01*
X269687733Y-139228200D01*
X268792267Y-139228200D01*
X268713645Y-139220456D01*
X268641033Y-139198430D01*
X268574119Y-139162664D01*
X268515469Y-139114531D01*
X268467336Y-139055881D01*
X268431570Y-138988967D01*
X268409544Y-138916355D01*
X268401800Y-138837733D01*
X268401800Y-131926267D01*
X268409544Y-131847645D01*
X268431570Y-131775033D01*
X268467336Y-131708119D01*
X268515469Y-131649469D01*
X268574119Y-131601336D01*
X268641033Y-131565570D01*
X268713645Y-131543544D01*
X268792267Y-131535800D01*
X269687733Y-131535800D01*
X269766355Y-131543544D01*
X269766355Y-131543544D01*
G37*
G36*
X267226355Y-131543544D02*
G01*
X267298967Y-131565570D01*
X267365881Y-131601336D01*
X267424531Y-131649469D01*
X267472664Y-131708119D01*
X267508430Y-131775033D01*
X267530456Y-131847645D01*
X267538200Y-131926267D01*
X267538200Y-138837733D01*
X267530456Y-138916355D01*
X267508430Y-138988967D01*
X267472664Y-139055881D01*
X267424531Y-139114531D01*
X267365881Y-139162664D01*
X267298967Y-139198430D01*
X267226355Y-139220456D01*
X267147733Y-139228200D01*
X266252267Y-139228200D01*
X266173645Y-139220456D01*
X266101033Y-139198430D01*
X266034119Y-139162664D01*
X265975469Y-139114531D01*
X265927336Y-139055881D01*
X265891570Y-138988967D01*
X265869544Y-138916355D01*
X265861800Y-138837733D01*
X265861800Y-131926267D01*
X265869544Y-131847645D01*
X265891570Y-131775033D01*
X265927336Y-131708119D01*
X265975469Y-131649469D01*
X266034119Y-131601336D01*
X266101033Y-131565570D01*
X266173645Y-131543544D01*
X266252267Y-131535800D01*
X267147733Y-131535800D01*
X267226355Y-131543544D01*
X267226355Y-131543544D01*
G37*
G36*
X264686355Y-131543544D02*
G01*
X264758967Y-131565570D01*
X264825881Y-131601336D01*
X264884531Y-131649469D01*
X264932664Y-131708119D01*
X264968430Y-131775033D01*
X264990456Y-131847645D01*
X264998200Y-131926267D01*
X264998200Y-138837733D01*
X264990456Y-138916355D01*
X264968430Y-138988967D01*
X264932664Y-139055881D01*
X264884531Y-139114531D01*
X264825881Y-139162664D01*
X264758967Y-139198430D01*
X264686355Y-139220456D01*
X264607733Y-139228200D01*
X263712267Y-139228200D01*
X263633645Y-139220456D01*
X263561033Y-139198430D01*
X263494119Y-139162664D01*
X263435469Y-139114531D01*
X263387336Y-139055881D01*
X263351570Y-138988967D01*
X263329544Y-138916355D01*
X263321800Y-138837733D01*
X263321800Y-131926267D01*
X263329544Y-131847645D01*
X263351570Y-131775033D01*
X263387336Y-131708119D01*
X263435469Y-131649469D01*
X263494119Y-131601336D01*
X263561033Y-131565570D01*
X263633645Y-131543544D01*
X263712267Y-131535800D01*
X264607733Y-131535800D01*
X264686355Y-131543544D01*
X264686355Y-131543544D01*
G37*
G36*
X262146355Y-131543544D02*
G01*
X262218967Y-131565570D01*
X262285881Y-131601336D01*
X262344531Y-131649469D01*
X262392664Y-131708119D01*
X262428430Y-131775033D01*
X262450456Y-131847645D01*
X262458200Y-131926267D01*
X262458200Y-138837733D01*
X262450456Y-138916355D01*
X262428430Y-138988967D01*
X262392664Y-139055881D01*
X262344531Y-139114531D01*
X262285881Y-139162664D01*
X262218967Y-139198430D01*
X262146355Y-139220456D01*
X262067733Y-139228200D01*
X261172267Y-139228200D01*
X261093645Y-139220456D01*
X261021033Y-139198430D01*
X260954119Y-139162664D01*
X260895469Y-139114531D01*
X260847336Y-139055881D01*
X260811570Y-138988967D01*
X260789544Y-138916355D01*
X260781800Y-138837733D01*
X260781800Y-131926267D01*
X260789544Y-131847645D01*
X260811570Y-131775033D01*
X260847336Y-131708119D01*
X260895469Y-131649469D01*
X260954119Y-131601336D01*
X261021033Y-131565570D01*
X261093645Y-131543544D01*
X261172267Y-131535800D01*
X262067733Y-131535800D01*
X262146355Y-131543544D01*
X262146355Y-131543544D01*
G37*
G36*
X259606355Y-131543544D02*
G01*
X259678967Y-131565570D01*
X259745881Y-131601336D01*
X259804531Y-131649469D01*
X259852664Y-131708119D01*
X259888430Y-131775033D01*
X259910456Y-131847645D01*
X259918200Y-131926267D01*
X259918200Y-138837733D01*
X259910456Y-138916355D01*
X259888430Y-138988967D01*
X259852664Y-139055881D01*
X259804531Y-139114531D01*
X259745881Y-139162664D01*
X259678967Y-139198430D01*
X259606355Y-139220456D01*
X259527733Y-139228200D01*
X258632267Y-139228200D01*
X258553645Y-139220456D01*
X258481033Y-139198430D01*
X258414119Y-139162664D01*
X258355469Y-139114531D01*
X258307336Y-139055881D01*
X258271570Y-138988967D01*
X258249544Y-138916355D01*
X258241800Y-138837733D01*
X258241800Y-131926267D01*
X258249544Y-131847645D01*
X258271570Y-131775033D01*
X258307336Y-131708119D01*
X258355469Y-131649469D01*
X258414119Y-131601336D01*
X258481033Y-131565570D01*
X258553645Y-131543544D01*
X258632267Y-131535800D01*
X259527733Y-131535800D01*
X259606355Y-131543544D01*
X259606355Y-131543544D01*
G37*
G36*
X257066355Y-131543544D02*
G01*
X257138967Y-131565570D01*
X257205881Y-131601336D01*
X257264531Y-131649469D01*
X257312664Y-131708119D01*
X257348430Y-131775033D01*
X257370456Y-131847645D01*
X257378200Y-131926267D01*
X257378200Y-138837733D01*
X257370456Y-138916355D01*
X257348430Y-138988967D01*
X257312664Y-139055881D01*
X257264531Y-139114531D01*
X257205881Y-139162664D01*
X257138967Y-139198430D01*
X257066355Y-139220456D01*
X256987733Y-139228200D01*
X256092267Y-139228200D01*
X256013645Y-139220456D01*
X255941033Y-139198430D01*
X255874119Y-139162664D01*
X255815469Y-139114531D01*
X255767336Y-139055881D01*
X255731570Y-138988967D01*
X255709544Y-138916355D01*
X255701800Y-138837733D01*
X255701800Y-131926267D01*
X255709544Y-131847645D01*
X255731570Y-131775033D01*
X255767336Y-131708119D01*
X255815469Y-131649469D01*
X255874119Y-131601336D01*
X255941033Y-131565570D01*
X256013645Y-131543544D01*
X256092267Y-131535800D01*
X256987733Y-131535800D01*
X257066355Y-131543544D01*
X257066355Y-131543544D01*
G37*
G36*
X254526355Y-131543544D02*
G01*
X254598967Y-131565570D01*
X254665881Y-131601336D01*
X254724531Y-131649469D01*
X254772664Y-131708119D01*
X254808430Y-131775033D01*
X254830456Y-131847645D01*
X254838200Y-131926267D01*
X254838200Y-138837733D01*
X254830456Y-138916355D01*
X254808430Y-138988967D01*
X254772664Y-139055881D01*
X254724531Y-139114531D01*
X254665881Y-139162664D01*
X254598967Y-139198430D01*
X254526355Y-139220456D01*
X254447733Y-139228200D01*
X253552267Y-139228200D01*
X253473645Y-139220456D01*
X253401033Y-139198430D01*
X253334119Y-139162664D01*
X253275469Y-139114531D01*
X253227336Y-139055881D01*
X253191570Y-138988967D01*
X253169544Y-138916355D01*
X253161800Y-138837733D01*
X253161800Y-131926267D01*
X253169544Y-131847645D01*
X253191570Y-131775033D01*
X253227336Y-131708119D01*
X253275469Y-131649469D01*
X253334119Y-131601336D01*
X253401033Y-131565570D01*
X253473645Y-131543544D01*
X253552267Y-131535800D01*
X254447733Y-131535800D01*
X254526355Y-131543544D01*
X254526355Y-131543544D01*
G37*
G36*
X251986355Y-131543544D02*
G01*
X252058967Y-131565570D01*
X252125881Y-131601336D01*
X252184531Y-131649469D01*
X252232664Y-131708119D01*
X252268430Y-131775033D01*
X252290456Y-131847645D01*
X252298200Y-131926267D01*
X252298200Y-138837733D01*
X252290456Y-138916355D01*
X252268430Y-138988967D01*
X252232664Y-139055881D01*
X252184531Y-139114531D01*
X252125881Y-139162664D01*
X252058967Y-139198430D01*
X251986355Y-139220456D01*
X251907733Y-139228200D01*
X251012267Y-139228200D01*
X250933645Y-139220456D01*
X250861033Y-139198430D01*
X250794119Y-139162664D01*
X250735469Y-139114531D01*
X250687336Y-139055881D01*
X250651570Y-138988967D01*
X250629544Y-138916355D01*
X250621800Y-138837733D01*
X250621800Y-131926267D01*
X250629544Y-131847645D01*
X250651570Y-131775033D01*
X250687336Y-131708119D01*
X250735469Y-131649469D01*
X250794119Y-131601336D01*
X250861033Y-131565570D01*
X250933645Y-131543544D01*
X251012267Y-131535800D01*
X251907733Y-131535800D01*
X251986355Y-131543544D01*
X251986355Y-131543544D01*
G37*
G36*
X249446355Y-131543544D02*
G01*
X249518967Y-131565570D01*
X249585881Y-131601336D01*
X249644531Y-131649469D01*
X249692664Y-131708119D01*
X249728430Y-131775033D01*
X249750456Y-131847645D01*
X249758200Y-131926267D01*
X249758200Y-138837733D01*
X249750456Y-138916355D01*
X249728430Y-138988967D01*
X249692664Y-139055881D01*
X249644531Y-139114531D01*
X249585881Y-139162664D01*
X249518967Y-139198430D01*
X249446355Y-139220456D01*
X249367733Y-139228200D01*
X248472267Y-139228200D01*
X248393645Y-139220456D01*
X248321033Y-139198430D01*
X248254119Y-139162664D01*
X248195469Y-139114531D01*
X248147336Y-139055881D01*
X248111570Y-138988967D01*
X248089544Y-138916355D01*
X248081800Y-138837733D01*
X248081800Y-131926267D01*
X248089544Y-131847645D01*
X248111570Y-131775033D01*
X248147336Y-131708119D01*
X248195469Y-131649469D01*
X248254119Y-131601336D01*
X248321033Y-131565570D01*
X248393645Y-131543544D01*
X248472267Y-131535800D01*
X249367733Y-131535800D01*
X249446355Y-131543544D01*
X249446355Y-131543544D01*
G37*
G36*
X246906355Y-131543544D02*
G01*
X246978967Y-131565570D01*
X247045881Y-131601336D01*
X247104531Y-131649469D01*
X247152664Y-131708119D01*
X247188430Y-131775033D01*
X247210456Y-131847645D01*
X247218200Y-131926267D01*
X247218200Y-138837733D01*
X247210456Y-138916355D01*
X247188430Y-138988967D01*
X247152664Y-139055881D01*
X247104531Y-139114531D01*
X247045881Y-139162664D01*
X246978967Y-139198430D01*
X246906355Y-139220456D01*
X246827733Y-139228200D01*
X245932267Y-139228200D01*
X245853645Y-139220456D01*
X245781033Y-139198430D01*
X245714119Y-139162664D01*
X245655469Y-139114531D01*
X245607336Y-139055881D01*
X245571570Y-138988967D01*
X245549544Y-138916355D01*
X245541800Y-138837733D01*
X245541800Y-131926267D01*
X245549544Y-131847645D01*
X245571570Y-131775033D01*
X245607336Y-131708119D01*
X245655469Y-131649469D01*
X245714119Y-131601336D01*
X245781033Y-131565570D01*
X245853645Y-131543544D01*
X245932267Y-131535800D01*
X246827733Y-131535800D01*
X246906355Y-131543544D01*
X246906355Y-131543544D01*
G37*
G36*
X244366355Y-131543544D02*
G01*
X244438967Y-131565570D01*
X244505881Y-131601336D01*
X244564531Y-131649469D01*
X244612664Y-131708119D01*
X244648430Y-131775033D01*
X244670456Y-131847645D01*
X244678200Y-131926267D01*
X244678200Y-138837733D01*
X244670456Y-138916355D01*
X244648430Y-138988967D01*
X244612664Y-139055881D01*
X244564531Y-139114531D01*
X244505881Y-139162664D01*
X244438967Y-139198430D01*
X244366355Y-139220456D01*
X244287733Y-139228200D01*
X243392267Y-139228200D01*
X243313645Y-139220456D01*
X243241033Y-139198430D01*
X243174119Y-139162664D01*
X243115469Y-139114531D01*
X243067336Y-139055881D01*
X243031570Y-138988967D01*
X243009544Y-138916355D01*
X243001800Y-138837733D01*
X243001800Y-131926267D01*
X243009544Y-131847645D01*
X243031570Y-131775033D01*
X243067336Y-131708119D01*
X243115469Y-131649469D01*
X243174119Y-131601336D01*
X243241033Y-131565570D01*
X243313645Y-131543544D01*
X243392267Y-131535800D01*
X244287733Y-131535800D01*
X244366355Y-131543544D01*
X244366355Y-131543544D01*
G37*
G36*
X241826355Y-131543544D02*
G01*
X241898967Y-131565570D01*
X241965881Y-131601336D01*
X242024531Y-131649469D01*
X242072664Y-131708119D01*
X242108430Y-131775033D01*
X242130456Y-131847645D01*
X242138200Y-131926267D01*
X242138200Y-138837733D01*
X242130456Y-138916355D01*
X242108430Y-138988967D01*
X242072664Y-139055881D01*
X242024531Y-139114531D01*
X241965881Y-139162664D01*
X241898967Y-139198430D01*
X241826355Y-139220456D01*
X241747733Y-139228200D01*
X240852267Y-139228200D01*
X240773645Y-139220456D01*
X240701033Y-139198430D01*
X240634119Y-139162664D01*
X240575469Y-139114531D01*
X240527336Y-139055881D01*
X240491570Y-138988967D01*
X240469544Y-138916355D01*
X240461800Y-138837733D01*
X240461800Y-131926267D01*
X240469544Y-131847645D01*
X240491570Y-131775033D01*
X240527336Y-131708119D01*
X240575469Y-131649469D01*
X240634119Y-131601336D01*
X240701033Y-131565570D01*
X240773645Y-131543544D01*
X240852267Y-131535800D01*
X241747733Y-131535800D01*
X241826355Y-131543544D01*
X241826355Y-131543544D01*
G37*
G36*
X239286355Y-131543544D02*
G01*
X239358967Y-131565570D01*
X239425881Y-131601336D01*
X239484531Y-131649469D01*
X239532664Y-131708119D01*
X239568430Y-131775033D01*
X239590456Y-131847645D01*
X239598200Y-131926267D01*
X239598200Y-138837733D01*
X239590456Y-138916355D01*
X239568430Y-138988967D01*
X239532664Y-139055881D01*
X239484531Y-139114531D01*
X239425881Y-139162664D01*
X239358967Y-139198430D01*
X239286355Y-139220456D01*
X239207733Y-139228200D01*
X238312267Y-139228200D01*
X238233645Y-139220456D01*
X238161033Y-139198430D01*
X238094119Y-139162664D01*
X238035469Y-139114531D01*
X237987336Y-139055881D01*
X237951570Y-138988967D01*
X237929544Y-138916355D01*
X237921800Y-138837733D01*
X237921800Y-131926267D01*
X237929544Y-131847645D01*
X237951570Y-131775033D01*
X237987336Y-131708119D01*
X238035469Y-131649469D01*
X238094119Y-131601336D01*
X238161033Y-131565570D01*
X238233645Y-131543544D01*
X238312267Y-131535800D01*
X239207733Y-131535800D01*
X239286355Y-131543544D01*
X239286355Y-131543544D01*
G37*
G36*
X236746355Y-131543544D02*
G01*
X236818967Y-131565570D01*
X236885881Y-131601336D01*
X236944531Y-131649469D01*
X236992664Y-131708119D01*
X237028430Y-131775033D01*
X237050456Y-131847645D01*
X237058200Y-131926267D01*
X237058200Y-138837733D01*
X237050456Y-138916355D01*
X237028430Y-138988967D01*
X236992664Y-139055881D01*
X236944531Y-139114531D01*
X236885881Y-139162664D01*
X236818967Y-139198430D01*
X236746355Y-139220456D01*
X236667733Y-139228200D01*
X235772267Y-139228200D01*
X235693645Y-139220456D01*
X235621033Y-139198430D01*
X235554119Y-139162664D01*
X235495469Y-139114531D01*
X235447336Y-139055881D01*
X235411570Y-138988967D01*
X235389544Y-138916355D01*
X235381800Y-138837733D01*
X235381800Y-131926267D01*
X235389544Y-131847645D01*
X235411570Y-131775033D01*
X235447336Y-131708119D01*
X235495469Y-131649469D01*
X235554119Y-131601336D01*
X235621033Y-131565570D01*
X235693645Y-131543544D01*
X235772267Y-131535800D01*
X236667733Y-131535800D01*
X236746355Y-131543544D01*
X236746355Y-131543544D01*
G37*
G36*
X234206355Y-131543544D02*
G01*
X234278967Y-131565570D01*
X234345881Y-131601336D01*
X234404531Y-131649469D01*
X234452664Y-131708119D01*
X234488430Y-131775033D01*
X234510456Y-131847645D01*
X234518200Y-131926267D01*
X234518200Y-138837733D01*
X234510456Y-138916355D01*
X234488430Y-138988967D01*
X234452664Y-139055881D01*
X234404531Y-139114531D01*
X234345881Y-139162664D01*
X234278967Y-139198430D01*
X234206355Y-139220456D01*
X234127733Y-139228200D01*
X233232267Y-139228200D01*
X233153645Y-139220456D01*
X233081033Y-139198430D01*
X233014119Y-139162664D01*
X232955469Y-139114531D01*
X232907336Y-139055881D01*
X232871570Y-138988967D01*
X232849544Y-138916355D01*
X232841800Y-138837733D01*
X232841800Y-131926267D01*
X232849544Y-131847645D01*
X232871570Y-131775033D01*
X232907336Y-131708119D01*
X232955469Y-131649469D01*
X233014119Y-131601336D01*
X233081033Y-131565570D01*
X233153645Y-131543544D01*
X233232267Y-131535800D01*
X234127733Y-131535800D01*
X234206355Y-131543544D01*
X234206355Y-131543544D01*
G37*
G36*
X231666355Y-131543544D02*
G01*
X231738967Y-131565570D01*
X231805881Y-131601336D01*
X231864531Y-131649469D01*
X231912664Y-131708119D01*
X231948430Y-131775033D01*
X231970456Y-131847645D01*
X231978200Y-131926267D01*
X231978200Y-138837733D01*
X231970456Y-138916355D01*
X231948430Y-138988967D01*
X231912664Y-139055881D01*
X231864531Y-139114531D01*
X231805881Y-139162664D01*
X231738967Y-139198430D01*
X231666355Y-139220456D01*
X231587733Y-139228200D01*
X230692267Y-139228200D01*
X230613645Y-139220456D01*
X230541033Y-139198430D01*
X230474119Y-139162664D01*
X230415469Y-139114531D01*
X230367336Y-139055881D01*
X230331570Y-138988967D01*
X230309544Y-138916355D01*
X230301800Y-138837733D01*
X230301800Y-131926267D01*
X230309544Y-131847645D01*
X230331570Y-131775033D01*
X230367336Y-131708119D01*
X230415469Y-131649469D01*
X230474119Y-131601336D01*
X230541033Y-131565570D01*
X230613645Y-131543544D01*
X230692267Y-131535800D01*
X231587733Y-131535800D01*
X231666355Y-131543544D01*
X231666355Y-131543544D01*
G37*
G36*
X229126355Y-131543544D02*
G01*
X229198967Y-131565570D01*
X229265881Y-131601336D01*
X229324531Y-131649469D01*
X229372664Y-131708119D01*
X229408430Y-131775033D01*
X229430456Y-131847645D01*
X229438200Y-131926267D01*
X229438200Y-138837733D01*
X229430456Y-138916355D01*
X229408430Y-138988967D01*
X229372664Y-139055881D01*
X229324531Y-139114531D01*
X229265881Y-139162664D01*
X229198967Y-139198430D01*
X229126355Y-139220456D01*
X229047733Y-139228200D01*
X228152267Y-139228200D01*
X228073645Y-139220456D01*
X228001033Y-139198430D01*
X227934119Y-139162664D01*
X227875469Y-139114531D01*
X227827336Y-139055881D01*
X227791570Y-138988967D01*
X227769544Y-138916355D01*
X227761800Y-138837733D01*
X227761800Y-131926267D01*
X227769544Y-131847645D01*
X227791570Y-131775033D01*
X227827336Y-131708119D01*
X227875469Y-131649469D01*
X227934119Y-131601336D01*
X228001033Y-131565570D01*
X228073645Y-131543544D01*
X228152267Y-131535800D01*
X229047733Y-131535800D01*
X229126355Y-131543544D01*
X229126355Y-131543544D01*
G37*
G36*
X226586355Y-131543544D02*
G01*
X226658967Y-131565570D01*
X226725881Y-131601336D01*
X226784531Y-131649469D01*
X226832664Y-131708119D01*
X226868430Y-131775033D01*
X226890456Y-131847645D01*
X226898200Y-131926267D01*
X226898200Y-138837733D01*
X226890456Y-138916355D01*
X226868430Y-138988967D01*
X226832664Y-139055881D01*
X226784531Y-139114531D01*
X226725881Y-139162664D01*
X226658967Y-139198430D01*
X226586355Y-139220456D01*
X226507733Y-139228200D01*
X225612267Y-139228200D01*
X225533645Y-139220456D01*
X225461033Y-139198430D01*
X225394119Y-139162664D01*
X225335469Y-139114531D01*
X225287336Y-139055881D01*
X225251570Y-138988967D01*
X225229544Y-138916355D01*
X225221800Y-138837733D01*
X225221800Y-131926267D01*
X225229544Y-131847645D01*
X225251570Y-131775033D01*
X225287336Y-131708119D01*
X225335469Y-131649469D01*
X225394119Y-131601336D01*
X225461033Y-131565570D01*
X225533645Y-131543544D01*
X225612267Y-131535800D01*
X226507733Y-131535800D01*
X226586355Y-131543544D01*
X226586355Y-131543544D01*
G37*
G36*
X224046355Y-131543544D02*
G01*
X224118967Y-131565570D01*
X224185881Y-131601336D01*
X224244531Y-131649469D01*
X224292664Y-131708119D01*
X224328430Y-131775033D01*
X224350456Y-131847645D01*
X224358200Y-131926267D01*
X224358200Y-138837733D01*
X224350456Y-138916355D01*
X224328430Y-138988967D01*
X224292664Y-139055881D01*
X224244531Y-139114531D01*
X224185881Y-139162664D01*
X224118967Y-139198430D01*
X224046355Y-139220456D01*
X223967733Y-139228200D01*
X223072267Y-139228200D01*
X222993645Y-139220456D01*
X222921033Y-139198430D01*
X222854119Y-139162664D01*
X222795469Y-139114531D01*
X222747336Y-139055881D01*
X222711570Y-138988967D01*
X222689544Y-138916355D01*
X222681800Y-138837733D01*
X222681800Y-131926267D01*
X222689544Y-131847645D01*
X222711570Y-131775033D01*
X222747336Y-131708119D01*
X222795469Y-131649469D01*
X222854119Y-131601336D01*
X222921033Y-131565570D01*
X222993645Y-131543544D01*
X223072267Y-131535800D01*
X223967733Y-131535800D01*
X224046355Y-131543544D01*
X224046355Y-131543544D01*
G37*
G36*
X221506355Y-131543544D02*
G01*
X221578967Y-131565570D01*
X221645881Y-131601336D01*
X221704531Y-131649469D01*
X221752664Y-131708119D01*
X221788430Y-131775033D01*
X221810456Y-131847645D01*
X221818200Y-131926267D01*
X221818200Y-138837733D01*
X221810456Y-138916355D01*
X221788430Y-138988967D01*
X221752664Y-139055881D01*
X221704531Y-139114531D01*
X221645881Y-139162664D01*
X221578967Y-139198430D01*
X221506355Y-139220456D01*
X221427733Y-139228200D01*
X220532267Y-139228200D01*
X220453645Y-139220456D01*
X220381033Y-139198430D01*
X220314119Y-139162664D01*
X220255469Y-139114531D01*
X220207336Y-139055881D01*
X220171570Y-138988967D01*
X220149544Y-138916355D01*
X220141800Y-138837733D01*
X220141800Y-131926267D01*
X220149544Y-131847645D01*
X220171570Y-131775033D01*
X220207336Y-131708119D01*
X220255469Y-131649469D01*
X220314119Y-131601336D01*
X220381033Y-131565570D01*
X220453645Y-131543544D01*
X220532267Y-131535800D01*
X221427733Y-131535800D01*
X221506355Y-131543544D01*
X221506355Y-131543544D01*
G37*
G36*
X218966355Y-131543544D02*
G01*
X219038967Y-131565570D01*
X219105881Y-131601336D01*
X219164531Y-131649469D01*
X219212664Y-131708119D01*
X219248430Y-131775033D01*
X219270456Y-131847645D01*
X219278200Y-131926267D01*
X219278200Y-138837733D01*
X219270456Y-138916355D01*
X219248430Y-138988967D01*
X219212664Y-139055881D01*
X219164531Y-139114531D01*
X219105881Y-139162664D01*
X219038967Y-139198430D01*
X218966355Y-139220456D01*
X218887733Y-139228200D01*
X217992267Y-139228200D01*
X217913645Y-139220456D01*
X217841033Y-139198430D01*
X217774119Y-139162664D01*
X217715469Y-139114531D01*
X217667336Y-139055881D01*
X217631570Y-138988967D01*
X217609544Y-138916355D01*
X217601800Y-138837733D01*
X217601800Y-131926267D01*
X217609544Y-131847645D01*
X217631570Y-131775033D01*
X217667336Y-131708119D01*
X217715469Y-131649469D01*
X217774119Y-131601336D01*
X217841033Y-131565570D01*
X217913645Y-131543544D01*
X217992267Y-131535800D01*
X218887733Y-131535800D01*
X218966355Y-131543544D01*
X218966355Y-131543544D01*
G37*
G36*
X216426355Y-131543544D02*
G01*
X216498967Y-131565570D01*
X216565881Y-131601336D01*
X216624531Y-131649469D01*
X216672664Y-131708119D01*
X216708430Y-131775033D01*
X216730456Y-131847645D01*
X216738200Y-131926267D01*
X216738200Y-138837733D01*
X216730456Y-138916355D01*
X216708430Y-138988967D01*
X216672664Y-139055881D01*
X216624531Y-139114531D01*
X216565881Y-139162664D01*
X216498967Y-139198430D01*
X216426355Y-139220456D01*
X216347733Y-139228200D01*
X215452267Y-139228200D01*
X215373645Y-139220456D01*
X215301033Y-139198430D01*
X215234119Y-139162664D01*
X215175469Y-139114531D01*
X215127336Y-139055881D01*
X215091570Y-138988967D01*
X215069544Y-138916355D01*
X215061800Y-138837733D01*
X215061800Y-131926267D01*
X215069544Y-131847645D01*
X215091570Y-131775033D01*
X215127336Y-131708119D01*
X215175469Y-131649469D01*
X215234119Y-131601336D01*
X215301033Y-131565570D01*
X215373645Y-131543544D01*
X215452267Y-131535800D01*
X216347733Y-131535800D01*
X216426355Y-131543544D01*
X216426355Y-131543544D01*
G37*
G36*
X213886355Y-131543544D02*
G01*
X213958967Y-131565570D01*
X214025881Y-131601336D01*
X214084531Y-131649469D01*
X214132664Y-131708119D01*
X214168430Y-131775033D01*
X214190456Y-131847645D01*
X214198200Y-131926267D01*
X214198200Y-138837733D01*
X214190456Y-138916355D01*
X214168430Y-138988967D01*
X214132664Y-139055881D01*
X214084531Y-139114531D01*
X214025881Y-139162664D01*
X213958967Y-139198430D01*
X213886355Y-139220456D01*
X213807733Y-139228200D01*
X212912267Y-139228200D01*
X212833645Y-139220456D01*
X212761033Y-139198430D01*
X212694119Y-139162664D01*
X212635469Y-139114531D01*
X212587336Y-139055881D01*
X212551570Y-138988967D01*
X212529544Y-138916355D01*
X212521800Y-138837733D01*
X212521800Y-131926267D01*
X212529544Y-131847645D01*
X212551570Y-131775033D01*
X212587336Y-131708119D01*
X212635469Y-131649469D01*
X212694119Y-131601336D01*
X212761033Y-131565570D01*
X212833645Y-131543544D01*
X212912267Y-131535800D01*
X213807733Y-131535800D01*
X213886355Y-131543544D01*
X213886355Y-131543544D01*
G37*
G36*
X211346355Y-131543544D02*
G01*
X211418967Y-131565570D01*
X211485881Y-131601336D01*
X211544531Y-131649469D01*
X211592664Y-131708119D01*
X211628430Y-131775033D01*
X211650456Y-131847645D01*
X211658200Y-131926267D01*
X211658200Y-138837733D01*
X211650456Y-138916355D01*
X211628430Y-138988967D01*
X211592664Y-139055881D01*
X211544531Y-139114531D01*
X211485881Y-139162664D01*
X211418967Y-139198430D01*
X211346355Y-139220456D01*
X211267733Y-139228200D01*
X210372267Y-139228200D01*
X210293645Y-139220456D01*
X210221033Y-139198430D01*
X210154119Y-139162664D01*
X210095469Y-139114531D01*
X210047336Y-139055881D01*
X210011570Y-138988967D01*
X209989544Y-138916355D01*
X209981800Y-138837733D01*
X209981800Y-131926267D01*
X209989544Y-131847645D01*
X210011570Y-131775033D01*
X210047336Y-131708119D01*
X210095469Y-131649469D01*
X210154119Y-131601336D01*
X210221033Y-131565570D01*
X210293645Y-131543544D01*
X210372267Y-131535800D01*
X211267733Y-131535800D01*
X211346355Y-131543544D01*
X211346355Y-131543544D01*
G37*
G36*
X208806355Y-131543544D02*
G01*
X208878967Y-131565570D01*
X208945881Y-131601336D01*
X209004531Y-131649469D01*
X209052664Y-131708119D01*
X209088430Y-131775033D01*
X209110456Y-131847645D01*
X209118200Y-131926267D01*
X209118200Y-138837733D01*
X209110456Y-138916355D01*
X209088430Y-138988967D01*
X209052664Y-139055881D01*
X209004531Y-139114531D01*
X208945881Y-139162664D01*
X208878967Y-139198430D01*
X208806355Y-139220456D01*
X208727733Y-139228200D01*
X207832267Y-139228200D01*
X207753645Y-139220456D01*
X207681033Y-139198430D01*
X207614119Y-139162664D01*
X207555469Y-139114531D01*
X207507336Y-139055881D01*
X207471570Y-138988967D01*
X207449544Y-138916355D01*
X207441800Y-138837733D01*
X207441800Y-131926267D01*
X207449544Y-131847645D01*
X207471570Y-131775033D01*
X207507336Y-131708119D01*
X207555469Y-131649469D01*
X207614119Y-131601336D01*
X207681033Y-131565570D01*
X207753645Y-131543544D01*
X207832267Y-131535800D01*
X208727733Y-131535800D01*
X208806355Y-131543544D01*
X208806355Y-131543544D01*
G37*
G36*
X206266355Y-131543544D02*
G01*
X206338967Y-131565570D01*
X206405881Y-131601336D01*
X206464531Y-131649469D01*
X206512664Y-131708119D01*
X206548430Y-131775033D01*
X206570456Y-131847645D01*
X206578200Y-131926267D01*
X206578200Y-138837733D01*
X206570456Y-138916355D01*
X206548430Y-138988967D01*
X206512664Y-139055881D01*
X206464531Y-139114531D01*
X206405881Y-139162664D01*
X206338967Y-139198430D01*
X206266355Y-139220456D01*
X206187733Y-139228200D01*
X205292267Y-139228200D01*
X205213645Y-139220456D01*
X205141033Y-139198430D01*
X205074119Y-139162664D01*
X205015469Y-139114531D01*
X204967336Y-139055881D01*
X204931570Y-138988967D01*
X204909544Y-138916355D01*
X204901800Y-138837733D01*
X204901800Y-131926267D01*
X204909544Y-131847645D01*
X204931570Y-131775033D01*
X204967336Y-131708119D01*
X205015469Y-131649469D01*
X205074119Y-131601336D01*
X205141033Y-131565570D01*
X205213645Y-131543544D01*
X205292267Y-131535800D01*
X206187733Y-131535800D01*
X206266355Y-131543544D01*
X206266355Y-131543544D01*
G37*
G36*
X203726355Y-131543544D02*
G01*
X203798967Y-131565570D01*
X203865881Y-131601336D01*
X203924531Y-131649469D01*
X203972664Y-131708119D01*
X204008430Y-131775033D01*
X204030456Y-131847645D01*
X204038200Y-131926267D01*
X204038200Y-138837733D01*
X204030456Y-138916355D01*
X204008430Y-138988967D01*
X203972664Y-139055881D01*
X203924531Y-139114531D01*
X203865881Y-139162664D01*
X203798967Y-139198430D01*
X203726355Y-139220456D01*
X203647733Y-139228200D01*
X202752267Y-139228200D01*
X202673645Y-139220456D01*
X202601033Y-139198430D01*
X202534119Y-139162664D01*
X202475469Y-139114531D01*
X202427336Y-139055881D01*
X202391570Y-138988967D01*
X202369544Y-138916355D01*
X202361800Y-138837733D01*
X202361800Y-131926267D01*
X202369544Y-131847645D01*
X202391570Y-131775033D01*
X202427336Y-131708119D01*
X202475469Y-131649469D01*
X202534119Y-131601336D01*
X202601033Y-131565570D01*
X202673645Y-131543544D01*
X202752267Y-131535800D01*
X203647733Y-131535800D01*
X203726355Y-131543544D01*
X203726355Y-131543544D01*
G37*
G36*
X201186355Y-131543544D02*
G01*
X201258967Y-131565570D01*
X201325881Y-131601336D01*
X201384531Y-131649469D01*
X201432664Y-131708119D01*
X201468430Y-131775033D01*
X201490456Y-131847645D01*
X201498200Y-131926267D01*
X201498200Y-138837733D01*
X201490456Y-138916355D01*
X201468430Y-138988967D01*
X201432664Y-139055881D01*
X201384531Y-139114531D01*
X201325881Y-139162664D01*
X201258967Y-139198430D01*
X201186355Y-139220456D01*
X201107733Y-139228200D01*
X200212267Y-139228200D01*
X200133645Y-139220456D01*
X200061033Y-139198430D01*
X199994119Y-139162664D01*
X199935469Y-139114531D01*
X199887336Y-139055881D01*
X199851570Y-138988967D01*
X199829544Y-138916355D01*
X199821800Y-138837733D01*
X199821800Y-131926267D01*
X199829544Y-131847645D01*
X199851570Y-131775033D01*
X199887336Y-131708119D01*
X199935469Y-131649469D01*
X199994119Y-131601336D01*
X200061033Y-131565570D01*
X200133645Y-131543544D01*
X200212267Y-131535800D01*
X201107733Y-131535800D01*
X201186355Y-131543544D01*
X201186355Y-131543544D01*
G37*
G36*
X268283914Y-128505157D02*
G01*
X268479777Y-128586286D01*
X268656033Y-128704057D01*
X268805943Y-128853967D01*
X268923714Y-129030223D01*
X269004843Y-129226086D01*
X269046200Y-129434004D01*
X269046200Y-129645996D01*
X269004843Y-129853914D01*
X268923714Y-130049777D01*
X268805943Y-130226033D01*
X268656033Y-130375943D01*
X268479777Y-130493714D01*
X268283914Y-130574843D01*
X268075996Y-130616200D01*
X267864004Y-130616200D01*
X267656086Y-130574843D01*
X267460223Y-130493714D01*
X267283967Y-130375943D01*
X267134057Y-130226033D01*
X267016286Y-130049777D01*
X266935157Y-129853914D01*
X266893800Y-129645996D01*
X266893800Y-129434004D01*
X266935157Y-129226086D01*
X267016286Y-129030223D01*
X267134057Y-128853967D01*
X267283967Y-128704057D01*
X267460223Y-128586286D01*
X267656086Y-128505157D01*
X267864004Y-128463800D01*
X268075996Y-128463800D01*
X268283914Y-128505157D01*
X268283914Y-128505157D01*
G37*
G36*
X207323914Y-128505157D02*
G01*
X207519777Y-128586286D01*
X207696033Y-128704057D01*
X207845943Y-128853967D01*
X207963714Y-129030223D01*
X208044843Y-129226086D01*
X208086200Y-129434004D01*
X208086200Y-129645996D01*
X208044843Y-129853914D01*
X207963714Y-130049777D01*
X207845943Y-130226033D01*
X207696033Y-130375943D01*
X207519777Y-130493714D01*
X207323914Y-130574843D01*
X207115996Y-130616200D01*
X206904004Y-130616200D01*
X206696086Y-130574843D01*
X206500223Y-130493714D01*
X206323967Y-130375943D01*
X206174057Y-130226033D01*
X206056286Y-130049777D01*
X205975157Y-129853914D01*
X205933800Y-129645996D01*
X205933800Y-129434004D01*
X205975157Y-129226086D01*
X206056286Y-129030223D01*
X206174057Y-128853967D01*
X206323967Y-128704057D01*
X206500223Y-128586286D01*
X206696086Y-128505157D01*
X206904004Y-128463800D01*
X207115996Y-128463800D01*
X207323914Y-128505157D01*
X207323914Y-128505157D01*
G37*
G36*
X203491692Y-128578429D02*
G01*
X203673679Y-128653811D01*
X203837458Y-128763245D01*
X203837460Y-128763247D01*
X203837463Y-128763249D01*
X203976751Y-128902537D01*
X203976753Y-128902540D01*
X203976755Y-128902542D01*
X204086189Y-129066321D01*
X204161571Y-129248308D01*
X204200000Y-129441509D01*
X204200000Y-129638491D01*
X204161571Y-129831692D01*
X204086189Y-130013679D01*
X203976755Y-130177458D01*
X203976753Y-130177460D01*
X203976751Y-130177463D01*
X203837463Y-130316751D01*
X203837460Y-130316753D01*
X203837458Y-130316755D01*
X203673679Y-130426189D01*
X203491692Y-130501571D01*
X203298491Y-130540000D01*
X203101509Y-130540000D01*
X202908308Y-130501571D01*
X202726321Y-130426189D01*
X202562542Y-130316755D01*
X202562540Y-130316753D01*
X202562537Y-130316751D01*
X202423249Y-130177463D01*
X202423247Y-130177460D01*
X202423245Y-130177458D01*
X202313811Y-130013679D01*
X202238429Y-129831692D01*
X202200000Y-129638491D01*
X202200000Y-129441509D01*
X202238429Y-129248308D01*
X202313811Y-129066321D01*
X202423245Y-128902542D01*
X202423247Y-128902540D01*
X202423249Y-128902537D01*
X202562537Y-128763249D01*
X202562540Y-128763247D01*
X202562542Y-128763245D01*
X202726321Y-128653811D01*
X202908308Y-128578429D01*
X203101509Y-128540000D01*
X203298491Y-128540000D01*
X203491692Y-128578429D01*
X203491692Y-128578429D01*
G37*
G36*
X272071692Y-128578429D02*
G01*
X272253679Y-128653811D01*
X272417458Y-128763245D01*
X272417460Y-128763247D01*
X272417463Y-128763249D01*
X272556751Y-128902537D01*
X272556753Y-128902540D01*
X272556755Y-128902542D01*
X272666189Y-129066321D01*
X272741571Y-129248308D01*
X272780000Y-129441509D01*
X272780000Y-129638491D01*
X272741571Y-129831692D01*
X272666189Y-130013679D01*
X272556755Y-130177458D01*
X272556753Y-130177460D01*
X272556751Y-130177463D01*
X272417463Y-130316751D01*
X272417460Y-130316753D01*
X272417458Y-130316755D01*
X272253679Y-130426189D01*
X272071692Y-130501571D01*
X271878491Y-130540000D01*
X271681509Y-130540000D01*
X271488308Y-130501571D01*
X271306321Y-130426189D01*
X271142542Y-130316755D01*
X271142540Y-130316753D01*
X271142537Y-130316751D01*
X271003249Y-130177463D01*
X271003247Y-130177460D01*
X271003245Y-130177458D01*
X270893811Y-130013679D01*
X270818429Y-129831692D01*
X270780000Y-129638491D01*
X270780000Y-129441509D01*
X270818429Y-129248308D01*
X270893811Y-129066321D01*
X271003245Y-128902542D01*
X271003247Y-128902540D01*
X271003249Y-128902537D01*
X271142537Y-128763249D01*
X271142540Y-128763247D01*
X271142542Y-128763245D01*
X271306321Y-128653811D01*
X271488308Y-128578429D01*
X271681509Y-128540000D01*
X271878491Y-128540000D01*
X272071692Y-128578429D01*
X272071692Y-128578429D01*
G37*
G36*
X245360290Y-125187105D02*
G01*
X245389568Y-125195986D01*
X245416545Y-125210406D01*
X245440190Y-125229810D01*
X245459594Y-125253455D01*
X245474014Y-125280432D01*
X245482895Y-125309710D01*
X245486200Y-125343267D01*
X245486200Y-126876733D01*
X245482895Y-126910290D01*
X245474014Y-126939568D01*
X245459594Y-126966545D01*
X245440190Y-126990190D01*
X245416545Y-127009594D01*
X245389568Y-127024014D01*
X245360290Y-127032895D01*
X245326733Y-127036200D01*
X244893267Y-127036200D01*
X244859710Y-127032895D01*
X244830432Y-127024014D01*
X244803455Y-127009594D01*
X244779810Y-126990190D01*
X244760406Y-126966545D01*
X244745986Y-126939568D01*
X244737105Y-126910290D01*
X244733800Y-126876733D01*
X244733800Y-125343267D01*
X244737105Y-125309710D01*
X244745986Y-125280432D01*
X244760406Y-125253455D01*
X244779810Y-125229810D01*
X244803455Y-125210406D01*
X244830432Y-125195986D01*
X244859710Y-125187105D01*
X244893267Y-125183800D01*
X245326733Y-125183800D01*
X245360290Y-125187105D01*
X245360290Y-125187105D01*
G37*
G36*
X244090290Y-125187105D02*
G01*
X244119568Y-125195986D01*
X244146545Y-125210406D01*
X244170190Y-125229810D01*
X244189594Y-125253455D01*
X244204014Y-125280432D01*
X244212895Y-125309710D01*
X244216200Y-125343267D01*
X244216200Y-126876733D01*
X244212895Y-126910290D01*
X244204014Y-126939568D01*
X244189594Y-126966545D01*
X244170190Y-126990190D01*
X244146545Y-127009594D01*
X244119568Y-127024014D01*
X244090290Y-127032895D01*
X244056733Y-127036200D01*
X243623267Y-127036200D01*
X243589710Y-127032895D01*
X243560432Y-127024014D01*
X243533455Y-127009594D01*
X243509810Y-126990190D01*
X243490406Y-126966545D01*
X243475986Y-126939568D01*
X243467105Y-126910290D01*
X243463800Y-126876733D01*
X243463800Y-125343267D01*
X243467105Y-125309710D01*
X243475986Y-125280432D01*
X243490406Y-125253455D01*
X243509810Y-125229810D01*
X243533455Y-125210406D01*
X243560432Y-125195986D01*
X243589710Y-125187105D01*
X243623267Y-125183800D01*
X244056733Y-125183800D01*
X244090290Y-125187105D01*
X244090290Y-125187105D01*
G37*
G36*
X242820290Y-125187105D02*
G01*
X242849568Y-125195986D01*
X242876545Y-125210406D01*
X242900190Y-125229810D01*
X242919594Y-125253455D01*
X242934014Y-125280432D01*
X242942895Y-125309710D01*
X242946200Y-125343267D01*
X242946200Y-126876733D01*
X242942895Y-126910290D01*
X242934014Y-126939568D01*
X242919594Y-126966545D01*
X242900190Y-126990190D01*
X242876545Y-127009594D01*
X242849568Y-127024014D01*
X242820290Y-127032895D01*
X242786733Y-127036200D01*
X242353267Y-127036200D01*
X242319710Y-127032895D01*
X242290432Y-127024014D01*
X242263455Y-127009594D01*
X242239810Y-126990190D01*
X242220406Y-126966545D01*
X242205986Y-126939568D01*
X242197105Y-126910290D01*
X242193800Y-126876733D01*
X242193800Y-125343267D01*
X242197105Y-125309710D01*
X242205986Y-125280432D01*
X242220406Y-125253455D01*
X242239810Y-125229810D01*
X242263455Y-125210406D01*
X242290432Y-125195986D01*
X242319710Y-125187105D01*
X242353267Y-125183800D01*
X242786733Y-125183800D01*
X242820290Y-125187105D01*
X242820290Y-125187105D01*
G37*
G36*
X241550290Y-125187105D02*
G01*
X241579568Y-125195986D01*
X241606545Y-125210406D01*
X241630190Y-125229810D01*
X241649594Y-125253455D01*
X241664014Y-125280432D01*
X241672895Y-125309710D01*
X241676200Y-125343267D01*
X241676200Y-126876733D01*
X241672895Y-126910290D01*
X241664014Y-126939568D01*
X241649594Y-126966545D01*
X241630190Y-126990190D01*
X241606545Y-127009594D01*
X241579568Y-127024014D01*
X241550290Y-127032895D01*
X241516733Y-127036200D01*
X241083267Y-127036200D01*
X241049710Y-127032895D01*
X241020432Y-127024014D01*
X240993455Y-127009594D01*
X240969810Y-126990190D01*
X240950406Y-126966545D01*
X240935986Y-126939568D01*
X240927105Y-126910290D01*
X240923800Y-126876733D01*
X240923800Y-125343267D01*
X240927105Y-125309710D01*
X240935986Y-125280432D01*
X240950406Y-125253455D01*
X240969810Y-125229810D01*
X240993455Y-125210406D01*
X241020432Y-125195986D01*
X241049710Y-125187105D01*
X241083267Y-125183800D01*
X241516733Y-125183800D01*
X241550290Y-125187105D01*
X241550290Y-125187105D01*
G37*
G36*
X240280290Y-125187105D02*
G01*
X240309568Y-125195986D01*
X240336545Y-125210406D01*
X240360190Y-125229810D01*
X240379594Y-125253455D01*
X240394014Y-125280432D01*
X240402895Y-125309710D01*
X240406200Y-125343267D01*
X240406200Y-126876733D01*
X240402895Y-126910290D01*
X240394014Y-126939568D01*
X240379594Y-126966545D01*
X240360190Y-126990190D01*
X240336545Y-127009594D01*
X240309568Y-127024014D01*
X240280290Y-127032895D01*
X240246733Y-127036200D01*
X239813267Y-127036200D01*
X239779710Y-127032895D01*
X239750432Y-127024014D01*
X239723455Y-127009594D01*
X239699810Y-126990190D01*
X239680406Y-126966545D01*
X239665986Y-126939568D01*
X239657105Y-126910290D01*
X239653800Y-126876733D01*
X239653800Y-125343267D01*
X239657105Y-125309710D01*
X239665986Y-125280432D01*
X239680406Y-125253455D01*
X239699810Y-125229810D01*
X239723455Y-125210406D01*
X239750432Y-125195986D01*
X239779710Y-125187105D01*
X239813267Y-125183800D01*
X240246733Y-125183800D01*
X240280290Y-125187105D01*
X240280290Y-125187105D01*
G37*
G36*
X239010290Y-125187105D02*
G01*
X239039568Y-125195986D01*
X239066545Y-125210406D01*
X239090190Y-125229810D01*
X239109594Y-125253455D01*
X239124014Y-125280432D01*
X239132895Y-125309710D01*
X239136200Y-125343267D01*
X239136200Y-126876733D01*
X239132895Y-126910290D01*
X239124014Y-126939568D01*
X239109594Y-126966545D01*
X239090190Y-126990190D01*
X239066545Y-127009594D01*
X239039568Y-127024014D01*
X239010290Y-127032895D01*
X238976733Y-127036200D01*
X238543267Y-127036200D01*
X238509710Y-127032895D01*
X238480432Y-127024014D01*
X238453455Y-127009594D01*
X238429810Y-126990190D01*
X238410406Y-126966545D01*
X238395986Y-126939568D01*
X238387105Y-126910290D01*
X238383800Y-126876733D01*
X238383800Y-125343267D01*
X238387105Y-125309710D01*
X238395986Y-125280432D01*
X238410406Y-125253455D01*
X238429810Y-125229810D01*
X238453455Y-125210406D01*
X238480432Y-125195986D01*
X238509710Y-125187105D01*
X238543267Y-125183800D01*
X238976733Y-125183800D01*
X239010290Y-125187105D01*
X239010290Y-125187105D01*
G37*
G36*
X237740290Y-125187105D02*
G01*
X237769568Y-125195986D01*
X237796545Y-125210406D01*
X237820190Y-125229810D01*
X237839594Y-125253455D01*
X237854014Y-125280432D01*
X237862895Y-125309710D01*
X237866200Y-125343267D01*
X237866200Y-126876733D01*
X237862895Y-126910290D01*
X237854014Y-126939568D01*
X237839594Y-126966545D01*
X237820190Y-126990190D01*
X237796545Y-127009594D01*
X237769568Y-127024014D01*
X237740290Y-127032895D01*
X237706733Y-127036200D01*
X237273267Y-127036200D01*
X237239710Y-127032895D01*
X237210432Y-127024014D01*
X237183455Y-127009594D01*
X237159810Y-126990190D01*
X237140406Y-126966545D01*
X237125986Y-126939568D01*
X237117105Y-126910290D01*
X237113800Y-126876733D01*
X237113800Y-125343267D01*
X237117105Y-125309710D01*
X237125986Y-125280432D01*
X237140406Y-125253455D01*
X237159810Y-125229810D01*
X237183455Y-125210406D01*
X237210432Y-125195986D01*
X237239710Y-125187105D01*
X237273267Y-125183800D01*
X237706733Y-125183800D01*
X237740290Y-125187105D01*
X237740290Y-125187105D01*
G37*
G36*
X236470290Y-125187105D02*
G01*
X236499568Y-125195986D01*
X236526545Y-125210406D01*
X236550190Y-125229810D01*
X236569594Y-125253455D01*
X236584014Y-125280432D01*
X236592895Y-125309710D01*
X236596200Y-125343267D01*
X236596200Y-126876733D01*
X236592895Y-126910290D01*
X236584014Y-126939568D01*
X236569594Y-126966545D01*
X236550190Y-126990190D01*
X236526545Y-127009594D01*
X236499568Y-127024014D01*
X236470290Y-127032895D01*
X236436733Y-127036200D01*
X236003267Y-127036200D01*
X235969710Y-127032895D01*
X235940432Y-127024014D01*
X235913455Y-127009594D01*
X235889810Y-126990190D01*
X235870406Y-126966545D01*
X235855986Y-126939568D01*
X235847105Y-126910290D01*
X235843800Y-126876733D01*
X235843800Y-125343267D01*
X235847105Y-125309710D01*
X235855986Y-125280432D01*
X235870406Y-125253455D01*
X235889810Y-125229810D01*
X235913455Y-125210406D01*
X235940432Y-125195986D01*
X235969710Y-125187105D01*
X236003267Y-125183800D01*
X236436733Y-125183800D01*
X236470290Y-125187105D01*
X236470290Y-125187105D01*
G37*
G36*
X235200290Y-125187105D02*
G01*
X235229568Y-125195986D01*
X235256545Y-125210406D01*
X235280190Y-125229810D01*
X235299594Y-125253455D01*
X235314014Y-125280432D01*
X235322895Y-125309710D01*
X235326200Y-125343267D01*
X235326200Y-126876733D01*
X235322895Y-126910290D01*
X235314014Y-126939568D01*
X235299594Y-126966545D01*
X235280190Y-126990190D01*
X235256545Y-127009594D01*
X235229568Y-127024014D01*
X235200290Y-127032895D01*
X235166733Y-127036200D01*
X234733267Y-127036200D01*
X234699710Y-127032895D01*
X234670432Y-127024014D01*
X234643455Y-127009594D01*
X234619810Y-126990190D01*
X234600406Y-126966545D01*
X234585986Y-126939568D01*
X234577105Y-126910290D01*
X234573800Y-126876733D01*
X234573800Y-125343267D01*
X234577105Y-125309710D01*
X234585986Y-125280432D01*
X234600406Y-125253455D01*
X234619810Y-125229810D01*
X234643455Y-125210406D01*
X234670432Y-125195986D01*
X234699710Y-125187105D01*
X234733267Y-125183800D01*
X235166733Y-125183800D01*
X235200290Y-125187105D01*
X235200290Y-125187105D01*
G37*
G36*
X256790290Y-125187105D02*
G01*
X256819568Y-125195986D01*
X256846545Y-125210406D01*
X256870190Y-125229810D01*
X256889594Y-125253455D01*
X256904014Y-125280432D01*
X256912895Y-125309710D01*
X256916200Y-125343267D01*
X256916200Y-126876733D01*
X256912895Y-126910290D01*
X256904014Y-126939568D01*
X256889594Y-126966545D01*
X256870190Y-126990190D01*
X256846545Y-127009594D01*
X256819568Y-127024014D01*
X256790290Y-127032895D01*
X256756733Y-127036200D01*
X256323267Y-127036200D01*
X256289710Y-127032895D01*
X256260432Y-127024014D01*
X256233455Y-127009594D01*
X256209810Y-126990190D01*
X256190406Y-126966545D01*
X256175986Y-126939568D01*
X256167105Y-126910290D01*
X256163800Y-126876733D01*
X256163800Y-125343267D01*
X256167105Y-125309710D01*
X256175986Y-125280432D01*
X256190406Y-125253455D01*
X256209810Y-125229810D01*
X256233455Y-125210406D01*
X256260432Y-125195986D01*
X256289710Y-125187105D01*
X256323267Y-125183800D01*
X256756733Y-125183800D01*
X256790290Y-125187105D01*
X256790290Y-125187105D01*
G37*
G36*
X258060290Y-125187105D02*
G01*
X258089568Y-125195986D01*
X258116545Y-125210406D01*
X258140190Y-125229810D01*
X258159594Y-125253455D01*
X258174014Y-125280432D01*
X258182895Y-125309710D01*
X258186200Y-125343267D01*
X258186200Y-126876733D01*
X258182895Y-126910290D01*
X258174014Y-126939568D01*
X258159594Y-126966545D01*
X258140190Y-126990190D01*
X258116545Y-127009594D01*
X258089568Y-127024014D01*
X258060290Y-127032895D01*
X258026733Y-127036200D01*
X257593267Y-127036200D01*
X257559710Y-127032895D01*
X257530432Y-127024014D01*
X257503455Y-127009594D01*
X257479810Y-126990190D01*
X257460406Y-126966545D01*
X257445986Y-126939568D01*
X257437105Y-126910290D01*
X257433800Y-126876733D01*
X257433800Y-125343267D01*
X257437105Y-125309710D01*
X257445986Y-125280432D01*
X257460406Y-125253455D01*
X257479810Y-125229810D01*
X257503455Y-125210406D01*
X257530432Y-125195986D01*
X257559710Y-125187105D01*
X257593267Y-125183800D01*
X258026733Y-125183800D01*
X258060290Y-125187105D01*
X258060290Y-125187105D01*
G37*
G36*
X259330290Y-125187105D02*
G01*
X259359568Y-125195986D01*
X259386545Y-125210406D01*
X259410190Y-125229810D01*
X259429594Y-125253455D01*
X259444014Y-125280432D01*
X259452895Y-125309710D01*
X259456200Y-125343267D01*
X259456200Y-126876733D01*
X259452895Y-126910290D01*
X259444014Y-126939568D01*
X259429594Y-126966545D01*
X259410190Y-126990190D01*
X259386545Y-127009594D01*
X259359568Y-127024014D01*
X259330290Y-127032895D01*
X259296733Y-127036200D01*
X258863267Y-127036200D01*
X258829710Y-127032895D01*
X258800432Y-127024014D01*
X258773455Y-127009594D01*
X258749810Y-126990190D01*
X258730406Y-126966545D01*
X258715986Y-126939568D01*
X258707105Y-126910290D01*
X258703800Y-126876733D01*
X258703800Y-125343267D01*
X258707105Y-125309710D01*
X258715986Y-125280432D01*
X258730406Y-125253455D01*
X258749810Y-125229810D01*
X258773455Y-125210406D01*
X258800432Y-125195986D01*
X258829710Y-125187105D01*
X258863267Y-125183800D01*
X259296733Y-125183800D01*
X259330290Y-125187105D01*
X259330290Y-125187105D01*
G37*
G36*
X260600290Y-125187105D02*
G01*
X260629568Y-125195986D01*
X260656545Y-125210406D01*
X260680190Y-125229810D01*
X260699594Y-125253455D01*
X260714014Y-125280432D01*
X260722895Y-125309710D01*
X260726200Y-125343267D01*
X260726200Y-126876733D01*
X260722895Y-126910290D01*
X260714014Y-126939568D01*
X260699594Y-126966545D01*
X260680190Y-126990190D01*
X260656545Y-127009594D01*
X260629568Y-127024014D01*
X260600290Y-127032895D01*
X260566733Y-127036200D01*
X260133267Y-127036200D01*
X260099710Y-127032895D01*
X260070432Y-127024014D01*
X260043455Y-127009594D01*
X260019810Y-126990190D01*
X260000406Y-126966545D01*
X259985986Y-126939568D01*
X259977105Y-126910290D01*
X259973800Y-126876733D01*
X259973800Y-125343267D01*
X259977105Y-125309710D01*
X259985986Y-125280432D01*
X260000406Y-125253455D01*
X260019810Y-125229810D01*
X260043455Y-125210406D01*
X260070432Y-125195986D01*
X260099710Y-125187105D01*
X260133267Y-125183800D01*
X260566733Y-125183800D01*
X260600290Y-125187105D01*
X260600290Y-125187105D01*
G37*
G36*
X246630290Y-125187105D02*
G01*
X246659568Y-125195986D01*
X246686545Y-125210406D01*
X246710190Y-125229810D01*
X246729594Y-125253455D01*
X246744014Y-125280432D01*
X246752895Y-125309710D01*
X246756200Y-125343267D01*
X246756200Y-126876733D01*
X246752895Y-126910290D01*
X246744014Y-126939568D01*
X246729594Y-126966545D01*
X246710190Y-126990190D01*
X246686545Y-127009594D01*
X246659568Y-127024014D01*
X246630290Y-127032895D01*
X246596733Y-127036200D01*
X246163267Y-127036200D01*
X246129710Y-127032895D01*
X246100432Y-127024014D01*
X246073455Y-127009594D01*
X246049810Y-126990190D01*
X246030406Y-126966545D01*
X246015986Y-126939568D01*
X246007105Y-126910290D01*
X246003800Y-126876733D01*
X246003800Y-125343267D01*
X246007105Y-125309710D01*
X246015986Y-125280432D01*
X246030406Y-125253455D01*
X246049810Y-125229810D01*
X246073455Y-125210406D01*
X246100432Y-125195986D01*
X246129710Y-125187105D01*
X246163267Y-125183800D01*
X246596733Y-125183800D01*
X246630290Y-125187105D01*
X246630290Y-125187105D01*
G37*
G36*
X247900290Y-125187105D02*
G01*
X247929568Y-125195986D01*
X247956545Y-125210406D01*
X247980190Y-125229810D01*
X247999594Y-125253455D01*
X248014014Y-125280432D01*
X248022895Y-125309710D01*
X248026200Y-125343267D01*
X248026200Y-126876733D01*
X248022895Y-126910290D01*
X248014014Y-126939568D01*
X247999594Y-126966545D01*
X247980190Y-126990190D01*
X247956545Y-127009594D01*
X247929568Y-127024014D01*
X247900290Y-127032895D01*
X247866733Y-127036200D01*
X247433267Y-127036200D01*
X247399710Y-127032895D01*
X247370432Y-127024014D01*
X247343455Y-127009594D01*
X247319810Y-126990190D01*
X247300406Y-126966545D01*
X247285986Y-126939568D01*
X247277105Y-126910290D01*
X247273800Y-126876733D01*
X247273800Y-125343267D01*
X247277105Y-125309710D01*
X247285986Y-125280432D01*
X247300406Y-125253455D01*
X247319810Y-125229810D01*
X247343455Y-125210406D01*
X247370432Y-125195986D01*
X247399710Y-125187105D01*
X247433267Y-125183800D01*
X247866733Y-125183800D01*
X247900290Y-125187105D01*
X247900290Y-125187105D01*
G37*
G36*
X249170290Y-125187105D02*
G01*
X249199568Y-125195986D01*
X249226545Y-125210406D01*
X249250190Y-125229810D01*
X249269594Y-125253455D01*
X249284014Y-125280432D01*
X249292895Y-125309710D01*
X249296200Y-125343267D01*
X249296200Y-126876733D01*
X249292895Y-126910290D01*
X249284014Y-126939568D01*
X249269594Y-126966545D01*
X249250190Y-126990190D01*
X249226545Y-127009594D01*
X249199568Y-127024014D01*
X249170290Y-127032895D01*
X249136733Y-127036200D01*
X248703267Y-127036200D01*
X248669710Y-127032895D01*
X248640432Y-127024014D01*
X248613455Y-127009594D01*
X248589810Y-126990190D01*
X248570406Y-126966545D01*
X248555986Y-126939568D01*
X248547105Y-126910290D01*
X248543800Y-126876733D01*
X248543800Y-125343267D01*
X248547105Y-125309710D01*
X248555986Y-125280432D01*
X248570406Y-125253455D01*
X248589810Y-125229810D01*
X248613455Y-125210406D01*
X248640432Y-125195986D01*
X248669710Y-125187105D01*
X248703267Y-125183800D01*
X249136733Y-125183800D01*
X249170290Y-125187105D01*
X249170290Y-125187105D01*
G37*
G36*
X255520290Y-125187105D02*
G01*
X255549568Y-125195986D01*
X255576545Y-125210406D01*
X255600190Y-125229810D01*
X255619594Y-125253455D01*
X255634014Y-125280432D01*
X255642895Y-125309710D01*
X255646200Y-125343267D01*
X255646200Y-126876733D01*
X255642895Y-126910290D01*
X255634014Y-126939568D01*
X255619594Y-126966545D01*
X255600190Y-126990190D01*
X255576545Y-127009594D01*
X255549568Y-127024014D01*
X255520290Y-127032895D01*
X255486733Y-127036200D01*
X255053267Y-127036200D01*
X255019710Y-127032895D01*
X254990432Y-127024014D01*
X254963455Y-127009594D01*
X254939810Y-126990190D01*
X254920406Y-126966545D01*
X254905986Y-126939568D01*
X254897105Y-126910290D01*
X254893800Y-126876733D01*
X254893800Y-125343267D01*
X254897105Y-125309710D01*
X254905986Y-125280432D01*
X254920406Y-125253455D01*
X254939810Y-125229810D01*
X254963455Y-125210406D01*
X254990432Y-125195986D01*
X255019710Y-125187105D01*
X255053267Y-125183800D01*
X255486733Y-125183800D01*
X255520290Y-125187105D01*
X255520290Y-125187105D01*
G37*
G36*
X254250290Y-125187105D02*
G01*
X254279568Y-125195986D01*
X254306545Y-125210406D01*
X254330190Y-125229810D01*
X254349594Y-125253455D01*
X254364014Y-125280432D01*
X254372895Y-125309710D01*
X254376200Y-125343267D01*
X254376200Y-126876733D01*
X254372895Y-126910290D01*
X254364014Y-126939568D01*
X254349594Y-126966545D01*
X254330190Y-126990190D01*
X254306545Y-127009594D01*
X254279568Y-127024014D01*
X254250290Y-127032895D01*
X254216733Y-127036200D01*
X253783267Y-127036200D01*
X253749710Y-127032895D01*
X253720432Y-127024014D01*
X253693455Y-127009594D01*
X253669810Y-126990190D01*
X253650406Y-126966545D01*
X253635986Y-126939568D01*
X253627105Y-126910290D01*
X253623800Y-126876733D01*
X253623800Y-125343267D01*
X253627105Y-125309710D01*
X253635986Y-125280432D01*
X253650406Y-125253455D01*
X253669810Y-125229810D01*
X253693455Y-125210406D01*
X253720432Y-125195986D01*
X253749710Y-125187105D01*
X253783267Y-125183800D01*
X254216733Y-125183800D01*
X254250290Y-125187105D01*
X254250290Y-125187105D01*
G37*
G36*
X250440290Y-125187105D02*
G01*
X250469568Y-125195986D01*
X250496545Y-125210406D01*
X250520190Y-125229810D01*
X250539594Y-125253455D01*
X250554014Y-125280432D01*
X250562895Y-125309710D01*
X250566200Y-125343267D01*
X250566200Y-126876733D01*
X250562895Y-126910290D01*
X250554014Y-126939568D01*
X250539594Y-126966545D01*
X250520190Y-126990190D01*
X250496545Y-127009594D01*
X250469568Y-127024014D01*
X250440290Y-127032895D01*
X250406733Y-127036200D01*
X249973267Y-127036200D01*
X249939710Y-127032895D01*
X249910432Y-127024014D01*
X249883455Y-127009594D01*
X249859810Y-126990190D01*
X249840406Y-126966545D01*
X249825986Y-126939568D01*
X249817105Y-126910290D01*
X249813800Y-126876733D01*
X249813800Y-125343267D01*
X249817105Y-125309710D01*
X249825986Y-125280432D01*
X249840406Y-125253455D01*
X249859810Y-125229810D01*
X249883455Y-125210406D01*
X249910432Y-125195986D01*
X249939710Y-125187105D01*
X249973267Y-125183800D01*
X250406733Y-125183800D01*
X250440290Y-125187105D01*
X250440290Y-125187105D01*
G37*
G36*
X251710290Y-125187105D02*
G01*
X251739568Y-125195986D01*
X251766545Y-125210406D01*
X251790190Y-125229810D01*
X251809594Y-125253455D01*
X251824014Y-125280432D01*
X251832895Y-125309710D01*
X251836200Y-125343267D01*
X251836200Y-126876733D01*
X251832895Y-126910290D01*
X251824014Y-126939568D01*
X251809594Y-126966545D01*
X251790190Y-126990190D01*
X251766545Y-127009594D01*
X251739568Y-127024014D01*
X251710290Y-127032895D01*
X251676733Y-127036200D01*
X251243267Y-127036200D01*
X251209710Y-127032895D01*
X251180432Y-127024014D01*
X251153455Y-127009594D01*
X251129810Y-126990190D01*
X251110406Y-126966545D01*
X251095986Y-126939568D01*
X251087105Y-126910290D01*
X251083800Y-126876733D01*
X251083800Y-125343267D01*
X251087105Y-125309710D01*
X251095986Y-125280432D01*
X251110406Y-125253455D01*
X251129810Y-125229810D01*
X251153455Y-125210406D01*
X251180432Y-125195986D01*
X251209710Y-125187105D01*
X251243267Y-125183800D01*
X251676733Y-125183800D01*
X251710290Y-125187105D01*
X251710290Y-125187105D01*
G37*
G36*
X252980290Y-125187105D02*
G01*
X253009568Y-125195986D01*
X253036545Y-125210406D01*
X253060190Y-125229810D01*
X253079594Y-125253455D01*
X253094014Y-125280432D01*
X253102895Y-125309710D01*
X253106200Y-125343267D01*
X253106200Y-126876733D01*
X253102895Y-126910290D01*
X253094014Y-126939568D01*
X253079594Y-126966545D01*
X253060190Y-126990190D01*
X253036545Y-127009594D01*
X253009568Y-127024014D01*
X252980290Y-127032895D01*
X252946733Y-127036200D01*
X252513267Y-127036200D01*
X252479710Y-127032895D01*
X252450432Y-127024014D01*
X252423455Y-127009594D01*
X252399810Y-126990190D01*
X252380406Y-126966545D01*
X252365986Y-126939568D01*
X252357105Y-126910290D01*
X252353800Y-126876733D01*
X252353800Y-125343267D01*
X252357105Y-125309710D01*
X252365986Y-125280432D01*
X252380406Y-125253455D01*
X252399810Y-125229810D01*
X252423455Y-125210406D01*
X252450432Y-125195986D01*
X252479710Y-125187105D01*
X252513267Y-125183800D01*
X252946733Y-125183800D01*
X252980290Y-125187105D01*
X252980290Y-125187105D01*
G37*
G36*
X227889737Y-123864267D02*
G01*
X227940119Y-123879550D01*
X227986546Y-123904366D01*
X228027239Y-123937761D01*
X228060634Y-123978454D01*
X228085450Y-124024881D01*
X228100733Y-124075263D01*
X228106200Y-124130767D01*
X228106200Y-124789233D01*
X228100733Y-124844737D01*
X228085450Y-124895119D01*
X228060634Y-124941546D01*
X228027239Y-124982239D01*
X227986546Y-125015634D01*
X227940119Y-125040450D01*
X227889737Y-125055733D01*
X227834233Y-125061200D01*
X226825767Y-125061200D01*
X226770263Y-125055733D01*
X226719881Y-125040450D01*
X226673454Y-125015634D01*
X226632761Y-124982239D01*
X226599366Y-124941546D01*
X226574550Y-124895119D01*
X226559267Y-124844737D01*
X226553800Y-124789233D01*
X226553800Y-124130767D01*
X226559267Y-124075263D01*
X226574550Y-124024881D01*
X226599366Y-123978454D01*
X226632761Y-123937761D01*
X226673454Y-123904366D01*
X226719881Y-123879550D01*
X226770263Y-123864267D01*
X226825767Y-123858800D01*
X227834233Y-123858800D01*
X227889737Y-123864267D01*
X227889737Y-123864267D01*
G37*
G36*
X262800290Y-124087105D02*
G01*
X262829568Y-124095986D01*
X262856545Y-124110406D01*
X262880190Y-124129810D01*
X262899594Y-124153455D01*
X262914014Y-124180432D01*
X262922895Y-124209710D01*
X262926200Y-124243267D01*
X262926200Y-124676733D01*
X262922895Y-124710290D01*
X262914014Y-124739568D01*
X262899594Y-124766545D01*
X262880190Y-124790190D01*
X262856545Y-124809594D01*
X262829568Y-124824014D01*
X262800290Y-124832895D01*
X262766733Y-124836200D01*
X261233267Y-124836200D01*
X261199710Y-124832895D01*
X261170432Y-124824014D01*
X261143455Y-124809594D01*
X261119810Y-124790190D01*
X261100406Y-124766545D01*
X261085986Y-124739568D01*
X261077105Y-124710290D01*
X261073800Y-124676733D01*
X261073800Y-124243267D01*
X261077105Y-124209710D01*
X261085986Y-124180432D01*
X261100406Y-124153455D01*
X261119810Y-124129810D01*
X261143455Y-124110406D01*
X261170432Y-124095986D01*
X261199710Y-124087105D01*
X261233267Y-124083800D01*
X262766733Y-124083800D01*
X262800290Y-124087105D01*
X262800290Y-124087105D01*
G37*
G36*
X234100290Y-124087105D02*
G01*
X234129568Y-124095986D01*
X234156545Y-124110406D01*
X234180190Y-124129810D01*
X234199594Y-124153455D01*
X234214014Y-124180432D01*
X234222895Y-124209710D01*
X234226200Y-124243267D01*
X234226200Y-124676733D01*
X234222895Y-124710290D01*
X234214014Y-124739568D01*
X234199594Y-124766545D01*
X234180190Y-124790190D01*
X234156545Y-124809594D01*
X234129568Y-124824014D01*
X234100290Y-124832895D01*
X234066733Y-124836200D01*
X232533267Y-124836200D01*
X232499710Y-124832895D01*
X232470432Y-124824014D01*
X232443455Y-124809594D01*
X232419810Y-124790190D01*
X232400406Y-124766545D01*
X232385986Y-124739568D01*
X232377105Y-124710290D01*
X232373800Y-124676733D01*
X232373800Y-124243267D01*
X232377105Y-124209710D01*
X232385986Y-124180432D01*
X232400406Y-124153455D01*
X232419810Y-124129810D01*
X232443455Y-124110406D01*
X232470432Y-124095986D01*
X232499710Y-124087105D01*
X232533267Y-124083800D01*
X234066733Y-124083800D01*
X234100290Y-124087105D01*
X234100290Y-124087105D01*
G37*
G36*
X234100290Y-122817105D02*
G01*
X234129568Y-122825986D01*
X234156545Y-122840406D01*
X234180190Y-122859810D01*
X234199594Y-122883455D01*
X234214014Y-122910432D01*
X234222895Y-122939710D01*
X234226200Y-122973267D01*
X234226200Y-123406733D01*
X234222895Y-123440290D01*
X234214014Y-123469568D01*
X234199594Y-123496545D01*
X234180190Y-123520190D01*
X234156545Y-123539594D01*
X234129568Y-123554014D01*
X234100290Y-123562895D01*
X234066733Y-123566200D01*
X232533267Y-123566200D01*
X232499710Y-123562895D01*
X232470432Y-123554014D01*
X232443455Y-123539594D01*
X232419810Y-123520190D01*
X232400406Y-123496545D01*
X232385986Y-123469568D01*
X232377105Y-123440290D01*
X232373800Y-123406733D01*
X232373800Y-122973267D01*
X232377105Y-122939710D01*
X232385986Y-122910432D01*
X232400406Y-122883455D01*
X232419810Y-122859810D01*
X232443455Y-122840406D01*
X232470432Y-122825986D01*
X232499710Y-122817105D01*
X232533267Y-122813800D01*
X234066733Y-122813800D01*
X234100290Y-122817105D01*
X234100290Y-122817105D01*
G37*
G36*
X262800290Y-122817105D02*
G01*
X262829568Y-122825986D01*
X262856545Y-122840406D01*
X262880190Y-122859810D01*
X262899594Y-122883455D01*
X262914014Y-122910432D01*
X262922895Y-122939710D01*
X262926200Y-122973267D01*
X262926200Y-123406733D01*
X262922895Y-123440290D01*
X262914014Y-123469568D01*
X262899594Y-123496545D01*
X262880190Y-123520190D01*
X262856545Y-123539594D01*
X262829568Y-123554014D01*
X262800290Y-123562895D01*
X262766733Y-123566200D01*
X261233267Y-123566200D01*
X261199710Y-123562895D01*
X261170432Y-123554014D01*
X261143455Y-123539594D01*
X261119810Y-123520190D01*
X261100406Y-123496545D01*
X261085986Y-123469568D01*
X261077105Y-123440290D01*
X261073800Y-123406733D01*
X261073800Y-122973267D01*
X261077105Y-122939710D01*
X261085986Y-122910432D01*
X261100406Y-122883455D01*
X261119810Y-122859810D01*
X261143455Y-122840406D01*
X261170432Y-122825986D01*
X261199710Y-122817105D01*
X261233267Y-122813800D01*
X262766733Y-122813800D01*
X262800290Y-122817105D01*
X262800290Y-122817105D01*
G37*
G36*
X227889737Y-122164267D02*
G01*
X227940119Y-122179550D01*
X227986546Y-122204366D01*
X228027239Y-122237761D01*
X228060634Y-122278454D01*
X228085450Y-122324881D01*
X228100733Y-122375263D01*
X228106200Y-122430767D01*
X228106200Y-123089233D01*
X228100733Y-123144737D01*
X228085450Y-123195119D01*
X228060634Y-123241546D01*
X228027239Y-123282239D01*
X227986546Y-123315634D01*
X227940119Y-123340450D01*
X227889737Y-123355733D01*
X227834233Y-123361200D01*
X226825767Y-123361200D01*
X226770263Y-123355733D01*
X226719881Y-123340450D01*
X226673454Y-123315634D01*
X226632761Y-123282239D01*
X226599366Y-123241546D01*
X226574550Y-123195119D01*
X226559267Y-123144737D01*
X226553800Y-123089233D01*
X226553800Y-122430767D01*
X226559267Y-122375263D01*
X226574550Y-122324881D01*
X226599366Y-122278454D01*
X226632761Y-122237761D01*
X226673454Y-122204366D01*
X226719881Y-122179550D01*
X226770263Y-122164267D01*
X226825767Y-122158800D01*
X227834233Y-122158800D01*
X227889737Y-122164267D01*
X227889737Y-122164267D01*
G37*
G36*
X262800290Y-121547105D02*
G01*
X262829568Y-121555986D01*
X262856545Y-121570406D01*
X262880190Y-121589810D01*
X262899594Y-121613455D01*
X262914014Y-121640432D01*
X262922895Y-121669710D01*
X262926200Y-121703267D01*
X262926200Y-122136733D01*
X262922895Y-122170290D01*
X262914014Y-122199568D01*
X262899594Y-122226545D01*
X262880190Y-122250190D01*
X262856545Y-122269594D01*
X262829568Y-122284014D01*
X262800290Y-122292895D01*
X262766733Y-122296200D01*
X261233267Y-122296200D01*
X261199710Y-122292895D01*
X261170432Y-122284014D01*
X261143455Y-122269594D01*
X261119810Y-122250190D01*
X261100406Y-122226545D01*
X261085986Y-122199568D01*
X261077105Y-122170290D01*
X261073800Y-122136733D01*
X261073800Y-121703267D01*
X261077105Y-121669710D01*
X261085986Y-121640432D01*
X261100406Y-121613455D01*
X261119810Y-121589810D01*
X261143455Y-121570406D01*
X261170432Y-121555986D01*
X261199710Y-121547105D01*
X261233267Y-121543800D01*
X262766733Y-121543800D01*
X262800290Y-121547105D01*
X262800290Y-121547105D01*
G37*
G36*
X234100290Y-121547105D02*
G01*
X234129568Y-121555986D01*
X234156545Y-121570406D01*
X234180190Y-121589810D01*
X234199594Y-121613455D01*
X234214014Y-121640432D01*
X234222895Y-121669710D01*
X234226200Y-121703267D01*
X234226200Y-122136733D01*
X234222895Y-122170290D01*
X234214014Y-122199568D01*
X234199594Y-122226545D01*
X234180190Y-122250190D01*
X234156545Y-122269594D01*
X234129568Y-122284014D01*
X234100290Y-122292895D01*
X234066733Y-122296200D01*
X232533267Y-122296200D01*
X232499710Y-122292895D01*
X232470432Y-122284014D01*
X232443455Y-122269594D01*
X232419810Y-122250190D01*
X232400406Y-122226545D01*
X232385986Y-122199568D01*
X232377105Y-122170290D01*
X232373800Y-122136733D01*
X232373800Y-121703267D01*
X232377105Y-121669710D01*
X232385986Y-121640432D01*
X232400406Y-121613455D01*
X232419810Y-121589810D01*
X232443455Y-121570406D01*
X232470432Y-121555986D01*
X232499710Y-121547105D01*
X232533267Y-121543800D01*
X234066733Y-121543800D01*
X234100290Y-121547105D01*
X234100290Y-121547105D01*
G37*
G36*
X268529737Y-120054267D02*
G01*
X268580119Y-120069550D01*
X268626546Y-120094366D01*
X268667239Y-120127761D01*
X268700634Y-120168454D01*
X268725450Y-120214881D01*
X268740733Y-120265263D01*
X268746200Y-120320767D01*
X268746200Y-120979233D01*
X268740733Y-121034737D01*
X268725450Y-121085119D01*
X268700634Y-121131546D01*
X268667239Y-121172239D01*
X268626546Y-121205634D01*
X268580119Y-121230450D01*
X268529737Y-121245733D01*
X268474233Y-121251200D01*
X267465767Y-121251200D01*
X267410263Y-121245733D01*
X267359881Y-121230450D01*
X267313454Y-121205634D01*
X267272761Y-121172239D01*
X267239366Y-121131546D01*
X267214550Y-121085119D01*
X267199267Y-121034737D01*
X267193800Y-120979233D01*
X267193800Y-120320767D01*
X267199267Y-120265263D01*
X267214550Y-120214881D01*
X267239366Y-120168454D01*
X267272761Y-120127761D01*
X267313454Y-120094366D01*
X267359881Y-120069550D01*
X267410263Y-120054267D01*
X267465767Y-120048800D01*
X268474233Y-120048800D01*
X268529737Y-120054267D01*
X268529737Y-120054267D01*
G37*
G36*
X234100290Y-120277105D02*
G01*
X234129568Y-120285986D01*
X234156545Y-120300406D01*
X234180190Y-120319810D01*
X234199594Y-120343455D01*
X234214014Y-120370432D01*
X234222895Y-120399710D01*
X234226200Y-120433267D01*
X234226200Y-120866733D01*
X234222895Y-120900290D01*
X234214014Y-120929568D01*
X234199594Y-120956545D01*
X234180190Y-120980190D01*
X234156545Y-120999594D01*
X234129568Y-121014014D01*
X234100290Y-121022895D01*
X234066733Y-121026200D01*
X232533267Y-121026200D01*
X232499710Y-121022895D01*
X232470432Y-121014014D01*
X232443455Y-120999594D01*
X232419810Y-120980190D01*
X232400406Y-120956545D01*
X232385986Y-120929568D01*
X232377105Y-120900290D01*
X232373800Y-120866733D01*
X232373800Y-120433267D01*
X232377105Y-120399710D01*
X232385986Y-120370432D01*
X232400406Y-120343455D01*
X232419810Y-120319810D01*
X232443455Y-120300406D01*
X232470432Y-120285986D01*
X232499710Y-120277105D01*
X232533267Y-120273800D01*
X234066733Y-120273800D01*
X234100290Y-120277105D01*
X234100290Y-120277105D01*
G37*
G36*
X262800290Y-120277105D02*
G01*
X262829568Y-120285986D01*
X262856545Y-120300406D01*
X262880190Y-120319810D01*
X262899594Y-120343455D01*
X262914014Y-120370432D01*
X262922895Y-120399710D01*
X262926200Y-120433267D01*
X262926200Y-120866733D01*
X262922895Y-120900290D01*
X262914014Y-120929568D01*
X262899594Y-120956545D01*
X262880190Y-120980190D01*
X262856545Y-120999594D01*
X262829568Y-121014014D01*
X262800290Y-121022895D01*
X262766733Y-121026200D01*
X261233267Y-121026200D01*
X261199710Y-121022895D01*
X261170432Y-121014014D01*
X261143455Y-120999594D01*
X261119810Y-120980190D01*
X261100406Y-120956545D01*
X261085986Y-120929568D01*
X261077105Y-120900290D01*
X261073800Y-120866733D01*
X261073800Y-120433267D01*
X261077105Y-120399710D01*
X261085986Y-120370432D01*
X261100406Y-120343455D01*
X261119810Y-120319810D01*
X261143455Y-120300406D01*
X261170432Y-120285986D01*
X261199710Y-120277105D01*
X261233267Y-120273800D01*
X262766733Y-120273800D01*
X262800290Y-120277105D01*
X262800290Y-120277105D01*
G37*
G36*
X234100290Y-119007105D02*
G01*
X234129568Y-119015986D01*
X234156545Y-119030406D01*
X234180190Y-119049810D01*
X234199594Y-119073455D01*
X234214014Y-119100432D01*
X234222895Y-119129710D01*
X234226200Y-119163267D01*
X234226200Y-119596733D01*
X234222895Y-119630290D01*
X234214014Y-119659568D01*
X234199594Y-119686545D01*
X234180190Y-119710190D01*
X234156545Y-119729594D01*
X234129568Y-119744014D01*
X234100290Y-119752895D01*
X234066733Y-119756200D01*
X232533267Y-119756200D01*
X232499710Y-119752895D01*
X232470432Y-119744014D01*
X232443455Y-119729594D01*
X232419810Y-119710190D01*
X232400406Y-119686545D01*
X232385986Y-119659568D01*
X232377105Y-119630290D01*
X232373800Y-119596733D01*
X232373800Y-119163267D01*
X232377105Y-119129710D01*
X232385986Y-119100432D01*
X232400406Y-119073455D01*
X232419810Y-119049810D01*
X232443455Y-119030406D01*
X232470432Y-119015986D01*
X232499710Y-119007105D01*
X232533267Y-119003800D01*
X234066733Y-119003800D01*
X234100290Y-119007105D01*
X234100290Y-119007105D01*
G37*
G36*
X262800290Y-119007105D02*
G01*
X262829568Y-119015986D01*
X262856545Y-119030406D01*
X262880190Y-119049810D01*
X262899594Y-119073455D01*
X262914014Y-119100432D01*
X262922895Y-119129710D01*
X262926200Y-119163267D01*
X262926200Y-119596733D01*
X262922895Y-119630290D01*
X262914014Y-119659568D01*
X262899594Y-119686545D01*
X262880190Y-119710190D01*
X262856545Y-119729594D01*
X262829568Y-119744014D01*
X262800290Y-119752895D01*
X262766733Y-119756200D01*
X261233267Y-119756200D01*
X261199710Y-119752895D01*
X261170432Y-119744014D01*
X261143455Y-119729594D01*
X261119810Y-119710190D01*
X261100406Y-119686545D01*
X261085986Y-119659568D01*
X261077105Y-119630290D01*
X261073800Y-119596733D01*
X261073800Y-119163267D01*
X261077105Y-119129710D01*
X261085986Y-119100432D01*
X261100406Y-119073455D01*
X261119810Y-119049810D01*
X261143455Y-119030406D01*
X261170432Y-119015986D01*
X261199710Y-119007105D01*
X261233267Y-119003800D01*
X262766733Y-119003800D01*
X262800290Y-119007105D01*
X262800290Y-119007105D01*
G37*
G36*
X268529737Y-118354267D02*
G01*
X268580119Y-118369550D01*
X268626546Y-118394366D01*
X268667239Y-118427761D01*
X268700634Y-118468454D01*
X268725450Y-118514881D01*
X268740733Y-118565263D01*
X268746200Y-118620767D01*
X268746200Y-119279233D01*
X268740733Y-119334737D01*
X268725450Y-119385119D01*
X268700634Y-119431546D01*
X268667239Y-119472239D01*
X268626546Y-119505634D01*
X268580119Y-119530450D01*
X268529737Y-119545733D01*
X268474233Y-119551200D01*
X267465767Y-119551200D01*
X267410263Y-119545733D01*
X267359881Y-119530450D01*
X267313454Y-119505634D01*
X267272761Y-119472239D01*
X267239366Y-119431546D01*
X267214550Y-119385119D01*
X267199267Y-119334737D01*
X267193800Y-119279233D01*
X267193800Y-118620767D01*
X267199267Y-118565263D01*
X267214550Y-118514881D01*
X267239366Y-118468454D01*
X267272761Y-118427761D01*
X267313454Y-118394366D01*
X267359881Y-118369550D01*
X267410263Y-118354267D01*
X267465767Y-118348800D01*
X268474233Y-118348800D01*
X268529737Y-118354267D01*
X268529737Y-118354267D01*
G37*
G36*
X234100290Y-117737105D02*
G01*
X234129568Y-117745986D01*
X234156545Y-117760406D01*
X234180190Y-117779810D01*
X234199594Y-117803455D01*
X234214014Y-117830432D01*
X234222895Y-117859710D01*
X234226200Y-117893267D01*
X234226200Y-118326733D01*
X234222895Y-118360290D01*
X234214014Y-118389568D01*
X234199594Y-118416545D01*
X234180190Y-118440190D01*
X234156545Y-118459594D01*
X234129568Y-118474014D01*
X234100290Y-118482895D01*
X234066733Y-118486200D01*
X232533267Y-118486200D01*
X232499710Y-118482895D01*
X232470432Y-118474014D01*
X232443455Y-118459594D01*
X232419810Y-118440190D01*
X232400406Y-118416545D01*
X232385986Y-118389568D01*
X232377105Y-118360290D01*
X232373800Y-118326733D01*
X232373800Y-117893267D01*
X232377105Y-117859710D01*
X232385986Y-117830432D01*
X232400406Y-117803455D01*
X232419810Y-117779810D01*
X232443455Y-117760406D01*
X232470432Y-117745986D01*
X232499710Y-117737105D01*
X232533267Y-117733800D01*
X234066733Y-117733800D01*
X234100290Y-117737105D01*
X234100290Y-117737105D01*
G37*
G36*
X262800290Y-117737105D02*
G01*
X262829568Y-117745986D01*
X262856545Y-117760406D01*
X262880190Y-117779810D01*
X262899594Y-117803455D01*
X262914014Y-117830432D01*
X262922895Y-117859710D01*
X262926200Y-117893267D01*
X262926200Y-118326733D01*
X262922895Y-118360290D01*
X262914014Y-118389568D01*
X262899594Y-118416545D01*
X262880190Y-118440190D01*
X262856545Y-118459594D01*
X262829568Y-118474014D01*
X262800290Y-118482895D01*
X262766733Y-118486200D01*
X261233267Y-118486200D01*
X261199710Y-118482895D01*
X261170432Y-118474014D01*
X261143455Y-118459594D01*
X261119810Y-118440190D01*
X261100406Y-118416545D01*
X261085986Y-118389568D01*
X261077105Y-118360290D01*
X261073800Y-118326733D01*
X261073800Y-117893267D01*
X261077105Y-117859710D01*
X261085986Y-117830432D01*
X261100406Y-117803455D01*
X261119810Y-117779810D01*
X261143455Y-117760406D01*
X261170432Y-117745986D01*
X261199710Y-117737105D01*
X261233267Y-117733800D01*
X262766733Y-117733800D01*
X262800290Y-117737105D01*
X262800290Y-117737105D01*
G37*
G36*
X214506737Y-116704267D02*
G01*
X214557119Y-116719550D01*
X214603546Y-116744366D01*
X214644239Y-116777761D01*
X214677634Y-116818454D01*
X214702450Y-116864881D01*
X214717733Y-116915263D01*
X214723200Y-116970767D01*
X214723200Y-117979233D01*
X214717733Y-118034737D01*
X214702450Y-118085119D01*
X214677634Y-118131546D01*
X214644239Y-118172239D01*
X214603546Y-118205634D01*
X214557119Y-118230450D01*
X214506737Y-118245733D01*
X214451233Y-118251200D01*
X213792767Y-118251200D01*
X213737263Y-118245733D01*
X213686881Y-118230450D01*
X213640454Y-118205634D01*
X213599761Y-118172239D01*
X213566366Y-118131546D01*
X213541550Y-118085119D01*
X213526267Y-118034737D01*
X213520800Y-117979233D01*
X213520800Y-116970767D01*
X213526267Y-116915263D01*
X213541550Y-116864881D01*
X213566366Y-116818454D01*
X213599761Y-116777761D01*
X213640454Y-116744366D01*
X213686881Y-116719550D01*
X213737263Y-116704267D01*
X213792767Y-116698800D01*
X214451233Y-116698800D01*
X214506737Y-116704267D01*
X214506737Y-116704267D01*
G37*
G36*
X216206737Y-116704267D02*
G01*
X216257119Y-116719550D01*
X216303546Y-116744366D01*
X216344239Y-116777761D01*
X216377634Y-116818454D01*
X216402450Y-116864881D01*
X216417733Y-116915263D01*
X216423200Y-116970767D01*
X216423200Y-117979233D01*
X216417733Y-118034737D01*
X216402450Y-118085119D01*
X216377634Y-118131546D01*
X216344239Y-118172239D01*
X216303546Y-118205634D01*
X216257119Y-118230450D01*
X216206737Y-118245733D01*
X216151233Y-118251200D01*
X215492767Y-118251200D01*
X215437263Y-118245733D01*
X215386881Y-118230450D01*
X215340454Y-118205634D01*
X215299761Y-118172239D01*
X215266366Y-118131546D01*
X215241550Y-118085119D01*
X215226267Y-118034737D01*
X215220800Y-117979233D01*
X215220800Y-116970767D01*
X215226267Y-116915263D01*
X215241550Y-116864881D01*
X215266366Y-116818454D01*
X215299761Y-116777761D01*
X215340454Y-116744366D01*
X215386881Y-116719550D01*
X215437263Y-116704267D01*
X215492767Y-116698800D01*
X216151233Y-116698800D01*
X216206737Y-116704267D01*
X216206737Y-116704267D01*
G37*
G36*
X262800290Y-116467105D02*
G01*
X262829568Y-116475986D01*
X262856545Y-116490406D01*
X262880190Y-116509810D01*
X262899594Y-116533455D01*
X262914014Y-116560432D01*
X262922895Y-116589710D01*
X262926200Y-116623267D01*
X262926200Y-117056733D01*
X262922895Y-117090290D01*
X262914014Y-117119568D01*
X262899594Y-117146545D01*
X262880190Y-117170190D01*
X262856545Y-117189594D01*
X262829568Y-117204014D01*
X262800290Y-117212895D01*
X262766733Y-117216200D01*
X261233267Y-117216200D01*
X261199710Y-117212895D01*
X261170432Y-117204014D01*
X261143455Y-117189594D01*
X261119810Y-117170190D01*
X261100406Y-117146545D01*
X261085986Y-117119568D01*
X261077105Y-117090290D01*
X261073800Y-117056733D01*
X261073800Y-116623267D01*
X261077105Y-116589710D01*
X261085986Y-116560432D01*
X261100406Y-116533455D01*
X261119810Y-116509810D01*
X261143455Y-116490406D01*
X261170432Y-116475986D01*
X261199710Y-116467105D01*
X261233267Y-116463800D01*
X262766733Y-116463800D01*
X262800290Y-116467105D01*
X262800290Y-116467105D01*
G37*
G36*
X234100290Y-116467105D02*
G01*
X234129568Y-116475986D01*
X234156545Y-116490406D01*
X234180190Y-116509810D01*
X234199594Y-116533455D01*
X234214014Y-116560432D01*
X234222895Y-116589710D01*
X234226200Y-116623267D01*
X234226200Y-117056733D01*
X234222895Y-117090290D01*
X234214014Y-117119568D01*
X234199594Y-117146545D01*
X234180190Y-117170190D01*
X234156545Y-117189594D01*
X234129568Y-117204014D01*
X234100290Y-117212895D01*
X234066733Y-117216200D01*
X232533267Y-117216200D01*
X232499710Y-117212895D01*
X232470432Y-117204014D01*
X232443455Y-117189594D01*
X232419810Y-117170190D01*
X232400406Y-117146545D01*
X232385986Y-117119568D01*
X232377105Y-117090290D01*
X232373800Y-117056733D01*
X232373800Y-116623267D01*
X232377105Y-116589710D01*
X232385986Y-116560432D01*
X232400406Y-116533455D01*
X232419810Y-116509810D01*
X232443455Y-116490406D01*
X232470432Y-116475986D01*
X232499710Y-116467105D01*
X232533267Y-116463800D01*
X234066733Y-116463800D01*
X234100290Y-116467105D01*
X234100290Y-116467105D01*
G37*
G36*
X262800290Y-115197105D02*
G01*
X262829568Y-115205986D01*
X262856545Y-115220406D01*
X262880190Y-115239810D01*
X262899594Y-115263455D01*
X262914014Y-115290432D01*
X262922895Y-115319710D01*
X262926200Y-115353267D01*
X262926200Y-115786733D01*
X262922895Y-115820290D01*
X262914014Y-115849568D01*
X262899594Y-115876545D01*
X262880190Y-115900190D01*
X262856545Y-115919594D01*
X262829568Y-115934014D01*
X262800290Y-115942895D01*
X262766733Y-115946200D01*
X261233267Y-115946200D01*
X261199710Y-115942895D01*
X261170432Y-115934014D01*
X261143455Y-115919594D01*
X261119810Y-115900190D01*
X261100406Y-115876545D01*
X261085986Y-115849568D01*
X261077105Y-115820290D01*
X261073800Y-115786733D01*
X261073800Y-115353267D01*
X261077105Y-115319710D01*
X261085986Y-115290432D01*
X261100406Y-115263455D01*
X261119810Y-115239810D01*
X261143455Y-115220406D01*
X261170432Y-115205986D01*
X261199710Y-115197105D01*
X261233267Y-115193800D01*
X262766733Y-115193800D01*
X262800290Y-115197105D01*
X262800290Y-115197105D01*
G37*
G36*
X234100290Y-115197105D02*
G01*
X234129568Y-115205986D01*
X234156545Y-115220406D01*
X234180190Y-115239810D01*
X234199594Y-115263455D01*
X234214014Y-115290432D01*
X234222895Y-115319710D01*
X234226200Y-115353267D01*
X234226200Y-115786733D01*
X234222895Y-115820290D01*
X234214014Y-115849568D01*
X234199594Y-115876545D01*
X234180190Y-115900190D01*
X234156545Y-115919594D01*
X234129568Y-115934014D01*
X234100290Y-115942895D01*
X234066733Y-115946200D01*
X232533267Y-115946200D01*
X232499710Y-115942895D01*
X232470432Y-115934014D01*
X232443455Y-115919594D01*
X232419810Y-115900190D01*
X232400406Y-115876545D01*
X232385986Y-115849568D01*
X232377105Y-115820290D01*
X232373800Y-115786733D01*
X232373800Y-115353267D01*
X232377105Y-115319710D01*
X232385986Y-115290432D01*
X232400406Y-115263455D01*
X232419810Y-115239810D01*
X232443455Y-115220406D01*
X232470432Y-115205986D01*
X232499710Y-115197105D01*
X232533267Y-115193800D01*
X234066733Y-115193800D01*
X234100290Y-115197105D01*
X234100290Y-115197105D01*
G37*
G36*
X223455290Y-114562105D02*
G01*
X223484568Y-114570986D01*
X223511545Y-114585406D01*
X223535190Y-114604810D01*
X223554594Y-114628455D01*
X223569014Y-114655432D01*
X223577895Y-114684710D01*
X223581200Y-114718267D01*
X223581200Y-115151733D01*
X223577895Y-115185290D01*
X223569014Y-115214568D01*
X223554594Y-115241545D01*
X223535190Y-115265190D01*
X223511545Y-115284594D01*
X223484568Y-115299014D01*
X223455290Y-115307895D01*
X223421733Y-115311200D01*
X219588267Y-115311200D01*
X219554710Y-115307895D01*
X219525432Y-115299014D01*
X219498455Y-115284594D01*
X219474810Y-115265190D01*
X219455406Y-115241545D01*
X219440986Y-115214568D01*
X219432105Y-115185290D01*
X219428800Y-115151733D01*
X219428800Y-114718267D01*
X219432105Y-114684710D01*
X219440986Y-114655432D01*
X219455406Y-114628455D01*
X219474810Y-114604810D01*
X219498455Y-114585406D01*
X219525432Y-114570986D01*
X219554710Y-114562105D01*
X219588267Y-114558800D01*
X223421733Y-114558800D01*
X223455290Y-114562105D01*
X223455290Y-114562105D01*
G37*
G36*
X216055290Y-114562105D02*
G01*
X216084568Y-114570986D01*
X216111545Y-114585406D01*
X216135190Y-114604810D01*
X216154594Y-114628455D01*
X216169014Y-114655432D01*
X216177895Y-114684710D01*
X216181200Y-114718267D01*
X216181200Y-115151733D01*
X216177895Y-115185290D01*
X216169014Y-115214568D01*
X216154594Y-115241545D01*
X216135190Y-115265190D01*
X216111545Y-115284594D01*
X216084568Y-115299014D01*
X216055290Y-115307895D01*
X216021733Y-115311200D01*
X212188267Y-115311200D01*
X212154710Y-115307895D01*
X212125432Y-115299014D01*
X212098455Y-115284594D01*
X212074810Y-115265190D01*
X212055406Y-115241545D01*
X212040986Y-115214568D01*
X212032105Y-115185290D01*
X212028800Y-115151733D01*
X212028800Y-114718267D01*
X212032105Y-114684710D01*
X212040986Y-114655432D01*
X212055406Y-114628455D01*
X212074810Y-114604810D01*
X212098455Y-114585406D01*
X212125432Y-114570986D01*
X212154710Y-114562105D01*
X212188267Y-114558800D01*
X216021733Y-114558800D01*
X216055290Y-114562105D01*
X216055290Y-114562105D01*
G37*
G36*
X234100290Y-113927105D02*
G01*
X234129568Y-113935986D01*
X234156545Y-113950406D01*
X234180190Y-113969810D01*
X234199594Y-113993455D01*
X234214014Y-114020432D01*
X234222895Y-114049710D01*
X234226200Y-114083267D01*
X234226200Y-114516733D01*
X234222895Y-114550290D01*
X234214014Y-114579568D01*
X234199594Y-114606545D01*
X234180190Y-114630190D01*
X234156545Y-114649594D01*
X234129568Y-114664014D01*
X234100290Y-114672895D01*
X234066733Y-114676200D01*
X232533267Y-114676200D01*
X232499710Y-114672895D01*
X232470432Y-114664014D01*
X232443455Y-114649594D01*
X232419810Y-114630190D01*
X232400406Y-114606545D01*
X232385986Y-114579568D01*
X232377105Y-114550290D01*
X232373800Y-114516733D01*
X232373800Y-114083267D01*
X232377105Y-114049710D01*
X232385986Y-114020432D01*
X232400406Y-113993455D01*
X232419810Y-113969810D01*
X232443455Y-113950406D01*
X232470432Y-113935986D01*
X232499710Y-113927105D01*
X232533267Y-113923800D01*
X234066733Y-113923800D01*
X234100290Y-113927105D01*
X234100290Y-113927105D01*
G37*
G36*
X262800290Y-113927105D02*
G01*
X262829568Y-113935986D01*
X262856545Y-113950406D01*
X262880190Y-113969810D01*
X262899594Y-113993455D01*
X262914014Y-114020432D01*
X262922895Y-114049710D01*
X262926200Y-114083267D01*
X262926200Y-114516733D01*
X262922895Y-114550290D01*
X262914014Y-114579568D01*
X262899594Y-114606545D01*
X262880190Y-114630190D01*
X262856545Y-114649594D01*
X262829568Y-114664014D01*
X262800290Y-114672895D01*
X262766733Y-114676200D01*
X261233267Y-114676200D01*
X261199710Y-114672895D01*
X261170432Y-114664014D01*
X261143455Y-114649594D01*
X261119810Y-114630190D01*
X261100406Y-114606545D01*
X261085986Y-114579568D01*
X261077105Y-114550290D01*
X261073800Y-114516733D01*
X261073800Y-114083267D01*
X261077105Y-114049710D01*
X261085986Y-114020432D01*
X261100406Y-113993455D01*
X261119810Y-113969810D01*
X261143455Y-113950406D01*
X261170432Y-113935986D01*
X261199710Y-113927105D01*
X261233267Y-113923800D01*
X262766733Y-113923800D01*
X262800290Y-113927105D01*
X262800290Y-113927105D01*
G37*
G36*
X205616737Y-112640267D02*
G01*
X205667119Y-112655550D01*
X205713546Y-112680366D01*
X205754239Y-112713761D01*
X205787634Y-112754454D01*
X205812450Y-112800881D01*
X205827733Y-112851263D01*
X205833200Y-112906767D01*
X205833200Y-113915233D01*
X205827733Y-113970737D01*
X205812450Y-114021119D01*
X205787634Y-114067546D01*
X205754239Y-114108239D01*
X205713546Y-114141634D01*
X205667119Y-114166450D01*
X205616737Y-114181733D01*
X205561233Y-114187200D01*
X204902767Y-114187200D01*
X204847263Y-114181733D01*
X204796881Y-114166450D01*
X204750454Y-114141634D01*
X204709761Y-114108239D01*
X204676366Y-114067546D01*
X204651550Y-114021119D01*
X204636267Y-113970737D01*
X204630800Y-113915233D01*
X204630800Y-112906767D01*
X204636267Y-112851263D01*
X204651550Y-112800881D01*
X204676366Y-112754454D01*
X204709761Y-112713761D01*
X204750454Y-112680366D01*
X204796881Y-112655550D01*
X204847263Y-112640267D01*
X204902767Y-112634800D01*
X205561233Y-112634800D01*
X205616737Y-112640267D01*
X205616737Y-112640267D01*
G37*
G36*
X203916737Y-112640267D02*
G01*
X203967119Y-112655550D01*
X204013546Y-112680366D01*
X204054239Y-112713761D01*
X204087634Y-112754454D01*
X204112450Y-112800881D01*
X204127733Y-112851263D01*
X204133200Y-112906767D01*
X204133200Y-113915233D01*
X204127733Y-113970737D01*
X204112450Y-114021119D01*
X204087634Y-114067546D01*
X204054239Y-114108239D01*
X204013546Y-114141634D01*
X203967119Y-114166450D01*
X203916737Y-114181733D01*
X203861233Y-114187200D01*
X203202767Y-114187200D01*
X203147263Y-114181733D01*
X203096881Y-114166450D01*
X203050454Y-114141634D01*
X203009761Y-114108239D01*
X202976366Y-114067546D01*
X202951550Y-114021119D01*
X202936267Y-113970737D01*
X202930800Y-113915233D01*
X202930800Y-112906767D01*
X202936267Y-112851263D01*
X202951550Y-112800881D01*
X202976366Y-112754454D01*
X203009761Y-112713761D01*
X203050454Y-112680366D01*
X203096881Y-112655550D01*
X203147263Y-112640267D01*
X203202767Y-112634800D01*
X203861233Y-112634800D01*
X203916737Y-112640267D01*
X203916737Y-112640267D01*
G37*
G36*
X223455290Y-113292105D02*
G01*
X223484568Y-113300986D01*
X223511545Y-113315406D01*
X223535190Y-113334810D01*
X223554594Y-113358455D01*
X223569014Y-113385432D01*
X223577895Y-113414710D01*
X223581200Y-113448267D01*
X223581200Y-113881733D01*
X223577895Y-113915290D01*
X223569014Y-113944568D01*
X223554594Y-113971545D01*
X223535190Y-113995190D01*
X223511545Y-114014594D01*
X223484568Y-114029014D01*
X223455290Y-114037895D01*
X223421733Y-114041200D01*
X219588267Y-114041200D01*
X219554710Y-114037895D01*
X219525432Y-114029014D01*
X219498455Y-114014594D01*
X219474810Y-113995190D01*
X219455406Y-113971545D01*
X219440986Y-113944568D01*
X219432105Y-113915290D01*
X219428800Y-113881733D01*
X219428800Y-113448267D01*
X219432105Y-113414710D01*
X219440986Y-113385432D01*
X219455406Y-113358455D01*
X219474810Y-113334810D01*
X219498455Y-113315406D01*
X219525432Y-113300986D01*
X219554710Y-113292105D01*
X219588267Y-113288800D01*
X223421733Y-113288800D01*
X223455290Y-113292105D01*
X223455290Y-113292105D01*
G37*
G36*
X216055290Y-113292105D02*
G01*
X216084568Y-113300986D01*
X216111545Y-113315406D01*
X216135190Y-113334810D01*
X216154594Y-113358455D01*
X216169014Y-113385432D01*
X216177895Y-113414710D01*
X216181200Y-113448267D01*
X216181200Y-113881733D01*
X216177895Y-113915290D01*
X216169014Y-113944568D01*
X216154594Y-113971545D01*
X216135190Y-113995190D01*
X216111545Y-114014594D01*
X216084568Y-114029014D01*
X216055290Y-114037895D01*
X216021733Y-114041200D01*
X212188267Y-114041200D01*
X212154710Y-114037895D01*
X212125432Y-114029014D01*
X212098455Y-114014594D01*
X212074810Y-113995190D01*
X212055406Y-113971545D01*
X212040986Y-113944568D01*
X212032105Y-113915290D01*
X212028800Y-113881733D01*
X212028800Y-113448267D01*
X212032105Y-113414710D01*
X212040986Y-113385432D01*
X212055406Y-113358455D01*
X212074810Y-113334810D01*
X212098455Y-113315406D01*
X212125432Y-113300986D01*
X212154710Y-113292105D01*
X212188267Y-113288800D01*
X216021733Y-113288800D01*
X216055290Y-113292105D01*
X216055290Y-113292105D01*
G37*
G36*
X262800290Y-112657105D02*
G01*
X262829568Y-112665986D01*
X262856545Y-112680406D01*
X262880190Y-112699810D01*
X262899594Y-112723455D01*
X262914014Y-112750432D01*
X262922895Y-112779710D01*
X262926200Y-112813267D01*
X262926200Y-113246733D01*
X262922895Y-113280290D01*
X262914014Y-113309568D01*
X262899594Y-113336545D01*
X262880190Y-113360190D01*
X262856545Y-113379594D01*
X262829568Y-113394014D01*
X262800290Y-113402895D01*
X262766733Y-113406200D01*
X261233267Y-113406200D01*
X261199710Y-113402895D01*
X261170432Y-113394014D01*
X261143455Y-113379594D01*
X261119810Y-113360190D01*
X261100406Y-113336545D01*
X261085986Y-113309568D01*
X261077105Y-113280290D01*
X261073800Y-113246733D01*
X261073800Y-112813267D01*
X261077105Y-112779710D01*
X261085986Y-112750432D01*
X261100406Y-112723455D01*
X261119810Y-112699810D01*
X261143455Y-112680406D01*
X261170432Y-112665986D01*
X261199710Y-112657105D01*
X261233267Y-112653800D01*
X262766733Y-112653800D01*
X262800290Y-112657105D01*
X262800290Y-112657105D01*
G37*
G36*
X234100290Y-112657105D02*
G01*
X234129568Y-112665986D01*
X234156545Y-112680406D01*
X234180190Y-112699810D01*
X234199594Y-112723455D01*
X234214014Y-112750432D01*
X234222895Y-112779710D01*
X234226200Y-112813267D01*
X234226200Y-113246733D01*
X234222895Y-113280290D01*
X234214014Y-113309568D01*
X234199594Y-113336545D01*
X234180190Y-113360190D01*
X234156545Y-113379594D01*
X234129568Y-113394014D01*
X234100290Y-113402895D01*
X234066733Y-113406200D01*
X232533267Y-113406200D01*
X232499710Y-113402895D01*
X232470432Y-113394014D01*
X232443455Y-113379594D01*
X232419810Y-113360190D01*
X232400406Y-113336545D01*
X232385986Y-113309568D01*
X232377105Y-113280290D01*
X232373800Y-113246733D01*
X232373800Y-112813267D01*
X232377105Y-112779710D01*
X232385986Y-112750432D01*
X232400406Y-112723455D01*
X232419810Y-112699810D01*
X232443455Y-112680406D01*
X232470432Y-112665986D01*
X232499710Y-112657105D01*
X232533267Y-112653800D01*
X234066733Y-112653800D01*
X234100290Y-112657105D01*
X234100290Y-112657105D01*
G37*
G36*
X216055290Y-112022105D02*
G01*
X216084568Y-112030986D01*
X216111545Y-112045406D01*
X216135190Y-112064810D01*
X216154594Y-112088455D01*
X216169014Y-112115432D01*
X216177895Y-112144710D01*
X216181200Y-112178267D01*
X216181200Y-112611733D01*
X216177895Y-112645290D01*
X216169014Y-112674568D01*
X216154594Y-112701545D01*
X216135190Y-112725190D01*
X216111545Y-112744594D01*
X216084568Y-112759014D01*
X216055290Y-112767895D01*
X216021733Y-112771200D01*
X212188267Y-112771200D01*
X212154710Y-112767895D01*
X212125432Y-112759014D01*
X212098455Y-112744594D01*
X212074810Y-112725190D01*
X212055406Y-112701545D01*
X212040986Y-112674568D01*
X212032105Y-112645290D01*
X212028800Y-112611733D01*
X212028800Y-112178267D01*
X212032105Y-112144710D01*
X212040986Y-112115432D01*
X212055406Y-112088455D01*
X212074810Y-112064810D01*
X212098455Y-112045406D01*
X212125432Y-112030986D01*
X212154710Y-112022105D01*
X212188267Y-112018800D01*
X216021733Y-112018800D01*
X216055290Y-112022105D01*
X216055290Y-112022105D01*
G37*
G36*
X223455290Y-112022105D02*
G01*
X223484568Y-112030986D01*
X223511545Y-112045406D01*
X223535190Y-112064810D01*
X223554594Y-112088455D01*
X223569014Y-112115432D01*
X223577895Y-112144710D01*
X223581200Y-112178267D01*
X223581200Y-112611733D01*
X223577895Y-112645290D01*
X223569014Y-112674568D01*
X223554594Y-112701545D01*
X223535190Y-112725190D01*
X223511545Y-112744594D01*
X223484568Y-112759014D01*
X223455290Y-112767895D01*
X223421733Y-112771200D01*
X219588267Y-112771200D01*
X219554710Y-112767895D01*
X219525432Y-112759014D01*
X219498455Y-112744594D01*
X219474810Y-112725190D01*
X219455406Y-112701545D01*
X219440986Y-112674568D01*
X219432105Y-112645290D01*
X219428800Y-112611733D01*
X219428800Y-112178267D01*
X219432105Y-112144710D01*
X219440986Y-112115432D01*
X219455406Y-112088455D01*
X219474810Y-112064810D01*
X219498455Y-112045406D01*
X219525432Y-112030986D01*
X219554710Y-112022105D01*
X219588267Y-112018800D01*
X223421733Y-112018800D01*
X223455290Y-112022105D01*
X223455290Y-112022105D01*
G37*
G36*
X227889737Y-111164267D02*
G01*
X227940119Y-111179550D01*
X227986546Y-111204366D01*
X228027239Y-111237761D01*
X228060634Y-111278454D01*
X228085450Y-111324881D01*
X228100733Y-111375263D01*
X228106200Y-111430767D01*
X228106200Y-112089233D01*
X228100733Y-112144737D01*
X228085450Y-112195119D01*
X228060634Y-112241546D01*
X228027239Y-112282239D01*
X227986546Y-112315634D01*
X227940119Y-112340450D01*
X227889737Y-112355733D01*
X227834233Y-112361200D01*
X226825767Y-112361200D01*
X226770263Y-112355733D01*
X226719881Y-112340450D01*
X226673454Y-112315634D01*
X226632761Y-112282239D01*
X226599366Y-112241546D01*
X226574550Y-112195119D01*
X226559267Y-112144737D01*
X226553800Y-112089233D01*
X226553800Y-111430767D01*
X226559267Y-111375263D01*
X226574550Y-111324881D01*
X226599366Y-111278454D01*
X226632761Y-111237761D01*
X226673454Y-111204366D01*
X226719881Y-111179550D01*
X226770263Y-111164267D01*
X226825767Y-111158800D01*
X227834233Y-111158800D01*
X227889737Y-111164267D01*
X227889737Y-111164267D01*
G37*
G36*
X262800290Y-111387105D02*
G01*
X262829568Y-111395986D01*
X262856545Y-111410406D01*
X262880190Y-111429810D01*
X262899594Y-111453455D01*
X262914014Y-111480432D01*
X262922895Y-111509710D01*
X262926200Y-111543267D01*
X262926200Y-111976733D01*
X262922895Y-112010290D01*
X262914014Y-112039568D01*
X262899594Y-112066545D01*
X262880190Y-112090190D01*
X262856545Y-112109594D01*
X262829568Y-112124014D01*
X262800290Y-112132895D01*
X262766733Y-112136200D01*
X261233267Y-112136200D01*
X261199710Y-112132895D01*
X261170432Y-112124014D01*
X261143455Y-112109594D01*
X261119810Y-112090190D01*
X261100406Y-112066545D01*
X261085986Y-112039568D01*
X261077105Y-112010290D01*
X261073800Y-111976733D01*
X261073800Y-111543267D01*
X261077105Y-111509710D01*
X261085986Y-111480432D01*
X261100406Y-111453455D01*
X261119810Y-111429810D01*
X261143455Y-111410406D01*
X261170432Y-111395986D01*
X261199710Y-111387105D01*
X261233267Y-111383800D01*
X262766733Y-111383800D01*
X262800290Y-111387105D01*
X262800290Y-111387105D01*
G37*
G36*
X234100290Y-111387105D02*
G01*
X234129568Y-111395986D01*
X234156545Y-111410406D01*
X234180190Y-111429810D01*
X234199594Y-111453455D01*
X234214014Y-111480432D01*
X234222895Y-111509710D01*
X234226200Y-111543267D01*
X234226200Y-111976733D01*
X234222895Y-112010290D01*
X234214014Y-112039568D01*
X234199594Y-112066545D01*
X234180190Y-112090190D01*
X234156545Y-112109594D01*
X234129568Y-112124014D01*
X234100290Y-112132895D01*
X234066733Y-112136200D01*
X232533267Y-112136200D01*
X232499710Y-112132895D01*
X232470432Y-112124014D01*
X232443455Y-112109594D01*
X232419810Y-112090190D01*
X232400406Y-112066545D01*
X232385986Y-112039568D01*
X232377105Y-112010290D01*
X232373800Y-111976733D01*
X232373800Y-111543267D01*
X232377105Y-111509710D01*
X232385986Y-111480432D01*
X232400406Y-111453455D01*
X232419810Y-111429810D01*
X232443455Y-111410406D01*
X232470432Y-111395986D01*
X232499710Y-111387105D01*
X232533267Y-111383800D01*
X234066733Y-111383800D01*
X234100290Y-111387105D01*
X234100290Y-111387105D01*
G37*
G36*
X216055290Y-110752105D02*
G01*
X216084568Y-110760986D01*
X216111545Y-110775406D01*
X216135190Y-110794810D01*
X216154594Y-110818455D01*
X216169014Y-110845432D01*
X216177895Y-110874710D01*
X216181200Y-110908267D01*
X216181200Y-111341733D01*
X216177895Y-111375290D01*
X216169014Y-111404568D01*
X216154594Y-111431545D01*
X216135190Y-111455190D01*
X216111545Y-111474594D01*
X216084568Y-111489014D01*
X216055290Y-111497895D01*
X216021733Y-111501200D01*
X212188267Y-111501200D01*
X212154710Y-111497895D01*
X212125432Y-111489014D01*
X212098455Y-111474594D01*
X212074810Y-111455190D01*
X212055406Y-111431545D01*
X212040986Y-111404568D01*
X212032105Y-111375290D01*
X212028800Y-111341733D01*
X212028800Y-110908267D01*
X212032105Y-110874710D01*
X212040986Y-110845432D01*
X212055406Y-110818455D01*
X212074810Y-110794810D01*
X212098455Y-110775406D01*
X212125432Y-110760986D01*
X212154710Y-110752105D01*
X212188267Y-110748800D01*
X216021733Y-110748800D01*
X216055290Y-110752105D01*
X216055290Y-110752105D01*
G37*
G36*
X223455290Y-110752105D02*
G01*
X223484568Y-110760986D01*
X223511545Y-110775406D01*
X223535190Y-110794810D01*
X223554594Y-110818455D01*
X223569014Y-110845432D01*
X223577895Y-110874710D01*
X223581200Y-110908267D01*
X223581200Y-111341733D01*
X223577895Y-111375290D01*
X223569014Y-111404568D01*
X223554594Y-111431545D01*
X223535190Y-111455190D01*
X223511545Y-111474594D01*
X223484568Y-111489014D01*
X223455290Y-111497895D01*
X223421733Y-111501200D01*
X219588267Y-111501200D01*
X219554710Y-111497895D01*
X219525432Y-111489014D01*
X219498455Y-111474594D01*
X219474810Y-111455190D01*
X219455406Y-111431545D01*
X219440986Y-111404568D01*
X219432105Y-111375290D01*
X219428800Y-111341733D01*
X219428800Y-110908267D01*
X219432105Y-110874710D01*
X219440986Y-110845432D01*
X219455406Y-110818455D01*
X219474810Y-110794810D01*
X219498455Y-110775406D01*
X219525432Y-110760986D01*
X219554710Y-110752105D01*
X219588267Y-110748800D01*
X223421733Y-110748800D01*
X223455290Y-110752105D01*
X223455290Y-110752105D01*
G37*
G36*
X234100290Y-110117105D02*
G01*
X234129568Y-110125986D01*
X234156545Y-110140406D01*
X234180190Y-110159810D01*
X234199594Y-110183455D01*
X234214014Y-110210432D01*
X234222895Y-110239710D01*
X234226200Y-110273267D01*
X234226200Y-110706733D01*
X234222895Y-110740290D01*
X234214014Y-110769568D01*
X234199594Y-110796545D01*
X234180190Y-110820190D01*
X234156545Y-110839594D01*
X234129568Y-110854014D01*
X234100290Y-110862895D01*
X234066733Y-110866200D01*
X232533267Y-110866200D01*
X232499710Y-110862895D01*
X232470432Y-110854014D01*
X232443455Y-110839594D01*
X232419810Y-110820190D01*
X232400406Y-110796545D01*
X232385986Y-110769568D01*
X232377105Y-110740290D01*
X232373800Y-110706733D01*
X232373800Y-110273267D01*
X232377105Y-110239710D01*
X232385986Y-110210432D01*
X232400406Y-110183455D01*
X232419810Y-110159810D01*
X232443455Y-110140406D01*
X232470432Y-110125986D01*
X232499710Y-110117105D01*
X232533267Y-110113800D01*
X234066733Y-110113800D01*
X234100290Y-110117105D01*
X234100290Y-110117105D01*
G37*
G36*
X262800290Y-110117105D02*
G01*
X262829568Y-110125986D01*
X262856545Y-110140406D01*
X262880190Y-110159810D01*
X262899594Y-110183455D01*
X262914014Y-110210432D01*
X262922895Y-110239710D01*
X262926200Y-110273267D01*
X262926200Y-110706733D01*
X262922895Y-110740290D01*
X262914014Y-110769568D01*
X262899594Y-110796545D01*
X262880190Y-110820190D01*
X262856545Y-110839594D01*
X262829568Y-110854014D01*
X262800290Y-110862895D01*
X262766733Y-110866200D01*
X261233267Y-110866200D01*
X261199710Y-110862895D01*
X261170432Y-110854014D01*
X261143455Y-110839594D01*
X261119810Y-110820190D01*
X261100406Y-110796545D01*
X261085986Y-110769568D01*
X261077105Y-110740290D01*
X261073800Y-110706733D01*
X261073800Y-110273267D01*
X261077105Y-110239710D01*
X261085986Y-110210432D01*
X261100406Y-110183455D01*
X261119810Y-110159810D01*
X261143455Y-110140406D01*
X261170432Y-110125986D01*
X261199710Y-110117105D01*
X261233267Y-110113800D01*
X262766733Y-110113800D01*
X262800290Y-110117105D01*
X262800290Y-110117105D01*
G37*
G36*
X227889737Y-109464267D02*
G01*
X227940119Y-109479550D01*
X227986546Y-109504366D01*
X228027239Y-109537761D01*
X228060634Y-109578454D01*
X228085450Y-109624881D01*
X228100733Y-109675263D01*
X228106200Y-109730767D01*
X228106200Y-110389233D01*
X228100733Y-110444737D01*
X228085450Y-110495119D01*
X228060634Y-110541546D01*
X228027239Y-110582239D01*
X227986546Y-110615634D01*
X227940119Y-110640450D01*
X227889737Y-110655733D01*
X227834233Y-110661200D01*
X226825767Y-110661200D01*
X226770263Y-110655733D01*
X226719881Y-110640450D01*
X226673454Y-110615634D01*
X226632761Y-110582239D01*
X226599366Y-110541546D01*
X226574550Y-110495119D01*
X226559267Y-110444737D01*
X226553800Y-110389233D01*
X226553800Y-109730767D01*
X226559267Y-109675263D01*
X226574550Y-109624881D01*
X226599366Y-109578454D01*
X226632761Y-109537761D01*
X226673454Y-109504366D01*
X226719881Y-109479550D01*
X226770263Y-109464267D01*
X226825767Y-109458800D01*
X227834233Y-109458800D01*
X227889737Y-109464267D01*
X227889737Y-109464267D01*
G37*
G36*
X223455290Y-109482105D02*
G01*
X223484568Y-109490986D01*
X223511545Y-109505406D01*
X223535190Y-109524810D01*
X223554594Y-109548455D01*
X223569014Y-109575432D01*
X223577895Y-109604710D01*
X223581200Y-109638267D01*
X223581200Y-110071733D01*
X223577895Y-110105290D01*
X223569014Y-110134568D01*
X223554594Y-110161545D01*
X223535190Y-110185190D01*
X223511545Y-110204594D01*
X223484568Y-110219014D01*
X223455290Y-110227895D01*
X223421733Y-110231200D01*
X219588267Y-110231200D01*
X219554710Y-110227895D01*
X219525432Y-110219014D01*
X219498455Y-110204594D01*
X219474810Y-110185190D01*
X219455406Y-110161545D01*
X219440986Y-110134568D01*
X219432105Y-110105290D01*
X219428800Y-110071733D01*
X219428800Y-109638267D01*
X219432105Y-109604710D01*
X219440986Y-109575432D01*
X219455406Y-109548455D01*
X219474810Y-109524810D01*
X219498455Y-109505406D01*
X219525432Y-109490986D01*
X219554710Y-109482105D01*
X219588267Y-109478800D01*
X223421733Y-109478800D01*
X223455290Y-109482105D01*
X223455290Y-109482105D01*
G37*
G36*
X216055290Y-109482105D02*
G01*
X216084568Y-109490986D01*
X216111545Y-109505406D01*
X216135190Y-109524810D01*
X216154594Y-109548455D01*
X216169014Y-109575432D01*
X216177895Y-109604710D01*
X216181200Y-109638267D01*
X216181200Y-110071733D01*
X216177895Y-110105290D01*
X216169014Y-110134568D01*
X216154594Y-110161545D01*
X216135190Y-110185190D01*
X216111545Y-110204594D01*
X216084568Y-110219014D01*
X216055290Y-110227895D01*
X216021733Y-110231200D01*
X212188267Y-110231200D01*
X212154710Y-110227895D01*
X212125432Y-110219014D01*
X212098455Y-110204594D01*
X212074810Y-110185190D01*
X212055406Y-110161545D01*
X212040986Y-110134568D01*
X212032105Y-110105290D01*
X212028800Y-110071733D01*
X212028800Y-109638267D01*
X212032105Y-109604710D01*
X212040986Y-109575432D01*
X212055406Y-109548455D01*
X212074810Y-109524810D01*
X212098455Y-109505406D01*
X212125432Y-109490986D01*
X212154710Y-109482105D01*
X212188267Y-109478800D01*
X216021733Y-109478800D01*
X216055290Y-109482105D01*
X216055290Y-109482105D01*
G37*
G36*
X268529737Y-108624267D02*
G01*
X268580119Y-108639550D01*
X268626546Y-108664366D01*
X268667239Y-108697761D01*
X268700634Y-108738454D01*
X268725450Y-108784881D01*
X268740733Y-108835263D01*
X268746200Y-108890767D01*
X268746200Y-109549233D01*
X268740733Y-109604737D01*
X268725450Y-109655119D01*
X268700634Y-109701546D01*
X268667239Y-109742239D01*
X268626546Y-109775634D01*
X268580119Y-109800450D01*
X268529737Y-109815733D01*
X268474233Y-109821200D01*
X267465767Y-109821200D01*
X267410263Y-109815733D01*
X267359881Y-109800450D01*
X267313454Y-109775634D01*
X267272761Y-109742239D01*
X267239366Y-109701546D01*
X267214550Y-109655119D01*
X267199267Y-109604737D01*
X267193800Y-109549233D01*
X267193800Y-108890767D01*
X267199267Y-108835263D01*
X267214550Y-108784881D01*
X267239366Y-108738454D01*
X267272761Y-108697761D01*
X267313454Y-108664366D01*
X267359881Y-108639550D01*
X267410263Y-108624267D01*
X267465767Y-108618800D01*
X268474233Y-108618800D01*
X268529737Y-108624267D01*
X268529737Y-108624267D01*
G37*
G36*
X262800290Y-108847105D02*
G01*
X262829568Y-108855986D01*
X262856545Y-108870406D01*
X262880190Y-108889810D01*
X262899594Y-108913455D01*
X262914014Y-108940432D01*
X262922895Y-108969710D01*
X262926200Y-109003267D01*
X262926200Y-109436733D01*
X262922895Y-109470290D01*
X262914014Y-109499568D01*
X262899594Y-109526545D01*
X262880190Y-109550190D01*
X262856545Y-109569594D01*
X262829568Y-109584014D01*
X262800290Y-109592895D01*
X262766733Y-109596200D01*
X261233267Y-109596200D01*
X261199710Y-109592895D01*
X261170432Y-109584014D01*
X261143455Y-109569594D01*
X261119810Y-109550190D01*
X261100406Y-109526545D01*
X261085986Y-109499568D01*
X261077105Y-109470290D01*
X261073800Y-109436733D01*
X261073800Y-109003267D01*
X261077105Y-108969710D01*
X261085986Y-108940432D01*
X261100406Y-108913455D01*
X261119810Y-108889810D01*
X261143455Y-108870406D01*
X261170432Y-108855986D01*
X261199710Y-108847105D01*
X261233267Y-108843800D01*
X262766733Y-108843800D01*
X262800290Y-108847105D01*
X262800290Y-108847105D01*
G37*
G36*
X234100290Y-108847105D02*
G01*
X234129568Y-108855986D01*
X234156545Y-108870406D01*
X234180190Y-108889810D01*
X234199594Y-108913455D01*
X234214014Y-108940432D01*
X234222895Y-108969710D01*
X234226200Y-109003267D01*
X234226200Y-109436733D01*
X234222895Y-109470290D01*
X234214014Y-109499568D01*
X234199594Y-109526545D01*
X234180190Y-109550190D01*
X234156545Y-109569594D01*
X234129568Y-109584014D01*
X234100290Y-109592895D01*
X234066733Y-109596200D01*
X232533267Y-109596200D01*
X232499710Y-109592895D01*
X232470432Y-109584014D01*
X232443455Y-109569594D01*
X232419810Y-109550190D01*
X232400406Y-109526545D01*
X232385986Y-109499568D01*
X232377105Y-109470290D01*
X232373800Y-109436733D01*
X232373800Y-109003267D01*
X232377105Y-108969710D01*
X232385986Y-108940432D01*
X232400406Y-108913455D01*
X232419810Y-108889810D01*
X232443455Y-108870406D01*
X232470432Y-108855986D01*
X232499710Y-108847105D01*
X232533267Y-108843800D01*
X234066733Y-108843800D01*
X234100290Y-108847105D01*
X234100290Y-108847105D01*
G37*
G36*
X223455290Y-108212105D02*
G01*
X223484568Y-108220986D01*
X223511545Y-108235406D01*
X223535190Y-108254810D01*
X223554594Y-108278455D01*
X223569014Y-108305432D01*
X223577895Y-108334710D01*
X223581200Y-108368267D01*
X223581200Y-108801733D01*
X223577895Y-108835290D01*
X223569014Y-108864568D01*
X223554594Y-108891545D01*
X223535190Y-108915190D01*
X223511545Y-108934594D01*
X223484568Y-108949014D01*
X223455290Y-108957895D01*
X223421733Y-108961200D01*
X219588267Y-108961200D01*
X219554710Y-108957895D01*
X219525432Y-108949014D01*
X219498455Y-108934594D01*
X219474810Y-108915190D01*
X219455406Y-108891545D01*
X219440986Y-108864568D01*
X219432105Y-108835290D01*
X219428800Y-108801733D01*
X219428800Y-108368267D01*
X219432105Y-108334710D01*
X219440986Y-108305432D01*
X219455406Y-108278455D01*
X219474810Y-108254810D01*
X219498455Y-108235406D01*
X219525432Y-108220986D01*
X219554710Y-108212105D01*
X219588267Y-108208800D01*
X223421733Y-108208800D01*
X223455290Y-108212105D01*
X223455290Y-108212105D01*
G37*
G36*
X216055290Y-108212105D02*
G01*
X216084568Y-108220986D01*
X216111545Y-108235406D01*
X216135190Y-108254810D01*
X216154594Y-108278455D01*
X216169014Y-108305432D01*
X216177895Y-108334710D01*
X216181200Y-108368267D01*
X216181200Y-108801733D01*
X216177895Y-108835290D01*
X216169014Y-108864568D01*
X216154594Y-108891545D01*
X216135190Y-108915190D01*
X216111545Y-108934594D01*
X216084568Y-108949014D01*
X216055290Y-108957895D01*
X216021733Y-108961200D01*
X212188267Y-108961200D01*
X212154710Y-108957895D01*
X212125432Y-108949014D01*
X212098455Y-108934594D01*
X212074810Y-108915190D01*
X212055406Y-108891545D01*
X212040986Y-108864568D01*
X212032105Y-108835290D01*
X212028800Y-108801733D01*
X212028800Y-108368267D01*
X212032105Y-108334710D01*
X212040986Y-108305432D01*
X212055406Y-108278455D01*
X212074810Y-108254810D01*
X212098455Y-108235406D01*
X212125432Y-108220986D01*
X212154710Y-108212105D01*
X212188267Y-108208800D01*
X216021733Y-108208800D01*
X216055290Y-108212105D01*
X216055290Y-108212105D01*
G37*
G36*
X262800290Y-107577105D02*
G01*
X262829568Y-107585986D01*
X262856545Y-107600406D01*
X262880190Y-107619810D01*
X262899594Y-107643455D01*
X262914014Y-107670432D01*
X262922895Y-107699710D01*
X262926200Y-107733267D01*
X262926200Y-108166733D01*
X262922895Y-108200290D01*
X262914014Y-108229568D01*
X262899594Y-108256545D01*
X262880190Y-108280190D01*
X262856545Y-108299594D01*
X262829568Y-108314014D01*
X262800290Y-108322895D01*
X262766733Y-108326200D01*
X261233267Y-108326200D01*
X261199710Y-108322895D01*
X261170432Y-108314014D01*
X261143455Y-108299594D01*
X261119810Y-108280190D01*
X261100406Y-108256545D01*
X261085986Y-108229568D01*
X261077105Y-108200290D01*
X261073800Y-108166733D01*
X261073800Y-107733267D01*
X261077105Y-107699710D01*
X261085986Y-107670432D01*
X261100406Y-107643455D01*
X261119810Y-107619810D01*
X261143455Y-107600406D01*
X261170432Y-107585986D01*
X261199710Y-107577105D01*
X261233267Y-107573800D01*
X262766733Y-107573800D01*
X262800290Y-107577105D01*
X262800290Y-107577105D01*
G37*
G36*
X234100290Y-107577105D02*
G01*
X234129568Y-107585986D01*
X234156545Y-107600406D01*
X234180190Y-107619810D01*
X234199594Y-107643455D01*
X234214014Y-107670432D01*
X234222895Y-107699710D01*
X234226200Y-107733267D01*
X234226200Y-108166733D01*
X234222895Y-108200290D01*
X234214014Y-108229568D01*
X234199594Y-108256545D01*
X234180190Y-108280190D01*
X234156545Y-108299594D01*
X234129568Y-108314014D01*
X234100290Y-108322895D01*
X234066733Y-108326200D01*
X232533267Y-108326200D01*
X232499710Y-108322895D01*
X232470432Y-108314014D01*
X232443455Y-108299594D01*
X232419810Y-108280190D01*
X232400406Y-108256545D01*
X232385986Y-108229568D01*
X232377105Y-108200290D01*
X232373800Y-108166733D01*
X232373800Y-107733267D01*
X232377105Y-107699710D01*
X232385986Y-107670432D01*
X232400406Y-107643455D01*
X232419810Y-107619810D01*
X232443455Y-107600406D01*
X232470432Y-107585986D01*
X232499710Y-107577105D01*
X232533267Y-107573800D01*
X234066733Y-107573800D01*
X234100290Y-107577105D01*
X234100290Y-107577105D01*
G37*
G36*
X268529737Y-106924267D02*
G01*
X268580119Y-106939550D01*
X268626546Y-106964366D01*
X268667239Y-106997761D01*
X268700634Y-107038454D01*
X268725450Y-107084881D01*
X268740733Y-107135263D01*
X268746200Y-107190767D01*
X268746200Y-107849233D01*
X268740733Y-107904737D01*
X268725450Y-107955119D01*
X268700634Y-108001546D01*
X268667239Y-108042239D01*
X268626546Y-108075634D01*
X268580119Y-108100450D01*
X268529737Y-108115733D01*
X268474233Y-108121200D01*
X267465767Y-108121200D01*
X267410263Y-108115733D01*
X267359881Y-108100450D01*
X267313454Y-108075634D01*
X267272761Y-108042239D01*
X267239366Y-108001546D01*
X267214550Y-107955119D01*
X267199267Y-107904737D01*
X267193800Y-107849233D01*
X267193800Y-107190767D01*
X267199267Y-107135263D01*
X267214550Y-107084881D01*
X267239366Y-107038454D01*
X267272761Y-106997761D01*
X267313454Y-106964366D01*
X267359881Y-106939550D01*
X267410263Y-106924267D01*
X267465767Y-106918800D01*
X268474233Y-106918800D01*
X268529737Y-106924267D01*
X268529737Y-106924267D01*
G37*
G36*
X216055290Y-106942105D02*
G01*
X216084568Y-106950986D01*
X216111545Y-106965406D01*
X216135190Y-106984810D01*
X216154594Y-107008455D01*
X216169014Y-107035432D01*
X216177895Y-107064710D01*
X216181200Y-107098267D01*
X216181200Y-107531733D01*
X216177895Y-107565290D01*
X216169014Y-107594568D01*
X216154594Y-107621545D01*
X216135190Y-107645190D01*
X216111545Y-107664594D01*
X216084568Y-107679014D01*
X216055290Y-107687895D01*
X216021733Y-107691200D01*
X212188267Y-107691200D01*
X212154710Y-107687895D01*
X212125432Y-107679014D01*
X212098455Y-107664594D01*
X212074810Y-107645190D01*
X212055406Y-107621545D01*
X212040986Y-107594568D01*
X212032105Y-107565290D01*
X212028800Y-107531733D01*
X212028800Y-107098267D01*
X212032105Y-107064710D01*
X212040986Y-107035432D01*
X212055406Y-107008455D01*
X212074810Y-106984810D01*
X212098455Y-106965406D01*
X212125432Y-106950986D01*
X212154710Y-106942105D01*
X212188267Y-106938800D01*
X216021733Y-106938800D01*
X216055290Y-106942105D01*
X216055290Y-106942105D01*
G37*
G36*
X223455290Y-106942105D02*
G01*
X223484568Y-106950986D01*
X223511545Y-106965406D01*
X223535190Y-106984810D01*
X223554594Y-107008455D01*
X223569014Y-107035432D01*
X223577895Y-107064710D01*
X223581200Y-107098267D01*
X223581200Y-107531733D01*
X223577895Y-107565290D01*
X223569014Y-107594568D01*
X223554594Y-107621545D01*
X223535190Y-107645190D01*
X223511545Y-107664594D01*
X223484568Y-107679014D01*
X223455290Y-107687895D01*
X223421733Y-107691200D01*
X219588267Y-107691200D01*
X219554710Y-107687895D01*
X219525432Y-107679014D01*
X219498455Y-107664594D01*
X219474810Y-107645190D01*
X219455406Y-107621545D01*
X219440986Y-107594568D01*
X219432105Y-107565290D01*
X219428800Y-107531733D01*
X219428800Y-107098267D01*
X219432105Y-107064710D01*
X219440986Y-107035432D01*
X219455406Y-107008455D01*
X219474810Y-106984810D01*
X219498455Y-106965406D01*
X219525432Y-106950986D01*
X219554710Y-106942105D01*
X219588267Y-106938800D01*
X223421733Y-106938800D01*
X223455290Y-106942105D01*
X223455290Y-106942105D01*
G37*
G36*
X262800290Y-106307105D02*
G01*
X262829568Y-106315986D01*
X262856545Y-106330406D01*
X262880190Y-106349810D01*
X262899594Y-106373455D01*
X262914014Y-106400432D01*
X262922895Y-106429710D01*
X262926200Y-106463267D01*
X262926200Y-106896733D01*
X262922895Y-106930290D01*
X262914014Y-106959568D01*
X262899594Y-106986545D01*
X262880190Y-107010190D01*
X262856545Y-107029594D01*
X262829568Y-107044014D01*
X262800290Y-107052895D01*
X262766733Y-107056200D01*
X261233267Y-107056200D01*
X261199710Y-107052895D01*
X261170432Y-107044014D01*
X261143455Y-107029594D01*
X261119810Y-107010190D01*
X261100406Y-106986545D01*
X261085986Y-106959568D01*
X261077105Y-106930290D01*
X261073800Y-106896733D01*
X261073800Y-106463267D01*
X261077105Y-106429710D01*
X261085986Y-106400432D01*
X261100406Y-106373455D01*
X261119810Y-106349810D01*
X261143455Y-106330406D01*
X261170432Y-106315986D01*
X261199710Y-106307105D01*
X261233267Y-106303800D01*
X262766733Y-106303800D01*
X262800290Y-106307105D01*
X262800290Y-106307105D01*
G37*
G36*
X234100290Y-106307105D02*
G01*
X234129568Y-106315986D01*
X234156545Y-106330406D01*
X234180190Y-106349810D01*
X234199594Y-106373455D01*
X234214014Y-106400432D01*
X234222895Y-106429710D01*
X234226200Y-106463267D01*
X234226200Y-106896733D01*
X234222895Y-106930290D01*
X234214014Y-106959568D01*
X234199594Y-106986545D01*
X234180190Y-107010190D01*
X234156545Y-107029594D01*
X234129568Y-107044014D01*
X234100290Y-107052895D01*
X234066733Y-107056200D01*
X232533267Y-107056200D01*
X232499710Y-107052895D01*
X232470432Y-107044014D01*
X232443455Y-107029594D01*
X232419810Y-107010190D01*
X232400406Y-106986545D01*
X232385986Y-106959568D01*
X232377105Y-106930290D01*
X232373800Y-106896733D01*
X232373800Y-106463267D01*
X232377105Y-106429710D01*
X232385986Y-106400432D01*
X232400406Y-106373455D01*
X232419810Y-106349810D01*
X232443455Y-106330406D01*
X232470432Y-106315986D01*
X232499710Y-106307105D01*
X232533267Y-106303800D01*
X234066733Y-106303800D01*
X234100290Y-106307105D01*
X234100290Y-106307105D01*
G37*
G36*
X216055290Y-105672105D02*
G01*
X216084568Y-105680986D01*
X216111545Y-105695406D01*
X216135190Y-105714810D01*
X216154594Y-105738455D01*
X216169014Y-105765432D01*
X216177895Y-105794710D01*
X216181200Y-105828267D01*
X216181200Y-106261733D01*
X216177895Y-106295290D01*
X216169014Y-106324568D01*
X216154594Y-106351545D01*
X216135190Y-106375190D01*
X216111545Y-106394594D01*
X216084568Y-106409014D01*
X216055290Y-106417895D01*
X216021733Y-106421200D01*
X212188267Y-106421200D01*
X212154710Y-106417895D01*
X212125432Y-106409014D01*
X212098455Y-106394594D01*
X212074810Y-106375190D01*
X212055406Y-106351545D01*
X212040986Y-106324568D01*
X212032105Y-106295290D01*
X212028800Y-106261733D01*
X212028800Y-105828267D01*
X212032105Y-105794710D01*
X212040986Y-105765432D01*
X212055406Y-105738455D01*
X212074810Y-105714810D01*
X212098455Y-105695406D01*
X212125432Y-105680986D01*
X212154710Y-105672105D01*
X212188267Y-105668800D01*
X216021733Y-105668800D01*
X216055290Y-105672105D01*
X216055290Y-105672105D01*
G37*
G36*
X223455290Y-105672105D02*
G01*
X223484568Y-105680986D01*
X223511545Y-105695406D01*
X223535190Y-105714810D01*
X223554594Y-105738455D01*
X223569014Y-105765432D01*
X223577895Y-105794710D01*
X223581200Y-105828267D01*
X223581200Y-106261733D01*
X223577895Y-106295290D01*
X223569014Y-106324568D01*
X223554594Y-106351545D01*
X223535190Y-106375190D01*
X223511545Y-106394594D01*
X223484568Y-106409014D01*
X223455290Y-106417895D01*
X223421733Y-106421200D01*
X219588267Y-106421200D01*
X219554710Y-106417895D01*
X219525432Y-106409014D01*
X219498455Y-106394594D01*
X219474810Y-106375190D01*
X219455406Y-106351545D01*
X219440986Y-106324568D01*
X219432105Y-106295290D01*
X219428800Y-106261733D01*
X219428800Y-105828267D01*
X219432105Y-105794710D01*
X219440986Y-105765432D01*
X219455406Y-105738455D01*
X219474810Y-105714810D01*
X219498455Y-105695406D01*
X219525432Y-105680986D01*
X219554710Y-105672105D01*
X219588267Y-105668800D01*
X223421733Y-105668800D01*
X223455290Y-105672105D01*
X223455290Y-105672105D01*
G37*
G36*
X262800290Y-105037105D02*
G01*
X262829568Y-105045986D01*
X262856545Y-105060406D01*
X262880190Y-105079810D01*
X262899594Y-105103455D01*
X262914014Y-105130432D01*
X262922895Y-105159710D01*
X262926200Y-105193267D01*
X262926200Y-105626733D01*
X262922895Y-105660290D01*
X262914014Y-105689568D01*
X262899594Y-105716545D01*
X262880190Y-105740190D01*
X262856545Y-105759594D01*
X262829568Y-105774014D01*
X262800290Y-105782895D01*
X262766733Y-105786200D01*
X261233267Y-105786200D01*
X261199710Y-105782895D01*
X261170432Y-105774014D01*
X261143455Y-105759594D01*
X261119810Y-105740190D01*
X261100406Y-105716545D01*
X261085986Y-105689568D01*
X261077105Y-105660290D01*
X261073800Y-105626733D01*
X261073800Y-105193267D01*
X261077105Y-105159710D01*
X261085986Y-105130432D01*
X261100406Y-105103455D01*
X261119810Y-105079810D01*
X261143455Y-105060406D01*
X261170432Y-105045986D01*
X261199710Y-105037105D01*
X261233267Y-105033800D01*
X262766733Y-105033800D01*
X262800290Y-105037105D01*
X262800290Y-105037105D01*
G37*
G36*
X234100290Y-105037105D02*
G01*
X234129568Y-105045986D01*
X234156545Y-105060406D01*
X234180190Y-105079810D01*
X234199594Y-105103455D01*
X234214014Y-105130432D01*
X234222895Y-105159710D01*
X234226200Y-105193267D01*
X234226200Y-105626733D01*
X234222895Y-105660290D01*
X234214014Y-105689568D01*
X234199594Y-105716545D01*
X234180190Y-105740190D01*
X234156545Y-105759594D01*
X234129568Y-105774014D01*
X234100290Y-105782895D01*
X234066733Y-105786200D01*
X232533267Y-105786200D01*
X232499710Y-105782895D01*
X232470432Y-105774014D01*
X232443455Y-105759594D01*
X232419810Y-105740190D01*
X232400406Y-105716545D01*
X232385986Y-105689568D01*
X232377105Y-105660290D01*
X232373800Y-105626733D01*
X232373800Y-105193267D01*
X232377105Y-105159710D01*
X232385986Y-105130432D01*
X232400406Y-105103455D01*
X232419810Y-105079810D01*
X232443455Y-105060406D01*
X232470432Y-105045986D01*
X232499710Y-105037105D01*
X232533267Y-105033800D01*
X234066733Y-105033800D01*
X234100290Y-105037105D01*
X234100290Y-105037105D01*
G37*
G36*
X216055290Y-104402105D02*
G01*
X216084568Y-104410986D01*
X216111545Y-104425406D01*
X216135190Y-104444810D01*
X216154594Y-104468455D01*
X216169014Y-104495432D01*
X216177895Y-104524710D01*
X216181200Y-104558267D01*
X216181200Y-104991733D01*
X216177895Y-105025290D01*
X216169014Y-105054568D01*
X216154594Y-105081545D01*
X216135190Y-105105190D01*
X216111545Y-105124594D01*
X216084568Y-105139014D01*
X216055290Y-105147895D01*
X216021733Y-105151200D01*
X212188267Y-105151200D01*
X212154710Y-105147895D01*
X212125432Y-105139014D01*
X212098455Y-105124594D01*
X212074810Y-105105190D01*
X212055406Y-105081545D01*
X212040986Y-105054568D01*
X212032105Y-105025290D01*
X212028800Y-104991733D01*
X212028800Y-104558267D01*
X212032105Y-104524710D01*
X212040986Y-104495432D01*
X212055406Y-104468455D01*
X212074810Y-104444810D01*
X212098455Y-104425406D01*
X212125432Y-104410986D01*
X212154710Y-104402105D01*
X212188267Y-104398800D01*
X216021733Y-104398800D01*
X216055290Y-104402105D01*
X216055290Y-104402105D01*
G37*
G36*
X223455290Y-104402105D02*
G01*
X223484568Y-104410986D01*
X223511545Y-104425406D01*
X223535190Y-104444810D01*
X223554594Y-104468455D01*
X223569014Y-104495432D01*
X223577895Y-104524710D01*
X223581200Y-104558267D01*
X223581200Y-104991733D01*
X223577895Y-105025290D01*
X223569014Y-105054568D01*
X223554594Y-105081545D01*
X223535190Y-105105190D01*
X223511545Y-105124594D01*
X223484568Y-105139014D01*
X223455290Y-105147895D01*
X223421733Y-105151200D01*
X219588267Y-105151200D01*
X219554710Y-105147895D01*
X219525432Y-105139014D01*
X219498455Y-105124594D01*
X219474810Y-105105190D01*
X219455406Y-105081545D01*
X219440986Y-105054568D01*
X219432105Y-105025290D01*
X219428800Y-104991733D01*
X219428800Y-104558267D01*
X219432105Y-104524710D01*
X219440986Y-104495432D01*
X219455406Y-104468455D01*
X219474810Y-104444810D01*
X219498455Y-104425406D01*
X219525432Y-104410986D01*
X219554710Y-104402105D01*
X219588267Y-104398800D01*
X223421733Y-104398800D01*
X223455290Y-104402105D01*
X223455290Y-104402105D01*
G37*
G36*
X234100290Y-103767105D02*
G01*
X234129568Y-103775986D01*
X234156545Y-103790406D01*
X234180190Y-103809810D01*
X234199594Y-103833455D01*
X234214014Y-103860432D01*
X234222895Y-103889710D01*
X234226200Y-103923267D01*
X234226200Y-104356733D01*
X234222895Y-104390290D01*
X234214014Y-104419568D01*
X234199594Y-104446545D01*
X234180190Y-104470190D01*
X234156545Y-104489594D01*
X234129568Y-104504014D01*
X234100290Y-104512895D01*
X234066733Y-104516200D01*
X232533267Y-104516200D01*
X232499710Y-104512895D01*
X232470432Y-104504014D01*
X232443455Y-104489594D01*
X232419810Y-104470190D01*
X232400406Y-104446545D01*
X232385986Y-104419568D01*
X232377105Y-104390290D01*
X232373800Y-104356733D01*
X232373800Y-103923267D01*
X232377105Y-103889710D01*
X232385986Y-103860432D01*
X232400406Y-103833455D01*
X232419810Y-103809810D01*
X232443455Y-103790406D01*
X232470432Y-103775986D01*
X232499710Y-103767105D01*
X232533267Y-103763800D01*
X234066733Y-103763800D01*
X234100290Y-103767105D01*
X234100290Y-103767105D01*
G37*
G36*
X262800290Y-103767105D02*
G01*
X262829568Y-103775986D01*
X262856545Y-103790406D01*
X262880190Y-103809810D01*
X262899594Y-103833455D01*
X262914014Y-103860432D01*
X262922895Y-103889710D01*
X262926200Y-103923267D01*
X262926200Y-104356733D01*
X262922895Y-104390290D01*
X262914014Y-104419568D01*
X262899594Y-104446545D01*
X262880190Y-104470190D01*
X262856545Y-104489594D01*
X262829568Y-104504014D01*
X262800290Y-104512895D01*
X262766733Y-104516200D01*
X261233267Y-104516200D01*
X261199710Y-104512895D01*
X261170432Y-104504014D01*
X261143455Y-104489594D01*
X261119810Y-104470190D01*
X261100406Y-104446545D01*
X261085986Y-104419568D01*
X261077105Y-104390290D01*
X261073800Y-104356733D01*
X261073800Y-103923267D01*
X261077105Y-103889710D01*
X261085986Y-103860432D01*
X261100406Y-103833455D01*
X261119810Y-103809810D01*
X261143455Y-103790406D01*
X261170432Y-103775986D01*
X261199710Y-103767105D01*
X261233267Y-103763800D01*
X262766733Y-103763800D01*
X262800290Y-103767105D01*
X262800290Y-103767105D01*
G37*
G36*
X223455290Y-103132105D02*
G01*
X223484568Y-103140986D01*
X223511545Y-103155406D01*
X223535190Y-103174810D01*
X223554594Y-103198455D01*
X223569014Y-103225432D01*
X223577895Y-103254710D01*
X223581200Y-103288267D01*
X223581200Y-103721733D01*
X223577895Y-103755290D01*
X223569014Y-103784568D01*
X223554594Y-103811545D01*
X223535190Y-103835190D01*
X223511545Y-103854594D01*
X223484568Y-103869014D01*
X223455290Y-103877895D01*
X223421733Y-103881200D01*
X219588267Y-103881200D01*
X219554710Y-103877895D01*
X219525432Y-103869014D01*
X219498455Y-103854594D01*
X219474810Y-103835190D01*
X219455406Y-103811545D01*
X219440986Y-103784568D01*
X219432105Y-103755290D01*
X219428800Y-103721733D01*
X219428800Y-103288267D01*
X219432105Y-103254710D01*
X219440986Y-103225432D01*
X219455406Y-103198455D01*
X219474810Y-103174810D01*
X219498455Y-103155406D01*
X219525432Y-103140986D01*
X219554710Y-103132105D01*
X219588267Y-103128800D01*
X223421733Y-103128800D01*
X223455290Y-103132105D01*
X223455290Y-103132105D01*
G37*
G36*
X216055290Y-103132105D02*
G01*
X216084568Y-103140986D01*
X216111545Y-103155406D01*
X216135190Y-103174810D01*
X216154594Y-103198455D01*
X216169014Y-103225432D01*
X216177895Y-103254710D01*
X216181200Y-103288267D01*
X216181200Y-103721733D01*
X216177895Y-103755290D01*
X216169014Y-103784568D01*
X216154594Y-103811545D01*
X216135190Y-103835190D01*
X216111545Y-103854594D01*
X216084568Y-103869014D01*
X216055290Y-103877895D01*
X216021733Y-103881200D01*
X212188267Y-103881200D01*
X212154710Y-103877895D01*
X212125432Y-103869014D01*
X212098455Y-103854594D01*
X212074810Y-103835190D01*
X212055406Y-103811545D01*
X212040986Y-103784568D01*
X212032105Y-103755290D01*
X212028800Y-103721733D01*
X212028800Y-103288267D01*
X212032105Y-103254710D01*
X212040986Y-103225432D01*
X212055406Y-103198455D01*
X212074810Y-103174810D01*
X212098455Y-103155406D01*
X212125432Y-103140986D01*
X212154710Y-103132105D01*
X212188267Y-103128800D01*
X216021733Y-103128800D01*
X216055290Y-103132105D01*
X216055290Y-103132105D01*
G37*
G36*
X234100290Y-102497105D02*
G01*
X234129568Y-102505986D01*
X234156545Y-102520406D01*
X234180190Y-102539810D01*
X234199594Y-102563455D01*
X234214014Y-102590432D01*
X234222895Y-102619710D01*
X234226200Y-102653267D01*
X234226200Y-103086733D01*
X234222895Y-103120290D01*
X234214014Y-103149568D01*
X234199594Y-103176545D01*
X234180190Y-103200190D01*
X234156545Y-103219594D01*
X234129568Y-103234014D01*
X234100290Y-103242895D01*
X234066733Y-103246200D01*
X232533267Y-103246200D01*
X232499710Y-103242895D01*
X232470432Y-103234014D01*
X232443455Y-103219594D01*
X232419810Y-103200190D01*
X232400406Y-103176545D01*
X232385986Y-103149568D01*
X232377105Y-103120290D01*
X232373800Y-103086733D01*
X232373800Y-102653267D01*
X232377105Y-102619710D01*
X232385986Y-102590432D01*
X232400406Y-102563455D01*
X232419810Y-102539810D01*
X232443455Y-102520406D01*
X232470432Y-102505986D01*
X232499710Y-102497105D01*
X232533267Y-102493800D01*
X234066733Y-102493800D01*
X234100290Y-102497105D01*
X234100290Y-102497105D01*
G37*
G36*
X262800290Y-102497105D02*
G01*
X262829568Y-102505986D01*
X262856545Y-102520406D01*
X262880190Y-102539810D01*
X262899594Y-102563455D01*
X262914014Y-102590432D01*
X262922895Y-102619710D01*
X262926200Y-102653267D01*
X262926200Y-103086733D01*
X262922895Y-103120290D01*
X262914014Y-103149568D01*
X262899594Y-103176545D01*
X262880190Y-103200190D01*
X262856545Y-103219594D01*
X262829568Y-103234014D01*
X262800290Y-103242895D01*
X262766733Y-103246200D01*
X261233267Y-103246200D01*
X261199710Y-103242895D01*
X261170432Y-103234014D01*
X261143455Y-103219594D01*
X261119810Y-103200190D01*
X261100406Y-103176545D01*
X261085986Y-103149568D01*
X261077105Y-103120290D01*
X261073800Y-103086733D01*
X261073800Y-102653267D01*
X261077105Y-102619710D01*
X261085986Y-102590432D01*
X261100406Y-102563455D01*
X261119810Y-102539810D01*
X261143455Y-102520406D01*
X261170432Y-102505986D01*
X261199710Y-102497105D01*
X261233267Y-102493800D01*
X262766733Y-102493800D01*
X262800290Y-102497105D01*
X262800290Y-102497105D01*
G37*
G36*
X216055290Y-101862105D02*
G01*
X216084568Y-101870986D01*
X216111545Y-101885406D01*
X216135190Y-101904810D01*
X216154594Y-101928455D01*
X216169014Y-101955432D01*
X216177895Y-101984710D01*
X216181200Y-102018267D01*
X216181200Y-102451733D01*
X216177895Y-102485290D01*
X216169014Y-102514568D01*
X216154594Y-102541545D01*
X216135190Y-102565190D01*
X216111545Y-102584594D01*
X216084568Y-102599014D01*
X216055290Y-102607895D01*
X216021733Y-102611200D01*
X212188267Y-102611200D01*
X212154710Y-102607895D01*
X212125432Y-102599014D01*
X212098455Y-102584594D01*
X212074810Y-102565190D01*
X212055406Y-102541545D01*
X212040986Y-102514568D01*
X212032105Y-102485290D01*
X212028800Y-102451733D01*
X212028800Y-102018267D01*
X212032105Y-101984710D01*
X212040986Y-101955432D01*
X212055406Y-101928455D01*
X212074810Y-101904810D01*
X212098455Y-101885406D01*
X212125432Y-101870986D01*
X212154710Y-101862105D01*
X212188267Y-101858800D01*
X216021733Y-101858800D01*
X216055290Y-101862105D01*
X216055290Y-101862105D01*
G37*
G36*
X223455290Y-101862105D02*
G01*
X223484568Y-101870986D01*
X223511545Y-101885406D01*
X223535190Y-101904810D01*
X223554594Y-101928455D01*
X223569014Y-101955432D01*
X223577895Y-101984710D01*
X223581200Y-102018267D01*
X223581200Y-102451733D01*
X223577895Y-102485290D01*
X223569014Y-102514568D01*
X223554594Y-102541545D01*
X223535190Y-102565190D01*
X223511545Y-102584594D01*
X223484568Y-102599014D01*
X223455290Y-102607895D01*
X223421733Y-102611200D01*
X219588267Y-102611200D01*
X219554710Y-102607895D01*
X219525432Y-102599014D01*
X219498455Y-102584594D01*
X219474810Y-102565190D01*
X219455406Y-102541545D01*
X219440986Y-102514568D01*
X219432105Y-102485290D01*
X219428800Y-102451733D01*
X219428800Y-102018267D01*
X219432105Y-101984710D01*
X219440986Y-101955432D01*
X219455406Y-101928455D01*
X219474810Y-101904810D01*
X219498455Y-101885406D01*
X219525432Y-101870986D01*
X219554710Y-101862105D01*
X219588267Y-101858800D01*
X223421733Y-101858800D01*
X223455290Y-101862105D01*
X223455290Y-101862105D01*
G37*
G36*
X262800290Y-101227105D02*
G01*
X262829568Y-101235986D01*
X262856545Y-101250406D01*
X262880190Y-101269810D01*
X262899594Y-101293455D01*
X262914014Y-101320432D01*
X262922895Y-101349710D01*
X262926200Y-101383267D01*
X262926200Y-101816733D01*
X262922895Y-101850290D01*
X262914014Y-101879568D01*
X262899594Y-101906545D01*
X262880190Y-101930190D01*
X262856545Y-101949594D01*
X262829568Y-101964014D01*
X262800290Y-101972895D01*
X262766733Y-101976200D01*
X261233267Y-101976200D01*
X261199710Y-101972895D01*
X261170432Y-101964014D01*
X261143455Y-101949594D01*
X261119810Y-101930190D01*
X261100406Y-101906545D01*
X261085986Y-101879568D01*
X261077105Y-101850290D01*
X261073800Y-101816733D01*
X261073800Y-101383267D01*
X261077105Y-101349710D01*
X261085986Y-101320432D01*
X261100406Y-101293455D01*
X261119810Y-101269810D01*
X261143455Y-101250406D01*
X261170432Y-101235986D01*
X261199710Y-101227105D01*
X261233267Y-101223800D01*
X262766733Y-101223800D01*
X262800290Y-101227105D01*
X262800290Y-101227105D01*
G37*
G36*
X234100290Y-101227105D02*
G01*
X234129568Y-101235986D01*
X234156545Y-101250406D01*
X234180190Y-101269810D01*
X234199594Y-101293455D01*
X234214014Y-101320432D01*
X234222895Y-101349710D01*
X234226200Y-101383267D01*
X234226200Y-101816733D01*
X234222895Y-101850290D01*
X234214014Y-101879568D01*
X234199594Y-101906545D01*
X234180190Y-101930190D01*
X234156545Y-101949594D01*
X234129568Y-101964014D01*
X234100290Y-101972895D01*
X234066733Y-101976200D01*
X232533267Y-101976200D01*
X232499710Y-101972895D01*
X232470432Y-101964014D01*
X232443455Y-101949594D01*
X232419810Y-101930190D01*
X232400406Y-101906545D01*
X232385986Y-101879568D01*
X232377105Y-101850290D01*
X232373800Y-101816733D01*
X232373800Y-101383267D01*
X232377105Y-101349710D01*
X232385986Y-101320432D01*
X232400406Y-101293455D01*
X232419810Y-101269810D01*
X232443455Y-101250406D01*
X232470432Y-101235986D01*
X232499710Y-101227105D01*
X232533267Y-101223800D01*
X234066733Y-101223800D01*
X234100290Y-101227105D01*
X234100290Y-101227105D01*
G37*
G36*
X268529737Y-100164267D02*
G01*
X268580119Y-100179550D01*
X268626546Y-100204366D01*
X268667239Y-100237761D01*
X268700634Y-100278454D01*
X268725450Y-100324881D01*
X268740733Y-100375263D01*
X268746200Y-100430767D01*
X268746200Y-101089233D01*
X268740733Y-101144737D01*
X268725450Y-101195119D01*
X268700634Y-101241546D01*
X268667239Y-101282239D01*
X268626546Y-101315634D01*
X268580119Y-101340450D01*
X268529737Y-101355733D01*
X268474233Y-101361200D01*
X267465767Y-101361200D01*
X267410263Y-101355733D01*
X267359881Y-101340450D01*
X267313454Y-101315634D01*
X267272761Y-101282239D01*
X267239366Y-101241546D01*
X267214550Y-101195119D01*
X267199267Y-101144737D01*
X267193800Y-101089233D01*
X267193800Y-100430767D01*
X267199267Y-100375263D01*
X267214550Y-100324881D01*
X267239366Y-100278454D01*
X267272761Y-100237761D01*
X267313454Y-100204366D01*
X267359881Y-100179550D01*
X267410263Y-100164267D01*
X267465767Y-100158800D01*
X268474233Y-100158800D01*
X268529737Y-100164267D01*
X268529737Y-100164267D01*
G37*
G36*
X216055290Y-100592105D02*
G01*
X216084568Y-100600986D01*
X216111545Y-100615406D01*
X216135190Y-100634810D01*
X216154594Y-100658455D01*
X216169014Y-100685432D01*
X216177895Y-100714710D01*
X216181200Y-100748267D01*
X216181200Y-101181733D01*
X216177895Y-101215290D01*
X216169014Y-101244568D01*
X216154594Y-101271545D01*
X216135190Y-101295190D01*
X216111545Y-101314594D01*
X216084568Y-101329014D01*
X216055290Y-101337895D01*
X216021733Y-101341200D01*
X212188267Y-101341200D01*
X212154710Y-101337895D01*
X212125432Y-101329014D01*
X212098455Y-101314594D01*
X212074810Y-101295190D01*
X212055406Y-101271545D01*
X212040986Y-101244568D01*
X212032105Y-101215290D01*
X212028800Y-101181733D01*
X212028800Y-100748267D01*
X212032105Y-100714710D01*
X212040986Y-100685432D01*
X212055406Y-100658455D01*
X212074810Y-100634810D01*
X212098455Y-100615406D01*
X212125432Y-100600986D01*
X212154710Y-100592105D01*
X212188267Y-100588800D01*
X216021733Y-100588800D01*
X216055290Y-100592105D01*
X216055290Y-100592105D01*
G37*
G36*
X223455290Y-100592105D02*
G01*
X223484568Y-100600986D01*
X223511545Y-100615406D01*
X223535190Y-100634810D01*
X223554594Y-100658455D01*
X223569014Y-100685432D01*
X223577895Y-100714710D01*
X223581200Y-100748267D01*
X223581200Y-101181733D01*
X223577895Y-101215290D01*
X223569014Y-101244568D01*
X223554594Y-101271545D01*
X223535190Y-101295190D01*
X223511545Y-101314594D01*
X223484568Y-101329014D01*
X223455290Y-101337895D01*
X223421733Y-101341200D01*
X219588267Y-101341200D01*
X219554710Y-101337895D01*
X219525432Y-101329014D01*
X219498455Y-101314594D01*
X219474810Y-101295190D01*
X219455406Y-101271545D01*
X219440986Y-101244568D01*
X219432105Y-101215290D01*
X219428800Y-101181733D01*
X219428800Y-100748267D01*
X219432105Y-100714710D01*
X219440986Y-100685432D01*
X219455406Y-100658455D01*
X219474810Y-100634810D01*
X219498455Y-100615406D01*
X219525432Y-100600986D01*
X219554710Y-100592105D01*
X219588267Y-100588800D01*
X223421733Y-100588800D01*
X223455290Y-100592105D01*
X223455290Y-100592105D01*
G37*
G36*
X262800290Y-99957105D02*
G01*
X262829568Y-99965986D01*
X262856545Y-99980406D01*
X262880190Y-99999810D01*
X262899594Y-100023455D01*
X262914014Y-100050432D01*
X262922895Y-100079710D01*
X262926200Y-100113267D01*
X262926200Y-100546733D01*
X262922895Y-100580290D01*
X262914014Y-100609568D01*
X262899594Y-100636545D01*
X262880190Y-100660190D01*
X262856545Y-100679594D01*
X262829568Y-100694014D01*
X262800290Y-100702895D01*
X262766733Y-100706200D01*
X261233267Y-100706200D01*
X261199710Y-100702895D01*
X261170432Y-100694014D01*
X261143455Y-100679594D01*
X261119810Y-100660190D01*
X261100406Y-100636545D01*
X261085986Y-100609568D01*
X261077105Y-100580290D01*
X261073800Y-100546733D01*
X261073800Y-100113267D01*
X261077105Y-100079710D01*
X261085986Y-100050432D01*
X261100406Y-100023455D01*
X261119810Y-99999810D01*
X261143455Y-99980406D01*
X261170432Y-99965986D01*
X261199710Y-99957105D01*
X261233267Y-99953800D01*
X262766733Y-99953800D01*
X262800290Y-99957105D01*
X262800290Y-99957105D01*
G37*
G36*
X234100290Y-99957105D02*
G01*
X234129568Y-99965986D01*
X234156545Y-99980406D01*
X234180190Y-99999810D01*
X234199594Y-100023455D01*
X234214014Y-100050432D01*
X234222895Y-100079710D01*
X234226200Y-100113267D01*
X234226200Y-100546733D01*
X234222895Y-100580290D01*
X234214014Y-100609568D01*
X234199594Y-100636545D01*
X234180190Y-100660190D01*
X234156545Y-100679594D01*
X234129568Y-100694014D01*
X234100290Y-100702895D01*
X234066733Y-100706200D01*
X232533267Y-100706200D01*
X232499710Y-100702895D01*
X232470432Y-100694014D01*
X232443455Y-100679594D01*
X232419810Y-100660190D01*
X232400406Y-100636545D01*
X232385986Y-100609568D01*
X232377105Y-100580290D01*
X232373800Y-100546733D01*
X232373800Y-100113267D01*
X232377105Y-100079710D01*
X232385986Y-100050432D01*
X232400406Y-100023455D01*
X232419810Y-99999810D01*
X232443455Y-99980406D01*
X232470432Y-99965986D01*
X232499710Y-99957105D01*
X232533267Y-99953800D01*
X234066733Y-99953800D01*
X234100290Y-99957105D01*
X234100290Y-99957105D01*
G37*
G36*
X223455290Y-99322105D02*
G01*
X223484568Y-99330986D01*
X223511545Y-99345406D01*
X223535190Y-99364810D01*
X223554594Y-99388455D01*
X223569014Y-99415432D01*
X223577895Y-99444710D01*
X223581200Y-99478267D01*
X223581200Y-99911733D01*
X223577895Y-99945290D01*
X223569014Y-99974568D01*
X223554594Y-100001545D01*
X223535190Y-100025190D01*
X223511545Y-100044594D01*
X223484568Y-100059014D01*
X223455290Y-100067895D01*
X223421733Y-100071200D01*
X219588267Y-100071200D01*
X219554710Y-100067895D01*
X219525432Y-100059014D01*
X219498455Y-100044594D01*
X219474810Y-100025190D01*
X219455406Y-100001545D01*
X219440986Y-99974568D01*
X219432105Y-99945290D01*
X219428800Y-99911733D01*
X219428800Y-99478267D01*
X219432105Y-99444710D01*
X219440986Y-99415432D01*
X219455406Y-99388455D01*
X219474810Y-99364810D01*
X219498455Y-99345406D01*
X219525432Y-99330986D01*
X219554710Y-99322105D01*
X219588267Y-99318800D01*
X223421733Y-99318800D01*
X223455290Y-99322105D01*
X223455290Y-99322105D01*
G37*
G36*
X216055290Y-99322105D02*
G01*
X216084568Y-99330986D01*
X216111545Y-99345406D01*
X216135190Y-99364810D01*
X216154594Y-99388455D01*
X216169014Y-99415432D01*
X216177895Y-99444710D01*
X216181200Y-99478267D01*
X216181200Y-99911733D01*
X216177895Y-99945290D01*
X216169014Y-99974568D01*
X216154594Y-100001545D01*
X216135190Y-100025190D01*
X216111545Y-100044594D01*
X216084568Y-100059014D01*
X216055290Y-100067895D01*
X216021733Y-100071200D01*
X212188267Y-100071200D01*
X212154710Y-100067895D01*
X212125432Y-100059014D01*
X212098455Y-100044594D01*
X212074810Y-100025190D01*
X212055406Y-100001545D01*
X212040986Y-99974568D01*
X212032105Y-99945290D01*
X212028800Y-99911733D01*
X212028800Y-99478267D01*
X212032105Y-99444710D01*
X212040986Y-99415432D01*
X212055406Y-99388455D01*
X212074810Y-99364810D01*
X212098455Y-99345406D01*
X212125432Y-99330986D01*
X212154710Y-99322105D01*
X212188267Y-99318800D01*
X216021733Y-99318800D01*
X216055290Y-99322105D01*
X216055290Y-99322105D01*
G37*
G36*
X268529737Y-98464267D02*
G01*
X268580119Y-98479550D01*
X268626546Y-98504366D01*
X268667239Y-98537761D01*
X268700634Y-98578454D01*
X268725450Y-98624881D01*
X268740733Y-98675263D01*
X268746200Y-98730767D01*
X268746200Y-99389233D01*
X268740733Y-99444737D01*
X268725450Y-99495119D01*
X268700634Y-99541546D01*
X268667239Y-99582239D01*
X268626546Y-99615634D01*
X268580119Y-99640450D01*
X268529737Y-99655733D01*
X268474233Y-99661200D01*
X267465767Y-99661200D01*
X267410263Y-99655733D01*
X267359881Y-99640450D01*
X267313454Y-99615634D01*
X267272761Y-99582239D01*
X267239366Y-99541546D01*
X267214550Y-99495119D01*
X267199267Y-99444737D01*
X267193800Y-99389233D01*
X267193800Y-98730767D01*
X267199267Y-98675263D01*
X267214550Y-98624881D01*
X267239366Y-98578454D01*
X267272761Y-98537761D01*
X267313454Y-98504366D01*
X267359881Y-98479550D01*
X267410263Y-98464267D01*
X267465767Y-98458800D01*
X268474233Y-98458800D01*
X268529737Y-98464267D01*
X268529737Y-98464267D01*
G37*
G36*
X262800290Y-98687105D02*
G01*
X262829568Y-98695986D01*
X262856545Y-98710406D01*
X262880190Y-98729810D01*
X262899594Y-98753455D01*
X262914014Y-98780432D01*
X262922895Y-98809710D01*
X262926200Y-98843267D01*
X262926200Y-99276733D01*
X262922895Y-99310290D01*
X262914014Y-99339568D01*
X262899594Y-99366545D01*
X262880190Y-99390190D01*
X262856545Y-99409594D01*
X262829568Y-99424014D01*
X262800290Y-99432895D01*
X262766733Y-99436200D01*
X261233267Y-99436200D01*
X261199710Y-99432895D01*
X261170432Y-99424014D01*
X261143455Y-99409594D01*
X261119810Y-99390190D01*
X261100406Y-99366545D01*
X261085986Y-99339568D01*
X261077105Y-99310290D01*
X261073800Y-99276733D01*
X261073800Y-98843267D01*
X261077105Y-98809710D01*
X261085986Y-98780432D01*
X261100406Y-98753455D01*
X261119810Y-98729810D01*
X261143455Y-98710406D01*
X261170432Y-98695986D01*
X261199710Y-98687105D01*
X261233267Y-98683800D01*
X262766733Y-98683800D01*
X262800290Y-98687105D01*
X262800290Y-98687105D01*
G37*
G36*
X234100290Y-98687105D02*
G01*
X234129568Y-98695986D01*
X234156545Y-98710406D01*
X234180190Y-98729810D01*
X234199594Y-98753455D01*
X234214014Y-98780432D01*
X234222895Y-98809710D01*
X234226200Y-98843267D01*
X234226200Y-99276733D01*
X234222895Y-99310290D01*
X234214014Y-99339568D01*
X234199594Y-99366545D01*
X234180190Y-99390190D01*
X234156545Y-99409594D01*
X234129568Y-99424014D01*
X234100290Y-99432895D01*
X234066733Y-99436200D01*
X232533267Y-99436200D01*
X232499710Y-99432895D01*
X232470432Y-99424014D01*
X232443455Y-99409594D01*
X232419810Y-99390190D01*
X232400406Y-99366545D01*
X232385986Y-99339568D01*
X232377105Y-99310290D01*
X232373800Y-99276733D01*
X232373800Y-98843267D01*
X232377105Y-98809710D01*
X232385986Y-98780432D01*
X232400406Y-98753455D01*
X232419810Y-98729810D01*
X232443455Y-98710406D01*
X232470432Y-98695986D01*
X232499710Y-98687105D01*
X232533267Y-98683800D01*
X234066733Y-98683800D01*
X234100290Y-98687105D01*
X234100290Y-98687105D01*
G37*
G36*
X223455290Y-98052105D02*
G01*
X223484568Y-98060986D01*
X223511545Y-98075406D01*
X223535190Y-98094810D01*
X223554594Y-98118455D01*
X223569014Y-98145432D01*
X223577895Y-98174710D01*
X223581200Y-98208267D01*
X223581200Y-98641733D01*
X223577895Y-98675290D01*
X223569014Y-98704568D01*
X223554594Y-98731545D01*
X223535190Y-98755190D01*
X223511545Y-98774594D01*
X223484568Y-98789014D01*
X223455290Y-98797895D01*
X223421733Y-98801200D01*
X219588267Y-98801200D01*
X219554710Y-98797895D01*
X219525432Y-98789014D01*
X219498455Y-98774594D01*
X219474810Y-98755190D01*
X219455406Y-98731545D01*
X219440986Y-98704568D01*
X219432105Y-98675290D01*
X219428800Y-98641733D01*
X219428800Y-98208267D01*
X219432105Y-98174710D01*
X219440986Y-98145432D01*
X219455406Y-98118455D01*
X219474810Y-98094810D01*
X219498455Y-98075406D01*
X219525432Y-98060986D01*
X219554710Y-98052105D01*
X219588267Y-98048800D01*
X223421733Y-98048800D01*
X223455290Y-98052105D01*
X223455290Y-98052105D01*
G37*
G36*
X216055290Y-98052105D02*
G01*
X216084568Y-98060986D01*
X216111545Y-98075406D01*
X216135190Y-98094810D01*
X216154594Y-98118455D01*
X216169014Y-98145432D01*
X216177895Y-98174710D01*
X216181200Y-98208267D01*
X216181200Y-98641733D01*
X216177895Y-98675290D01*
X216169014Y-98704568D01*
X216154594Y-98731545D01*
X216135190Y-98755190D01*
X216111545Y-98774594D01*
X216084568Y-98789014D01*
X216055290Y-98797895D01*
X216021733Y-98801200D01*
X212188267Y-98801200D01*
X212154710Y-98797895D01*
X212125432Y-98789014D01*
X212098455Y-98774594D01*
X212074810Y-98755190D01*
X212055406Y-98731545D01*
X212040986Y-98704568D01*
X212032105Y-98675290D01*
X212028800Y-98641733D01*
X212028800Y-98208267D01*
X212032105Y-98174710D01*
X212040986Y-98145432D01*
X212055406Y-98118455D01*
X212074810Y-98094810D01*
X212098455Y-98075406D01*
X212125432Y-98060986D01*
X212154710Y-98052105D01*
X212188267Y-98048800D01*
X216021733Y-98048800D01*
X216055290Y-98052105D01*
X216055290Y-98052105D01*
G37*
G36*
X244090290Y-96487105D02*
G01*
X244119568Y-96495986D01*
X244146545Y-96510406D01*
X244170190Y-96529810D01*
X244189594Y-96553455D01*
X244204014Y-96580432D01*
X244212895Y-96609710D01*
X244216200Y-96643267D01*
X244216200Y-98176733D01*
X244212895Y-98210290D01*
X244204014Y-98239568D01*
X244189594Y-98266545D01*
X244170190Y-98290190D01*
X244146545Y-98309594D01*
X244119568Y-98324014D01*
X244090290Y-98332895D01*
X244056733Y-98336200D01*
X243623267Y-98336200D01*
X243589710Y-98332895D01*
X243560432Y-98324014D01*
X243533455Y-98309594D01*
X243509810Y-98290190D01*
X243490406Y-98266545D01*
X243475986Y-98239568D01*
X243467105Y-98210290D01*
X243463800Y-98176733D01*
X243463800Y-96643267D01*
X243467105Y-96609710D01*
X243475986Y-96580432D01*
X243490406Y-96553455D01*
X243509810Y-96529810D01*
X243533455Y-96510406D01*
X243560432Y-96495986D01*
X243589710Y-96487105D01*
X243623267Y-96483800D01*
X244056733Y-96483800D01*
X244090290Y-96487105D01*
X244090290Y-96487105D01*
G37*
G36*
X245360290Y-96487105D02*
G01*
X245389568Y-96495986D01*
X245416545Y-96510406D01*
X245440190Y-96529810D01*
X245459594Y-96553455D01*
X245474014Y-96580432D01*
X245482895Y-96609710D01*
X245486200Y-96643267D01*
X245486200Y-98176733D01*
X245482895Y-98210290D01*
X245474014Y-98239568D01*
X245459594Y-98266545D01*
X245440190Y-98290190D01*
X245416545Y-98309594D01*
X245389568Y-98324014D01*
X245360290Y-98332895D01*
X245326733Y-98336200D01*
X244893267Y-98336200D01*
X244859710Y-98332895D01*
X244830432Y-98324014D01*
X244803455Y-98309594D01*
X244779810Y-98290190D01*
X244760406Y-98266545D01*
X244745986Y-98239568D01*
X244737105Y-98210290D01*
X244733800Y-98176733D01*
X244733800Y-96643267D01*
X244737105Y-96609710D01*
X244745986Y-96580432D01*
X244760406Y-96553455D01*
X244779810Y-96529810D01*
X244803455Y-96510406D01*
X244830432Y-96495986D01*
X244859710Y-96487105D01*
X244893267Y-96483800D01*
X245326733Y-96483800D01*
X245360290Y-96487105D01*
X245360290Y-96487105D01*
G37*
G36*
X246630290Y-96487105D02*
G01*
X246659568Y-96495986D01*
X246686545Y-96510406D01*
X246710190Y-96529810D01*
X246729594Y-96553455D01*
X246744014Y-96580432D01*
X246752895Y-96609710D01*
X246756200Y-96643267D01*
X246756200Y-98176733D01*
X246752895Y-98210290D01*
X246744014Y-98239568D01*
X246729594Y-98266545D01*
X246710190Y-98290190D01*
X246686545Y-98309594D01*
X246659568Y-98324014D01*
X246630290Y-98332895D01*
X246596733Y-98336200D01*
X246163267Y-98336200D01*
X246129710Y-98332895D01*
X246100432Y-98324014D01*
X246073455Y-98309594D01*
X246049810Y-98290190D01*
X246030406Y-98266545D01*
X246015986Y-98239568D01*
X246007105Y-98210290D01*
X246003800Y-98176733D01*
X246003800Y-96643267D01*
X246007105Y-96609710D01*
X246015986Y-96580432D01*
X246030406Y-96553455D01*
X246049810Y-96529810D01*
X246073455Y-96510406D01*
X246100432Y-96495986D01*
X246129710Y-96487105D01*
X246163267Y-96483800D01*
X246596733Y-96483800D01*
X246630290Y-96487105D01*
X246630290Y-96487105D01*
G37*
G36*
X247900290Y-96487105D02*
G01*
X247929568Y-96495986D01*
X247956545Y-96510406D01*
X247980190Y-96529810D01*
X247999594Y-96553455D01*
X248014014Y-96580432D01*
X248022895Y-96609710D01*
X248026200Y-96643267D01*
X248026200Y-98176733D01*
X248022895Y-98210290D01*
X248014014Y-98239568D01*
X247999594Y-98266545D01*
X247980190Y-98290190D01*
X247956545Y-98309594D01*
X247929568Y-98324014D01*
X247900290Y-98332895D01*
X247866733Y-98336200D01*
X247433267Y-98336200D01*
X247399710Y-98332895D01*
X247370432Y-98324014D01*
X247343455Y-98309594D01*
X247319810Y-98290190D01*
X247300406Y-98266545D01*
X247285986Y-98239568D01*
X247277105Y-98210290D01*
X247273800Y-98176733D01*
X247273800Y-96643267D01*
X247277105Y-96609710D01*
X247285986Y-96580432D01*
X247300406Y-96553455D01*
X247319810Y-96529810D01*
X247343455Y-96510406D01*
X247370432Y-96495986D01*
X247399710Y-96487105D01*
X247433267Y-96483800D01*
X247866733Y-96483800D01*
X247900290Y-96487105D01*
X247900290Y-96487105D01*
G37*
G36*
X249170290Y-96487105D02*
G01*
X249199568Y-96495986D01*
X249226545Y-96510406D01*
X249250190Y-96529810D01*
X249269594Y-96553455D01*
X249284014Y-96580432D01*
X249292895Y-96609710D01*
X249296200Y-96643267D01*
X249296200Y-98176733D01*
X249292895Y-98210290D01*
X249284014Y-98239568D01*
X249269594Y-98266545D01*
X249250190Y-98290190D01*
X249226545Y-98309594D01*
X249199568Y-98324014D01*
X249170290Y-98332895D01*
X249136733Y-98336200D01*
X248703267Y-98336200D01*
X248669710Y-98332895D01*
X248640432Y-98324014D01*
X248613455Y-98309594D01*
X248589810Y-98290190D01*
X248570406Y-98266545D01*
X248555986Y-98239568D01*
X248547105Y-98210290D01*
X248543800Y-98176733D01*
X248543800Y-96643267D01*
X248547105Y-96609710D01*
X248555986Y-96580432D01*
X248570406Y-96553455D01*
X248589810Y-96529810D01*
X248613455Y-96510406D01*
X248640432Y-96495986D01*
X248669710Y-96487105D01*
X248703267Y-96483800D01*
X249136733Y-96483800D01*
X249170290Y-96487105D01*
X249170290Y-96487105D01*
G37*
G36*
X250440290Y-96487105D02*
G01*
X250469568Y-96495986D01*
X250496545Y-96510406D01*
X250520190Y-96529810D01*
X250539594Y-96553455D01*
X250554014Y-96580432D01*
X250562895Y-96609710D01*
X250566200Y-96643267D01*
X250566200Y-98176733D01*
X250562895Y-98210290D01*
X250554014Y-98239568D01*
X250539594Y-98266545D01*
X250520190Y-98290190D01*
X250496545Y-98309594D01*
X250469568Y-98324014D01*
X250440290Y-98332895D01*
X250406733Y-98336200D01*
X249973267Y-98336200D01*
X249939710Y-98332895D01*
X249910432Y-98324014D01*
X249883455Y-98309594D01*
X249859810Y-98290190D01*
X249840406Y-98266545D01*
X249825986Y-98239568D01*
X249817105Y-98210290D01*
X249813800Y-98176733D01*
X249813800Y-96643267D01*
X249817105Y-96609710D01*
X249825986Y-96580432D01*
X249840406Y-96553455D01*
X249859810Y-96529810D01*
X249883455Y-96510406D01*
X249910432Y-96495986D01*
X249939710Y-96487105D01*
X249973267Y-96483800D01*
X250406733Y-96483800D01*
X250440290Y-96487105D01*
X250440290Y-96487105D01*
G37*
G36*
X251710290Y-96487105D02*
G01*
X251739568Y-96495986D01*
X251766545Y-96510406D01*
X251790190Y-96529810D01*
X251809594Y-96553455D01*
X251824014Y-96580432D01*
X251832895Y-96609710D01*
X251836200Y-96643267D01*
X251836200Y-98176733D01*
X251832895Y-98210290D01*
X251824014Y-98239568D01*
X251809594Y-98266545D01*
X251790190Y-98290190D01*
X251766545Y-98309594D01*
X251739568Y-98324014D01*
X251710290Y-98332895D01*
X251676733Y-98336200D01*
X251243267Y-98336200D01*
X251209710Y-98332895D01*
X251180432Y-98324014D01*
X251153455Y-98309594D01*
X251129810Y-98290190D01*
X251110406Y-98266545D01*
X251095986Y-98239568D01*
X251087105Y-98210290D01*
X251083800Y-98176733D01*
X251083800Y-96643267D01*
X251087105Y-96609710D01*
X251095986Y-96580432D01*
X251110406Y-96553455D01*
X251129810Y-96529810D01*
X251153455Y-96510406D01*
X251180432Y-96495986D01*
X251209710Y-96487105D01*
X251243267Y-96483800D01*
X251676733Y-96483800D01*
X251710290Y-96487105D01*
X251710290Y-96487105D01*
G37*
G36*
X252980290Y-96487105D02*
G01*
X253009568Y-96495986D01*
X253036545Y-96510406D01*
X253060190Y-96529810D01*
X253079594Y-96553455D01*
X253094014Y-96580432D01*
X253102895Y-96609710D01*
X253106200Y-96643267D01*
X253106200Y-98176733D01*
X253102895Y-98210290D01*
X253094014Y-98239568D01*
X253079594Y-98266545D01*
X253060190Y-98290190D01*
X253036545Y-98309594D01*
X253009568Y-98324014D01*
X252980290Y-98332895D01*
X252946733Y-98336200D01*
X252513267Y-98336200D01*
X252479710Y-98332895D01*
X252450432Y-98324014D01*
X252423455Y-98309594D01*
X252399810Y-98290190D01*
X252380406Y-98266545D01*
X252365986Y-98239568D01*
X252357105Y-98210290D01*
X252353800Y-98176733D01*
X252353800Y-96643267D01*
X252357105Y-96609710D01*
X252365986Y-96580432D01*
X252380406Y-96553455D01*
X252399810Y-96529810D01*
X252423455Y-96510406D01*
X252450432Y-96495986D01*
X252479710Y-96487105D01*
X252513267Y-96483800D01*
X252946733Y-96483800D01*
X252980290Y-96487105D01*
X252980290Y-96487105D01*
G37*
G36*
X241550290Y-96487105D02*
G01*
X241579568Y-96495986D01*
X241606545Y-96510406D01*
X241630190Y-96529810D01*
X241649594Y-96553455D01*
X241664014Y-96580432D01*
X241672895Y-96609710D01*
X241676200Y-96643267D01*
X241676200Y-98176733D01*
X241672895Y-98210290D01*
X241664014Y-98239568D01*
X241649594Y-98266545D01*
X241630190Y-98290190D01*
X241606545Y-98309594D01*
X241579568Y-98324014D01*
X241550290Y-98332895D01*
X241516733Y-98336200D01*
X241083267Y-98336200D01*
X241049710Y-98332895D01*
X241020432Y-98324014D01*
X240993455Y-98309594D01*
X240969810Y-98290190D01*
X240950406Y-98266545D01*
X240935986Y-98239568D01*
X240927105Y-98210290D01*
X240923800Y-98176733D01*
X240923800Y-96643267D01*
X240927105Y-96609710D01*
X240935986Y-96580432D01*
X240950406Y-96553455D01*
X240969810Y-96529810D01*
X240993455Y-96510406D01*
X241020432Y-96495986D01*
X241049710Y-96487105D01*
X241083267Y-96483800D01*
X241516733Y-96483800D01*
X241550290Y-96487105D01*
X241550290Y-96487105D01*
G37*
G36*
X254250290Y-96487105D02*
G01*
X254279568Y-96495986D01*
X254306545Y-96510406D01*
X254330190Y-96529810D01*
X254349594Y-96553455D01*
X254364014Y-96580432D01*
X254372895Y-96609710D01*
X254376200Y-96643267D01*
X254376200Y-98176733D01*
X254372895Y-98210290D01*
X254364014Y-98239568D01*
X254349594Y-98266545D01*
X254330190Y-98290190D01*
X254306545Y-98309594D01*
X254279568Y-98324014D01*
X254250290Y-98332895D01*
X254216733Y-98336200D01*
X253783267Y-98336200D01*
X253749710Y-98332895D01*
X253720432Y-98324014D01*
X253693455Y-98309594D01*
X253669810Y-98290190D01*
X253650406Y-98266545D01*
X253635986Y-98239568D01*
X253627105Y-98210290D01*
X253623800Y-98176733D01*
X253623800Y-96643267D01*
X253627105Y-96609710D01*
X253635986Y-96580432D01*
X253650406Y-96553455D01*
X253669810Y-96529810D01*
X253693455Y-96510406D01*
X253720432Y-96495986D01*
X253749710Y-96487105D01*
X253783267Y-96483800D01*
X254216733Y-96483800D01*
X254250290Y-96487105D01*
X254250290Y-96487105D01*
G37*
G36*
X255520290Y-96487105D02*
G01*
X255549568Y-96495986D01*
X255576545Y-96510406D01*
X255600190Y-96529810D01*
X255619594Y-96553455D01*
X255634014Y-96580432D01*
X255642895Y-96609710D01*
X255646200Y-96643267D01*
X255646200Y-98176733D01*
X255642895Y-98210290D01*
X255634014Y-98239568D01*
X255619594Y-98266545D01*
X255600190Y-98290190D01*
X255576545Y-98309594D01*
X255549568Y-98324014D01*
X255520290Y-98332895D01*
X255486733Y-98336200D01*
X255053267Y-98336200D01*
X255019710Y-98332895D01*
X254990432Y-98324014D01*
X254963455Y-98309594D01*
X254939810Y-98290190D01*
X254920406Y-98266545D01*
X254905986Y-98239568D01*
X254897105Y-98210290D01*
X254893800Y-98176733D01*
X254893800Y-96643267D01*
X254897105Y-96609710D01*
X254905986Y-96580432D01*
X254920406Y-96553455D01*
X254939810Y-96529810D01*
X254963455Y-96510406D01*
X254990432Y-96495986D01*
X255019710Y-96487105D01*
X255053267Y-96483800D01*
X255486733Y-96483800D01*
X255520290Y-96487105D01*
X255520290Y-96487105D01*
G37*
G36*
X242820290Y-96487105D02*
G01*
X242849568Y-96495986D01*
X242876545Y-96510406D01*
X242900190Y-96529810D01*
X242919594Y-96553455D01*
X242934014Y-96580432D01*
X242942895Y-96609710D01*
X242946200Y-96643267D01*
X242946200Y-98176733D01*
X242942895Y-98210290D01*
X242934014Y-98239568D01*
X242919594Y-98266545D01*
X242900190Y-98290190D01*
X242876545Y-98309594D01*
X242849568Y-98324014D01*
X242820290Y-98332895D01*
X242786733Y-98336200D01*
X242353267Y-98336200D01*
X242319710Y-98332895D01*
X242290432Y-98324014D01*
X242263455Y-98309594D01*
X242239810Y-98290190D01*
X242220406Y-98266545D01*
X242205986Y-98239568D01*
X242197105Y-98210290D01*
X242193800Y-98176733D01*
X242193800Y-96643267D01*
X242197105Y-96609710D01*
X242205986Y-96580432D01*
X242220406Y-96553455D01*
X242239810Y-96529810D01*
X242263455Y-96510406D01*
X242290432Y-96495986D01*
X242319710Y-96487105D01*
X242353267Y-96483800D01*
X242786733Y-96483800D01*
X242820290Y-96487105D01*
X242820290Y-96487105D01*
G37*
G36*
X235200290Y-96487105D02*
G01*
X235229568Y-96495986D01*
X235256545Y-96510406D01*
X235280190Y-96529810D01*
X235299594Y-96553455D01*
X235314014Y-96580432D01*
X235322895Y-96609710D01*
X235326200Y-96643267D01*
X235326200Y-98176733D01*
X235322895Y-98210290D01*
X235314014Y-98239568D01*
X235299594Y-98266545D01*
X235280190Y-98290190D01*
X235256545Y-98309594D01*
X235229568Y-98324014D01*
X235200290Y-98332895D01*
X235166733Y-98336200D01*
X234733267Y-98336200D01*
X234699710Y-98332895D01*
X234670432Y-98324014D01*
X234643455Y-98309594D01*
X234619810Y-98290190D01*
X234600406Y-98266545D01*
X234585986Y-98239568D01*
X234577105Y-98210290D01*
X234573800Y-98176733D01*
X234573800Y-96643267D01*
X234577105Y-96609710D01*
X234585986Y-96580432D01*
X234600406Y-96553455D01*
X234619810Y-96529810D01*
X234643455Y-96510406D01*
X234670432Y-96495986D01*
X234699710Y-96487105D01*
X234733267Y-96483800D01*
X235166733Y-96483800D01*
X235200290Y-96487105D01*
X235200290Y-96487105D01*
G37*
G36*
X236470290Y-96487105D02*
G01*
X236499568Y-96495986D01*
X236526545Y-96510406D01*
X236550190Y-96529810D01*
X236569594Y-96553455D01*
X236584014Y-96580432D01*
X236592895Y-96609710D01*
X236596200Y-96643267D01*
X236596200Y-98176733D01*
X236592895Y-98210290D01*
X236584014Y-98239568D01*
X236569594Y-98266545D01*
X236550190Y-98290190D01*
X236526545Y-98309594D01*
X236499568Y-98324014D01*
X236470290Y-98332895D01*
X236436733Y-98336200D01*
X236003267Y-98336200D01*
X235969710Y-98332895D01*
X235940432Y-98324014D01*
X235913455Y-98309594D01*
X235889810Y-98290190D01*
X235870406Y-98266545D01*
X235855986Y-98239568D01*
X235847105Y-98210290D01*
X235843800Y-98176733D01*
X235843800Y-96643267D01*
X235847105Y-96609710D01*
X235855986Y-96580432D01*
X235870406Y-96553455D01*
X235889810Y-96529810D01*
X235913455Y-96510406D01*
X235940432Y-96495986D01*
X235969710Y-96487105D01*
X236003267Y-96483800D01*
X236436733Y-96483800D01*
X236470290Y-96487105D01*
X236470290Y-96487105D01*
G37*
G36*
X237740290Y-96487105D02*
G01*
X237769568Y-96495986D01*
X237796545Y-96510406D01*
X237820190Y-96529810D01*
X237839594Y-96553455D01*
X237854014Y-96580432D01*
X237862895Y-96609710D01*
X237866200Y-96643267D01*
X237866200Y-98176733D01*
X237862895Y-98210290D01*
X237854014Y-98239568D01*
X237839594Y-98266545D01*
X237820190Y-98290190D01*
X237796545Y-98309594D01*
X237769568Y-98324014D01*
X237740290Y-98332895D01*
X237706733Y-98336200D01*
X237273267Y-98336200D01*
X237239710Y-98332895D01*
X237210432Y-98324014D01*
X237183455Y-98309594D01*
X237159810Y-98290190D01*
X237140406Y-98266545D01*
X237125986Y-98239568D01*
X237117105Y-98210290D01*
X237113800Y-98176733D01*
X237113800Y-96643267D01*
X237117105Y-96609710D01*
X237125986Y-96580432D01*
X237140406Y-96553455D01*
X237159810Y-96529810D01*
X237183455Y-96510406D01*
X237210432Y-96495986D01*
X237239710Y-96487105D01*
X237273267Y-96483800D01*
X237706733Y-96483800D01*
X237740290Y-96487105D01*
X237740290Y-96487105D01*
G37*
G36*
X260600290Y-96487105D02*
G01*
X260629568Y-96495986D01*
X260656545Y-96510406D01*
X260680190Y-96529810D01*
X260699594Y-96553455D01*
X260714014Y-96580432D01*
X260722895Y-96609710D01*
X260726200Y-96643267D01*
X260726200Y-98176733D01*
X260722895Y-98210290D01*
X260714014Y-98239568D01*
X260699594Y-98266545D01*
X260680190Y-98290190D01*
X260656545Y-98309594D01*
X260629568Y-98324014D01*
X260600290Y-98332895D01*
X260566733Y-98336200D01*
X260133267Y-98336200D01*
X260099710Y-98332895D01*
X260070432Y-98324014D01*
X260043455Y-98309594D01*
X260019810Y-98290190D01*
X260000406Y-98266545D01*
X259985986Y-98239568D01*
X259977105Y-98210290D01*
X259973800Y-98176733D01*
X259973800Y-96643267D01*
X259977105Y-96609710D01*
X259985986Y-96580432D01*
X260000406Y-96553455D01*
X260019810Y-96529810D01*
X260043455Y-96510406D01*
X260070432Y-96495986D01*
X260099710Y-96487105D01*
X260133267Y-96483800D01*
X260566733Y-96483800D01*
X260600290Y-96487105D01*
X260600290Y-96487105D01*
G37*
G36*
X259330290Y-96487105D02*
G01*
X259359568Y-96495986D01*
X259386545Y-96510406D01*
X259410190Y-96529810D01*
X259429594Y-96553455D01*
X259444014Y-96580432D01*
X259452895Y-96609710D01*
X259456200Y-96643267D01*
X259456200Y-98176733D01*
X259452895Y-98210290D01*
X259444014Y-98239568D01*
X259429594Y-98266545D01*
X259410190Y-98290190D01*
X259386545Y-98309594D01*
X259359568Y-98324014D01*
X259330290Y-98332895D01*
X259296733Y-98336200D01*
X258863267Y-98336200D01*
X258829710Y-98332895D01*
X258800432Y-98324014D01*
X258773455Y-98309594D01*
X258749810Y-98290190D01*
X258730406Y-98266545D01*
X258715986Y-98239568D01*
X258707105Y-98210290D01*
X258703800Y-98176733D01*
X258703800Y-96643267D01*
X258707105Y-96609710D01*
X258715986Y-96580432D01*
X258730406Y-96553455D01*
X258749810Y-96529810D01*
X258773455Y-96510406D01*
X258800432Y-96495986D01*
X258829710Y-96487105D01*
X258863267Y-96483800D01*
X259296733Y-96483800D01*
X259330290Y-96487105D01*
X259330290Y-96487105D01*
G37*
G36*
X258060290Y-96487105D02*
G01*
X258089568Y-96495986D01*
X258116545Y-96510406D01*
X258140190Y-96529810D01*
X258159594Y-96553455D01*
X258174014Y-96580432D01*
X258182895Y-96609710D01*
X258186200Y-96643267D01*
X258186200Y-98176733D01*
X258182895Y-98210290D01*
X258174014Y-98239568D01*
X258159594Y-98266545D01*
X258140190Y-98290190D01*
X258116545Y-98309594D01*
X258089568Y-98324014D01*
X258060290Y-98332895D01*
X258026733Y-98336200D01*
X257593267Y-98336200D01*
X257559710Y-98332895D01*
X257530432Y-98324014D01*
X257503455Y-98309594D01*
X257479810Y-98290190D01*
X257460406Y-98266545D01*
X257445986Y-98239568D01*
X257437105Y-98210290D01*
X257433800Y-98176733D01*
X257433800Y-96643267D01*
X257437105Y-96609710D01*
X257445986Y-96580432D01*
X257460406Y-96553455D01*
X257479810Y-96529810D01*
X257503455Y-96510406D01*
X257530432Y-96495986D01*
X257559710Y-96487105D01*
X257593267Y-96483800D01*
X258026733Y-96483800D01*
X258060290Y-96487105D01*
X258060290Y-96487105D01*
G37*
G36*
X256790290Y-96487105D02*
G01*
X256819568Y-96495986D01*
X256846545Y-96510406D01*
X256870190Y-96529810D01*
X256889594Y-96553455D01*
X256904014Y-96580432D01*
X256912895Y-96609710D01*
X256916200Y-96643267D01*
X256916200Y-98176733D01*
X256912895Y-98210290D01*
X256904014Y-98239568D01*
X256889594Y-98266545D01*
X256870190Y-98290190D01*
X256846545Y-98309594D01*
X256819568Y-98324014D01*
X256790290Y-98332895D01*
X256756733Y-98336200D01*
X256323267Y-98336200D01*
X256289710Y-98332895D01*
X256260432Y-98324014D01*
X256233455Y-98309594D01*
X256209810Y-98290190D01*
X256190406Y-98266545D01*
X256175986Y-98239568D01*
X256167105Y-98210290D01*
X256163800Y-98176733D01*
X256163800Y-96643267D01*
X256167105Y-96609710D01*
X256175986Y-96580432D01*
X256190406Y-96553455D01*
X256209810Y-96529810D01*
X256233455Y-96510406D01*
X256260432Y-96495986D01*
X256289710Y-96487105D01*
X256323267Y-96483800D01*
X256756733Y-96483800D01*
X256790290Y-96487105D01*
X256790290Y-96487105D01*
G37*
G36*
X239010290Y-96487105D02*
G01*
X239039568Y-96495986D01*
X239066545Y-96510406D01*
X239090190Y-96529810D01*
X239109594Y-96553455D01*
X239124014Y-96580432D01*
X239132895Y-96609710D01*
X239136200Y-96643267D01*
X239136200Y-98176733D01*
X239132895Y-98210290D01*
X239124014Y-98239568D01*
X239109594Y-98266545D01*
X239090190Y-98290190D01*
X239066545Y-98309594D01*
X239039568Y-98324014D01*
X239010290Y-98332895D01*
X238976733Y-98336200D01*
X238543267Y-98336200D01*
X238509710Y-98332895D01*
X238480432Y-98324014D01*
X238453455Y-98309594D01*
X238429810Y-98290190D01*
X238410406Y-98266545D01*
X238395986Y-98239568D01*
X238387105Y-98210290D01*
X238383800Y-98176733D01*
X238383800Y-96643267D01*
X238387105Y-96609710D01*
X238395986Y-96580432D01*
X238410406Y-96553455D01*
X238429810Y-96529810D01*
X238453455Y-96510406D01*
X238480432Y-96495986D01*
X238509710Y-96487105D01*
X238543267Y-96483800D01*
X238976733Y-96483800D01*
X239010290Y-96487105D01*
X239010290Y-96487105D01*
G37*
G36*
X240280290Y-96487105D02*
G01*
X240309568Y-96495986D01*
X240336545Y-96510406D01*
X240360190Y-96529810D01*
X240379594Y-96553455D01*
X240394014Y-96580432D01*
X240402895Y-96609710D01*
X240406200Y-96643267D01*
X240406200Y-98176733D01*
X240402895Y-98210290D01*
X240394014Y-98239568D01*
X240379594Y-98266545D01*
X240360190Y-98290190D01*
X240336545Y-98309594D01*
X240309568Y-98324014D01*
X240280290Y-98332895D01*
X240246733Y-98336200D01*
X239813267Y-98336200D01*
X239779710Y-98332895D01*
X239750432Y-98324014D01*
X239723455Y-98309594D01*
X239699810Y-98290190D01*
X239680406Y-98266545D01*
X239665986Y-98239568D01*
X239657105Y-98210290D01*
X239653800Y-98176733D01*
X239653800Y-96643267D01*
X239657105Y-96609710D01*
X239665986Y-96580432D01*
X239680406Y-96553455D01*
X239699810Y-96529810D01*
X239723455Y-96510406D01*
X239750432Y-96495986D01*
X239779710Y-96487105D01*
X239813267Y-96483800D01*
X240246733Y-96483800D01*
X240280290Y-96487105D01*
X240280290Y-96487105D01*
G37*
G36*
X268569986Y-96785306D02*
G01*
X268610980Y-96797742D01*
X268648767Y-96817939D01*
X268681883Y-96845117D01*
X268709061Y-96878233D01*
X268729258Y-96916020D01*
X268741694Y-96957014D01*
X268746200Y-97002767D01*
X268746200Y-97561233D01*
X268741694Y-97606986D01*
X268729258Y-97647980D01*
X268709061Y-97685767D01*
X268681883Y-97718883D01*
X268648767Y-97746061D01*
X268610980Y-97766258D01*
X268569986Y-97778694D01*
X268524233Y-97783200D01*
X267415767Y-97783200D01*
X267370014Y-97778694D01*
X267329020Y-97766258D01*
X267291233Y-97746061D01*
X267258117Y-97718883D01*
X267230939Y-97685767D01*
X267210742Y-97647980D01*
X267198306Y-97606986D01*
X267193800Y-97561233D01*
X267193800Y-97002767D01*
X267198306Y-96957014D01*
X267210742Y-96916020D01*
X267230939Y-96878233D01*
X267258117Y-96845117D01*
X267291233Y-96817939D01*
X267329020Y-96797742D01*
X267370014Y-96785306D01*
X267415767Y-96780800D01*
X268524233Y-96780800D01*
X268569986Y-96785306D01*
X268569986Y-96785306D01*
G37*
G36*
X214506737Y-95114267D02*
G01*
X214557119Y-95129550D01*
X214603546Y-95154366D01*
X214644239Y-95187761D01*
X214677634Y-95228454D01*
X214702450Y-95274881D01*
X214717733Y-95325263D01*
X214723200Y-95380767D01*
X214723200Y-96389233D01*
X214717733Y-96444737D01*
X214702450Y-96495119D01*
X214677634Y-96541546D01*
X214644239Y-96582239D01*
X214603546Y-96615634D01*
X214557119Y-96640450D01*
X214506737Y-96655733D01*
X214451233Y-96661200D01*
X213792767Y-96661200D01*
X213737263Y-96655733D01*
X213686881Y-96640450D01*
X213640454Y-96615634D01*
X213599761Y-96582239D01*
X213566366Y-96541546D01*
X213541550Y-96495119D01*
X213526267Y-96444737D01*
X213520800Y-96389233D01*
X213520800Y-95380767D01*
X213526267Y-95325263D01*
X213541550Y-95274881D01*
X213566366Y-95228454D01*
X213599761Y-95187761D01*
X213640454Y-95154366D01*
X213686881Y-95129550D01*
X213737263Y-95114267D01*
X213792767Y-95108800D01*
X214451233Y-95108800D01*
X214506737Y-95114267D01*
X214506737Y-95114267D01*
G37*
G36*
X216206737Y-95114267D02*
G01*
X216257119Y-95129550D01*
X216303546Y-95154366D01*
X216344239Y-95187761D01*
X216377634Y-95228454D01*
X216402450Y-95274881D01*
X216417733Y-95325263D01*
X216423200Y-95380767D01*
X216423200Y-96389233D01*
X216417733Y-96444737D01*
X216402450Y-96495119D01*
X216377634Y-96541546D01*
X216344239Y-96582239D01*
X216303546Y-96615634D01*
X216257119Y-96640450D01*
X216206737Y-96655733D01*
X216151233Y-96661200D01*
X215492767Y-96661200D01*
X215437263Y-96655733D01*
X215386881Y-96640450D01*
X215340454Y-96615634D01*
X215299761Y-96582239D01*
X215266366Y-96541546D01*
X215241550Y-96495119D01*
X215226267Y-96444737D01*
X215220800Y-96389233D01*
X215220800Y-95380767D01*
X215226267Y-95325263D01*
X215241550Y-95274881D01*
X215266366Y-95228454D01*
X215299761Y-95187761D01*
X215340454Y-95154366D01*
X215386881Y-95129550D01*
X215437263Y-95114267D01*
X215492767Y-95108800D01*
X216151233Y-95108800D01*
X216206737Y-95114267D01*
X216206737Y-95114267D01*
G37*
G36*
X268569986Y-94885306D02*
G01*
X268610980Y-94897742D01*
X268648767Y-94917939D01*
X268681883Y-94945117D01*
X268709061Y-94978233D01*
X268729258Y-95016020D01*
X268741694Y-95057014D01*
X268746200Y-95102767D01*
X268746200Y-95661233D01*
X268741694Y-95706986D01*
X268729258Y-95747980D01*
X268709061Y-95785767D01*
X268681883Y-95818883D01*
X268648767Y-95846061D01*
X268610980Y-95866258D01*
X268569986Y-95878694D01*
X268524233Y-95883200D01*
X267415767Y-95883200D01*
X267370014Y-95878694D01*
X267329020Y-95866258D01*
X267291233Y-95846061D01*
X267258117Y-95818883D01*
X267230939Y-95785767D01*
X267210742Y-95747980D01*
X267198306Y-95706986D01*
X267193800Y-95661233D01*
X267193800Y-95102767D01*
X267198306Y-95057014D01*
X267210742Y-95016020D01*
X267230939Y-94978233D01*
X267258117Y-94945117D01*
X267291233Y-94917939D01*
X267329020Y-94897742D01*
X267370014Y-94885306D01*
X267415767Y-94880800D01*
X268524233Y-94880800D01*
X268569986Y-94885306D01*
X268569986Y-94885306D01*
G37*
G36*
X270315914Y-92056157D02*
G01*
X270511777Y-92137286D01*
X270688033Y-92255057D01*
X270837943Y-92404967D01*
X270955714Y-92581223D01*
X271036843Y-92777086D01*
X271078200Y-92985004D01*
X271078200Y-93196996D01*
X271036843Y-93404914D01*
X270955714Y-93600777D01*
X270837943Y-93777033D01*
X270688033Y-93926943D01*
X270511777Y-94044714D01*
X270315914Y-94125843D01*
X270107996Y-94167200D01*
X269896004Y-94167200D01*
X269688086Y-94125843D01*
X269492223Y-94044714D01*
X269315967Y-93926943D01*
X269166057Y-93777033D01*
X269048286Y-93600777D01*
X268967157Y-93404914D01*
X268925800Y-93196996D01*
X268925800Y-92985004D01*
X268967157Y-92777086D01*
X269048286Y-92581223D01*
X269166057Y-92404967D01*
X269315967Y-92255057D01*
X269492223Y-92137286D01*
X269688086Y-92056157D01*
X269896004Y-92014800D01*
X270107996Y-92014800D01*
X270315914Y-92056157D01*
X270315914Y-92056157D01*
G37*
G36*
X261203737Y-90669267D02*
G01*
X261254119Y-90684550D01*
X261300546Y-90709366D01*
X261341239Y-90742761D01*
X261374634Y-90783454D01*
X261399450Y-90829881D01*
X261414733Y-90880263D01*
X261420200Y-90935767D01*
X261420200Y-91944233D01*
X261414733Y-91999737D01*
X261399450Y-92050119D01*
X261374634Y-92096546D01*
X261341239Y-92137239D01*
X261300546Y-92170634D01*
X261254119Y-92195450D01*
X261203737Y-92210733D01*
X261148233Y-92216200D01*
X260489767Y-92216200D01*
X260434263Y-92210733D01*
X260383881Y-92195450D01*
X260337454Y-92170634D01*
X260296761Y-92137239D01*
X260263366Y-92096546D01*
X260238550Y-92050119D01*
X260223267Y-91999737D01*
X260217800Y-91944233D01*
X260217800Y-90935767D01*
X260223267Y-90880263D01*
X260238550Y-90829881D01*
X260263366Y-90783454D01*
X260296761Y-90742761D01*
X260337454Y-90709366D01*
X260383881Y-90684550D01*
X260434263Y-90669267D01*
X260489767Y-90663800D01*
X261148233Y-90663800D01*
X261203737Y-90669267D01*
X261203737Y-90669267D01*
G37*
G36*
X259503737Y-90669267D02*
G01*
X259554119Y-90684550D01*
X259600546Y-90709366D01*
X259641239Y-90742761D01*
X259674634Y-90783454D01*
X259699450Y-90829881D01*
X259714733Y-90880263D01*
X259720200Y-90935767D01*
X259720200Y-91944233D01*
X259714733Y-91999737D01*
X259699450Y-92050119D01*
X259674634Y-92096546D01*
X259641239Y-92137239D01*
X259600546Y-92170634D01*
X259554119Y-92195450D01*
X259503737Y-92210733D01*
X259448233Y-92216200D01*
X258789767Y-92216200D01*
X258734263Y-92210733D01*
X258683881Y-92195450D01*
X258637454Y-92170634D01*
X258596761Y-92137239D01*
X258563366Y-92096546D01*
X258538550Y-92050119D01*
X258523267Y-91999737D01*
X258517800Y-91944233D01*
X258517800Y-90935767D01*
X258523267Y-90880263D01*
X258538550Y-90829881D01*
X258563366Y-90783454D01*
X258596761Y-90742761D01*
X258637454Y-90709366D01*
X258683881Y-90684550D01*
X258734263Y-90669267D01*
X258789767Y-90663800D01*
X259448233Y-90663800D01*
X259503737Y-90669267D01*
X259503737Y-90669267D01*
G37*
G36*
X241254737Y-90669267D02*
G01*
X241305119Y-90684550D01*
X241351546Y-90709366D01*
X241392239Y-90742761D01*
X241425634Y-90783454D01*
X241450450Y-90829881D01*
X241465733Y-90880263D01*
X241471200Y-90935767D01*
X241471200Y-91944233D01*
X241465733Y-91999737D01*
X241450450Y-92050119D01*
X241425634Y-92096546D01*
X241392239Y-92137239D01*
X241351546Y-92170634D01*
X241305119Y-92195450D01*
X241254737Y-92210733D01*
X241199233Y-92216200D01*
X240540767Y-92216200D01*
X240485263Y-92210733D01*
X240434881Y-92195450D01*
X240388454Y-92170634D01*
X240347761Y-92137239D01*
X240314366Y-92096546D01*
X240289550Y-92050119D01*
X240274267Y-91999737D01*
X240268800Y-91944233D01*
X240268800Y-90935767D01*
X240274267Y-90880263D01*
X240289550Y-90829881D01*
X240314366Y-90783454D01*
X240347761Y-90742761D01*
X240388454Y-90709366D01*
X240434881Y-90684550D01*
X240485263Y-90669267D01*
X240540767Y-90663800D01*
X241199233Y-90663800D01*
X241254737Y-90669267D01*
X241254737Y-90669267D01*
G37*
G36*
X242954737Y-90669267D02*
G01*
X243005119Y-90684550D01*
X243051546Y-90709366D01*
X243092239Y-90742761D01*
X243125634Y-90783454D01*
X243150450Y-90829881D01*
X243165733Y-90880263D01*
X243171200Y-90935767D01*
X243171200Y-91944233D01*
X243165733Y-91999737D01*
X243150450Y-92050119D01*
X243125634Y-92096546D01*
X243092239Y-92137239D01*
X243051546Y-92170634D01*
X243005119Y-92195450D01*
X242954737Y-92210733D01*
X242899233Y-92216200D01*
X242240767Y-92216200D01*
X242185263Y-92210733D01*
X242134881Y-92195450D01*
X242088454Y-92170634D01*
X242047761Y-92137239D01*
X242014366Y-92096546D01*
X241989550Y-92050119D01*
X241974267Y-91999737D01*
X241968800Y-91944233D01*
X241968800Y-90935767D01*
X241974267Y-90880263D01*
X241989550Y-90829881D01*
X242014366Y-90783454D01*
X242047761Y-90742761D01*
X242088454Y-90709366D01*
X242134881Y-90684550D01*
X242185263Y-90669267D01*
X242240767Y-90663800D01*
X242899233Y-90663800D01*
X242954737Y-90669267D01*
X242954737Y-90669267D01*
G37*
G36*
X205291914Y-88246157D02*
G01*
X205487777Y-88327286D01*
X205664033Y-88445057D01*
X205813943Y-88594967D01*
X205931714Y-88771223D01*
X206012843Y-88967086D01*
X206054200Y-89175004D01*
X206054200Y-89386996D01*
X206012843Y-89594914D01*
X205931714Y-89790777D01*
X205813943Y-89967033D01*
X205664033Y-90116943D01*
X205487777Y-90234714D01*
X205291914Y-90315843D01*
X205083996Y-90357200D01*
X204872004Y-90357200D01*
X204664086Y-90315843D01*
X204468223Y-90234714D01*
X204291967Y-90116943D01*
X204142057Y-89967033D01*
X204024286Y-89790777D01*
X203943157Y-89594914D01*
X203901800Y-89386996D01*
X203901800Y-89175004D01*
X203943157Y-88967086D01*
X204024286Y-88771223D01*
X204142057Y-88594967D01*
X204291967Y-88445057D01*
X204468223Y-88327286D01*
X204664086Y-88246157D01*
X204872004Y-88204800D01*
X205083996Y-88204800D01*
X205291914Y-88246157D01*
X205291914Y-88246157D01*
G37*
G36*
X201459692Y-88319429D02*
G01*
X201641679Y-88394811D01*
X201805458Y-88504245D01*
X201805460Y-88504247D01*
X201805463Y-88504249D01*
X201944751Y-88643537D01*
X201944753Y-88643540D01*
X201944755Y-88643542D01*
X202054189Y-88807321D01*
X202129571Y-88989308D01*
X202168000Y-89182509D01*
X202168000Y-89379491D01*
X202129571Y-89572692D01*
X202054189Y-89754679D01*
X201944755Y-89918458D01*
X201944753Y-89918460D01*
X201944751Y-89918463D01*
X201805463Y-90057751D01*
X201805460Y-90057753D01*
X201805458Y-90057755D01*
X201641679Y-90167189D01*
X201459692Y-90242571D01*
X201266491Y-90281000D01*
X201069509Y-90281000D01*
X200876308Y-90242571D01*
X200694321Y-90167189D01*
X200530542Y-90057755D01*
X200530540Y-90057753D01*
X200530537Y-90057751D01*
X200391249Y-89918463D01*
X200391247Y-89918460D01*
X200391245Y-89918458D01*
X200281811Y-89754679D01*
X200206429Y-89572692D01*
X200168000Y-89379491D01*
X200168000Y-89182509D01*
X200206429Y-88989308D01*
X200281811Y-88807321D01*
X200391245Y-88643542D01*
X200391247Y-88643540D01*
X200391249Y-88643537D01*
X200530537Y-88504249D01*
X200530540Y-88504247D01*
X200530542Y-88504245D01*
X200694321Y-88394811D01*
X200876308Y-88319429D01*
X201069509Y-88281000D01*
X201266491Y-88281000D01*
X201459692Y-88319429D01*
X201459692Y-88319429D01*
G37*
G36*
X274357692Y-88319429D02*
G01*
X274539679Y-88394811D01*
X274703458Y-88504245D01*
X274703460Y-88504247D01*
X274703463Y-88504249D01*
X274842751Y-88643537D01*
X274842753Y-88643540D01*
X274842755Y-88643542D01*
X274952189Y-88807321D01*
X275027571Y-88989308D01*
X275066000Y-89182509D01*
X275066000Y-89379491D01*
X275027571Y-89572692D01*
X274952189Y-89754679D01*
X274842755Y-89918458D01*
X274842753Y-89918460D01*
X274842751Y-89918463D01*
X274703463Y-90057751D01*
X274703460Y-90057753D01*
X274703458Y-90057755D01*
X274539679Y-90167189D01*
X274357692Y-90242571D01*
X274164491Y-90281000D01*
X273967509Y-90281000D01*
X273774308Y-90242571D01*
X273592321Y-90167189D01*
X273428542Y-90057755D01*
X273428540Y-90057753D01*
X273428537Y-90057751D01*
X273289249Y-89918463D01*
X273289247Y-89918460D01*
X273289245Y-89918458D01*
X273179811Y-89754679D01*
X273104429Y-89572692D01*
X273066000Y-89379491D01*
X273066000Y-89182509D01*
X273104429Y-88989308D01*
X273179811Y-88807321D01*
X273289245Y-88643542D01*
X273289247Y-88643540D01*
X273289249Y-88643537D01*
X273428537Y-88504249D01*
X273428540Y-88504247D01*
X273428542Y-88504245D01*
X273592321Y-88394811D01*
X273774308Y-88319429D01*
X273967509Y-88281000D01*
X274164491Y-88281000D01*
X274357692Y-88319429D01*
X274357692Y-88319429D01*
G37*
M02*
