G04 #@! TF.GenerationSoftware,KiCad,Pcbnew,(5.1.5-0-10_14)*
G04 #@! TF.CreationDate,2020-05-14T00:15:50-04:00*
G04 #@! TF.ProjectId,RAM2E,52414d32-452e-46b6-9963-61645f706362,rev?*
G04 #@! TF.SameCoordinates,Original*
G04 #@! TF.FileFunction,Legend,Bot*
G04 #@! TF.FilePolarity,Positive*
%FSLAX46Y46*%
G04 Gerber Fmt 4.6, Leading zero omitted, Abs format (unit mm)*
G04 Created by KiCad (PCBNEW (5.1.5-0-10_14)) date 2020-05-14 00:15:50*
%MOMM*%
%LPD*%
G04 APERTURE LIST*
%ADD10C,0.200000*%
%ADD11C,0.203200*%
%ADD12C,0.190500*%
%ADD13C,0.100000*%
%ADD14C,2.100000*%
%ADD15C,2.474900*%
%ADD16C,1.090600*%
G04 APERTURE END LIST*
D10*
X230293333Y-126685523D02*
X229567619Y-126685523D01*
X229930476Y-127955523D02*
X229930476Y-126685523D01*
X229144285Y-127955523D02*
X229144285Y-126685523D01*
X228600000Y-127955523D02*
X228600000Y-127290285D01*
X228660476Y-127169333D01*
X228781428Y-127108857D01*
X228962857Y-127108857D01*
X229083809Y-127169333D01*
X229144285Y-127229809D01*
X227995238Y-127955523D02*
X227995238Y-127108857D01*
X227995238Y-126685523D02*
X228055714Y-126746000D01*
X227995238Y-126806476D01*
X227934761Y-126746000D01*
X227995238Y-126685523D01*
X227995238Y-126806476D01*
X227450952Y-127895047D02*
X227330000Y-127955523D01*
X227088095Y-127955523D01*
X226967142Y-127895047D01*
X226906666Y-127774095D01*
X226906666Y-127713619D01*
X226967142Y-127592666D01*
X227088095Y-127532190D01*
X227269523Y-127532190D01*
X227390476Y-127471714D01*
X227450952Y-127350761D01*
X227450952Y-127290285D01*
X227390476Y-127169333D01*
X227269523Y-127108857D01*
X227088095Y-127108857D01*
X226967142Y-127169333D01*
X225455238Y-127895047D02*
X225273809Y-127955523D01*
X224971428Y-127955523D01*
X224850476Y-127895047D01*
X224790000Y-127834571D01*
X224729523Y-127713619D01*
X224729523Y-127592666D01*
X224790000Y-127471714D01*
X224850476Y-127411238D01*
X224971428Y-127350761D01*
X225213333Y-127290285D01*
X225334285Y-127229809D01*
X225394761Y-127169333D01*
X225455238Y-127048380D01*
X225455238Y-126927428D01*
X225394761Y-126806476D01*
X225334285Y-126746000D01*
X225213333Y-126685523D01*
X224910952Y-126685523D01*
X224729523Y-126746000D01*
X224185238Y-127955523D02*
X224185238Y-127108857D01*
X224185238Y-126685523D02*
X224245714Y-126746000D01*
X224185238Y-126806476D01*
X224124761Y-126746000D01*
X224185238Y-126685523D01*
X224185238Y-126806476D01*
X223036190Y-127955523D02*
X223036190Y-126685523D01*
X223036190Y-127895047D02*
X223157142Y-127955523D01*
X223399047Y-127955523D01*
X223520000Y-127895047D01*
X223580476Y-127834571D01*
X223640952Y-127713619D01*
X223640952Y-127350761D01*
X223580476Y-127229809D01*
X223520000Y-127169333D01*
X223399047Y-127108857D01*
X223157142Y-127108857D01*
X223036190Y-127169333D01*
X221947619Y-127895047D02*
X222068571Y-127955523D01*
X222310476Y-127955523D01*
X222431428Y-127895047D01*
X222491904Y-127774095D01*
X222491904Y-127290285D01*
X222431428Y-127169333D01*
X222310476Y-127108857D01*
X222068571Y-127108857D01*
X221947619Y-127169333D01*
X221887142Y-127290285D01*
X221887142Y-127411238D01*
X222491904Y-127532190D01*
X219951904Y-127290285D02*
X220375238Y-127290285D01*
X220375238Y-127955523D02*
X220375238Y-126685523D01*
X219770476Y-126685523D01*
X218742380Y-127955523D02*
X218742380Y-127290285D01*
X218802857Y-127169333D01*
X218923809Y-127108857D01*
X219165714Y-127108857D01*
X219286666Y-127169333D01*
X218742380Y-127895047D02*
X218863333Y-127955523D01*
X219165714Y-127955523D01*
X219286666Y-127895047D01*
X219347142Y-127774095D01*
X219347142Y-127653142D01*
X219286666Y-127532190D01*
X219165714Y-127471714D01*
X218863333Y-127471714D01*
X218742380Y-127411238D01*
X217593333Y-127895047D02*
X217714285Y-127955523D01*
X217956190Y-127955523D01*
X218077142Y-127895047D01*
X218137619Y-127834571D01*
X218198095Y-127713619D01*
X218198095Y-127350761D01*
X218137619Y-127229809D01*
X218077142Y-127169333D01*
X217956190Y-127108857D01*
X217714285Y-127108857D01*
X217593333Y-127169333D01*
X216565238Y-127895047D02*
X216686190Y-127955523D01*
X216928095Y-127955523D01*
X217049047Y-127895047D01*
X217109523Y-127774095D01*
X217109523Y-127290285D01*
X217049047Y-127169333D01*
X216928095Y-127108857D01*
X216686190Y-127108857D01*
X216565238Y-127169333D01*
X216504761Y-127290285D01*
X216504761Y-127411238D01*
X217109523Y-127532190D01*
X216020952Y-127895047D02*
X215900000Y-127955523D01*
X215658095Y-127955523D01*
X215537142Y-127895047D01*
X215476666Y-127774095D01*
X215476666Y-127713619D01*
X215537142Y-127592666D01*
X215658095Y-127532190D01*
X215839523Y-127532190D01*
X215960476Y-127471714D01*
X216020952Y-127350761D01*
X216020952Y-127290285D01*
X215960476Y-127169333D01*
X215839523Y-127108857D01*
X215658095Y-127108857D01*
X215537142Y-127169333D01*
X213964761Y-127955523D02*
X213964761Y-126685523D01*
X213480952Y-126685523D01*
X213360000Y-126746000D01*
X213299523Y-126806476D01*
X213239047Y-126927428D01*
X213239047Y-127108857D01*
X213299523Y-127229809D01*
X213360000Y-127290285D01*
X213480952Y-127350761D01*
X213964761Y-127350761D01*
X212513333Y-127955523D02*
X212634285Y-127895047D01*
X212694761Y-127834571D01*
X212755238Y-127713619D01*
X212755238Y-127350761D01*
X212694761Y-127229809D01*
X212634285Y-127169333D01*
X212513333Y-127108857D01*
X212331904Y-127108857D01*
X212210952Y-127169333D01*
X212150476Y-127229809D01*
X212090000Y-127350761D01*
X212090000Y-127713619D01*
X212150476Y-127834571D01*
X212210952Y-127895047D01*
X212331904Y-127955523D01*
X212513333Y-127955523D01*
X211666666Y-127108857D02*
X211424761Y-127955523D01*
X211182857Y-127350761D01*
X210940952Y-127955523D01*
X210699047Y-127108857D01*
X209731428Y-127895047D02*
X209852380Y-127955523D01*
X210094285Y-127955523D01*
X210215238Y-127895047D01*
X210275714Y-127774095D01*
X210275714Y-127290285D01*
X210215238Y-127169333D01*
X210094285Y-127108857D01*
X209852380Y-127108857D01*
X209731428Y-127169333D01*
X209670952Y-127290285D01*
X209670952Y-127411238D01*
X210275714Y-127532190D01*
X209126666Y-127955523D02*
X209126666Y-127108857D01*
X209126666Y-127350761D02*
X209066190Y-127229809D01*
X209005714Y-127169333D01*
X208884761Y-127108857D01*
X208763809Y-127108857D01*
X207433333Y-127895047D02*
X207251904Y-127955523D01*
X206949523Y-127955523D01*
X206828571Y-127895047D01*
X206768095Y-127834571D01*
X206707619Y-127713619D01*
X206707619Y-127592666D01*
X206768095Y-127471714D01*
X206828571Y-127411238D01*
X206949523Y-127350761D01*
X207191428Y-127290285D01*
X207312380Y-127229809D01*
X207372857Y-127169333D01*
X207433333Y-127048380D01*
X207433333Y-126927428D01*
X207372857Y-126806476D01*
X207312380Y-126746000D01*
X207191428Y-126685523D01*
X206889047Y-126685523D01*
X206707619Y-126746000D01*
X205619047Y-127108857D02*
X205619047Y-127955523D01*
X206163333Y-127108857D02*
X206163333Y-127774095D01*
X206102857Y-127895047D01*
X205981904Y-127955523D01*
X205800476Y-127955523D01*
X205679523Y-127895047D01*
X205619047Y-127834571D01*
X205014285Y-127108857D02*
X205014285Y-128378857D01*
X205014285Y-127169333D02*
X204893333Y-127108857D01*
X204651428Y-127108857D01*
X204530476Y-127169333D01*
X204470000Y-127229809D01*
X204409523Y-127350761D01*
X204409523Y-127713619D01*
X204470000Y-127834571D01*
X204530476Y-127895047D01*
X204651428Y-127955523D01*
X204893333Y-127955523D01*
X205014285Y-127895047D01*
X203865238Y-127108857D02*
X203865238Y-128378857D01*
X203865238Y-127169333D02*
X203744285Y-127108857D01*
X203502380Y-127108857D01*
X203381428Y-127169333D01*
X203320952Y-127229809D01*
X203260476Y-127350761D01*
X203260476Y-127713619D01*
X203320952Y-127834571D01*
X203381428Y-127895047D01*
X203502380Y-127955523D01*
X203744285Y-127955523D01*
X203865238Y-127895047D01*
X202534761Y-127955523D02*
X202655714Y-127895047D01*
X202716190Y-127774095D01*
X202716190Y-126685523D01*
X202171904Y-127108857D02*
X201869523Y-127955523D01*
X201567142Y-127108857D02*
X201869523Y-127955523D01*
X201990476Y-128257904D01*
X202050952Y-128318380D01*
X202171904Y-128378857D01*
D11*
X272445238Y-129856895D02*
X271903371Y-129856895D01*
X272445238Y-130669695D01*
X271903371Y-130669695D01*
X271593733Y-130669695D02*
X271593733Y-129856895D01*
X271129276Y-130669695D02*
X271477619Y-130205238D01*
X271129276Y-129856895D02*
X271593733Y-130321352D01*
X270742228Y-130630990D02*
X270742228Y-130669695D01*
X270780933Y-130747104D01*
X270819638Y-130785809D01*
X269348857Y-129895600D02*
X269426266Y-129856895D01*
X269542380Y-129856895D01*
X269658495Y-129895600D01*
X269735904Y-129973009D01*
X269774609Y-130050419D01*
X269813314Y-130205238D01*
X269813314Y-130321352D01*
X269774609Y-130476171D01*
X269735904Y-130553580D01*
X269658495Y-130630990D01*
X269542380Y-130669695D01*
X269464971Y-130669695D01*
X269348857Y-130630990D01*
X269310152Y-130592285D01*
X269310152Y-130321352D01*
X269464971Y-130321352D01*
X268690876Y-130243942D02*
X268961809Y-130243942D01*
X268961809Y-130669695D02*
X268961809Y-129856895D01*
X268574761Y-129856895D01*
D10*
X232410000Y-126492000D02*
X233426000Y-128270000D01*
X231394000Y-128270000D02*
X232410000Y-126492000D01*
X233426000Y-128270000D02*
X231394000Y-128270000D01*
D12*
X232410000Y-127907142D02*
X232373714Y-127943428D01*
X232410000Y-127979714D01*
X232446285Y-127943428D01*
X232410000Y-127907142D01*
X232410000Y-127979714D01*
X232410000Y-127689428D02*
X232446285Y-127254000D01*
X232410000Y-127217714D01*
X232373714Y-127254000D01*
X232410000Y-127689428D01*
X232410000Y-127217714D01*
%LPC*%
D13*
G36*
X276606000Y-139446000D02*
G01*
X276098000Y-139954000D01*
X198882000Y-139954000D01*
X198374000Y-139446000D01*
X198374000Y-132080000D01*
X276606000Y-132080000D01*
X276606000Y-139446000D01*
G37*
D14*
X274320000Y-125857000D03*
D15*
X208026000Y-117475000D03*
X202946000Y-117475000D03*
X202946000Y-111760000D03*
X208026000Y-111760000D03*
D16*
X205486000Y-111760000D03*
X204470000Y-119380000D03*
X206502000Y-119380000D03*
D14*
X274066000Y-92202000D03*
D13*
G36*
X201105795Y-131563955D02*
G01*
X201145207Y-131569801D01*
X201183856Y-131579482D01*
X201221369Y-131592905D01*
X201257387Y-131609940D01*
X201291562Y-131630423D01*
X201323564Y-131654158D01*
X201353085Y-131680915D01*
X201379842Y-131710436D01*
X201403577Y-131742438D01*
X201424060Y-131776613D01*
X201441095Y-131812631D01*
X201454518Y-131850144D01*
X201464199Y-131888793D01*
X201470045Y-131928205D01*
X201472000Y-131968000D01*
X201472000Y-138596000D01*
X201470045Y-138635795D01*
X201464199Y-138675207D01*
X201454518Y-138713856D01*
X201441095Y-138751369D01*
X201424060Y-138787387D01*
X201403577Y-138821562D01*
X201379842Y-138853564D01*
X201353085Y-138883085D01*
X201323564Y-138909842D01*
X201291562Y-138933577D01*
X201257387Y-138954060D01*
X201221369Y-138971095D01*
X201183856Y-138984518D01*
X201145207Y-138994199D01*
X201105795Y-139000045D01*
X201066000Y-139002000D01*
X200254000Y-139002000D01*
X200214205Y-139000045D01*
X200174793Y-138994199D01*
X200136144Y-138984518D01*
X200098631Y-138971095D01*
X200062613Y-138954060D01*
X200028438Y-138933577D01*
X199996436Y-138909842D01*
X199966915Y-138883085D01*
X199940158Y-138853564D01*
X199916423Y-138821562D01*
X199895940Y-138787387D01*
X199878905Y-138751369D01*
X199865482Y-138713856D01*
X199855801Y-138675207D01*
X199849955Y-138635795D01*
X199848000Y-138596000D01*
X199848000Y-131968000D01*
X199849955Y-131928205D01*
X199855801Y-131888793D01*
X199865482Y-131850144D01*
X199878905Y-131812631D01*
X199895940Y-131776613D01*
X199916423Y-131742438D01*
X199940158Y-131710436D01*
X199966915Y-131680915D01*
X199996436Y-131654158D01*
X200028438Y-131630423D01*
X200062613Y-131609940D01*
X200098631Y-131592905D01*
X200136144Y-131579482D01*
X200174793Y-131569801D01*
X200214205Y-131563955D01*
X200254000Y-131562000D01*
X201066000Y-131562000D01*
X201105795Y-131563955D01*
G37*
G36*
X203645795Y-131563955D02*
G01*
X203685207Y-131569801D01*
X203723856Y-131579482D01*
X203761369Y-131592905D01*
X203797387Y-131609940D01*
X203831562Y-131630423D01*
X203863564Y-131654158D01*
X203893085Y-131680915D01*
X203919842Y-131710436D01*
X203943577Y-131742438D01*
X203964060Y-131776613D01*
X203981095Y-131812631D01*
X203994518Y-131850144D01*
X204004199Y-131888793D01*
X204010045Y-131928205D01*
X204012000Y-131968000D01*
X204012000Y-138596000D01*
X204010045Y-138635795D01*
X204004199Y-138675207D01*
X203994518Y-138713856D01*
X203981095Y-138751369D01*
X203964060Y-138787387D01*
X203943577Y-138821562D01*
X203919842Y-138853564D01*
X203893085Y-138883085D01*
X203863564Y-138909842D01*
X203831562Y-138933577D01*
X203797387Y-138954060D01*
X203761369Y-138971095D01*
X203723856Y-138984518D01*
X203685207Y-138994199D01*
X203645795Y-139000045D01*
X203606000Y-139002000D01*
X202794000Y-139002000D01*
X202754205Y-139000045D01*
X202714793Y-138994199D01*
X202676144Y-138984518D01*
X202638631Y-138971095D01*
X202602613Y-138954060D01*
X202568438Y-138933577D01*
X202536436Y-138909842D01*
X202506915Y-138883085D01*
X202480158Y-138853564D01*
X202456423Y-138821562D01*
X202435940Y-138787387D01*
X202418905Y-138751369D01*
X202405482Y-138713856D01*
X202395801Y-138675207D01*
X202389955Y-138635795D01*
X202388000Y-138596000D01*
X202388000Y-131968000D01*
X202389955Y-131928205D01*
X202395801Y-131888793D01*
X202405482Y-131850144D01*
X202418905Y-131812631D01*
X202435940Y-131776613D01*
X202456423Y-131742438D01*
X202480158Y-131710436D01*
X202506915Y-131680915D01*
X202536436Y-131654158D01*
X202568438Y-131630423D01*
X202602613Y-131609940D01*
X202638631Y-131592905D01*
X202676144Y-131579482D01*
X202714793Y-131569801D01*
X202754205Y-131563955D01*
X202794000Y-131562000D01*
X203606000Y-131562000D01*
X203645795Y-131563955D01*
G37*
G36*
X206185795Y-131563955D02*
G01*
X206225207Y-131569801D01*
X206263856Y-131579482D01*
X206301369Y-131592905D01*
X206337387Y-131609940D01*
X206371562Y-131630423D01*
X206403564Y-131654158D01*
X206433085Y-131680915D01*
X206459842Y-131710436D01*
X206483577Y-131742438D01*
X206504060Y-131776613D01*
X206521095Y-131812631D01*
X206534518Y-131850144D01*
X206544199Y-131888793D01*
X206550045Y-131928205D01*
X206552000Y-131968000D01*
X206552000Y-138596000D01*
X206550045Y-138635795D01*
X206544199Y-138675207D01*
X206534518Y-138713856D01*
X206521095Y-138751369D01*
X206504060Y-138787387D01*
X206483577Y-138821562D01*
X206459842Y-138853564D01*
X206433085Y-138883085D01*
X206403564Y-138909842D01*
X206371562Y-138933577D01*
X206337387Y-138954060D01*
X206301369Y-138971095D01*
X206263856Y-138984518D01*
X206225207Y-138994199D01*
X206185795Y-139000045D01*
X206146000Y-139002000D01*
X205334000Y-139002000D01*
X205294205Y-139000045D01*
X205254793Y-138994199D01*
X205216144Y-138984518D01*
X205178631Y-138971095D01*
X205142613Y-138954060D01*
X205108438Y-138933577D01*
X205076436Y-138909842D01*
X205046915Y-138883085D01*
X205020158Y-138853564D01*
X204996423Y-138821562D01*
X204975940Y-138787387D01*
X204958905Y-138751369D01*
X204945482Y-138713856D01*
X204935801Y-138675207D01*
X204929955Y-138635795D01*
X204928000Y-138596000D01*
X204928000Y-131968000D01*
X204929955Y-131928205D01*
X204935801Y-131888793D01*
X204945482Y-131850144D01*
X204958905Y-131812631D01*
X204975940Y-131776613D01*
X204996423Y-131742438D01*
X205020158Y-131710436D01*
X205046915Y-131680915D01*
X205076436Y-131654158D01*
X205108438Y-131630423D01*
X205142613Y-131609940D01*
X205178631Y-131592905D01*
X205216144Y-131579482D01*
X205254793Y-131569801D01*
X205294205Y-131563955D01*
X205334000Y-131562000D01*
X206146000Y-131562000D01*
X206185795Y-131563955D01*
G37*
G36*
X208725795Y-131563955D02*
G01*
X208765207Y-131569801D01*
X208803856Y-131579482D01*
X208841369Y-131592905D01*
X208877387Y-131609940D01*
X208911562Y-131630423D01*
X208943564Y-131654158D01*
X208973085Y-131680915D01*
X208999842Y-131710436D01*
X209023577Y-131742438D01*
X209044060Y-131776613D01*
X209061095Y-131812631D01*
X209074518Y-131850144D01*
X209084199Y-131888793D01*
X209090045Y-131928205D01*
X209092000Y-131968000D01*
X209092000Y-138596000D01*
X209090045Y-138635795D01*
X209084199Y-138675207D01*
X209074518Y-138713856D01*
X209061095Y-138751369D01*
X209044060Y-138787387D01*
X209023577Y-138821562D01*
X208999842Y-138853564D01*
X208973085Y-138883085D01*
X208943564Y-138909842D01*
X208911562Y-138933577D01*
X208877387Y-138954060D01*
X208841369Y-138971095D01*
X208803856Y-138984518D01*
X208765207Y-138994199D01*
X208725795Y-139000045D01*
X208686000Y-139002000D01*
X207874000Y-139002000D01*
X207834205Y-139000045D01*
X207794793Y-138994199D01*
X207756144Y-138984518D01*
X207718631Y-138971095D01*
X207682613Y-138954060D01*
X207648438Y-138933577D01*
X207616436Y-138909842D01*
X207586915Y-138883085D01*
X207560158Y-138853564D01*
X207536423Y-138821562D01*
X207515940Y-138787387D01*
X207498905Y-138751369D01*
X207485482Y-138713856D01*
X207475801Y-138675207D01*
X207469955Y-138635795D01*
X207468000Y-138596000D01*
X207468000Y-131968000D01*
X207469955Y-131928205D01*
X207475801Y-131888793D01*
X207485482Y-131850144D01*
X207498905Y-131812631D01*
X207515940Y-131776613D01*
X207536423Y-131742438D01*
X207560158Y-131710436D01*
X207586915Y-131680915D01*
X207616436Y-131654158D01*
X207648438Y-131630423D01*
X207682613Y-131609940D01*
X207718631Y-131592905D01*
X207756144Y-131579482D01*
X207794793Y-131569801D01*
X207834205Y-131563955D01*
X207874000Y-131562000D01*
X208686000Y-131562000D01*
X208725795Y-131563955D01*
G37*
G36*
X211265795Y-131563955D02*
G01*
X211305207Y-131569801D01*
X211343856Y-131579482D01*
X211381369Y-131592905D01*
X211417387Y-131609940D01*
X211451562Y-131630423D01*
X211483564Y-131654158D01*
X211513085Y-131680915D01*
X211539842Y-131710436D01*
X211563577Y-131742438D01*
X211584060Y-131776613D01*
X211601095Y-131812631D01*
X211614518Y-131850144D01*
X211624199Y-131888793D01*
X211630045Y-131928205D01*
X211632000Y-131968000D01*
X211632000Y-138596000D01*
X211630045Y-138635795D01*
X211624199Y-138675207D01*
X211614518Y-138713856D01*
X211601095Y-138751369D01*
X211584060Y-138787387D01*
X211563577Y-138821562D01*
X211539842Y-138853564D01*
X211513085Y-138883085D01*
X211483564Y-138909842D01*
X211451562Y-138933577D01*
X211417387Y-138954060D01*
X211381369Y-138971095D01*
X211343856Y-138984518D01*
X211305207Y-138994199D01*
X211265795Y-139000045D01*
X211226000Y-139002000D01*
X210414000Y-139002000D01*
X210374205Y-139000045D01*
X210334793Y-138994199D01*
X210296144Y-138984518D01*
X210258631Y-138971095D01*
X210222613Y-138954060D01*
X210188438Y-138933577D01*
X210156436Y-138909842D01*
X210126915Y-138883085D01*
X210100158Y-138853564D01*
X210076423Y-138821562D01*
X210055940Y-138787387D01*
X210038905Y-138751369D01*
X210025482Y-138713856D01*
X210015801Y-138675207D01*
X210009955Y-138635795D01*
X210008000Y-138596000D01*
X210008000Y-131968000D01*
X210009955Y-131928205D01*
X210015801Y-131888793D01*
X210025482Y-131850144D01*
X210038905Y-131812631D01*
X210055940Y-131776613D01*
X210076423Y-131742438D01*
X210100158Y-131710436D01*
X210126915Y-131680915D01*
X210156436Y-131654158D01*
X210188438Y-131630423D01*
X210222613Y-131609940D01*
X210258631Y-131592905D01*
X210296144Y-131579482D01*
X210334793Y-131569801D01*
X210374205Y-131563955D01*
X210414000Y-131562000D01*
X211226000Y-131562000D01*
X211265795Y-131563955D01*
G37*
G36*
X213805795Y-131563955D02*
G01*
X213845207Y-131569801D01*
X213883856Y-131579482D01*
X213921369Y-131592905D01*
X213957387Y-131609940D01*
X213991562Y-131630423D01*
X214023564Y-131654158D01*
X214053085Y-131680915D01*
X214079842Y-131710436D01*
X214103577Y-131742438D01*
X214124060Y-131776613D01*
X214141095Y-131812631D01*
X214154518Y-131850144D01*
X214164199Y-131888793D01*
X214170045Y-131928205D01*
X214172000Y-131968000D01*
X214172000Y-138596000D01*
X214170045Y-138635795D01*
X214164199Y-138675207D01*
X214154518Y-138713856D01*
X214141095Y-138751369D01*
X214124060Y-138787387D01*
X214103577Y-138821562D01*
X214079842Y-138853564D01*
X214053085Y-138883085D01*
X214023564Y-138909842D01*
X213991562Y-138933577D01*
X213957387Y-138954060D01*
X213921369Y-138971095D01*
X213883856Y-138984518D01*
X213845207Y-138994199D01*
X213805795Y-139000045D01*
X213766000Y-139002000D01*
X212954000Y-139002000D01*
X212914205Y-139000045D01*
X212874793Y-138994199D01*
X212836144Y-138984518D01*
X212798631Y-138971095D01*
X212762613Y-138954060D01*
X212728438Y-138933577D01*
X212696436Y-138909842D01*
X212666915Y-138883085D01*
X212640158Y-138853564D01*
X212616423Y-138821562D01*
X212595940Y-138787387D01*
X212578905Y-138751369D01*
X212565482Y-138713856D01*
X212555801Y-138675207D01*
X212549955Y-138635795D01*
X212548000Y-138596000D01*
X212548000Y-131968000D01*
X212549955Y-131928205D01*
X212555801Y-131888793D01*
X212565482Y-131850144D01*
X212578905Y-131812631D01*
X212595940Y-131776613D01*
X212616423Y-131742438D01*
X212640158Y-131710436D01*
X212666915Y-131680915D01*
X212696436Y-131654158D01*
X212728438Y-131630423D01*
X212762613Y-131609940D01*
X212798631Y-131592905D01*
X212836144Y-131579482D01*
X212874793Y-131569801D01*
X212914205Y-131563955D01*
X212954000Y-131562000D01*
X213766000Y-131562000D01*
X213805795Y-131563955D01*
G37*
G36*
X216345795Y-131563955D02*
G01*
X216385207Y-131569801D01*
X216423856Y-131579482D01*
X216461369Y-131592905D01*
X216497387Y-131609940D01*
X216531562Y-131630423D01*
X216563564Y-131654158D01*
X216593085Y-131680915D01*
X216619842Y-131710436D01*
X216643577Y-131742438D01*
X216664060Y-131776613D01*
X216681095Y-131812631D01*
X216694518Y-131850144D01*
X216704199Y-131888793D01*
X216710045Y-131928205D01*
X216712000Y-131968000D01*
X216712000Y-138596000D01*
X216710045Y-138635795D01*
X216704199Y-138675207D01*
X216694518Y-138713856D01*
X216681095Y-138751369D01*
X216664060Y-138787387D01*
X216643577Y-138821562D01*
X216619842Y-138853564D01*
X216593085Y-138883085D01*
X216563564Y-138909842D01*
X216531562Y-138933577D01*
X216497387Y-138954060D01*
X216461369Y-138971095D01*
X216423856Y-138984518D01*
X216385207Y-138994199D01*
X216345795Y-139000045D01*
X216306000Y-139002000D01*
X215494000Y-139002000D01*
X215454205Y-139000045D01*
X215414793Y-138994199D01*
X215376144Y-138984518D01*
X215338631Y-138971095D01*
X215302613Y-138954060D01*
X215268438Y-138933577D01*
X215236436Y-138909842D01*
X215206915Y-138883085D01*
X215180158Y-138853564D01*
X215156423Y-138821562D01*
X215135940Y-138787387D01*
X215118905Y-138751369D01*
X215105482Y-138713856D01*
X215095801Y-138675207D01*
X215089955Y-138635795D01*
X215088000Y-138596000D01*
X215088000Y-131968000D01*
X215089955Y-131928205D01*
X215095801Y-131888793D01*
X215105482Y-131850144D01*
X215118905Y-131812631D01*
X215135940Y-131776613D01*
X215156423Y-131742438D01*
X215180158Y-131710436D01*
X215206915Y-131680915D01*
X215236436Y-131654158D01*
X215268438Y-131630423D01*
X215302613Y-131609940D01*
X215338631Y-131592905D01*
X215376144Y-131579482D01*
X215414793Y-131569801D01*
X215454205Y-131563955D01*
X215494000Y-131562000D01*
X216306000Y-131562000D01*
X216345795Y-131563955D01*
G37*
G36*
X218885795Y-131563955D02*
G01*
X218925207Y-131569801D01*
X218963856Y-131579482D01*
X219001369Y-131592905D01*
X219037387Y-131609940D01*
X219071562Y-131630423D01*
X219103564Y-131654158D01*
X219133085Y-131680915D01*
X219159842Y-131710436D01*
X219183577Y-131742438D01*
X219204060Y-131776613D01*
X219221095Y-131812631D01*
X219234518Y-131850144D01*
X219244199Y-131888793D01*
X219250045Y-131928205D01*
X219252000Y-131968000D01*
X219252000Y-138596000D01*
X219250045Y-138635795D01*
X219244199Y-138675207D01*
X219234518Y-138713856D01*
X219221095Y-138751369D01*
X219204060Y-138787387D01*
X219183577Y-138821562D01*
X219159842Y-138853564D01*
X219133085Y-138883085D01*
X219103564Y-138909842D01*
X219071562Y-138933577D01*
X219037387Y-138954060D01*
X219001369Y-138971095D01*
X218963856Y-138984518D01*
X218925207Y-138994199D01*
X218885795Y-139000045D01*
X218846000Y-139002000D01*
X218034000Y-139002000D01*
X217994205Y-139000045D01*
X217954793Y-138994199D01*
X217916144Y-138984518D01*
X217878631Y-138971095D01*
X217842613Y-138954060D01*
X217808438Y-138933577D01*
X217776436Y-138909842D01*
X217746915Y-138883085D01*
X217720158Y-138853564D01*
X217696423Y-138821562D01*
X217675940Y-138787387D01*
X217658905Y-138751369D01*
X217645482Y-138713856D01*
X217635801Y-138675207D01*
X217629955Y-138635795D01*
X217628000Y-138596000D01*
X217628000Y-131968000D01*
X217629955Y-131928205D01*
X217635801Y-131888793D01*
X217645482Y-131850144D01*
X217658905Y-131812631D01*
X217675940Y-131776613D01*
X217696423Y-131742438D01*
X217720158Y-131710436D01*
X217746915Y-131680915D01*
X217776436Y-131654158D01*
X217808438Y-131630423D01*
X217842613Y-131609940D01*
X217878631Y-131592905D01*
X217916144Y-131579482D01*
X217954793Y-131569801D01*
X217994205Y-131563955D01*
X218034000Y-131562000D01*
X218846000Y-131562000D01*
X218885795Y-131563955D01*
G37*
G36*
X221425795Y-131563955D02*
G01*
X221465207Y-131569801D01*
X221503856Y-131579482D01*
X221541369Y-131592905D01*
X221577387Y-131609940D01*
X221611562Y-131630423D01*
X221643564Y-131654158D01*
X221673085Y-131680915D01*
X221699842Y-131710436D01*
X221723577Y-131742438D01*
X221744060Y-131776613D01*
X221761095Y-131812631D01*
X221774518Y-131850144D01*
X221784199Y-131888793D01*
X221790045Y-131928205D01*
X221792000Y-131968000D01*
X221792000Y-138596000D01*
X221790045Y-138635795D01*
X221784199Y-138675207D01*
X221774518Y-138713856D01*
X221761095Y-138751369D01*
X221744060Y-138787387D01*
X221723577Y-138821562D01*
X221699842Y-138853564D01*
X221673085Y-138883085D01*
X221643564Y-138909842D01*
X221611562Y-138933577D01*
X221577387Y-138954060D01*
X221541369Y-138971095D01*
X221503856Y-138984518D01*
X221465207Y-138994199D01*
X221425795Y-139000045D01*
X221386000Y-139002000D01*
X220574000Y-139002000D01*
X220534205Y-139000045D01*
X220494793Y-138994199D01*
X220456144Y-138984518D01*
X220418631Y-138971095D01*
X220382613Y-138954060D01*
X220348438Y-138933577D01*
X220316436Y-138909842D01*
X220286915Y-138883085D01*
X220260158Y-138853564D01*
X220236423Y-138821562D01*
X220215940Y-138787387D01*
X220198905Y-138751369D01*
X220185482Y-138713856D01*
X220175801Y-138675207D01*
X220169955Y-138635795D01*
X220168000Y-138596000D01*
X220168000Y-131968000D01*
X220169955Y-131928205D01*
X220175801Y-131888793D01*
X220185482Y-131850144D01*
X220198905Y-131812631D01*
X220215940Y-131776613D01*
X220236423Y-131742438D01*
X220260158Y-131710436D01*
X220286915Y-131680915D01*
X220316436Y-131654158D01*
X220348438Y-131630423D01*
X220382613Y-131609940D01*
X220418631Y-131592905D01*
X220456144Y-131579482D01*
X220494793Y-131569801D01*
X220534205Y-131563955D01*
X220574000Y-131562000D01*
X221386000Y-131562000D01*
X221425795Y-131563955D01*
G37*
G36*
X223965795Y-131563955D02*
G01*
X224005207Y-131569801D01*
X224043856Y-131579482D01*
X224081369Y-131592905D01*
X224117387Y-131609940D01*
X224151562Y-131630423D01*
X224183564Y-131654158D01*
X224213085Y-131680915D01*
X224239842Y-131710436D01*
X224263577Y-131742438D01*
X224284060Y-131776613D01*
X224301095Y-131812631D01*
X224314518Y-131850144D01*
X224324199Y-131888793D01*
X224330045Y-131928205D01*
X224332000Y-131968000D01*
X224332000Y-138596000D01*
X224330045Y-138635795D01*
X224324199Y-138675207D01*
X224314518Y-138713856D01*
X224301095Y-138751369D01*
X224284060Y-138787387D01*
X224263577Y-138821562D01*
X224239842Y-138853564D01*
X224213085Y-138883085D01*
X224183564Y-138909842D01*
X224151562Y-138933577D01*
X224117387Y-138954060D01*
X224081369Y-138971095D01*
X224043856Y-138984518D01*
X224005207Y-138994199D01*
X223965795Y-139000045D01*
X223926000Y-139002000D01*
X223114000Y-139002000D01*
X223074205Y-139000045D01*
X223034793Y-138994199D01*
X222996144Y-138984518D01*
X222958631Y-138971095D01*
X222922613Y-138954060D01*
X222888438Y-138933577D01*
X222856436Y-138909842D01*
X222826915Y-138883085D01*
X222800158Y-138853564D01*
X222776423Y-138821562D01*
X222755940Y-138787387D01*
X222738905Y-138751369D01*
X222725482Y-138713856D01*
X222715801Y-138675207D01*
X222709955Y-138635795D01*
X222708000Y-138596000D01*
X222708000Y-131968000D01*
X222709955Y-131928205D01*
X222715801Y-131888793D01*
X222725482Y-131850144D01*
X222738905Y-131812631D01*
X222755940Y-131776613D01*
X222776423Y-131742438D01*
X222800158Y-131710436D01*
X222826915Y-131680915D01*
X222856436Y-131654158D01*
X222888438Y-131630423D01*
X222922613Y-131609940D01*
X222958631Y-131592905D01*
X222996144Y-131579482D01*
X223034793Y-131569801D01*
X223074205Y-131563955D01*
X223114000Y-131562000D01*
X223926000Y-131562000D01*
X223965795Y-131563955D01*
G37*
G36*
X226505795Y-131563955D02*
G01*
X226545207Y-131569801D01*
X226583856Y-131579482D01*
X226621369Y-131592905D01*
X226657387Y-131609940D01*
X226691562Y-131630423D01*
X226723564Y-131654158D01*
X226753085Y-131680915D01*
X226779842Y-131710436D01*
X226803577Y-131742438D01*
X226824060Y-131776613D01*
X226841095Y-131812631D01*
X226854518Y-131850144D01*
X226864199Y-131888793D01*
X226870045Y-131928205D01*
X226872000Y-131968000D01*
X226872000Y-138596000D01*
X226870045Y-138635795D01*
X226864199Y-138675207D01*
X226854518Y-138713856D01*
X226841095Y-138751369D01*
X226824060Y-138787387D01*
X226803577Y-138821562D01*
X226779842Y-138853564D01*
X226753085Y-138883085D01*
X226723564Y-138909842D01*
X226691562Y-138933577D01*
X226657387Y-138954060D01*
X226621369Y-138971095D01*
X226583856Y-138984518D01*
X226545207Y-138994199D01*
X226505795Y-139000045D01*
X226466000Y-139002000D01*
X225654000Y-139002000D01*
X225614205Y-139000045D01*
X225574793Y-138994199D01*
X225536144Y-138984518D01*
X225498631Y-138971095D01*
X225462613Y-138954060D01*
X225428438Y-138933577D01*
X225396436Y-138909842D01*
X225366915Y-138883085D01*
X225340158Y-138853564D01*
X225316423Y-138821562D01*
X225295940Y-138787387D01*
X225278905Y-138751369D01*
X225265482Y-138713856D01*
X225255801Y-138675207D01*
X225249955Y-138635795D01*
X225248000Y-138596000D01*
X225248000Y-131968000D01*
X225249955Y-131928205D01*
X225255801Y-131888793D01*
X225265482Y-131850144D01*
X225278905Y-131812631D01*
X225295940Y-131776613D01*
X225316423Y-131742438D01*
X225340158Y-131710436D01*
X225366915Y-131680915D01*
X225396436Y-131654158D01*
X225428438Y-131630423D01*
X225462613Y-131609940D01*
X225498631Y-131592905D01*
X225536144Y-131579482D01*
X225574793Y-131569801D01*
X225614205Y-131563955D01*
X225654000Y-131562000D01*
X226466000Y-131562000D01*
X226505795Y-131563955D01*
G37*
G36*
X229045795Y-131563955D02*
G01*
X229085207Y-131569801D01*
X229123856Y-131579482D01*
X229161369Y-131592905D01*
X229197387Y-131609940D01*
X229231562Y-131630423D01*
X229263564Y-131654158D01*
X229293085Y-131680915D01*
X229319842Y-131710436D01*
X229343577Y-131742438D01*
X229364060Y-131776613D01*
X229381095Y-131812631D01*
X229394518Y-131850144D01*
X229404199Y-131888793D01*
X229410045Y-131928205D01*
X229412000Y-131968000D01*
X229412000Y-138596000D01*
X229410045Y-138635795D01*
X229404199Y-138675207D01*
X229394518Y-138713856D01*
X229381095Y-138751369D01*
X229364060Y-138787387D01*
X229343577Y-138821562D01*
X229319842Y-138853564D01*
X229293085Y-138883085D01*
X229263564Y-138909842D01*
X229231562Y-138933577D01*
X229197387Y-138954060D01*
X229161369Y-138971095D01*
X229123856Y-138984518D01*
X229085207Y-138994199D01*
X229045795Y-139000045D01*
X229006000Y-139002000D01*
X228194000Y-139002000D01*
X228154205Y-139000045D01*
X228114793Y-138994199D01*
X228076144Y-138984518D01*
X228038631Y-138971095D01*
X228002613Y-138954060D01*
X227968438Y-138933577D01*
X227936436Y-138909842D01*
X227906915Y-138883085D01*
X227880158Y-138853564D01*
X227856423Y-138821562D01*
X227835940Y-138787387D01*
X227818905Y-138751369D01*
X227805482Y-138713856D01*
X227795801Y-138675207D01*
X227789955Y-138635795D01*
X227788000Y-138596000D01*
X227788000Y-131968000D01*
X227789955Y-131928205D01*
X227795801Y-131888793D01*
X227805482Y-131850144D01*
X227818905Y-131812631D01*
X227835940Y-131776613D01*
X227856423Y-131742438D01*
X227880158Y-131710436D01*
X227906915Y-131680915D01*
X227936436Y-131654158D01*
X227968438Y-131630423D01*
X228002613Y-131609940D01*
X228038631Y-131592905D01*
X228076144Y-131579482D01*
X228114793Y-131569801D01*
X228154205Y-131563955D01*
X228194000Y-131562000D01*
X229006000Y-131562000D01*
X229045795Y-131563955D01*
G37*
G36*
X231585795Y-131563955D02*
G01*
X231625207Y-131569801D01*
X231663856Y-131579482D01*
X231701369Y-131592905D01*
X231737387Y-131609940D01*
X231771562Y-131630423D01*
X231803564Y-131654158D01*
X231833085Y-131680915D01*
X231859842Y-131710436D01*
X231883577Y-131742438D01*
X231904060Y-131776613D01*
X231921095Y-131812631D01*
X231934518Y-131850144D01*
X231944199Y-131888793D01*
X231950045Y-131928205D01*
X231952000Y-131968000D01*
X231952000Y-138596000D01*
X231950045Y-138635795D01*
X231944199Y-138675207D01*
X231934518Y-138713856D01*
X231921095Y-138751369D01*
X231904060Y-138787387D01*
X231883577Y-138821562D01*
X231859842Y-138853564D01*
X231833085Y-138883085D01*
X231803564Y-138909842D01*
X231771562Y-138933577D01*
X231737387Y-138954060D01*
X231701369Y-138971095D01*
X231663856Y-138984518D01*
X231625207Y-138994199D01*
X231585795Y-139000045D01*
X231546000Y-139002000D01*
X230734000Y-139002000D01*
X230694205Y-139000045D01*
X230654793Y-138994199D01*
X230616144Y-138984518D01*
X230578631Y-138971095D01*
X230542613Y-138954060D01*
X230508438Y-138933577D01*
X230476436Y-138909842D01*
X230446915Y-138883085D01*
X230420158Y-138853564D01*
X230396423Y-138821562D01*
X230375940Y-138787387D01*
X230358905Y-138751369D01*
X230345482Y-138713856D01*
X230335801Y-138675207D01*
X230329955Y-138635795D01*
X230328000Y-138596000D01*
X230328000Y-131968000D01*
X230329955Y-131928205D01*
X230335801Y-131888793D01*
X230345482Y-131850144D01*
X230358905Y-131812631D01*
X230375940Y-131776613D01*
X230396423Y-131742438D01*
X230420158Y-131710436D01*
X230446915Y-131680915D01*
X230476436Y-131654158D01*
X230508438Y-131630423D01*
X230542613Y-131609940D01*
X230578631Y-131592905D01*
X230616144Y-131579482D01*
X230654793Y-131569801D01*
X230694205Y-131563955D01*
X230734000Y-131562000D01*
X231546000Y-131562000D01*
X231585795Y-131563955D01*
G37*
G36*
X234125795Y-131563955D02*
G01*
X234165207Y-131569801D01*
X234203856Y-131579482D01*
X234241369Y-131592905D01*
X234277387Y-131609940D01*
X234311562Y-131630423D01*
X234343564Y-131654158D01*
X234373085Y-131680915D01*
X234399842Y-131710436D01*
X234423577Y-131742438D01*
X234444060Y-131776613D01*
X234461095Y-131812631D01*
X234474518Y-131850144D01*
X234484199Y-131888793D01*
X234490045Y-131928205D01*
X234492000Y-131968000D01*
X234492000Y-138596000D01*
X234490045Y-138635795D01*
X234484199Y-138675207D01*
X234474518Y-138713856D01*
X234461095Y-138751369D01*
X234444060Y-138787387D01*
X234423577Y-138821562D01*
X234399842Y-138853564D01*
X234373085Y-138883085D01*
X234343564Y-138909842D01*
X234311562Y-138933577D01*
X234277387Y-138954060D01*
X234241369Y-138971095D01*
X234203856Y-138984518D01*
X234165207Y-138994199D01*
X234125795Y-139000045D01*
X234086000Y-139002000D01*
X233274000Y-139002000D01*
X233234205Y-139000045D01*
X233194793Y-138994199D01*
X233156144Y-138984518D01*
X233118631Y-138971095D01*
X233082613Y-138954060D01*
X233048438Y-138933577D01*
X233016436Y-138909842D01*
X232986915Y-138883085D01*
X232960158Y-138853564D01*
X232936423Y-138821562D01*
X232915940Y-138787387D01*
X232898905Y-138751369D01*
X232885482Y-138713856D01*
X232875801Y-138675207D01*
X232869955Y-138635795D01*
X232868000Y-138596000D01*
X232868000Y-131968000D01*
X232869955Y-131928205D01*
X232875801Y-131888793D01*
X232885482Y-131850144D01*
X232898905Y-131812631D01*
X232915940Y-131776613D01*
X232936423Y-131742438D01*
X232960158Y-131710436D01*
X232986915Y-131680915D01*
X233016436Y-131654158D01*
X233048438Y-131630423D01*
X233082613Y-131609940D01*
X233118631Y-131592905D01*
X233156144Y-131579482D01*
X233194793Y-131569801D01*
X233234205Y-131563955D01*
X233274000Y-131562000D01*
X234086000Y-131562000D01*
X234125795Y-131563955D01*
G37*
G36*
X236665795Y-131563955D02*
G01*
X236705207Y-131569801D01*
X236743856Y-131579482D01*
X236781369Y-131592905D01*
X236817387Y-131609940D01*
X236851562Y-131630423D01*
X236883564Y-131654158D01*
X236913085Y-131680915D01*
X236939842Y-131710436D01*
X236963577Y-131742438D01*
X236984060Y-131776613D01*
X237001095Y-131812631D01*
X237014518Y-131850144D01*
X237024199Y-131888793D01*
X237030045Y-131928205D01*
X237032000Y-131968000D01*
X237032000Y-138596000D01*
X237030045Y-138635795D01*
X237024199Y-138675207D01*
X237014518Y-138713856D01*
X237001095Y-138751369D01*
X236984060Y-138787387D01*
X236963577Y-138821562D01*
X236939842Y-138853564D01*
X236913085Y-138883085D01*
X236883564Y-138909842D01*
X236851562Y-138933577D01*
X236817387Y-138954060D01*
X236781369Y-138971095D01*
X236743856Y-138984518D01*
X236705207Y-138994199D01*
X236665795Y-139000045D01*
X236626000Y-139002000D01*
X235814000Y-139002000D01*
X235774205Y-139000045D01*
X235734793Y-138994199D01*
X235696144Y-138984518D01*
X235658631Y-138971095D01*
X235622613Y-138954060D01*
X235588438Y-138933577D01*
X235556436Y-138909842D01*
X235526915Y-138883085D01*
X235500158Y-138853564D01*
X235476423Y-138821562D01*
X235455940Y-138787387D01*
X235438905Y-138751369D01*
X235425482Y-138713856D01*
X235415801Y-138675207D01*
X235409955Y-138635795D01*
X235408000Y-138596000D01*
X235408000Y-131968000D01*
X235409955Y-131928205D01*
X235415801Y-131888793D01*
X235425482Y-131850144D01*
X235438905Y-131812631D01*
X235455940Y-131776613D01*
X235476423Y-131742438D01*
X235500158Y-131710436D01*
X235526915Y-131680915D01*
X235556436Y-131654158D01*
X235588438Y-131630423D01*
X235622613Y-131609940D01*
X235658631Y-131592905D01*
X235696144Y-131579482D01*
X235734793Y-131569801D01*
X235774205Y-131563955D01*
X235814000Y-131562000D01*
X236626000Y-131562000D01*
X236665795Y-131563955D01*
G37*
G36*
X239205795Y-131563955D02*
G01*
X239245207Y-131569801D01*
X239283856Y-131579482D01*
X239321369Y-131592905D01*
X239357387Y-131609940D01*
X239391562Y-131630423D01*
X239423564Y-131654158D01*
X239453085Y-131680915D01*
X239479842Y-131710436D01*
X239503577Y-131742438D01*
X239524060Y-131776613D01*
X239541095Y-131812631D01*
X239554518Y-131850144D01*
X239564199Y-131888793D01*
X239570045Y-131928205D01*
X239572000Y-131968000D01*
X239572000Y-138596000D01*
X239570045Y-138635795D01*
X239564199Y-138675207D01*
X239554518Y-138713856D01*
X239541095Y-138751369D01*
X239524060Y-138787387D01*
X239503577Y-138821562D01*
X239479842Y-138853564D01*
X239453085Y-138883085D01*
X239423564Y-138909842D01*
X239391562Y-138933577D01*
X239357387Y-138954060D01*
X239321369Y-138971095D01*
X239283856Y-138984518D01*
X239245207Y-138994199D01*
X239205795Y-139000045D01*
X239166000Y-139002000D01*
X238354000Y-139002000D01*
X238314205Y-139000045D01*
X238274793Y-138994199D01*
X238236144Y-138984518D01*
X238198631Y-138971095D01*
X238162613Y-138954060D01*
X238128438Y-138933577D01*
X238096436Y-138909842D01*
X238066915Y-138883085D01*
X238040158Y-138853564D01*
X238016423Y-138821562D01*
X237995940Y-138787387D01*
X237978905Y-138751369D01*
X237965482Y-138713856D01*
X237955801Y-138675207D01*
X237949955Y-138635795D01*
X237948000Y-138596000D01*
X237948000Y-131968000D01*
X237949955Y-131928205D01*
X237955801Y-131888793D01*
X237965482Y-131850144D01*
X237978905Y-131812631D01*
X237995940Y-131776613D01*
X238016423Y-131742438D01*
X238040158Y-131710436D01*
X238066915Y-131680915D01*
X238096436Y-131654158D01*
X238128438Y-131630423D01*
X238162613Y-131609940D01*
X238198631Y-131592905D01*
X238236144Y-131579482D01*
X238274793Y-131569801D01*
X238314205Y-131563955D01*
X238354000Y-131562000D01*
X239166000Y-131562000D01*
X239205795Y-131563955D01*
G37*
G36*
X241745795Y-131563955D02*
G01*
X241785207Y-131569801D01*
X241823856Y-131579482D01*
X241861369Y-131592905D01*
X241897387Y-131609940D01*
X241931562Y-131630423D01*
X241963564Y-131654158D01*
X241993085Y-131680915D01*
X242019842Y-131710436D01*
X242043577Y-131742438D01*
X242064060Y-131776613D01*
X242081095Y-131812631D01*
X242094518Y-131850144D01*
X242104199Y-131888793D01*
X242110045Y-131928205D01*
X242112000Y-131968000D01*
X242112000Y-138596000D01*
X242110045Y-138635795D01*
X242104199Y-138675207D01*
X242094518Y-138713856D01*
X242081095Y-138751369D01*
X242064060Y-138787387D01*
X242043577Y-138821562D01*
X242019842Y-138853564D01*
X241993085Y-138883085D01*
X241963564Y-138909842D01*
X241931562Y-138933577D01*
X241897387Y-138954060D01*
X241861369Y-138971095D01*
X241823856Y-138984518D01*
X241785207Y-138994199D01*
X241745795Y-139000045D01*
X241706000Y-139002000D01*
X240894000Y-139002000D01*
X240854205Y-139000045D01*
X240814793Y-138994199D01*
X240776144Y-138984518D01*
X240738631Y-138971095D01*
X240702613Y-138954060D01*
X240668438Y-138933577D01*
X240636436Y-138909842D01*
X240606915Y-138883085D01*
X240580158Y-138853564D01*
X240556423Y-138821562D01*
X240535940Y-138787387D01*
X240518905Y-138751369D01*
X240505482Y-138713856D01*
X240495801Y-138675207D01*
X240489955Y-138635795D01*
X240488000Y-138596000D01*
X240488000Y-131968000D01*
X240489955Y-131928205D01*
X240495801Y-131888793D01*
X240505482Y-131850144D01*
X240518905Y-131812631D01*
X240535940Y-131776613D01*
X240556423Y-131742438D01*
X240580158Y-131710436D01*
X240606915Y-131680915D01*
X240636436Y-131654158D01*
X240668438Y-131630423D01*
X240702613Y-131609940D01*
X240738631Y-131592905D01*
X240776144Y-131579482D01*
X240814793Y-131569801D01*
X240854205Y-131563955D01*
X240894000Y-131562000D01*
X241706000Y-131562000D01*
X241745795Y-131563955D01*
G37*
G36*
X244285795Y-131563955D02*
G01*
X244325207Y-131569801D01*
X244363856Y-131579482D01*
X244401369Y-131592905D01*
X244437387Y-131609940D01*
X244471562Y-131630423D01*
X244503564Y-131654158D01*
X244533085Y-131680915D01*
X244559842Y-131710436D01*
X244583577Y-131742438D01*
X244604060Y-131776613D01*
X244621095Y-131812631D01*
X244634518Y-131850144D01*
X244644199Y-131888793D01*
X244650045Y-131928205D01*
X244652000Y-131968000D01*
X244652000Y-138596000D01*
X244650045Y-138635795D01*
X244644199Y-138675207D01*
X244634518Y-138713856D01*
X244621095Y-138751369D01*
X244604060Y-138787387D01*
X244583577Y-138821562D01*
X244559842Y-138853564D01*
X244533085Y-138883085D01*
X244503564Y-138909842D01*
X244471562Y-138933577D01*
X244437387Y-138954060D01*
X244401369Y-138971095D01*
X244363856Y-138984518D01*
X244325207Y-138994199D01*
X244285795Y-139000045D01*
X244246000Y-139002000D01*
X243434000Y-139002000D01*
X243394205Y-139000045D01*
X243354793Y-138994199D01*
X243316144Y-138984518D01*
X243278631Y-138971095D01*
X243242613Y-138954060D01*
X243208438Y-138933577D01*
X243176436Y-138909842D01*
X243146915Y-138883085D01*
X243120158Y-138853564D01*
X243096423Y-138821562D01*
X243075940Y-138787387D01*
X243058905Y-138751369D01*
X243045482Y-138713856D01*
X243035801Y-138675207D01*
X243029955Y-138635795D01*
X243028000Y-138596000D01*
X243028000Y-131968000D01*
X243029955Y-131928205D01*
X243035801Y-131888793D01*
X243045482Y-131850144D01*
X243058905Y-131812631D01*
X243075940Y-131776613D01*
X243096423Y-131742438D01*
X243120158Y-131710436D01*
X243146915Y-131680915D01*
X243176436Y-131654158D01*
X243208438Y-131630423D01*
X243242613Y-131609940D01*
X243278631Y-131592905D01*
X243316144Y-131579482D01*
X243354793Y-131569801D01*
X243394205Y-131563955D01*
X243434000Y-131562000D01*
X244246000Y-131562000D01*
X244285795Y-131563955D01*
G37*
G36*
X246825795Y-131563955D02*
G01*
X246865207Y-131569801D01*
X246903856Y-131579482D01*
X246941369Y-131592905D01*
X246977387Y-131609940D01*
X247011562Y-131630423D01*
X247043564Y-131654158D01*
X247073085Y-131680915D01*
X247099842Y-131710436D01*
X247123577Y-131742438D01*
X247144060Y-131776613D01*
X247161095Y-131812631D01*
X247174518Y-131850144D01*
X247184199Y-131888793D01*
X247190045Y-131928205D01*
X247192000Y-131968000D01*
X247192000Y-138596000D01*
X247190045Y-138635795D01*
X247184199Y-138675207D01*
X247174518Y-138713856D01*
X247161095Y-138751369D01*
X247144060Y-138787387D01*
X247123577Y-138821562D01*
X247099842Y-138853564D01*
X247073085Y-138883085D01*
X247043564Y-138909842D01*
X247011562Y-138933577D01*
X246977387Y-138954060D01*
X246941369Y-138971095D01*
X246903856Y-138984518D01*
X246865207Y-138994199D01*
X246825795Y-139000045D01*
X246786000Y-139002000D01*
X245974000Y-139002000D01*
X245934205Y-139000045D01*
X245894793Y-138994199D01*
X245856144Y-138984518D01*
X245818631Y-138971095D01*
X245782613Y-138954060D01*
X245748438Y-138933577D01*
X245716436Y-138909842D01*
X245686915Y-138883085D01*
X245660158Y-138853564D01*
X245636423Y-138821562D01*
X245615940Y-138787387D01*
X245598905Y-138751369D01*
X245585482Y-138713856D01*
X245575801Y-138675207D01*
X245569955Y-138635795D01*
X245568000Y-138596000D01*
X245568000Y-131968000D01*
X245569955Y-131928205D01*
X245575801Y-131888793D01*
X245585482Y-131850144D01*
X245598905Y-131812631D01*
X245615940Y-131776613D01*
X245636423Y-131742438D01*
X245660158Y-131710436D01*
X245686915Y-131680915D01*
X245716436Y-131654158D01*
X245748438Y-131630423D01*
X245782613Y-131609940D01*
X245818631Y-131592905D01*
X245856144Y-131579482D01*
X245894793Y-131569801D01*
X245934205Y-131563955D01*
X245974000Y-131562000D01*
X246786000Y-131562000D01*
X246825795Y-131563955D01*
G37*
G36*
X249365795Y-131563955D02*
G01*
X249405207Y-131569801D01*
X249443856Y-131579482D01*
X249481369Y-131592905D01*
X249517387Y-131609940D01*
X249551562Y-131630423D01*
X249583564Y-131654158D01*
X249613085Y-131680915D01*
X249639842Y-131710436D01*
X249663577Y-131742438D01*
X249684060Y-131776613D01*
X249701095Y-131812631D01*
X249714518Y-131850144D01*
X249724199Y-131888793D01*
X249730045Y-131928205D01*
X249732000Y-131968000D01*
X249732000Y-138596000D01*
X249730045Y-138635795D01*
X249724199Y-138675207D01*
X249714518Y-138713856D01*
X249701095Y-138751369D01*
X249684060Y-138787387D01*
X249663577Y-138821562D01*
X249639842Y-138853564D01*
X249613085Y-138883085D01*
X249583564Y-138909842D01*
X249551562Y-138933577D01*
X249517387Y-138954060D01*
X249481369Y-138971095D01*
X249443856Y-138984518D01*
X249405207Y-138994199D01*
X249365795Y-139000045D01*
X249326000Y-139002000D01*
X248514000Y-139002000D01*
X248474205Y-139000045D01*
X248434793Y-138994199D01*
X248396144Y-138984518D01*
X248358631Y-138971095D01*
X248322613Y-138954060D01*
X248288438Y-138933577D01*
X248256436Y-138909842D01*
X248226915Y-138883085D01*
X248200158Y-138853564D01*
X248176423Y-138821562D01*
X248155940Y-138787387D01*
X248138905Y-138751369D01*
X248125482Y-138713856D01*
X248115801Y-138675207D01*
X248109955Y-138635795D01*
X248108000Y-138596000D01*
X248108000Y-131968000D01*
X248109955Y-131928205D01*
X248115801Y-131888793D01*
X248125482Y-131850144D01*
X248138905Y-131812631D01*
X248155940Y-131776613D01*
X248176423Y-131742438D01*
X248200158Y-131710436D01*
X248226915Y-131680915D01*
X248256436Y-131654158D01*
X248288438Y-131630423D01*
X248322613Y-131609940D01*
X248358631Y-131592905D01*
X248396144Y-131579482D01*
X248434793Y-131569801D01*
X248474205Y-131563955D01*
X248514000Y-131562000D01*
X249326000Y-131562000D01*
X249365795Y-131563955D01*
G37*
G36*
X251905795Y-131563955D02*
G01*
X251945207Y-131569801D01*
X251983856Y-131579482D01*
X252021369Y-131592905D01*
X252057387Y-131609940D01*
X252091562Y-131630423D01*
X252123564Y-131654158D01*
X252153085Y-131680915D01*
X252179842Y-131710436D01*
X252203577Y-131742438D01*
X252224060Y-131776613D01*
X252241095Y-131812631D01*
X252254518Y-131850144D01*
X252264199Y-131888793D01*
X252270045Y-131928205D01*
X252272000Y-131968000D01*
X252272000Y-138596000D01*
X252270045Y-138635795D01*
X252264199Y-138675207D01*
X252254518Y-138713856D01*
X252241095Y-138751369D01*
X252224060Y-138787387D01*
X252203577Y-138821562D01*
X252179842Y-138853564D01*
X252153085Y-138883085D01*
X252123564Y-138909842D01*
X252091562Y-138933577D01*
X252057387Y-138954060D01*
X252021369Y-138971095D01*
X251983856Y-138984518D01*
X251945207Y-138994199D01*
X251905795Y-139000045D01*
X251866000Y-139002000D01*
X251054000Y-139002000D01*
X251014205Y-139000045D01*
X250974793Y-138994199D01*
X250936144Y-138984518D01*
X250898631Y-138971095D01*
X250862613Y-138954060D01*
X250828438Y-138933577D01*
X250796436Y-138909842D01*
X250766915Y-138883085D01*
X250740158Y-138853564D01*
X250716423Y-138821562D01*
X250695940Y-138787387D01*
X250678905Y-138751369D01*
X250665482Y-138713856D01*
X250655801Y-138675207D01*
X250649955Y-138635795D01*
X250648000Y-138596000D01*
X250648000Y-131968000D01*
X250649955Y-131928205D01*
X250655801Y-131888793D01*
X250665482Y-131850144D01*
X250678905Y-131812631D01*
X250695940Y-131776613D01*
X250716423Y-131742438D01*
X250740158Y-131710436D01*
X250766915Y-131680915D01*
X250796436Y-131654158D01*
X250828438Y-131630423D01*
X250862613Y-131609940D01*
X250898631Y-131592905D01*
X250936144Y-131579482D01*
X250974793Y-131569801D01*
X251014205Y-131563955D01*
X251054000Y-131562000D01*
X251866000Y-131562000D01*
X251905795Y-131563955D01*
G37*
G36*
X254445795Y-131563955D02*
G01*
X254485207Y-131569801D01*
X254523856Y-131579482D01*
X254561369Y-131592905D01*
X254597387Y-131609940D01*
X254631562Y-131630423D01*
X254663564Y-131654158D01*
X254693085Y-131680915D01*
X254719842Y-131710436D01*
X254743577Y-131742438D01*
X254764060Y-131776613D01*
X254781095Y-131812631D01*
X254794518Y-131850144D01*
X254804199Y-131888793D01*
X254810045Y-131928205D01*
X254812000Y-131968000D01*
X254812000Y-138596000D01*
X254810045Y-138635795D01*
X254804199Y-138675207D01*
X254794518Y-138713856D01*
X254781095Y-138751369D01*
X254764060Y-138787387D01*
X254743577Y-138821562D01*
X254719842Y-138853564D01*
X254693085Y-138883085D01*
X254663564Y-138909842D01*
X254631562Y-138933577D01*
X254597387Y-138954060D01*
X254561369Y-138971095D01*
X254523856Y-138984518D01*
X254485207Y-138994199D01*
X254445795Y-139000045D01*
X254406000Y-139002000D01*
X253594000Y-139002000D01*
X253554205Y-139000045D01*
X253514793Y-138994199D01*
X253476144Y-138984518D01*
X253438631Y-138971095D01*
X253402613Y-138954060D01*
X253368438Y-138933577D01*
X253336436Y-138909842D01*
X253306915Y-138883085D01*
X253280158Y-138853564D01*
X253256423Y-138821562D01*
X253235940Y-138787387D01*
X253218905Y-138751369D01*
X253205482Y-138713856D01*
X253195801Y-138675207D01*
X253189955Y-138635795D01*
X253188000Y-138596000D01*
X253188000Y-131968000D01*
X253189955Y-131928205D01*
X253195801Y-131888793D01*
X253205482Y-131850144D01*
X253218905Y-131812631D01*
X253235940Y-131776613D01*
X253256423Y-131742438D01*
X253280158Y-131710436D01*
X253306915Y-131680915D01*
X253336436Y-131654158D01*
X253368438Y-131630423D01*
X253402613Y-131609940D01*
X253438631Y-131592905D01*
X253476144Y-131579482D01*
X253514793Y-131569801D01*
X253554205Y-131563955D01*
X253594000Y-131562000D01*
X254406000Y-131562000D01*
X254445795Y-131563955D01*
G37*
G36*
X256985795Y-131563955D02*
G01*
X257025207Y-131569801D01*
X257063856Y-131579482D01*
X257101369Y-131592905D01*
X257137387Y-131609940D01*
X257171562Y-131630423D01*
X257203564Y-131654158D01*
X257233085Y-131680915D01*
X257259842Y-131710436D01*
X257283577Y-131742438D01*
X257304060Y-131776613D01*
X257321095Y-131812631D01*
X257334518Y-131850144D01*
X257344199Y-131888793D01*
X257350045Y-131928205D01*
X257352000Y-131968000D01*
X257352000Y-138596000D01*
X257350045Y-138635795D01*
X257344199Y-138675207D01*
X257334518Y-138713856D01*
X257321095Y-138751369D01*
X257304060Y-138787387D01*
X257283577Y-138821562D01*
X257259842Y-138853564D01*
X257233085Y-138883085D01*
X257203564Y-138909842D01*
X257171562Y-138933577D01*
X257137387Y-138954060D01*
X257101369Y-138971095D01*
X257063856Y-138984518D01*
X257025207Y-138994199D01*
X256985795Y-139000045D01*
X256946000Y-139002000D01*
X256134000Y-139002000D01*
X256094205Y-139000045D01*
X256054793Y-138994199D01*
X256016144Y-138984518D01*
X255978631Y-138971095D01*
X255942613Y-138954060D01*
X255908438Y-138933577D01*
X255876436Y-138909842D01*
X255846915Y-138883085D01*
X255820158Y-138853564D01*
X255796423Y-138821562D01*
X255775940Y-138787387D01*
X255758905Y-138751369D01*
X255745482Y-138713856D01*
X255735801Y-138675207D01*
X255729955Y-138635795D01*
X255728000Y-138596000D01*
X255728000Y-131968000D01*
X255729955Y-131928205D01*
X255735801Y-131888793D01*
X255745482Y-131850144D01*
X255758905Y-131812631D01*
X255775940Y-131776613D01*
X255796423Y-131742438D01*
X255820158Y-131710436D01*
X255846915Y-131680915D01*
X255876436Y-131654158D01*
X255908438Y-131630423D01*
X255942613Y-131609940D01*
X255978631Y-131592905D01*
X256016144Y-131579482D01*
X256054793Y-131569801D01*
X256094205Y-131563955D01*
X256134000Y-131562000D01*
X256946000Y-131562000D01*
X256985795Y-131563955D01*
G37*
G36*
X259525795Y-131563955D02*
G01*
X259565207Y-131569801D01*
X259603856Y-131579482D01*
X259641369Y-131592905D01*
X259677387Y-131609940D01*
X259711562Y-131630423D01*
X259743564Y-131654158D01*
X259773085Y-131680915D01*
X259799842Y-131710436D01*
X259823577Y-131742438D01*
X259844060Y-131776613D01*
X259861095Y-131812631D01*
X259874518Y-131850144D01*
X259884199Y-131888793D01*
X259890045Y-131928205D01*
X259892000Y-131968000D01*
X259892000Y-138596000D01*
X259890045Y-138635795D01*
X259884199Y-138675207D01*
X259874518Y-138713856D01*
X259861095Y-138751369D01*
X259844060Y-138787387D01*
X259823577Y-138821562D01*
X259799842Y-138853564D01*
X259773085Y-138883085D01*
X259743564Y-138909842D01*
X259711562Y-138933577D01*
X259677387Y-138954060D01*
X259641369Y-138971095D01*
X259603856Y-138984518D01*
X259565207Y-138994199D01*
X259525795Y-139000045D01*
X259486000Y-139002000D01*
X258674000Y-139002000D01*
X258634205Y-139000045D01*
X258594793Y-138994199D01*
X258556144Y-138984518D01*
X258518631Y-138971095D01*
X258482613Y-138954060D01*
X258448438Y-138933577D01*
X258416436Y-138909842D01*
X258386915Y-138883085D01*
X258360158Y-138853564D01*
X258336423Y-138821562D01*
X258315940Y-138787387D01*
X258298905Y-138751369D01*
X258285482Y-138713856D01*
X258275801Y-138675207D01*
X258269955Y-138635795D01*
X258268000Y-138596000D01*
X258268000Y-131968000D01*
X258269955Y-131928205D01*
X258275801Y-131888793D01*
X258285482Y-131850144D01*
X258298905Y-131812631D01*
X258315940Y-131776613D01*
X258336423Y-131742438D01*
X258360158Y-131710436D01*
X258386915Y-131680915D01*
X258416436Y-131654158D01*
X258448438Y-131630423D01*
X258482613Y-131609940D01*
X258518631Y-131592905D01*
X258556144Y-131579482D01*
X258594793Y-131569801D01*
X258634205Y-131563955D01*
X258674000Y-131562000D01*
X259486000Y-131562000D01*
X259525795Y-131563955D01*
G37*
G36*
X262065795Y-131563955D02*
G01*
X262105207Y-131569801D01*
X262143856Y-131579482D01*
X262181369Y-131592905D01*
X262217387Y-131609940D01*
X262251562Y-131630423D01*
X262283564Y-131654158D01*
X262313085Y-131680915D01*
X262339842Y-131710436D01*
X262363577Y-131742438D01*
X262384060Y-131776613D01*
X262401095Y-131812631D01*
X262414518Y-131850144D01*
X262424199Y-131888793D01*
X262430045Y-131928205D01*
X262432000Y-131968000D01*
X262432000Y-138596000D01*
X262430045Y-138635795D01*
X262424199Y-138675207D01*
X262414518Y-138713856D01*
X262401095Y-138751369D01*
X262384060Y-138787387D01*
X262363577Y-138821562D01*
X262339842Y-138853564D01*
X262313085Y-138883085D01*
X262283564Y-138909842D01*
X262251562Y-138933577D01*
X262217387Y-138954060D01*
X262181369Y-138971095D01*
X262143856Y-138984518D01*
X262105207Y-138994199D01*
X262065795Y-139000045D01*
X262026000Y-139002000D01*
X261214000Y-139002000D01*
X261174205Y-139000045D01*
X261134793Y-138994199D01*
X261096144Y-138984518D01*
X261058631Y-138971095D01*
X261022613Y-138954060D01*
X260988438Y-138933577D01*
X260956436Y-138909842D01*
X260926915Y-138883085D01*
X260900158Y-138853564D01*
X260876423Y-138821562D01*
X260855940Y-138787387D01*
X260838905Y-138751369D01*
X260825482Y-138713856D01*
X260815801Y-138675207D01*
X260809955Y-138635795D01*
X260808000Y-138596000D01*
X260808000Y-131968000D01*
X260809955Y-131928205D01*
X260815801Y-131888793D01*
X260825482Y-131850144D01*
X260838905Y-131812631D01*
X260855940Y-131776613D01*
X260876423Y-131742438D01*
X260900158Y-131710436D01*
X260926915Y-131680915D01*
X260956436Y-131654158D01*
X260988438Y-131630423D01*
X261022613Y-131609940D01*
X261058631Y-131592905D01*
X261096144Y-131579482D01*
X261134793Y-131569801D01*
X261174205Y-131563955D01*
X261214000Y-131562000D01*
X262026000Y-131562000D01*
X262065795Y-131563955D01*
G37*
G36*
X264605795Y-131563955D02*
G01*
X264645207Y-131569801D01*
X264683856Y-131579482D01*
X264721369Y-131592905D01*
X264757387Y-131609940D01*
X264791562Y-131630423D01*
X264823564Y-131654158D01*
X264853085Y-131680915D01*
X264879842Y-131710436D01*
X264903577Y-131742438D01*
X264924060Y-131776613D01*
X264941095Y-131812631D01*
X264954518Y-131850144D01*
X264964199Y-131888793D01*
X264970045Y-131928205D01*
X264972000Y-131968000D01*
X264972000Y-138596000D01*
X264970045Y-138635795D01*
X264964199Y-138675207D01*
X264954518Y-138713856D01*
X264941095Y-138751369D01*
X264924060Y-138787387D01*
X264903577Y-138821562D01*
X264879842Y-138853564D01*
X264853085Y-138883085D01*
X264823564Y-138909842D01*
X264791562Y-138933577D01*
X264757387Y-138954060D01*
X264721369Y-138971095D01*
X264683856Y-138984518D01*
X264645207Y-138994199D01*
X264605795Y-139000045D01*
X264566000Y-139002000D01*
X263754000Y-139002000D01*
X263714205Y-139000045D01*
X263674793Y-138994199D01*
X263636144Y-138984518D01*
X263598631Y-138971095D01*
X263562613Y-138954060D01*
X263528438Y-138933577D01*
X263496436Y-138909842D01*
X263466915Y-138883085D01*
X263440158Y-138853564D01*
X263416423Y-138821562D01*
X263395940Y-138787387D01*
X263378905Y-138751369D01*
X263365482Y-138713856D01*
X263355801Y-138675207D01*
X263349955Y-138635795D01*
X263348000Y-138596000D01*
X263348000Y-131968000D01*
X263349955Y-131928205D01*
X263355801Y-131888793D01*
X263365482Y-131850144D01*
X263378905Y-131812631D01*
X263395940Y-131776613D01*
X263416423Y-131742438D01*
X263440158Y-131710436D01*
X263466915Y-131680915D01*
X263496436Y-131654158D01*
X263528438Y-131630423D01*
X263562613Y-131609940D01*
X263598631Y-131592905D01*
X263636144Y-131579482D01*
X263674793Y-131569801D01*
X263714205Y-131563955D01*
X263754000Y-131562000D01*
X264566000Y-131562000D01*
X264605795Y-131563955D01*
G37*
G36*
X267145795Y-131563955D02*
G01*
X267185207Y-131569801D01*
X267223856Y-131579482D01*
X267261369Y-131592905D01*
X267297387Y-131609940D01*
X267331562Y-131630423D01*
X267363564Y-131654158D01*
X267393085Y-131680915D01*
X267419842Y-131710436D01*
X267443577Y-131742438D01*
X267464060Y-131776613D01*
X267481095Y-131812631D01*
X267494518Y-131850144D01*
X267504199Y-131888793D01*
X267510045Y-131928205D01*
X267512000Y-131968000D01*
X267512000Y-138596000D01*
X267510045Y-138635795D01*
X267504199Y-138675207D01*
X267494518Y-138713856D01*
X267481095Y-138751369D01*
X267464060Y-138787387D01*
X267443577Y-138821562D01*
X267419842Y-138853564D01*
X267393085Y-138883085D01*
X267363564Y-138909842D01*
X267331562Y-138933577D01*
X267297387Y-138954060D01*
X267261369Y-138971095D01*
X267223856Y-138984518D01*
X267185207Y-138994199D01*
X267145795Y-139000045D01*
X267106000Y-139002000D01*
X266294000Y-139002000D01*
X266254205Y-139000045D01*
X266214793Y-138994199D01*
X266176144Y-138984518D01*
X266138631Y-138971095D01*
X266102613Y-138954060D01*
X266068438Y-138933577D01*
X266036436Y-138909842D01*
X266006915Y-138883085D01*
X265980158Y-138853564D01*
X265956423Y-138821562D01*
X265935940Y-138787387D01*
X265918905Y-138751369D01*
X265905482Y-138713856D01*
X265895801Y-138675207D01*
X265889955Y-138635795D01*
X265888000Y-138596000D01*
X265888000Y-131968000D01*
X265889955Y-131928205D01*
X265895801Y-131888793D01*
X265905482Y-131850144D01*
X265918905Y-131812631D01*
X265935940Y-131776613D01*
X265956423Y-131742438D01*
X265980158Y-131710436D01*
X266006915Y-131680915D01*
X266036436Y-131654158D01*
X266068438Y-131630423D01*
X266102613Y-131609940D01*
X266138631Y-131592905D01*
X266176144Y-131579482D01*
X266214793Y-131569801D01*
X266254205Y-131563955D01*
X266294000Y-131562000D01*
X267106000Y-131562000D01*
X267145795Y-131563955D01*
G37*
G36*
X269685795Y-131563955D02*
G01*
X269725207Y-131569801D01*
X269763856Y-131579482D01*
X269801369Y-131592905D01*
X269837387Y-131609940D01*
X269871562Y-131630423D01*
X269903564Y-131654158D01*
X269933085Y-131680915D01*
X269959842Y-131710436D01*
X269983577Y-131742438D01*
X270004060Y-131776613D01*
X270021095Y-131812631D01*
X270034518Y-131850144D01*
X270044199Y-131888793D01*
X270050045Y-131928205D01*
X270052000Y-131968000D01*
X270052000Y-138596000D01*
X270050045Y-138635795D01*
X270044199Y-138675207D01*
X270034518Y-138713856D01*
X270021095Y-138751369D01*
X270004060Y-138787387D01*
X269983577Y-138821562D01*
X269959842Y-138853564D01*
X269933085Y-138883085D01*
X269903564Y-138909842D01*
X269871562Y-138933577D01*
X269837387Y-138954060D01*
X269801369Y-138971095D01*
X269763856Y-138984518D01*
X269725207Y-138994199D01*
X269685795Y-139000045D01*
X269646000Y-139002000D01*
X268834000Y-139002000D01*
X268794205Y-139000045D01*
X268754793Y-138994199D01*
X268716144Y-138984518D01*
X268678631Y-138971095D01*
X268642613Y-138954060D01*
X268608438Y-138933577D01*
X268576436Y-138909842D01*
X268546915Y-138883085D01*
X268520158Y-138853564D01*
X268496423Y-138821562D01*
X268475940Y-138787387D01*
X268458905Y-138751369D01*
X268445482Y-138713856D01*
X268435801Y-138675207D01*
X268429955Y-138635795D01*
X268428000Y-138596000D01*
X268428000Y-131968000D01*
X268429955Y-131928205D01*
X268435801Y-131888793D01*
X268445482Y-131850144D01*
X268458905Y-131812631D01*
X268475940Y-131776613D01*
X268496423Y-131742438D01*
X268520158Y-131710436D01*
X268546915Y-131680915D01*
X268576436Y-131654158D01*
X268608438Y-131630423D01*
X268642613Y-131609940D01*
X268678631Y-131592905D01*
X268716144Y-131579482D01*
X268754793Y-131569801D01*
X268794205Y-131563955D01*
X268834000Y-131562000D01*
X269646000Y-131562000D01*
X269685795Y-131563955D01*
G37*
G36*
X272225795Y-131563955D02*
G01*
X272265207Y-131569801D01*
X272303856Y-131579482D01*
X272341369Y-131592905D01*
X272377387Y-131609940D01*
X272411562Y-131630423D01*
X272443564Y-131654158D01*
X272473085Y-131680915D01*
X272499842Y-131710436D01*
X272523577Y-131742438D01*
X272544060Y-131776613D01*
X272561095Y-131812631D01*
X272574518Y-131850144D01*
X272584199Y-131888793D01*
X272590045Y-131928205D01*
X272592000Y-131968000D01*
X272592000Y-138596000D01*
X272590045Y-138635795D01*
X272584199Y-138675207D01*
X272574518Y-138713856D01*
X272561095Y-138751369D01*
X272544060Y-138787387D01*
X272523577Y-138821562D01*
X272499842Y-138853564D01*
X272473085Y-138883085D01*
X272443564Y-138909842D01*
X272411562Y-138933577D01*
X272377387Y-138954060D01*
X272341369Y-138971095D01*
X272303856Y-138984518D01*
X272265207Y-138994199D01*
X272225795Y-139000045D01*
X272186000Y-139002000D01*
X271374000Y-139002000D01*
X271334205Y-139000045D01*
X271294793Y-138994199D01*
X271256144Y-138984518D01*
X271218631Y-138971095D01*
X271182613Y-138954060D01*
X271148438Y-138933577D01*
X271116436Y-138909842D01*
X271086915Y-138883085D01*
X271060158Y-138853564D01*
X271036423Y-138821562D01*
X271015940Y-138787387D01*
X270998905Y-138751369D01*
X270985482Y-138713856D01*
X270975801Y-138675207D01*
X270969955Y-138635795D01*
X270968000Y-138596000D01*
X270968000Y-131968000D01*
X270969955Y-131928205D01*
X270975801Y-131888793D01*
X270985482Y-131850144D01*
X270998905Y-131812631D01*
X271015940Y-131776613D01*
X271036423Y-131742438D01*
X271060158Y-131710436D01*
X271086915Y-131680915D01*
X271116436Y-131654158D01*
X271148438Y-131630423D01*
X271182613Y-131609940D01*
X271218631Y-131592905D01*
X271256144Y-131579482D01*
X271294793Y-131569801D01*
X271334205Y-131563955D01*
X271374000Y-131562000D01*
X272186000Y-131562000D01*
X272225795Y-131563955D01*
G37*
G36*
X274765795Y-131563955D02*
G01*
X274805207Y-131569801D01*
X274843856Y-131579482D01*
X274881369Y-131592905D01*
X274917387Y-131609940D01*
X274951562Y-131630423D01*
X274983564Y-131654158D01*
X275013085Y-131680915D01*
X275039842Y-131710436D01*
X275063577Y-131742438D01*
X275084060Y-131776613D01*
X275101095Y-131812631D01*
X275114518Y-131850144D01*
X275124199Y-131888793D01*
X275130045Y-131928205D01*
X275132000Y-131968000D01*
X275132000Y-138596000D01*
X275130045Y-138635795D01*
X275124199Y-138675207D01*
X275114518Y-138713856D01*
X275101095Y-138751369D01*
X275084060Y-138787387D01*
X275063577Y-138821562D01*
X275039842Y-138853564D01*
X275013085Y-138883085D01*
X274983564Y-138909842D01*
X274951562Y-138933577D01*
X274917387Y-138954060D01*
X274881369Y-138971095D01*
X274843856Y-138984518D01*
X274805207Y-138994199D01*
X274765795Y-139000045D01*
X274726000Y-139002000D01*
X273914000Y-139002000D01*
X273874205Y-139000045D01*
X273834793Y-138994199D01*
X273796144Y-138984518D01*
X273758631Y-138971095D01*
X273722613Y-138954060D01*
X273688438Y-138933577D01*
X273656436Y-138909842D01*
X273626915Y-138883085D01*
X273600158Y-138853564D01*
X273576423Y-138821562D01*
X273555940Y-138787387D01*
X273538905Y-138751369D01*
X273525482Y-138713856D01*
X273515801Y-138675207D01*
X273509955Y-138635795D01*
X273508000Y-138596000D01*
X273508000Y-131968000D01*
X273509955Y-131928205D01*
X273515801Y-131888793D01*
X273525482Y-131850144D01*
X273538905Y-131812631D01*
X273555940Y-131776613D01*
X273576423Y-131742438D01*
X273600158Y-131710436D01*
X273626915Y-131680915D01*
X273656436Y-131654158D01*
X273688438Y-131630423D01*
X273722613Y-131609940D01*
X273758631Y-131592905D01*
X273796144Y-131579482D01*
X273834793Y-131569801D01*
X273874205Y-131563955D01*
X273914000Y-131562000D01*
X274726000Y-131562000D01*
X274765795Y-131563955D01*
G37*
D14*
X200660000Y-129540000D03*
X200914000Y-92202000D03*
X274320000Y-128397000D03*
M02*
