G04 #@! TF.GenerationSoftware,KiCad,Pcbnew,7.0.1-0*
G04 #@! TF.CreationDate,2023-09-21T07:21:14-04:00*
G04 #@! TF.ProjectId,RAM2E,52414d32-452e-46b6-9963-61645f706362,2.0*
G04 #@! TF.SameCoordinates,Original*
G04 #@! TF.FileFunction,Soldermask,Top*
G04 #@! TF.FilePolarity,Negative*
%FSLAX46Y46*%
G04 Gerber Fmt 4.6, Leading zero omitted, Abs format (unit mm)*
G04 Created by KiCad (PCBNEW 7.0.1-0) date 2023-09-21 07:21:14*
%MOMM*%
%LPD*%
G01*
G04 APERTURE LIST*
G04 Aperture macros list*
%AMRoundRect*
0 Rectangle with rounded corners*
0 $1 Rounding radius*
0 $2 $3 $4 $5 $6 $7 $8 $9 X,Y pos of 4 corners*
0 Add a 4 corners polygon primitive as box body*
4,1,4,$2,$3,$4,$5,$6,$7,$8,$9,$2,$3,0*
0 Add four circle primitives for the rounded corners*
1,1,$1+$1,$2,$3*
1,1,$1+$1,$4,$5*
1,1,$1+$1,$6,$7*
1,1,$1+$1,$8,$9*
0 Add four rect primitives between the rounded corners*
20,1,$1+$1,$2,$3,$4,$5,0*
20,1,$1+$1,$4,$5,$6,$7,0*
20,1,$1+$1,$6,$7,$8,$9,0*
20,1,$1+$1,$8,$9,$2,$3,0*%
G04 Aperture macros list end*
%ADD10C,0.000000*%
%ADD11C,0.076200*%
%ADD12C,2.000000*%
%ADD13RoundRect,0.136500X0.112500X-0.612500X0.112500X0.612500X-0.112500X0.612500X-0.112500X-0.612500X0*%
%ADD14RoundRect,0.262500X-0.262500X0.212500X-0.262500X-0.212500X0.262500X-0.212500X0.262500X0.212500X0*%
%ADD15RoundRect,0.431000X0.381000X3.289000X-0.381000X3.289000X-0.381000X-3.289000X0.381000X-3.289000X0*%
%ADD16RoundRect,0.262500X0.262500X-0.212500X0.262500X0.212500X-0.262500X0.212500X-0.262500X-0.212500X0*%
%ADD17RoundRect,0.164500X-0.640500X-0.114500X0.640500X-0.114500X0.640500X0.114500X-0.640500X0.114500X0*%
%ADD18C,2.100000*%
%ADD19RoundRect,0.312500X0.262500X0.437500X-0.262500X0.437500X-0.262500X-0.437500X0.262500X-0.437500X0*%
%ADD20RoundRect,0.312500X-0.437500X0.262500X-0.437500X-0.262500X0.437500X-0.262500X0.437500X0.262500X0*%
%ADD21RoundRect,0.262500X-0.212500X-0.262500X0.212500X-0.262500X0.212500X0.262500X-0.212500X0.262500X0*%
%ADD22C,2.474900*%
%ADD23C,1.090600*%
%ADD24C,0.887400*%
%ADD25RoundRect,0.262500X-0.212500X-0.487500X0.212500X-0.487500X0.212500X0.487500X-0.212500X0.487500X0*%
%ADD26C,1.448000*%
%ADD27RoundRect,0.312500X0.437500X-0.262500X0.437500X0.262500X-0.437500X0.262500X-0.437500X-0.262500X0*%
%ADD28RoundRect,0.250000X-0.475000X-0.200000X0.475000X-0.200000X0.475000X0.200000X-0.475000X0.200000X0*%
%ADD29RoundRect,0.212500X0.512500X0.162500X-0.512500X0.162500X-0.512500X-0.162500X0.512500X-0.162500X0*%
%ADD30RoundRect,0.262500X0.487500X-0.212500X0.487500X0.212500X-0.487500X0.212500X-0.487500X-0.212500X0*%
%ADD31RoundRect,0.225000X-0.300000X0.175000X-0.300000X-0.175000X0.300000X-0.175000X0.300000X0.175000X0*%
%ADD32RoundRect,0.050000X-0.850000X-0.850000X0.850000X-0.850000X0.850000X0.850000X-0.850000X0.850000X0*%
%ADD33O,1.800000X1.800000*%
%ADD34RoundRect,0.225000X-0.175000X-0.300000X0.175000X-0.300000X0.175000X0.300000X-0.175000X0.300000X0*%
%ADD35RoundRect,0.099000X0.075000X-0.662500X0.075000X0.662500X-0.075000X0.662500X-0.075000X-0.662500X0*%
%ADD36RoundRect,0.099000X0.662500X-0.075000X0.662500X0.075000X-0.662500X0.075000X-0.662500X-0.075000X0*%
%ADD37RoundRect,0.262500X0.212500X0.262500X-0.212500X0.262500X-0.212500X-0.262500X0.212500X-0.262500X0*%
%ADD38RoundRect,0.293750X0.243750X0.456250X-0.243750X0.456250X-0.243750X-0.456250X0.243750X-0.456250X0*%
%ADD39RoundRect,0.225000X0.175000X0.300000X-0.175000X0.300000X-0.175000X-0.300000X0.175000X-0.300000X0*%
%ADD40RoundRect,0.225000X-0.675000X-0.175000X0.675000X-0.175000X0.675000X0.175000X-0.675000X0.175000X0*%
G04 APERTURE END LIST*
D10*
G36*
X276860000Y-139446000D02*
G01*
X276352000Y-139954000D01*
X198628000Y-139954000D01*
X198120000Y-139446000D01*
X198120000Y-132080000D01*
X276860000Y-132080000D01*
X276860000Y-139446000D01*
G37*
D11*
X213360000Y-124460000D02*
X211582000Y-124460000D01*
X211582000Y-123571000D01*
X213360000Y-123571000D01*
X213360000Y-124460000D01*
G36*
X213360000Y-124460000D02*
G01*
X211582000Y-124460000D01*
X211582000Y-123571000D01*
X213360000Y-123571000D01*
X213360000Y-124460000D01*
G37*
D12*
X203200000Y-129540000D03*
X271526000Y-92202000D03*
D13*
X236250000Y-127550000D03*
X236900000Y-127550000D03*
X237550000Y-127550000D03*
X238200000Y-127550000D03*
X238850000Y-127550000D03*
X239500000Y-127550000D03*
X240150000Y-127550000D03*
X240800000Y-127550000D03*
X241450000Y-127550000D03*
X242100000Y-127550000D03*
X242100000Y-121650000D03*
X241450000Y-121650000D03*
X240800000Y-121650000D03*
X240150000Y-121650000D03*
X239500000Y-121650000D03*
X238850000Y-121650000D03*
X238200000Y-121650000D03*
X237550000Y-121650000D03*
X236900000Y-121650000D03*
X236250000Y-121650000D03*
D14*
X234750000Y-121650000D03*
X234750000Y-123150000D03*
X253150000Y-121650000D03*
X253150000Y-123150000D03*
D13*
X254650000Y-127550000D03*
X255300000Y-127550000D03*
X255950000Y-127550000D03*
X256600000Y-127550000D03*
X257250000Y-127550000D03*
X257900000Y-127550000D03*
X258550000Y-127550000D03*
X259200000Y-127550000D03*
X259850000Y-127550000D03*
X260500000Y-127550000D03*
X260500000Y-121650000D03*
X259850000Y-121650000D03*
X259200000Y-121650000D03*
X258550000Y-121650000D03*
X257900000Y-121650000D03*
X257250000Y-121650000D03*
X256600000Y-121650000D03*
X255950000Y-121650000D03*
X255300000Y-121650000D03*
X254650000Y-121650000D03*
D14*
X243950000Y-121650000D03*
X243950000Y-123150000D03*
D13*
X217850000Y-127550000D03*
X218500000Y-127550000D03*
X219150000Y-127550000D03*
X219800000Y-127550000D03*
X220450000Y-127550000D03*
X221100000Y-127550000D03*
X221750000Y-127550000D03*
X222400000Y-127550000D03*
X223050000Y-127550000D03*
X223700000Y-127550000D03*
X223700000Y-121650000D03*
X223050000Y-121650000D03*
X222400000Y-121650000D03*
X221750000Y-121650000D03*
X221100000Y-121650000D03*
X220450000Y-121650000D03*
X219800000Y-121650000D03*
X219150000Y-121650000D03*
X218500000Y-121650000D03*
X217850000Y-121650000D03*
X245450000Y-127550000D03*
X246100000Y-127550000D03*
X246750000Y-127550000D03*
X247400000Y-127550000D03*
X248050000Y-127550000D03*
X248700000Y-127550000D03*
X249350000Y-127550000D03*
X250000000Y-127550000D03*
X250650000Y-127550000D03*
X251300000Y-127550000D03*
X251300000Y-121650000D03*
X250650000Y-121650000D03*
X250000000Y-121650000D03*
X249350000Y-121650000D03*
X248700000Y-121650000D03*
X248050000Y-121650000D03*
X247400000Y-121650000D03*
X246750000Y-121650000D03*
X246100000Y-121650000D03*
X245450000Y-121650000D03*
D15*
X200660000Y-135282000D03*
X203200000Y-135282000D03*
X205740000Y-135282000D03*
X208280000Y-135282000D03*
X210820000Y-135282000D03*
X213360000Y-135282000D03*
X215900000Y-135282000D03*
X218440000Y-135282000D03*
X220980000Y-135282000D03*
X223520000Y-135282000D03*
X226060000Y-135282000D03*
X228600000Y-135282000D03*
X231140000Y-135282000D03*
X233680000Y-135282000D03*
X236220000Y-135282000D03*
X238760000Y-135282000D03*
X241300000Y-135282000D03*
X243840000Y-135282000D03*
X246380000Y-135282000D03*
X248920000Y-135282000D03*
X251460000Y-135282000D03*
X254000000Y-135282000D03*
X256540000Y-135282000D03*
X259080000Y-135282000D03*
X261620000Y-135282000D03*
X264160000Y-135282000D03*
X266700000Y-135282000D03*
X269240000Y-135282000D03*
X271780000Y-135282000D03*
X274320000Y-135282000D03*
D13*
X227050000Y-127550000D03*
X227700000Y-127550000D03*
X228350000Y-127550000D03*
X229000000Y-127550000D03*
X229650000Y-127550000D03*
X230300000Y-127550000D03*
X230950000Y-127550000D03*
X231600000Y-127550000D03*
X232250000Y-127550000D03*
X232900000Y-127550000D03*
X232900000Y-121650000D03*
X232250000Y-121650000D03*
X231600000Y-121650000D03*
X230950000Y-121650000D03*
X230300000Y-121650000D03*
X229650000Y-121650000D03*
X229000000Y-121650000D03*
X228350000Y-121650000D03*
X227700000Y-121650000D03*
X227050000Y-121650000D03*
D14*
X225550000Y-121650000D03*
X225550000Y-123150000D03*
X226600000Y-103850000D03*
X226600000Y-105350000D03*
D16*
X211000000Y-101450000D03*
X211000000Y-99950000D03*
X211000000Y-96650000D03*
X211000000Y-95150000D03*
X211000000Y-105450000D03*
X211000000Y-103950000D03*
D14*
X226600000Y-99050000D03*
X226600000Y-100550000D03*
D17*
X213050000Y-95050000D03*
X213050000Y-95850000D03*
X213050000Y-96650000D03*
X213050000Y-97450000D03*
X213050000Y-98250000D03*
X213050000Y-99050000D03*
X213050000Y-99850000D03*
X213050000Y-100650000D03*
X213050000Y-101450000D03*
X213050000Y-102250000D03*
X213050000Y-103050000D03*
X213050000Y-103850000D03*
X213050000Y-104650000D03*
X213050000Y-105450000D03*
X213050000Y-106250000D03*
X213050000Y-107050000D03*
X213050000Y-107850000D03*
X213050000Y-108650000D03*
X213050000Y-109450000D03*
X213050000Y-110250000D03*
X213050000Y-111050000D03*
X213050000Y-111850000D03*
X213050000Y-112650000D03*
X213050000Y-113450000D03*
X213050000Y-114250000D03*
X213050000Y-115050000D03*
X213050000Y-115850000D03*
X224550000Y-115850000D03*
X224550000Y-115050000D03*
X224550000Y-114250000D03*
X224550000Y-113450000D03*
X224550000Y-112650000D03*
X224550000Y-111850000D03*
X224550000Y-111050000D03*
X224550000Y-110250000D03*
X224550000Y-109450000D03*
X224550000Y-108650000D03*
X224550000Y-107850000D03*
X224550000Y-107050000D03*
X224550000Y-106250000D03*
X224550000Y-105450000D03*
X224550000Y-104650000D03*
X224550000Y-103850000D03*
X224550000Y-103050000D03*
X224550000Y-102250000D03*
X224550000Y-101450000D03*
X224550000Y-100650000D03*
X224550000Y-99850000D03*
X224550000Y-99050000D03*
X224550000Y-98250000D03*
X224550000Y-97450000D03*
X224550000Y-96650000D03*
X224550000Y-95850000D03*
X224550000Y-95050000D03*
D12*
X203454000Y-92202000D03*
D18*
X274320000Y-128397000D03*
D19*
X270725000Y-126238000D03*
X269025000Y-126238000D03*
D12*
X270129000Y-129286000D03*
D20*
X271350000Y-110800000D03*
X271350000Y-112500000D03*
D21*
X223050000Y-93150000D03*
X224550000Y-93150000D03*
D22*
X208026000Y-111760000D03*
D23*
X205486000Y-111760000D03*
D22*
X202946000Y-111760000D03*
X208026000Y-117475000D03*
X202946000Y-117475000D03*
D23*
X206502000Y-119380000D03*
X204470000Y-119380000D03*
D24*
X204851000Y-113030000D03*
X204851000Y-114300000D03*
X204851000Y-115570000D03*
X204851000Y-116840000D03*
X204851000Y-118110000D03*
X206121000Y-118110000D03*
X206121000Y-116840000D03*
X206121000Y-115570000D03*
X206121000Y-114300000D03*
X206121000Y-113030000D03*
D25*
X208346000Y-126174500D03*
X210246000Y-126174500D03*
X208346000Y-124015500D03*
X210246000Y-124015500D03*
D26*
X200660000Y-129540000D03*
X200914000Y-92202000D03*
X274066000Y-92202000D03*
X274320000Y-125857000D03*
D27*
X263900000Y-111650000D03*
X263900000Y-109950000D03*
D28*
X266600000Y-109850000D03*
X266600000Y-111750000D03*
X268700000Y-110800000D03*
D27*
X261200000Y-111650000D03*
X261200000Y-109950000D03*
D21*
X213050000Y-93150000D03*
X214550000Y-93150000D03*
D14*
X216350000Y-121650000D03*
X216350000Y-123150000D03*
D21*
X213050000Y-117950000D03*
X214550000Y-117950000D03*
D29*
X268700000Y-106100000D03*
X268700000Y-105150000D03*
X268700000Y-104200000D03*
X266600000Y-104200000D03*
X266600000Y-106100000D03*
D27*
X263900000Y-106100000D03*
X263900000Y-104400000D03*
X261200000Y-106100000D03*
X261200000Y-104400000D03*
X271350000Y-106100000D03*
X271350000Y-104400000D03*
D30*
X258500000Y-108000000D03*
X258500000Y-106100000D03*
D21*
X223050000Y-117950000D03*
X224550000Y-117950000D03*
D31*
X229650000Y-118250000D03*
X229650000Y-119850000D03*
D32*
X202946000Y-98425000D03*
D33*
X202946000Y-100965000D03*
D34*
X264950000Y-124500000D03*
X266550000Y-124500000D03*
D35*
X234050000Y-116012500D03*
X234550000Y-116012500D03*
X235050000Y-116012500D03*
X235550000Y-116012500D03*
X236050000Y-116012500D03*
X236550000Y-116012500D03*
X237050000Y-116012500D03*
X237550000Y-116012500D03*
X238050000Y-116012500D03*
X238550000Y-116012500D03*
X239050000Y-116012500D03*
X239550000Y-116012500D03*
X240050000Y-116012500D03*
X240550000Y-116012500D03*
X241050000Y-116012500D03*
X241550000Y-116012500D03*
X242050000Y-116012500D03*
X242550000Y-116012500D03*
X243050000Y-116012500D03*
X243550000Y-116012500D03*
X244050000Y-116012500D03*
X244550000Y-116012500D03*
X245050000Y-116012500D03*
X245550000Y-116012500D03*
X246050000Y-116012500D03*
D36*
X247712500Y-114350000D03*
X247712500Y-113850000D03*
X247712500Y-113350000D03*
X247712500Y-112850000D03*
X247712500Y-112350000D03*
X247712500Y-111850000D03*
X247712500Y-111350000D03*
X247712500Y-110850000D03*
X247712500Y-110350000D03*
X247712500Y-109850000D03*
X247712500Y-109350000D03*
X247712500Y-108850000D03*
X247712500Y-108350000D03*
X247712500Y-107850000D03*
X247712500Y-107350000D03*
X247712500Y-106850000D03*
X247712500Y-106350000D03*
X247712500Y-105850000D03*
X247712500Y-105350000D03*
X247712500Y-104850000D03*
X247712500Y-104350000D03*
X247712500Y-103850000D03*
X247712500Y-103350000D03*
X247712500Y-102850000D03*
X247712500Y-102350000D03*
D35*
X246050000Y-100687500D03*
X245550000Y-100687500D03*
X245050000Y-100687500D03*
X244550000Y-100687500D03*
X244050000Y-100687500D03*
X243550000Y-100687500D03*
X243050000Y-100687500D03*
X242550000Y-100687500D03*
X242050000Y-100687500D03*
X241550000Y-100687500D03*
X241050000Y-100687500D03*
X240550000Y-100687500D03*
X240050000Y-100687500D03*
X239550000Y-100687500D03*
X239050000Y-100687500D03*
X238550000Y-100687500D03*
X238050000Y-100687500D03*
X237550000Y-100687500D03*
X237050000Y-100687500D03*
X236550000Y-100687500D03*
X236050000Y-100687500D03*
X235550000Y-100687500D03*
X235050000Y-100687500D03*
X234550000Y-100687500D03*
X234050000Y-100687500D03*
D36*
X232387500Y-102350000D03*
X232387500Y-102850000D03*
X232387500Y-103350000D03*
X232387500Y-103850000D03*
X232387500Y-104350000D03*
X232387500Y-104850000D03*
X232387500Y-105350000D03*
X232387500Y-105850000D03*
X232387500Y-106350000D03*
X232387500Y-106850000D03*
X232387500Y-107350000D03*
X232387500Y-107850000D03*
X232387500Y-108350000D03*
X232387500Y-108850000D03*
X232387500Y-109350000D03*
X232387500Y-109850000D03*
X232387500Y-110350000D03*
X232387500Y-110850000D03*
X232387500Y-111350000D03*
X232387500Y-111850000D03*
X232387500Y-112350000D03*
X232387500Y-112850000D03*
X232387500Y-113350000D03*
X232387500Y-113850000D03*
X232387500Y-114350000D03*
D37*
X234550000Y-98700000D03*
X233050000Y-98700000D03*
D21*
X238300000Y-118000000D03*
X239800000Y-118000000D03*
X245550000Y-118000000D03*
X247050000Y-118000000D03*
D14*
X249700000Y-106350000D03*
X249700000Y-107850000D03*
D37*
X241800000Y-98700000D03*
X240300000Y-98700000D03*
D14*
X249700000Y-109850000D03*
X249700000Y-111350000D03*
X230350000Y-109400000D03*
X230350000Y-110900000D03*
D16*
X230350000Y-108100000D03*
X230350000Y-106600000D03*
D14*
X273939000Y-98437000D03*
X273939000Y-99937000D03*
D25*
X228550000Y-100800000D03*
X230450000Y-100800000D03*
D38*
X230437500Y-98850000D03*
X228562500Y-98850000D03*
D31*
X226750000Y-118250000D03*
X226750000Y-119850000D03*
X228200000Y-118250000D03*
X228200000Y-119850000D03*
D37*
X206250000Y-106300000D03*
X204750000Y-106300000D03*
D39*
X206300000Y-107750000D03*
X204700000Y-107750000D03*
X206300000Y-109200000D03*
X204700000Y-109200000D03*
D40*
X264320000Y-98425000D03*
X264320000Y-99695000D03*
X264320000Y-100965000D03*
X264320000Y-102235000D03*
X271620000Y-102235000D03*
X271620000Y-100965000D03*
X271620000Y-99695000D03*
X271620000Y-98425000D03*
M02*
