G04 #@! TF.GenerationSoftware,KiCad,Pcbnew,7.0.1-0*
G04 #@! TF.CreationDate,2023-09-21T07:21:14-04:00*
G04 #@! TF.ProjectId,RAM2E,52414d32-452e-46b6-9963-61645f706362,2.0*
G04 #@! TF.SameCoordinates,Original*
G04 #@! TF.FileFunction,Legend,Bot*
G04 #@! TF.FilePolarity,Positive*
%FSLAX46Y46*%
G04 Gerber Fmt 4.6, Leading zero omitted, Abs format (unit mm)*
G04 Created by KiCad (PCBNEW 7.0.1-0) date 2023-09-21 07:21:14*
%MOMM*%
%LPD*%
G01*
G04 APERTURE LIST*
G04 Aperture macros list*
%AMRoundRect*
0 Rectangle with rounded corners*
0 $1 Rounding radius*
0 $2 $3 $4 $5 $6 $7 $8 $9 X,Y pos of 4 corners*
0 Add a 4 corners polygon primitive as box body*
4,1,4,$2,$3,$4,$5,$6,$7,$8,$9,$2,$3,0*
0 Add four circle primitives for the rounded corners*
1,1,$1+$1,$2,$3*
1,1,$1+$1,$4,$5*
1,1,$1+$1,$6,$7*
1,1,$1+$1,$8,$9*
0 Add four rect primitives between the rounded corners*
20,1,$1+$1,$2,$3,$4,$5,0*
20,1,$1+$1,$4,$5,$6,$7,0*
20,1,$1+$1,$6,$7,$8,$9,0*
20,1,$1+$1,$8,$9,$2,$3,0*%
G04 Aperture macros list end*
%ADD10C,0.200000*%
%ADD11C,0.203200*%
%ADD12C,0.190500*%
%ADD13C,0.000000*%
%ADD14RoundRect,0.431000X0.381000X3.289000X-0.381000X3.289000X-0.381000X-3.289000X0.381000X-3.289000X0*%
%ADD15C,2.100000*%
%ADD16C,2.474900*%
%ADD17C,1.090600*%
%ADD18C,1.448000*%
%ADD19RoundRect,0.050000X-0.850000X-0.850000X0.850000X-0.850000X0.850000X0.850000X-0.850000X0.850000X0*%
%ADD20O,1.800000X1.800000*%
G04 APERTURE END LIST*
D10*
X233426000Y-128270000D02*
X231394000Y-128270000D01*
X231394000Y-128270000D02*
X232410000Y-126492000D01*
X232410000Y-126492000D02*
X233426000Y-128270000D01*
D11*
X272445237Y-129865216D02*
X271903371Y-129865216D01*
X271903371Y-129865216D02*
X272445237Y-130678016D01*
X272445237Y-130678016D02*
X271903371Y-130678016D01*
X271593733Y-130678016D02*
X271593733Y-129865216D01*
X271129276Y-130678016D02*
X271477618Y-130213559D01*
X271129276Y-129865216D02*
X271593733Y-130329673D01*
X270742228Y-130639312D02*
X270742228Y-130678016D01*
X270742228Y-130678016D02*
X270780933Y-130755426D01*
X270780933Y-130755426D02*
X270819637Y-130794131D01*
X269348856Y-129903921D02*
X269426266Y-129865216D01*
X269426266Y-129865216D02*
X269542380Y-129865216D01*
X269542380Y-129865216D02*
X269658494Y-129903921D01*
X269658494Y-129903921D02*
X269735904Y-129981331D01*
X269735904Y-129981331D02*
X269774609Y-130058740D01*
X269774609Y-130058740D02*
X269813313Y-130213559D01*
X269813313Y-130213559D02*
X269813313Y-130329673D01*
X269813313Y-130329673D02*
X269774609Y-130484492D01*
X269774609Y-130484492D02*
X269735904Y-130561902D01*
X269735904Y-130561902D02*
X269658494Y-130639312D01*
X269658494Y-130639312D02*
X269542380Y-130678016D01*
X269542380Y-130678016D02*
X269464971Y-130678016D01*
X269464971Y-130678016D02*
X269348856Y-130639312D01*
X269348856Y-130639312D02*
X269310152Y-130600607D01*
X269310152Y-130600607D02*
X269310152Y-130329673D01*
X269310152Y-130329673D02*
X269464971Y-130329673D01*
X268690875Y-130252264D02*
X268961809Y-130252264D01*
X268961809Y-130678016D02*
X268961809Y-129865216D01*
X268961809Y-129865216D02*
X268574761Y-129865216D01*
D12*
X232409999Y-127914944D02*
X232373713Y-127951230D01*
X232373713Y-127951230D02*
X232409999Y-127987515D01*
X232409999Y-127987515D02*
X232446285Y-127951230D01*
X232446285Y-127951230D02*
X232409999Y-127914944D01*
X232409999Y-127914944D02*
X232409999Y-127987515D01*
X232409999Y-127697230D02*
X232446285Y-127261801D01*
X232446285Y-127261801D02*
X232409999Y-127225515D01*
X232409999Y-127225515D02*
X232373713Y-127261801D01*
X232373713Y-127261801D02*
X232409999Y-127697230D01*
X232409999Y-127697230D02*
X232409999Y-127225515D01*
D10*
X230293332Y-126698526D02*
X229567618Y-126698526D01*
X229930475Y-127968526D02*
X229930475Y-126698526D01*
X229144285Y-127968526D02*
X229144285Y-126698526D01*
X228599999Y-127968526D02*
X228599999Y-127303288D01*
X228599999Y-127303288D02*
X228660475Y-127182335D01*
X228660475Y-127182335D02*
X228781427Y-127121859D01*
X228781427Y-127121859D02*
X228962856Y-127121859D01*
X228962856Y-127121859D02*
X229083808Y-127182335D01*
X229083808Y-127182335D02*
X229144285Y-127242811D01*
X227995237Y-127968526D02*
X227995237Y-127121859D01*
X227995237Y-126698526D02*
X228055713Y-126759002D01*
X228055713Y-126759002D02*
X227995237Y-126819478D01*
X227995237Y-126819478D02*
X227934760Y-126759002D01*
X227934760Y-126759002D02*
X227995237Y-126698526D01*
X227995237Y-126698526D02*
X227995237Y-126819478D01*
X227450951Y-127908050D02*
X227329998Y-127968526D01*
X227329998Y-127968526D02*
X227088094Y-127968526D01*
X227088094Y-127968526D02*
X226967141Y-127908050D01*
X226967141Y-127908050D02*
X226906665Y-127787097D01*
X226906665Y-127787097D02*
X226906665Y-127726621D01*
X226906665Y-127726621D02*
X226967141Y-127605669D01*
X226967141Y-127605669D02*
X227088094Y-127545192D01*
X227088094Y-127545192D02*
X227269522Y-127545192D01*
X227269522Y-127545192D02*
X227390475Y-127484716D01*
X227390475Y-127484716D02*
X227450951Y-127363764D01*
X227450951Y-127363764D02*
X227450951Y-127303288D01*
X227450951Y-127303288D02*
X227390475Y-127182335D01*
X227390475Y-127182335D02*
X227269522Y-127121859D01*
X227269522Y-127121859D02*
X227088094Y-127121859D01*
X227088094Y-127121859D02*
X226967141Y-127182335D01*
X225455237Y-127908050D02*
X225273808Y-127968526D01*
X225273808Y-127968526D02*
X224971427Y-127968526D01*
X224971427Y-127968526D02*
X224850475Y-127908050D01*
X224850475Y-127908050D02*
X224789999Y-127847573D01*
X224789999Y-127847573D02*
X224729522Y-127726621D01*
X224729522Y-127726621D02*
X224729522Y-127605669D01*
X224729522Y-127605669D02*
X224789999Y-127484716D01*
X224789999Y-127484716D02*
X224850475Y-127424240D01*
X224850475Y-127424240D02*
X224971427Y-127363764D01*
X224971427Y-127363764D02*
X225213332Y-127303288D01*
X225213332Y-127303288D02*
X225334284Y-127242811D01*
X225334284Y-127242811D02*
X225394761Y-127182335D01*
X225394761Y-127182335D02*
X225455237Y-127061383D01*
X225455237Y-127061383D02*
X225455237Y-126940430D01*
X225455237Y-126940430D02*
X225394761Y-126819478D01*
X225394761Y-126819478D02*
X225334284Y-126759002D01*
X225334284Y-126759002D02*
X225213332Y-126698526D01*
X225213332Y-126698526D02*
X224910951Y-126698526D01*
X224910951Y-126698526D02*
X224729522Y-126759002D01*
X224185237Y-127968526D02*
X224185237Y-127121859D01*
X224185237Y-126698526D02*
X224245713Y-126759002D01*
X224245713Y-126759002D02*
X224185237Y-126819478D01*
X224185237Y-126819478D02*
X224124760Y-126759002D01*
X224124760Y-126759002D02*
X224185237Y-126698526D01*
X224185237Y-126698526D02*
X224185237Y-126819478D01*
X223036189Y-127968526D02*
X223036189Y-126698526D01*
X223036189Y-127908050D02*
X223157141Y-127968526D01*
X223157141Y-127968526D02*
X223399046Y-127968526D01*
X223399046Y-127968526D02*
X223519998Y-127908050D01*
X223519998Y-127908050D02*
X223580475Y-127847573D01*
X223580475Y-127847573D02*
X223640951Y-127726621D01*
X223640951Y-127726621D02*
X223640951Y-127363764D01*
X223640951Y-127363764D02*
X223580475Y-127242811D01*
X223580475Y-127242811D02*
X223519998Y-127182335D01*
X223519998Y-127182335D02*
X223399046Y-127121859D01*
X223399046Y-127121859D02*
X223157141Y-127121859D01*
X223157141Y-127121859D02*
X223036189Y-127182335D01*
X221947617Y-127908050D02*
X222068569Y-127968526D01*
X222068569Y-127968526D02*
X222310474Y-127968526D01*
X222310474Y-127968526D02*
X222431427Y-127908050D01*
X222431427Y-127908050D02*
X222491903Y-127787097D01*
X222491903Y-127787097D02*
X222491903Y-127303288D01*
X222491903Y-127303288D02*
X222431427Y-127182335D01*
X222431427Y-127182335D02*
X222310474Y-127121859D01*
X222310474Y-127121859D02*
X222068569Y-127121859D01*
X222068569Y-127121859D02*
X221947617Y-127182335D01*
X221947617Y-127182335D02*
X221887141Y-127303288D01*
X221887141Y-127303288D02*
X221887141Y-127424240D01*
X221887141Y-127424240D02*
X222491903Y-127545192D01*
X219951903Y-127303288D02*
X220375237Y-127303288D01*
X220375237Y-127968526D02*
X220375237Y-126698526D01*
X220375237Y-126698526D02*
X219770475Y-126698526D01*
X218742380Y-127968526D02*
X218742380Y-127303288D01*
X218742380Y-127303288D02*
X218802856Y-127182335D01*
X218802856Y-127182335D02*
X218923808Y-127121859D01*
X218923808Y-127121859D02*
X219165713Y-127121859D01*
X219165713Y-127121859D02*
X219286666Y-127182335D01*
X218742380Y-127908050D02*
X218863332Y-127968526D01*
X218863332Y-127968526D02*
X219165713Y-127968526D01*
X219165713Y-127968526D02*
X219286666Y-127908050D01*
X219286666Y-127908050D02*
X219347142Y-127787097D01*
X219347142Y-127787097D02*
X219347142Y-127666145D01*
X219347142Y-127666145D02*
X219286666Y-127545192D01*
X219286666Y-127545192D02*
X219165713Y-127484716D01*
X219165713Y-127484716D02*
X218863332Y-127484716D01*
X218863332Y-127484716D02*
X218742380Y-127424240D01*
X217593332Y-127908050D02*
X217714284Y-127968526D01*
X217714284Y-127968526D02*
X217956189Y-127968526D01*
X217956189Y-127968526D02*
X218077141Y-127908050D01*
X218077141Y-127908050D02*
X218137618Y-127847573D01*
X218137618Y-127847573D02*
X218198094Y-127726621D01*
X218198094Y-127726621D02*
X218198094Y-127363764D01*
X218198094Y-127363764D02*
X218137618Y-127242811D01*
X218137618Y-127242811D02*
X218077141Y-127182335D01*
X218077141Y-127182335D02*
X217956189Y-127121859D01*
X217956189Y-127121859D02*
X217714284Y-127121859D01*
X217714284Y-127121859D02*
X217593332Y-127182335D01*
X216565237Y-127908050D02*
X216686189Y-127968526D01*
X216686189Y-127968526D02*
X216928094Y-127968526D01*
X216928094Y-127968526D02*
X217049047Y-127908050D01*
X217049047Y-127908050D02*
X217109523Y-127787097D01*
X217109523Y-127787097D02*
X217109523Y-127303288D01*
X217109523Y-127303288D02*
X217049047Y-127182335D01*
X217049047Y-127182335D02*
X216928094Y-127121859D01*
X216928094Y-127121859D02*
X216686189Y-127121859D01*
X216686189Y-127121859D02*
X216565237Y-127182335D01*
X216565237Y-127182335D02*
X216504761Y-127303288D01*
X216504761Y-127303288D02*
X216504761Y-127424240D01*
X216504761Y-127424240D02*
X217109523Y-127545192D01*
X216020952Y-127908050D02*
X215899999Y-127968526D01*
X215899999Y-127968526D02*
X215658095Y-127968526D01*
X215658095Y-127968526D02*
X215537142Y-127908050D01*
X215537142Y-127908050D02*
X215476666Y-127787097D01*
X215476666Y-127787097D02*
X215476666Y-127726621D01*
X215476666Y-127726621D02*
X215537142Y-127605669D01*
X215537142Y-127605669D02*
X215658095Y-127545192D01*
X215658095Y-127545192D02*
X215839523Y-127545192D01*
X215839523Y-127545192D02*
X215960476Y-127484716D01*
X215960476Y-127484716D02*
X216020952Y-127363764D01*
X216020952Y-127363764D02*
X216020952Y-127303288D01*
X216020952Y-127303288D02*
X215960476Y-127182335D01*
X215960476Y-127182335D02*
X215839523Y-127121859D01*
X215839523Y-127121859D02*
X215658095Y-127121859D01*
X215658095Y-127121859D02*
X215537142Y-127182335D01*
X213964762Y-127968526D02*
X213964762Y-126698526D01*
X213964762Y-126698526D02*
X213480952Y-126698526D01*
X213480952Y-126698526D02*
X213360000Y-126759002D01*
X213360000Y-126759002D02*
X213299523Y-126819478D01*
X213299523Y-126819478D02*
X213239047Y-126940430D01*
X213239047Y-126940430D02*
X213239047Y-127121859D01*
X213239047Y-127121859D02*
X213299523Y-127242811D01*
X213299523Y-127242811D02*
X213360000Y-127303288D01*
X213360000Y-127303288D02*
X213480952Y-127363764D01*
X213480952Y-127363764D02*
X213964762Y-127363764D01*
X212513333Y-127968526D02*
X212634285Y-127908050D01*
X212634285Y-127908050D02*
X212694762Y-127847573D01*
X212694762Y-127847573D02*
X212755238Y-127726621D01*
X212755238Y-127726621D02*
X212755238Y-127363764D01*
X212755238Y-127363764D02*
X212694762Y-127242811D01*
X212694762Y-127242811D02*
X212634285Y-127182335D01*
X212634285Y-127182335D02*
X212513333Y-127121859D01*
X212513333Y-127121859D02*
X212331904Y-127121859D01*
X212331904Y-127121859D02*
X212210952Y-127182335D01*
X212210952Y-127182335D02*
X212150476Y-127242811D01*
X212150476Y-127242811D02*
X212090000Y-127363764D01*
X212090000Y-127363764D02*
X212090000Y-127726621D01*
X212090000Y-127726621D02*
X212150476Y-127847573D01*
X212150476Y-127847573D02*
X212210952Y-127908050D01*
X212210952Y-127908050D02*
X212331904Y-127968526D01*
X212331904Y-127968526D02*
X212513333Y-127968526D01*
X211666666Y-127121859D02*
X211424761Y-127968526D01*
X211424761Y-127968526D02*
X211182856Y-127363764D01*
X211182856Y-127363764D02*
X210940952Y-127968526D01*
X210940952Y-127968526D02*
X210699047Y-127121859D01*
X209731428Y-127908050D02*
X209852380Y-127968526D01*
X209852380Y-127968526D02*
X210094285Y-127968526D01*
X210094285Y-127968526D02*
X210215238Y-127908050D01*
X210215238Y-127908050D02*
X210275714Y-127787097D01*
X210275714Y-127787097D02*
X210275714Y-127303288D01*
X210275714Y-127303288D02*
X210215238Y-127182335D01*
X210215238Y-127182335D02*
X210094285Y-127121859D01*
X210094285Y-127121859D02*
X209852380Y-127121859D01*
X209852380Y-127121859D02*
X209731428Y-127182335D01*
X209731428Y-127182335D02*
X209670952Y-127303288D01*
X209670952Y-127303288D02*
X209670952Y-127424240D01*
X209670952Y-127424240D02*
X210275714Y-127545192D01*
X209126667Y-127968526D02*
X209126667Y-127121859D01*
X209126667Y-127363764D02*
X209066190Y-127242811D01*
X209066190Y-127242811D02*
X209005714Y-127182335D01*
X209005714Y-127182335D02*
X208884762Y-127121859D01*
X208884762Y-127121859D02*
X208763809Y-127121859D01*
X207433334Y-127908050D02*
X207251905Y-127968526D01*
X207251905Y-127968526D02*
X206949524Y-127968526D01*
X206949524Y-127968526D02*
X206828572Y-127908050D01*
X206828572Y-127908050D02*
X206768096Y-127847573D01*
X206768096Y-127847573D02*
X206707619Y-127726621D01*
X206707619Y-127726621D02*
X206707619Y-127605669D01*
X206707619Y-127605669D02*
X206768096Y-127484716D01*
X206768096Y-127484716D02*
X206828572Y-127424240D01*
X206828572Y-127424240D02*
X206949524Y-127363764D01*
X206949524Y-127363764D02*
X207191429Y-127303288D01*
X207191429Y-127303288D02*
X207312381Y-127242811D01*
X207312381Y-127242811D02*
X207372858Y-127182335D01*
X207372858Y-127182335D02*
X207433334Y-127061383D01*
X207433334Y-127061383D02*
X207433334Y-126940430D01*
X207433334Y-126940430D02*
X207372858Y-126819478D01*
X207372858Y-126819478D02*
X207312381Y-126759002D01*
X207312381Y-126759002D02*
X207191429Y-126698526D01*
X207191429Y-126698526D02*
X206889048Y-126698526D01*
X206889048Y-126698526D02*
X206707619Y-126759002D01*
X205619048Y-127121859D02*
X205619048Y-127968526D01*
X206163334Y-127121859D02*
X206163334Y-127787097D01*
X206163334Y-127787097D02*
X206102857Y-127908050D01*
X206102857Y-127908050D02*
X205981905Y-127968526D01*
X205981905Y-127968526D02*
X205800476Y-127968526D01*
X205800476Y-127968526D02*
X205679524Y-127908050D01*
X205679524Y-127908050D02*
X205619048Y-127847573D01*
X205014286Y-127121859D02*
X205014286Y-128391859D01*
X205014286Y-127182335D02*
X204893333Y-127121859D01*
X204893333Y-127121859D02*
X204651428Y-127121859D01*
X204651428Y-127121859D02*
X204530476Y-127182335D01*
X204530476Y-127182335D02*
X204470000Y-127242811D01*
X204470000Y-127242811D02*
X204409524Y-127363764D01*
X204409524Y-127363764D02*
X204409524Y-127726621D01*
X204409524Y-127726621D02*
X204470000Y-127847573D01*
X204470000Y-127847573D02*
X204530476Y-127908050D01*
X204530476Y-127908050D02*
X204651428Y-127968526D01*
X204651428Y-127968526D02*
X204893333Y-127968526D01*
X204893333Y-127968526D02*
X205014286Y-127908050D01*
X203865238Y-127121859D02*
X203865238Y-128391859D01*
X203865238Y-127182335D02*
X203744285Y-127121859D01*
X203744285Y-127121859D02*
X203502380Y-127121859D01*
X203502380Y-127121859D02*
X203381428Y-127182335D01*
X203381428Y-127182335D02*
X203320952Y-127242811D01*
X203320952Y-127242811D02*
X203260476Y-127363764D01*
X203260476Y-127363764D02*
X203260476Y-127726621D01*
X203260476Y-127726621D02*
X203320952Y-127847573D01*
X203320952Y-127847573D02*
X203381428Y-127908050D01*
X203381428Y-127908050D02*
X203502380Y-127968526D01*
X203502380Y-127968526D02*
X203744285Y-127968526D01*
X203744285Y-127968526D02*
X203865238Y-127908050D01*
X202534761Y-127968526D02*
X202655713Y-127908050D01*
X202655713Y-127908050D02*
X202716190Y-127787097D01*
X202716190Y-127787097D02*
X202716190Y-126698526D01*
X202171904Y-127121859D02*
X201869523Y-127968526D01*
X201567142Y-127121859D02*
X201869523Y-127968526D01*
X201869523Y-127968526D02*
X201990475Y-128270907D01*
X201990475Y-128270907D02*
X202050952Y-128331383D01*
X202050952Y-128331383D02*
X202171904Y-128391859D01*
D11*
X204322437Y-130252264D02*
X204206323Y-130290969D01*
X204206323Y-130290969D02*
X204167618Y-130329673D01*
X204167618Y-130329673D02*
X204128914Y-130407083D01*
X204128914Y-130407083D02*
X204128914Y-130523197D01*
X204128914Y-130523197D02*
X204167618Y-130600607D01*
X204167618Y-130600607D02*
X204206323Y-130639312D01*
X204206323Y-130639312D02*
X204283733Y-130678016D01*
X204283733Y-130678016D02*
X204593371Y-130678016D01*
X204593371Y-130678016D02*
X204593371Y-129865216D01*
X204593371Y-129865216D02*
X204322437Y-129865216D01*
X204322437Y-129865216D02*
X204245028Y-129903921D01*
X204245028Y-129903921D02*
X204206323Y-129942626D01*
X204206323Y-129942626D02*
X204167618Y-130020035D01*
X204167618Y-130020035D02*
X204167618Y-130097445D01*
X204167618Y-130097445D02*
X204206323Y-130174854D01*
X204206323Y-130174854D02*
X204245028Y-130213559D01*
X204245028Y-130213559D02*
X204322437Y-130252264D01*
X204322437Y-130252264D02*
X204593371Y-130252264D01*
X203819275Y-129942626D02*
X203780571Y-129903921D01*
X203780571Y-129903921D02*
X203703161Y-129865216D01*
X203703161Y-129865216D02*
X203509637Y-129865216D01*
X203509637Y-129865216D02*
X203432228Y-129903921D01*
X203432228Y-129903921D02*
X203393523Y-129942626D01*
X203393523Y-129942626D02*
X203354818Y-130020035D01*
X203354818Y-130020035D02*
X203354818Y-130097445D01*
X203354818Y-130097445D02*
X203393523Y-130213559D01*
X203393523Y-130213559D02*
X203857980Y-130678016D01*
X203857980Y-130678016D02*
X203354818Y-130678016D01*
X202851657Y-129865216D02*
X202774247Y-129865216D01*
X202774247Y-129865216D02*
X202696838Y-129903921D01*
X202696838Y-129903921D02*
X202658133Y-129942626D01*
X202658133Y-129942626D02*
X202619428Y-130020035D01*
X202619428Y-130020035D02*
X202580723Y-130174854D01*
X202580723Y-130174854D02*
X202580723Y-130368378D01*
X202580723Y-130368378D02*
X202619428Y-130523197D01*
X202619428Y-130523197D02*
X202658133Y-130600607D01*
X202658133Y-130600607D02*
X202696838Y-130639312D01*
X202696838Y-130639312D02*
X202774247Y-130678016D01*
X202774247Y-130678016D02*
X202851657Y-130678016D01*
X202851657Y-130678016D02*
X202929066Y-130639312D01*
X202929066Y-130639312D02*
X202967771Y-130600607D01*
X202967771Y-130600607D02*
X203006476Y-130523197D01*
X203006476Y-130523197D02*
X203045180Y-130368378D01*
X203045180Y-130368378D02*
X203045180Y-130174854D01*
X203045180Y-130174854D02*
X203006476Y-130020035D01*
X203006476Y-130020035D02*
X202967771Y-129942626D01*
X202967771Y-129942626D02*
X202929066Y-129903921D01*
X202929066Y-129903921D02*
X202851657Y-129865216D01*
X201961447Y-130252264D02*
X201845333Y-130290969D01*
X201845333Y-130290969D02*
X201806628Y-130329673D01*
X201806628Y-130329673D02*
X201767924Y-130407083D01*
X201767924Y-130407083D02*
X201767924Y-130523197D01*
X201767924Y-130523197D02*
X201806628Y-130600607D01*
X201806628Y-130600607D02*
X201845333Y-130639312D01*
X201845333Y-130639312D02*
X201922743Y-130678016D01*
X201922743Y-130678016D02*
X202232381Y-130678016D01*
X202232381Y-130678016D02*
X202232381Y-129865216D01*
X202232381Y-129865216D02*
X201961447Y-129865216D01*
X201961447Y-129865216D02*
X201884038Y-129903921D01*
X201884038Y-129903921D02*
X201845333Y-129942626D01*
X201845333Y-129942626D02*
X201806628Y-130020035D01*
X201806628Y-130020035D02*
X201806628Y-130097445D01*
X201806628Y-130097445D02*
X201845333Y-130174854D01*
X201845333Y-130174854D02*
X201884038Y-130213559D01*
X201884038Y-130213559D02*
X201961447Y-130252264D01*
X201961447Y-130252264D02*
X202232381Y-130252264D01*
%LPC*%
D13*
G36*
X276606000Y-139446000D02*
G01*
X276098000Y-139954000D01*
X198882000Y-139954000D01*
X198374000Y-139446000D01*
X198374000Y-132080000D01*
X276606000Y-132080000D01*
X276606000Y-139446000D01*
G37*
D14*
X274320000Y-135282000D03*
X271780000Y-135282000D03*
X269240000Y-135282000D03*
X266700000Y-135282000D03*
X264160000Y-135282000D03*
X261620000Y-135282000D03*
X259080000Y-135282000D03*
X256540000Y-135282000D03*
X254000000Y-135282000D03*
X251460000Y-135282000D03*
X248920000Y-135282000D03*
X246380000Y-135282000D03*
X243840000Y-135282000D03*
X241300000Y-135282000D03*
X238760000Y-135282000D03*
X236220000Y-135282000D03*
X233680000Y-135282000D03*
X231140000Y-135282000D03*
X228600000Y-135282000D03*
X226060000Y-135282000D03*
X223520000Y-135282000D03*
X220980000Y-135282000D03*
X218440000Y-135282000D03*
X215900000Y-135282000D03*
X213360000Y-135282000D03*
X210820000Y-135282000D03*
X208280000Y-135282000D03*
X205740000Y-135282000D03*
X203200000Y-135282000D03*
X200660000Y-135282000D03*
D15*
X274320000Y-128397000D03*
D16*
X208026000Y-111760000D03*
D17*
X205486000Y-111760000D03*
D16*
X202946000Y-111760000D03*
X208026000Y-117475000D03*
X202946000Y-117475000D03*
D17*
X206502000Y-119380000D03*
X204470000Y-119380000D03*
D18*
X200660000Y-129540000D03*
X200914000Y-92202000D03*
X274066000Y-92202000D03*
X274320000Y-125857000D03*
D19*
X202946000Y-98425000D03*
D20*
X202946000Y-100965000D03*
M02*
