G04 #@! TF.GenerationSoftware,KiCad,Pcbnew,(5.1.10-1-10_14)*
G04 #@! TF.CreationDate,2021-06-01T03:38:36-04:00*
G04 #@! TF.ProjectId,RAM2E,52414d32-452e-46b6-9963-61645f706362,2.0*
G04 #@! TF.SameCoordinates,Original*
G04 #@! TF.FileFunction,Legend,Bot*
G04 #@! TF.FilePolarity,Positive*
%FSLAX46Y46*%
G04 Gerber Fmt 4.6, Leading zero omitted, Abs format (unit mm)*
G04 Created by KiCad (PCBNEW (5.1.10-1-10_14)) date 2021-06-01 03:38:36*
%MOMM*%
%LPD*%
G01*
G04 APERTURE LIST*
%ADD10C,0.203200*%
%ADD11C,0.200000*%
%ADD12C,0.190500*%
%ADD13C,0.100000*%
%ADD14C,2.474900*%
%ADD15C,1.090600*%
%ADD16O,1.800000X1.800000*%
%ADD17C,2.100000*%
%ADD18C,1.448000*%
G04 APERTURE END LIST*
D10*
X204322438Y-130243942D02*
X204206323Y-130282647D01*
X204167619Y-130321352D01*
X204128914Y-130398761D01*
X204128914Y-130514876D01*
X204167619Y-130592285D01*
X204206323Y-130630990D01*
X204283733Y-130669695D01*
X204593371Y-130669695D01*
X204593371Y-129856895D01*
X204322438Y-129856895D01*
X204245028Y-129895600D01*
X204206323Y-129934304D01*
X204167619Y-130011714D01*
X204167619Y-130089123D01*
X204206323Y-130166533D01*
X204245028Y-130205238D01*
X204322438Y-130243942D01*
X204593371Y-130243942D01*
X203819276Y-129934304D02*
X203780571Y-129895600D01*
X203703161Y-129856895D01*
X203509638Y-129856895D01*
X203432228Y-129895600D01*
X203393523Y-129934304D01*
X203354819Y-130011714D01*
X203354819Y-130089123D01*
X203393523Y-130205238D01*
X203857980Y-130669695D01*
X203354819Y-130669695D01*
X202851657Y-129856895D02*
X202774247Y-129856895D01*
X202696838Y-129895600D01*
X202658133Y-129934304D01*
X202619428Y-130011714D01*
X202580723Y-130166533D01*
X202580723Y-130360057D01*
X202619428Y-130514876D01*
X202658133Y-130592285D01*
X202696838Y-130630990D01*
X202774247Y-130669695D01*
X202851657Y-130669695D01*
X202929066Y-130630990D01*
X202967771Y-130592285D01*
X203006476Y-130514876D01*
X203045180Y-130360057D01*
X203045180Y-130166533D01*
X203006476Y-130011714D01*
X202967771Y-129934304D01*
X202929066Y-129895600D01*
X202851657Y-129856895D01*
X201961447Y-130243942D02*
X201845333Y-130282647D01*
X201806628Y-130321352D01*
X201767923Y-130398761D01*
X201767923Y-130514876D01*
X201806628Y-130592285D01*
X201845333Y-130630990D01*
X201922742Y-130669695D01*
X202232380Y-130669695D01*
X202232380Y-129856895D01*
X201961447Y-129856895D01*
X201884038Y-129895600D01*
X201845333Y-129934304D01*
X201806628Y-130011714D01*
X201806628Y-130089123D01*
X201845333Y-130166533D01*
X201884038Y-130205238D01*
X201961447Y-130243942D01*
X202232380Y-130243942D01*
D11*
X230293333Y-126685523D02*
X229567619Y-126685523D01*
X229930476Y-127955523D02*
X229930476Y-126685523D01*
X229144285Y-127955523D02*
X229144285Y-126685523D01*
X228600000Y-127955523D02*
X228600000Y-127290285D01*
X228660476Y-127169333D01*
X228781428Y-127108857D01*
X228962857Y-127108857D01*
X229083809Y-127169333D01*
X229144285Y-127229809D01*
X227995238Y-127955523D02*
X227995238Y-127108857D01*
X227995238Y-126685523D02*
X228055714Y-126746000D01*
X227995238Y-126806476D01*
X227934761Y-126746000D01*
X227995238Y-126685523D01*
X227995238Y-126806476D01*
X227450952Y-127895047D02*
X227330000Y-127955523D01*
X227088095Y-127955523D01*
X226967142Y-127895047D01*
X226906666Y-127774095D01*
X226906666Y-127713619D01*
X226967142Y-127592666D01*
X227088095Y-127532190D01*
X227269523Y-127532190D01*
X227390476Y-127471714D01*
X227450952Y-127350761D01*
X227450952Y-127290285D01*
X227390476Y-127169333D01*
X227269523Y-127108857D01*
X227088095Y-127108857D01*
X226967142Y-127169333D01*
X225455238Y-127895047D02*
X225273809Y-127955523D01*
X224971428Y-127955523D01*
X224850476Y-127895047D01*
X224790000Y-127834571D01*
X224729523Y-127713619D01*
X224729523Y-127592666D01*
X224790000Y-127471714D01*
X224850476Y-127411238D01*
X224971428Y-127350761D01*
X225213333Y-127290285D01*
X225334285Y-127229809D01*
X225394761Y-127169333D01*
X225455238Y-127048380D01*
X225455238Y-126927428D01*
X225394761Y-126806476D01*
X225334285Y-126746000D01*
X225213333Y-126685523D01*
X224910952Y-126685523D01*
X224729523Y-126746000D01*
X224185238Y-127955523D02*
X224185238Y-127108857D01*
X224185238Y-126685523D02*
X224245714Y-126746000D01*
X224185238Y-126806476D01*
X224124761Y-126746000D01*
X224185238Y-126685523D01*
X224185238Y-126806476D01*
X223036190Y-127955523D02*
X223036190Y-126685523D01*
X223036190Y-127895047D02*
X223157142Y-127955523D01*
X223399047Y-127955523D01*
X223520000Y-127895047D01*
X223580476Y-127834571D01*
X223640952Y-127713619D01*
X223640952Y-127350761D01*
X223580476Y-127229809D01*
X223520000Y-127169333D01*
X223399047Y-127108857D01*
X223157142Y-127108857D01*
X223036190Y-127169333D01*
X221947619Y-127895047D02*
X222068571Y-127955523D01*
X222310476Y-127955523D01*
X222431428Y-127895047D01*
X222491904Y-127774095D01*
X222491904Y-127290285D01*
X222431428Y-127169333D01*
X222310476Y-127108857D01*
X222068571Y-127108857D01*
X221947619Y-127169333D01*
X221887142Y-127290285D01*
X221887142Y-127411238D01*
X222491904Y-127532190D01*
X219951904Y-127290285D02*
X220375238Y-127290285D01*
X220375238Y-127955523D02*
X220375238Y-126685523D01*
X219770476Y-126685523D01*
X218742380Y-127955523D02*
X218742380Y-127290285D01*
X218802857Y-127169333D01*
X218923809Y-127108857D01*
X219165714Y-127108857D01*
X219286666Y-127169333D01*
X218742380Y-127895047D02*
X218863333Y-127955523D01*
X219165714Y-127955523D01*
X219286666Y-127895047D01*
X219347142Y-127774095D01*
X219347142Y-127653142D01*
X219286666Y-127532190D01*
X219165714Y-127471714D01*
X218863333Y-127471714D01*
X218742380Y-127411238D01*
X217593333Y-127895047D02*
X217714285Y-127955523D01*
X217956190Y-127955523D01*
X218077142Y-127895047D01*
X218137619Y-127834571D01*
X218198095Y-127713619D01*
X218198095Y-127350761D01*
X218137619Y-127229809D01*
X218077142Y-127169333D01*
X217956190Y-127108857D01*
X217714285Y-127108857D01*
X217593333Y-127169333D01*
X216565238Y-127895047D02*
X216686190Y-127955523D01*
X216928095Y-127955523D01*
X217049047Y-127895047D01*
X217109523Y-127774095D01*
X217109523Y-127290285D01*
X217049047Y-127169333D01*
X216928095Y-127108857D01*
X216686190Y-127108857D01*
X216565238Y-127169333D01*
X216504761Y-127290285D01*
X216504761Y-127411238D01*
X217109523Y-127532190D01*
X216020952Y-127895047D02*
X215900000Y-127955523D01*
X215658095Y-127955523D01*
X215537142Y-127895047D01*
X215476666Y-127774095D01*
X215476666Y-127713619D01*
X215537142Y-127592666D01*
X215658095Y-127532190D01*
X215839523Y-127532190D01*
X215960476Y-127471714D01*
X216020952Y-127350761D01*
X216020952Y-127290285D01*
X215960476Y-127169333D01*
X215839523Y-127108857D01*
X215658095Y-127108857D01*
X215537142Y-127169333D01*
X213964761Y-127955523D02*
X213964761Y-126685523D01*
X213480952Y-126685523D01*
X213360000Y-126746000D01*
X213299523Y-126806476D01*
X213239047Y-126927428D01*
X213239047Y-127108857D01*
X213299523Y-127229809D01*
X213360000Y-127290285D01*
X213480952Y-127350761D01*
X213964761Y-127350761D01*
X212513333Y-127955523D02*
X212634285Y-127895047D01*
X212694761Y-127834571D01*
X212755238Y-127713619D01*
X212755238Y-127350761D01*
X212694761Y-127229809D01*
X212634285Y-127169333D01*
X212513333Y-127108857D01*
X212331904Y-127108857D01*
X212210952Y-127169333D01*
X212150476Y-127229809D01*
X212090000Y-127350761D01*
X212090000Y-127713619D01*
X212150476Y-127834571D01*
X212210952Y-127895047D01*
X212331904Y-127955523D01*
X212513333Y-127955523D01*
X211666666Y-127108857D02*
X211424761Y-127955523D01*
X211182857Y-127350761D01*
X210940952Y-127955523D01*
X210699047Y-127108857D01*
X209731428Y-127895047D02*
X209852380Y-127955523D01*
X210094285Y-127955523D01*
X210215238Y-127895047D01*
X210275714Y-127774095D01*
X210275714Y-127290285D01*
X210215238Y-127169333D01*
X210094285Y-127108857D01*
X209852380Y-127108857D01*
X209731428Y-127169333D01*
X209670952Y-127290285D01*
X209670952Y-127411238D01*
X210275714Y-127532190D01*
X209126666Y-127955523D02*
X209126666Y-127108857D01*
X209126666Y-127350761D02*
X209066190Y-127229809D01*
X209005714Y-127169333D01*
X208884761Y-127108857D01*
X208763809Y-127108857D01*
X207433333Y-127895047D02*
X207251904Y-127955523D01*
X206949523Y-127955523D01*
X206828571Y-127895047D01*
X206768095Y-127834571D01*
X206707619Y-127713619D01*
X206707619Y-127592666D01*
X206768095Y-127471714D01*
X206828571Y-127411238D01*
X206949523Y-127350761D01*
X207191428Y-127290285D01*
X207312380Y-127229809D01*
X207372857Y-127169333D01*
X207433333Y-127048380D01*
X207433333Y-126927428D01*
X207372857Y-126806476D01*
X207312380Y-126746000D01*
X207191428Y-126685523D01*
X206889047Y-126685523D01*
X206707619Y-126746000D01*
X205619047Y-127108857D02*
X205619047Y-127955523D01*
X206163333Y-127108857D02*
X206163333Y-127774095D01*
X206102857Y-127895047D01*
X205981904Y-127955523D01*
X205800476Y-127955523D01*
X205679523Y-127895047D01*
X205619047Y-127834571D01*
X205014285Y-127108857D02*
X205014285Y-128378857D01*
X205014285Y-127169333D02*
X204893333Y-127108857D01*
X204651428Y-127108857D01*
X204530476Y-127169333D01*
X204470000Y-127229809D01*
X204409523Y-127350761D01*
X204409523Y-127713619D01*
X204470000Y-127834571D01*
X204530476Y-127895047D01*
X204651428Y-127955523D01*
X204893333Y-127955523D01*
X205014285Y-127895047D01*
X203865238Y-127108857D02*
X203865238Y-128378857D01*
X203865238Y-127169333D02*
X203744285Y-127108857D01*
X203502380Y-127108857D01*
X203381428Y-127169333D01*
X203320952Y-127229809D01*
X203260476Y-127350761D01*
X203260476Y-127713619D01*
X203320952Y-127834571D01*
X203381428Y-127895047D01*
X203502380Y-127955523D01*
X203744285Y-127955523D01*
X203865238Y-127895047D01*
X202534761Y-127955523D02*
X202655714Y-127895047D01*
X202716190Y-127774095D01*
X202716190Y-126685523D01*
X202171904Y-127108857D02*
X201869523Y-127955523D01*
X201567142Y-127108857D02*
X201869523Y-127955523D01*
X201990476Y-128257904D01*
X202050952Y-128318380D01*
X202171904Y-128378857D01*
D10*
X272445238Y-129856895D02*
X271903371Y-129856895D01*
X272445238Y-130669695D01*
X271903371Y-130669695D01*
X271593733Y-130669695D02*
X271593733Y-129856895D01*
X271129276Y-130669695D02*
X271477619Y-130205238D01*
X271129276Y-129856895D02*
X271593733Y-130321352D01*
X270742228Y-130630990D02*
X270742228Y-130669695D01*
X270780933Y-130747104D01*
X270819638Y-130785809D01*
X269348857Y-129895600D02*
X269426266Y-129856895D01*
X269542380Y-129856895D01*
X269658495Y-129895600D01*
X269735904Y-129973009D01*
X269774609Y-130050419D01*
X269813314Y-130205238D01*
X269813314Y-130321352D01*
X269774609Y-130476171D01*
X269735904Y-130553580D01*
X269658495Y-130630990D01*
X269542380Y-130669695D01*
X269464971Y-130669695D01*
X269348857Y-130630990D01*
X269310152Y-130592285D01*
X269310152Y-130321352D01*
X269464971Y-130321352D01*
X268690876Y-130243942D02*
X268961809Y-130243942D01*
X268961809Y-130669695D02*
X268961809Y-129856895D01*
X268574761Y-129856895D01*
D11*
X232410000Y-126492000D02*
X233426000Y-128270000D01*
X231394000Y-128270000D02*
X232410000Y-126492000D01*
X233426000Y-128270000D02*
X231394000Y-128270000D01*
D12*
X232410000Y-127907142D02*
X232373714Y-127943428D01*
X232410000Y-127979714D01*
X232446285Y-127943428D01*
X232410000Y-127907142D01*
X232410000Y-127979714D01*
X232410000Y-127689428D02*
X232446285Y-127254000D01*
X232410000Y-127217714D01*
X232373714Y-127254000D01*
X232410000Y-127689428D01*
X232410000Y-127217714D01*
%LPC*%
D13*
G36*
X276606000Y-139446000D02*
G01*
X276098000Y-139954000D01*
X198882000Y-139954000D01*
X198374000Y-139446000D01*
X198374000Y-132080000D01*
X276606000Y-132080000D01*
X276606000Y-139446000D01*
G37*
D14*
X208026000Y-117475000D03*
X202946000Y-117475000D03*
X202946000Y-111760000D03*
X208026000Y-111760000D03*
D15*
X205486000Y-111760000D03*
X204470000Y-119380000D03*
X206502000Y-119380000D03*
D16*
X202946000Y-100965000D03*
G36*
G01*
X202046000Y-99275000D02*
X202046000Y-97575000D01*
G75*
G02*
X202096000Y-97525000I50000J0D01*
G01*
X203796000Y-97525000D01*
G75*
G02*
X203846000Y-97575000I0J-50000D01*
G01*
X203846000Y-99275000D01*
G75*
G02*
X203796000Y-99325000I-50000J0D01*
G01*
X202096000Y-99325000D01*
G75*
G02*
X202046000Y-99275000I0J50000D01*
G01*
G37*
D17*
X274320000Y-128397000D03*
G36*
G01*
X201472000Y-131968000D02*
X201472000Y-138596000D01*
G75*
G02*
X201066000Y-139002000I-406000J0D01*
G01*
X200254000Y-139002000D01*
G75*
G02*
X199848000Y-138596000I0J406000D01*
G01*
X199848000Y-131968000D01*
G75*
G02*
X200254000Y-131562000I406000J0D01*
G01*
X201066000Y-131562000D01*
G75*
G02*
X201472000Y-131968000I0J-406000D01*
G01*
G37*
G36*
G01*
X204012000Y-131968000D02*
X204012000Y-138596000D01*
G75*
G02*
X203606000Y-139002000I-406000J0D01*
G01*
X202794000Y-139002000D01*
G75*
G02*
X202388000Y-138596000I0J406000D01*
G01*
X202388000Y-131968000D01*
G75*
G02*
X202794000Y-131562000I406000J0D01*
G01*
X203606000Y-131562000D01*
G75*
G02*
X204012000Y-131968000I0J-406000D01*
G01*
G37*
G36*
G01*
X206552000Y-131968000D02*
X206552000Y-138596000D01*
G75*
G02*
X206146000Y-139002000I-406000J0D01*
G01*
X205334000Y-139002000D01*
G75*
G02*
X204928000Y-138596000I0J406000D01*
G01*
X204928000Y-131968000D01*
G75*
G02*
X205334000Y-131562000I406000J0D01*
G01*
X206146000Y-131562000D01*
G75*
G02*
X206552000Y-131968000I0J-406000D01*
G01*
G37*
G36*
G01*
X209092000Y-131968000D02*
X209092000Y-138596000D01*
G75*
G02*
X208686000Y-139002000I-406000J0D01*
G01*
X207874000Y-139002000D01*
G75*
G02*
X207468000Y-138596000I0J406000D01*
G01*
X207468000Y-131968000D01*
G75*
G02*
X207874000Y-131562000I406000J0D01*
G01*
X208686000Y-131562000D01*
G75*
G02*
X209092000Y-131968000I0J-406000D01*
G01*
G37*
G36*
G01*
X211632000Y-131968000D02*
X211632000Y-138596000D01*
G75*
G02*
X211226000Y-139002000I-406000J0D01*
G01*
X210414000Y-139002000D01*
G75*
G02*
X210008000Y-138596000I0J406000D01*
G01*
X210008000Y-131968000D01*
G75*
G02*
X210414000Y-131562000I406000J0D01*
G01*
X211226000Y-131562000D01*
G75*
G02*
X211632000Y-131968000I0J-406000D01*
G01*
G37*
G36*
G01*
X214172000Y-131968000D02*
X214172000Y-138596000D01*
G75*
G02*
X213766000Y-139002000I-406000J0D01*
G01*
X212954000Y-139002000D01*
G75*
G02*
X212548000Y-138596000I0J406000D01*
G01*
X212548000Y-131968000D01*
G75*
G02*
X212954000Y-131562000I406000J0D01*
G01*
X213766000Y-131562000D01*
G75*
G02*
X214172000Y-131968000I0J-406000D01*
G01*
G37*
G36*
G01*
X216712000Y-131968000D02*
X216712000Y-138596000D01*
G75*
G02*
X216306000Y-139002000I-406000J0D01*
G01*
X215494000Y-139002000D01*
G75*
G02*
X215088000Y-138596000I0J406000D01*
G01*
X215088000Y-131968000D01*
G75*
G02*
X215494000Y-131562000I406000J0D01*
G01*
X216306000Y-131562000D01*
G75*
G02*
X216712000Y-131968000I0J-406000D01*
G01*
G37*
G36*
G01*
X219252000Y-131968000D02*
X219252000Y-138596000D01*
G75*
G02*
X218846000Y-139002000I-406000J0D01*
G01*
X218034000Y-139002000D01*
G75*
G02*
X217628000Y-138596000I0J406000D01*
G01*
X217628000Y-131968000D01*
G75*
G02*
X218034000Y-131562000I406000J0D01*
G01*
X218846000Y-131562000D01*
G75*
G02*
X219252000Y-131968000I0J-406000D01*
G01*
G37*
G36*
G01*
X221792000Y-131968000D02*
X221792000Y-138596000D01*
G75*
G02*
X221386000Y-139002000I-406000J0D01*
G01*
X220574000Y-139002000D01*
G75*
G02*
X220168000Y-138596000I0J406000D01*
G01*
X220168000Y-131968000D01*
G75*
G02*
X220574000Y-131562000I406000J0D01*
G01*
X221386000Y-131562000D01*
G75*
G02*
X221792000Y-131968000I0J-406000D01*
G01*
G37*
G36*
G01*
X224332000Y-131968000D02*
X224332000Y-138596000D01*
G75*
G02*
X223926000Y-139002000I-406000J0D01*
G01*
X223114000Y-139002000D01*
G75*
G02*
X222708000Y-138596000I0J406000D01*
G01*
X222708000Y-131968000D01*
G75*
G02*
X223114000Y-131562000I406000J0D01*
G01*
X223926000Y-131562000D01*
G75*
G02*
X224332000Y-131968000I0J-406000D01*
G01*
G37*
G36*
G01*
X226872000Y-131968000D02*
X226872000Y-138596000D01*
G75*
G02*
X226466000Y-139002000I-406000J0D01*
G01*
X225654000Y-139002000D01*
G75*
G02*
X225248000Y-138596000I0J406000D01*
G01*
X225248000Y-131968000D01*
G75*
G02*
X225654000Y-131562000I406000J0D01*
G01*
X226466000Y-131562000D01*
G75*
G02*
X226872000Y-131968000I0J-406000D01*
G01*
G37*
G36*
G01*
X229412000Y-131968000D02*
X229412000Y-138596000D01*
G75*
G02*
X229006000Y-139002000I-406000J0D01*
G01*
X228194000Y-139002000D01*
G75*
G02*
X227788000Y-138596000I0J406000D01*
G01*
X227788000Y-131968000D01*
G75*
G02*
X228194000Y-131562000I406000J0D01*
G01*
X229006000Y-131562000D01*
G75*
G02*
X229412000Y-131968000I0J-406000D01*
G01*
G37*
G36*
G01*
X231952000Y-131968000D02*
X231952000Y-138596000D01*
G75*
G02*
X231546000Y-139002000I-406000J0D01*
G01*
X230734000Y-139002000D01*
G75*
G02*
X230328000Y-138596000I0J406000D01*
G01*
X230328000Y-131968000D01*
G75*
G02*
X230734000Y-131562000I406000J0D01*
G01*
X231546000Y-131562000D01*
G75*
G02*
X231952000Y-131968000I0J-406000D01*
G01*
G37*
G36*
G01*
X234492000Y-131968000D02*
X234492000Y-138596000D01*
G75*
G02*
X234086000Y-139002000I-406000J0D01*
G01*
X233274000Y-139002000D01*
G75*
G02*
X232868000Y-138596000I0J406000D01*
G01*
X232868000Y-131968000D01*
G75*
G02*
X233274000Y-131562000I406000J0D01*
G01*
X234086000Y-131562000D01*
G75*
G02*
X234492000Y-131968000I0J-406000D01*
G01*
G37*
G36*
G01*
X237032000Y-131968000D02*
X237032000Y-138596000D01*
G75*
G02*
X236626000Y-139002000I-406000J0D01*
G01*
X235814000Y-139002000D01*
G75*
G02*
X235408000Y-138596000I0J406000D01*
G01*
X235408000Y-131968000D01*
G75*
G02*
X235814000Y-131562000I406000J0D01*
G01*
X236626000Y-131562000D01*
G75*
G02*
X237032000Y-131968000I0J-406000D01*
G01*
G37*
G36*
G01*
X239572000Y-131968000D02*
X239572000Y-138596000D01*
G75*
G02*
X239166000Y-139002000I-406000J0D01*
G01*
X238354000Y-139002000D01*
G75*
G02*
X237948000Y-138596000I0J406000D01*
G01*
X237948000Y-131968000D01*
G75*
G02*
X238354000Y-131562000I406000J0D01*
G01*
X239166000Y-131562000D01*
G75*
G02*
X239572000Y-131968000I0J-406000D01*
G01*
G37*
G36*
G01*
X242112000Y-131968000D02*
X242112000Y-138596000D01*
G75*
G02*
X241706000Y-139002000I-406000J0D01*
G01*
X240894000Y-139002000D01*
G75*
G02*
X240488000Y-138596000I0J406000D01*
G01*
X240488000Y-131968000D01*
G75*
G02*
X240894000Y-131562000I406000J0D01*
G01*
X241706000Y-131562000D01*
G75*
G02*
X242112000Y-131968000I0J-406000D01*
G01*
G37*
G36*
G01*
X244652000Y-131968000D02*
X244652000Y-138596000D01*
G75*
G02*
X244246000Y-139002000I-406000J0D01*
G01*
X243434000Y-139002000D01*
G75*
G02*
X243028000Y-138596000I0J406000D01*
G01*
X243028000Y-131968000D01*
G75*
G02*
X243434000Y-131562000I406000J0D01*
G01*
X244246000Y-131562000D01*
G75*
G02*
X244652000Y-131968000I0J-406000D01*
G01*
G37*
G36*
G01*
X247192000Y-131968000D02*
X247192000Y-138596000D01*
G75*
G02*
X246786000Y-139002000I-406000J0D01*
G01*
X245974000Y-139002000D01*
G75*
G02*
X245568000Y-138596000I0J406000D01*
G01*
X245568000Y-131968000D01*
G75*
G02*
X245974000Y-131562000I406000J0D01*
G01*
X246786000Y-131562000D01*
G75*
G02*
X247192000Y-131968000I0J-406000D01*
G01*
G37*
G36*
G01*
X249732000Y-131968000D02*
X249732000Y-138596000D01*
G75*
G02*
X249326000Y-139002000I-406000J0D01*
G01*
X248514000Y-139002000D01*
G75*
G02*
X248108000Y-138596000I0J406000D01*
G01*
X248108000Y-131968000D01*
G75*
G02*
X248514000Y-131562000I406000J0D01*
G01*
X249326000Y-131562000D01*
G75*
G02*
X249732000Y-131968000I0J-406000D01*
G01*
G37*
G36*
G01*
X252272000Y-131968000D02*
X252272000Y-138596000D01*
G75*
G02*
X251866000Y-139002000I-406000J0D01*
G01*
X251054000Y-139002000D01*
G75*
G02*
X250648000Y-138596000I0J406000D01*
G01*
X250648000Y-131968000D01*
G75*
G02*
X251054000Y-131562000I406000J0D01*
G01*
X251866000Y-131562000D01*
G75*
G02*
X252272000Y-131968000I0J-406000D01*
G01*
G37*
G36*
G01*
X254812000Y-131968000D02*
X254812000Y-138596000D01*
G75*
G02*
X254406000Y-139002000I-406000J0D01*
G01*
X253594000Y-139002000D01*
G75*
G02*
X253188000Y-138596000I0J406000D01*
G01*
X253188000Y-131968000D01*
G75*
G02*
X253594000Y-131562000I406000J0D01*
G01*
X254406000Y-131562000D01*
G75*
G02*
X254812000Y-131968000I0J-406000D01*
G01*
G37*
G36*
G01*
X257352000Y-131968000D02*
X257352000Y-138596000D01*
G75*
G02*
X256946000Y-139002000I-406000J0D01*
G01*
X256134000Y-139002000D01*
G75*
G02*
X255728000Y-138596000I0J406000D01*
G01*
X255728000Y-131968000D01*
G75*
G02*
X256134000Y-131562000I406000J0D01*
G01*
X256946000Y-131562000D01*
G75*
G02*
X257352000Y-131968000I0J-406000D01*
G01*
G37*
G36*
G01*
X259892000Y-131968000D02*
X259892000Y-138596000D01*
G75*
G02*
X259486000Y-139002000I-406000J0D01*
G01*
X258674000Y-139002000D01*
G75*
G02*
X258268000Y-138596000I0J406000D01*
G01*
X258268000Y-131968000D01*
G75*
G02*
X258674000Y-131562000I406000J0D01*
G01*
X259486000Y-131562000D01*
G75*
G02*
X259892000Y-131968000I0J-406000D01*
G01*
G37*
G36*
G01*
X262432000Y-131968000D02*
X262432000Y-138596000D01*
G75*
G02*
X262026000Y-139002000I-406000J0D01*
G01*
X261214000Y-139002000D01*
G75*
G02*
X260808000Y-138596000I0J406000D01*
G01*
X260808000Y-131968000D01*
G75*
G02*
X261214000Y-131562000I406000J0D01*
G01*
X262026000Y-131562000D01*
G75*
G02*
X262432000Y-131968000I0J-406000D01*
G01*
G37*
G36*
G01*
X264972000Y-131968000D02*
X264972000Y-138596000D01*
G75*
G02*
X264566000Y-139002000I-406000J0D01*
G01*
X263754000Y-139002000D01*
G75*
G02*
X263348000Y-138596000I0J406000D01*
G01*
X263348000Y-131968000D01*
G75*
G02*
X263754000Y-131562000I406000J0D01*
G01*
X264566000Y-131562000D01*
G75*
G02*
X264972000Y-131968000I0J-406000D01*
G01*
G37*
G36*
G01*
X267512000Y-131968000D02*
X267512000Y-138596000D01*
G75*
G02*
X267106000Y-139002000I-406000J0D01*
G01*
X266294000Y-139002000D01*
G75*
G02*
X265888000Y-138596000I0J406000D01*
G01*
X265888000Y-131968000D01*
G75*
G02*
X266294000Y-131562000I406000J0D01*
G01*
X267106000Y-131562000D01*
G75*
G02*
X267512000Y-131968000I0J-406000D01*
G01*
G37*
G36*
G01*
X270052000Y-131968000D02*
X270052000Y-138596000D01*
G75*
G02*
X269646000Y-139002000I-406000J0D01*
G01*
X268834000Y-139002000D01*
G75*
G02*
X268428000Y-138596000I0J406000D01*
G01*
X268428000Y-131968000D01*
G75*
G02*
X268834000Y-131562000I406000J0D01*
G01*
X269646000Y-131562000D01*
G75*
G02*
X270052000Y-131968000I0J-406000D01*
G01*
G37*
G36*
G01*
X272592000Y-131968000D02*
X272592000Y-138596000D01*
G75*
G02*
X272186000Y-139002000I-406000J0D01*
G01*
X271374000Y-139002000D01*
G75*
G02*
X270968000Y-138596000I0J406000D01*
G01*
X270968000Y-131968000D01*
G75*
G02*
X271374000Y-131562000I406000J0D01*
G01*
X272186000Y-131562000D01*
G75*
G02*
X272592000Y-131968000I0J-406000D01*
G01*
G37*
G36*
G01*
X275132000Y-131968000D02*
X275132000Y-138596000D01*
G75*
G02*
X274726000Y-139002000I-406000J0D01*
G01*
X273914000Y-139002000D01*
G75*
G02*
X273508000Y-138596000I0J406000D01*
G01*
X273508000Y-131968000D01*
G75*
G02*
X273914000Y-131562000I406000J0D01*
G01*
X274726000Y-131562000D01*
G75*
G02*
X275132000Y-131968000I0J-406000D01*
G01*
G37*
D18*
X200660000Y-129540000D03*
X200914000Y-92202000D03*
X274066000Y-92202000D03*
X274320000Y-125857000D03*
M02*
