G04 #@! TF.GenerationSoftware,KiCad,Pcbnew,7.0.10*
G04 #@! TF.CreationDate,2024-02-07T20:48:26-05:00*
G04 #@! TF.ProjectId,RAM2E,52414d32-452e-46b6-9963-61645f706362,2.1*
G04 #@! TF.SameCoordinates,Original*
G04 #@! TF.FileFunction,Paste,Top*
G04 #@! TF.FilePolarity,Positive*
%FSLAX46Y46*%
G04 Gerber Fmt 4.6, Leading zero omitted, Abs format (unit mm)*
G04 Created by KiCad (PCBNEW 7.0.10) date 2024-02-07 20:48:26*
%MOMM*%
%LPD*%
G01*
G04 APERTURE LIST*
G04 Aperture macros list*
%AMRoundRect*
0 Rectangle with rounded corners*
0 $1 Rounding radius*
0 $2 $3 $4 $5 $6 $7 $8 $9 X,Y pos of 4 corners*
0 Add a 4 corners polygon primitive as box body*
4,1,4,$2,$3,$4,$5,$6,$7,$8,$9,$2,$3,0*
0 Add four circle primitives for the rounded corners*
1,1,$1+$1,$2,$3*
1,1,$1+$1,$4,$5*
1,1,$1+$1,$6,$7*
1,1,$1+$1,$8,$9*
0 Add four rect primitives between the rounded corners*
20,1,$1+$1,$2,$3,$4,$5,0*
20,1,$1+$1,$4,$5,$6,$7,0*
20,1,$1+$1,$6,$7,$8,$9,0*
20,1,$1+$1,$8,$9,$2,$3,0*%
G04 Aperture macros list end*
%ADD10RoundRect,0.092500X0.092500X-0.592500X0.092500X0.592500X-0.092500X0.592500X-0.092500X-0.592500X0*%
%ADD11RoundRect,0.192500X-0.242500X0.192500X-0.242500X-0.192500X0.242500X-0.192500X0.242500X0.192500X0*%
%ADD12RoundRect,0.192500X0.242500X-0.192500X0.242500X0.192500X-0.242500X0.192500X-0.242500X-0.192500X0*%
%ADD13RoundRect,0.099500X-0.625500X-0.099500X0.625500X-0.099500X0.625500X0.099500X-0.625500X0.099500X0*%
%ADD14RoundRect,0.250000X0.250000X0.425000X-0.250000X0.425000X-0.250000X-0.425000X0.250000X-0.425000X0*%
%ADD15RoundRect,0.250000X-0.425000X0.250000X-0.425000X-0.250000X0.425000X-0.250000X0.425000X0.250000X0*%
%ADD16RoundRect,0.192500X-0.192500X-0.242500X0.192500X-0.242500X0.192500X0.242500X-0.192500X0.242500X0*%
%ADD17RoundRect,0.200000X-0.200000X-0.475000X0.200000X-0.475000X0.200000X0.475000X-0.200000X0.475000X0*%
%ADD18RoundRect,0.250000X0.425000X-0.250000X0.425000X0.250000X-0.425000X0.250000X-0.425000X-0.250000X0*%
%ADD19RoundRect,0.175000X-0.450000X-0.175000X0.450000X-0.175000X0.450000X0.175000X-0.450000X0.175000X0*%
%ADD20RoundRect,0.200000X0.475000X-0.200000X0.475000X0.200000X-0.475000X0.200000X-0.475000X-0.200000X0*%
%ADD21RoundRect,0.150000X-0.150000X-0.275000X0.150000X-0.275000X0.150000X0.275000X-0.150000X0.275000X0*%
%ADD22RoundRect,0.192500X0.192500X0.242500X-0.192500X0.242500X-0.192500X-0.242500X0.192500X-0.242500X0*%
%ADD23RoundRect,0.224700X0.224700X0.437200X-0.224700X0.437200X-0.224700X-0.437200X0.224700X-0.437200X0*%
%ADD24RoundRect,0.150000X-0.275000X0.150000X-0.275000X-0.150000X0.275000X-0.150000X0.275000X0.150000X0*%
%ADD25RoundRect,0.057500X0.645000X0.057500X-0.645000X0.057500X-0.645000X-0.057500X0.645000X-0.057500X0*%
%ADD26RoundRect,0.057500X0.057500X0.645000X-0.057500X0.645000X-0.057500X-0.645000X0.057500X-0.645000X0*%
%ADD27RoundRect,0.150000X0.150000X0.275000X-0.150000X0.275000X-0.150000X-0.275000X0.150000X-0.275000X0*%
%ADD28RoundRect,0.150000X0.275000X-0.150000X0.275000X0.150000X-0.275000X0.150000X-0.275000X-0.150000X0*%
%ADD29RoundRect,0.137500X0.487500X0.137500X-0.487500X0.137500X-0.487500X-0.137500X0.487500X-0.137500X0*%
G04 APERTURE END LIST*
D10*
X236250000Y-127550000D03*
X236900000Y-127550000D03*
X237550000Y-127550000D03*
X238200000Y-127550000D03*
X238850000Y-127550000D03*
X239500000Y-127550000D03*
X240150000Y-127550000D03*
X240800000Y-127550000D03*
X241450000Y-127550000D03*
X242100000Y-127550000D03*
X242100000Y-121650000D03*
X241450000Y-121650000D03*
X240800000Y-121650000D03*
X240150000Y-121650000D03*
X239500000Y-121650000D03*
X238850000Y-121650000D03*
X238200000Y-121650000D03*
X237550000Y-121650000D03*
X236900000Y-121650000D03*
X236250000Y-121650000D03*
D11*
X234750000Y-121650000D03*
X234750000Y-123150000D03*
X253150000Y-121650000D03*
X253150000Y-123150000D03*
D10*
X254650000Y-127550000D03*
X255300000Y-127550000D03*
X255950000Y-127550000D03*
X256600000Y-127550000D03*
X257250000Y-127550000D03*
X257900000Y-127550000D03*
X258550000Y-127550000D03*
X259200000Y-127550000D03*
X259850000Y-127550000D03*
X260500000Y-127550000D03*
X260500000Y-121650000D03*
X259850000Y-121650000D03*
X259200000Y-121650000D03*
X258550000Y-121650000D03*
X257900000Y-121650000D03*
X257250000Y-121650000D03*
X256600000Y-121650000D03*
X255950000Y-121650000D03*
X255300000Y-121650000D03*
X254650000Y-121650000D03*
D11*
X243950000Y-121650000D03*
X243950000Y-123150000D03*
D10*
X217850000Y-127550000D03*
X218500000Y-127550000D03*
X219150000Y-127550000D03*
X219800000Y-127550000D03*
X220450000Y-127550000D03*
X221100000Y-127550000D03*
X221750000Y-127550000D03*
X222400000Y-127550000D03*
X223050000Y-127550000D03*
X223700000Y-127550000D03*
X223700000Y-121650000D03*
X223050000Y-121650000D03*
X222400000Y-121650000D03*
X221750000Y-121650000D03*
X221100000Y-121650000D03*
X220450000Y-121650000D03*
X219800000Y-121650000D03*
X219150000Y-121650000D03*
X218500000Y-121650000D03*
X217850000Y-121650000D03*
X245450000Y-127550000D03*
X246100000Y-127550000D03*
X246750000Y-127550000D03*
X247400000Y-127550000D03*
X248050000Y-127550000D03*
X248700000Y-127550000D03*
X249350000Y-127550000D03*
X250000000Y-127550000D03*
X250650000Y-127550000D03*
X251300000Y-127550000D03*
X251300000Y-121650000D03*
X250650000Y-121650000D03*
X250000000Y-121650000D03*
X249350000Y-121650000D03*
X248700000Y-121650000D03*
X248050000Y-121650000D03*
X247400000Y-121650000D03*
X246750000Y-121650000D03*
X246100000Y-121650000D03*
X245450000Y-121650000D03*
X227050000Y-127550000D03*
X227700000Y-127550000D03*
X228350000Y-127550000D03*
X229000000Y-127550000D03*
X229650000Y-127550000D03*
X230300000Y-127550000D03*
X230950000Y-127550000D03*
X231600000Y-127550000D03*
X232250000Y-127550000D03*
X232900000Y-127550000D03*
X232900000Y-121650000D03*
X232250000Y-121650000D03*
X231600000Y-121650000D03*
X230950000Y-121650000D03*
X230300000Y-121650000D03*
X229650000Y-121650000D03*
X229000000Y-121650000D03*
X228350000Y-121650000D03*
X227700000Y-121650000D03*
X227050000Y-121650000D03*
D11*
X225550000Y-121650000D03*
X225550000Y-123150000D03*
X226600000Y-103850000D03*
X226600000Y-105350000D03*
D12*
X211000000Y-101450000D03*
X211000000Y-99950000D03*
X211000000Y-96650000D03*
X211000000Y-95150000D03*
X211000000Y-105450000D03*
X211000000Y-103950000D03*
D11*
X226600000Y-99050000D03*
X226600000Y-100550000D03*
D13*
X213050000Y-95050000D03*
X213050000Y-95850000D03*
X213050000Y-96650000D03*
X213050000Y-97450000D03*
X213050000Y-98250000D03*
X213050000Y-99050000D03*
X213050000Y-99850000D03*
X213050000Y-100650000D03*
X213050000Y-101450000D03*
X213050000Y-102250000D03*
X213050000Y-103050000D03*
X213050000Y-103850000D03*
X213050000Y-104650000D03*
X213050000Y-105450000D03*
X213050000Y-106250000D03*
X213050000Y-107050000D03*
X213050000Y-107850000D03*
X213050000Y-108650000D03*
X213050000Y-109450000D03*
X213050000Y-110250000D03*
X213050000Y-111050000D03*
X213050000Y-111850000D03*
X213050000Y-112650000D03*
X213050000Y-113450000D03*
X213050000Y-114250000D03*
X213050000Y-115050000D03*
X213050000Y-115850000D03*
X224550000Y-115850000D03*
X224550000Y-115050000D03*
X224550000Y-114250000D03*
X224550000Y-113450000D03*
X224550000Y-112650000D03*
X224550000Y-111850000D03*
X224550000Y-111050000D03*
X224550000Y-110250000D03*
X224550000Y-109450000D03*
X224550000Y-108650000D03*
X224550000Y-107850000D03*
X224550000Y-107050000D03*
X224550000Y-106250000D03*
X224550000Y-105450000D03*
X224550000Y-104650000D03*
X224550000Y-103850000D03*
X224550000Y-103050000D03*
X224550000Y-102250000D03*
X224550000Y-101450000D03*
X224550000Y-100650000D03*
X224550000Y-99850000D03*
X224550000Y-99050000D03*
X224550000Y-98250000D03*
X224550000Y-97450000D03*
X224550000Y-96650000D03*
X224550000Y-95850000D03*
X224550000Y-95050000D03*
D14*
X270725000Y-126238000D03*
X269025000Y-126238000D03*
D15*
X271350000Y-110800000D03*
X271350000Y-112500000D03*
D16*
X223050000Y-93150000D03*
X224550000Y-93150000D03*
D17*
X208346000Y-126174500D03*
X210246000Y-126174500D03*
X208346000Y-124015500D03*
X210246000Y-124015500D03*
D18*
X263900000Y-111650000D03*
X263900000Y-109950000D03*
D19*
X266600000Y-109850000D03*
X266600000Y-111750000D03*
X268700000Y-110800000D03*
D18*
X261200000Y-111650000D03*
X261200000Y-109950000D03*
D16*
X213050000Y-93150000D03*
X214550000Y-93150000D03*
D11*
X216350000Y-121650000D03*
X216350000Y-123150000D03*
D16*
X213050000Y-117950000D03*
X214550000Y-117950000D03*
D18*
X263900000Y-106100000D03*
X263900000Y-104400000D03*
X261200000Y-106100000D03*
X261200000Y-104400000D03*
D20*
X258500000Y-108000000D03*
X258500000Y-106100000D03*
D16*
X221550000Y-117950000D03*
X223050000Y-117950000D03*
D21*
X264950000Y-124500000D03*
X266550000Y-124500000D03*
D16*
X246050000Y-118050000D03*
X247550000Y-118050000D03*
D22*
X234050000Y-98650000D03*
X232550000Y-98650000D03*
D17*
X228550000Y-100800000D03*
X230450000Y-100800000D03*
D23*
X230437500Y-98850000D03*
X228562500Y-98850000D03*
D24*
X226550000Y-117750000D03*
X226550000Y-119350000D03*
X228000000Y-117750000D03*
X228000000Y-119350000D03*
X225100000Y-117750000D03*
X225100000Y-119350000D03*
D25*
X247712500Y-114350000D03*
X247712500Y-113850000D03*
X247712500Y-113350000D03*
X247712500Y-112850000D03*
X247712500Y-112350000D03*
X247712500Y-111850000D03*
X247712500Y-111350000D03*
X247712500Y-110850000D03*
X247712500Y-110350000D03*
X247712500Y-109850000D03*
X247712500Y-109350000D03*
X247712500Y-108850000D03*
X247712500Y-108350000D03*
X247712500Y-107850000D03*
X247712500Y-107350000D03*
X247712500Y-106850000D03*
X247712500Y-106350000D03*
X247712500Y-105850000D03*
X247712500Y-105350000D03*
X247712500Y-104850000D03*
X247712500Y-104350000D03*
X247712500Y-103850000D03*
X247712500Y-103350000D03*
X247712500Y-102850000D03*
X247712500Y-102350000D03*
D26*
X246050000Y-100687500D03*
X245550000Y-100687500D03*
X245050000Y-100687500D03*
X244550000Y-100687500D03*
X244050000Y-100687500D03*
X243550000Y-100687500D03*
X243050000Y-100687500D03*
X242550000Y-100687500D03*
X242050000Y-100687500D03*
X241550000Y-100687500D03*
X241050000Y-100687500D03*
X240550000Y-100687500D03*
X240050000Y-100687500D03*
X239550000Y-100687500D03*
X239050000Y-100687500D03*
X238550000Y-100687500D03*
X238050000Y-100687500D03*
X237550000Y-100687500D03*
X237050000Y-100687500D03*
X236550000Y-100687500D03*
X236050000Y-100687500D03*
X235550000Y-100687500D03*
X235050000Y-100687500D03*
X234550000Y-100687500D03*
X234050000Y-100687500D03*
D25*
X232387500Y-102350000D03*
X232387500Y-102850000D03*
X232387500Y-103350000D03*
X232387500Y-103850000D03*
X232387500Y-104350000D03*
X232387500Y-104850000D03*
X232387500Y-105350000D03*
X232387500Y-105850000D03*
X232387500Y-106350000D03*
X232387500Y-106850000D03*
X232387500Y-107350000D03*
X232387500Y-107850000D03*
X232387500Y-108350000D03*
X232387500Y-108850000D03*
X232387500Y-109350000D03*
X232387500Y-109850000D03*
X232387500Y-110350000D03*
X232387500Y-110850000D03*
X232387500Y-111350000D03*
X232387500Y-111850000D03*
X232387500Y-112350000D03*
X232387500Y-112850000D03*
X232387500Y-113350000D03*
X232387500Y-113850000D03*
X232387500Y-114350000D03*
D26*
X234050000Y-116012500D03*
X234550000Y-116012500D03*
X235050000Y-116012500D03*
X235550000Y-116012500D03*
X236050000Y-116012500D03*
X236550000Y-116012500D03*
X237050000Y-116012500D03*
X237550000Y-116012500D03*
X238050000Y-116012500D03*
X238550000Y-116012500D03*
X239050000Y-116012500D03*
X239550000Y-116012500D03*
X240050000Y-116012500D03*
X240550000Y-116012500D03*
X241050000Y-116012500D03*
X241550000Y-116012500D03*
X242050000Y-116012500D03*
X242550000Y-116012500D03*
X243050000Y-116012500D03*
X243550000Y-116012500D03*
X244050000Y-116012500D03*
X244550000Y-116012500D03*
X245050000Y-116012500D03*
X245550000Y-116012500D03*
X246050000Y-116012500D03*
D22*
X206250000Y-106300000D03*
X204750000Y-106300000D03*
D27*
X206300000Y-107750000D03*
X204700000Y-107750000D03*
X206300000Y-109200000D03*
X204700000Y-109200000D03*
D16*
X235800000Y-98650000D03*
X237300000Y-98650000D03*
D11*
X230350000Y-103850000D03*
X230350000Y-105350000D03*
X230350000Y-113450000D03*
X230350000Y-114950000D03*
D22*
X236550000Y-118050000D03*
X235050000Y-118050000D03*
X243050000Y-118050000D03*
X241550000Y-118050000D03*
D12*
X249750000Y-112850000D03*
X249750000Y-111350000D03*
D22*
X246050000Y-98650000D03*
X244550000Y-98650000D03*
D21*
X229900000Y-117850000D03*
X231500000Y-117850000D03*
X229900000Y-116400000D03*
X231500000Y-116400000D03*
D28*
X208550000Y-102900000D03*
X208550000Y-101300000D03*
D29*
X268700000Y-106100000D03*
X268700000Y-105150000D03*
X268700000Y-104200000D03*
X266600000Y-104200000D03*
X266600000Y-106100000D03*
D18*
X271350000Y-106100000D03*
X271350000Y-104400000D03*
M02*
