G04 #@! TF.GenerationSoftware,KiCad,Pcbnew,7.0.10*
G04 #@! TF.CreationDate,2024-02-07T20:48:26-05:00*
G04 #@! TF.ProjectId,RAM2E,52414d32-452e-46b6-9963-61645f706362,2.1*
G04 #@! TF.SameCoordinates,Original*
G04 #@! TF.FileFunction,Legend,Bot*
G04 #@! TF.FilePolarity,Positive*
%FSLAX46Y46*%
G04 Gerber Fmt 4.6, Leading zero omitted, Abs format (unit mm)*
G04 Created by KiCad (PCBNEW 7.0.10) date 2024-02-07 20:48:26*
%MOMM*%
%LPD*%
G01*
G04 APERTURE LIST*
G04 Aperture macros list*
%AMRoundRect*
0 Rectangle with rounded corners*
0 $1 Rounding radius*
0 $2 $3 $4 $5 $6 $7 $8 $9 X,Y pos of 4 corners*
0 Add a 4 corners polygon primitive as box body*
4,1,4,$2,$3,$4,$5,$6,$7,$8,$9,$2,$3,0*
0 Add four circle primitives for the rounded corners*
1,1,$1+$1,$2,$3*
1,1,$1+$1,$4,$5*
1,1,$1+$1,$6,$7*
1,1,$1+$1,$8,$9*
0 Add four rect primitives between the rounded corners*
20,1,$1+$1,$2,$3,$4,$5,0*
20,1,$1+$1,$4,$5,$6,$7,0*
20,1,$1+$1,$6,$7,$8,$9,0*
20,1,$1+$1,$8,$9,$2,$3,0*%
G04 Aperture macros list end*
%ADD10C,0.200000*%
%ADD11C,0.203200*%
%ADD12C,0.190500*%
%ADD13C,0.000000*%
%ADD14RoundRect,0.419100X0.419100X3.327100X-0.419100X3.327100X-0.419100X-3.327100X0.419100X-3.327100X0*%
%ADD15C,2.152400*%
%ADD16C,1.448000*%
%ADD17RoundRect,0.076200X-0.850000X-0.850000X0.850000X-0.850000X0.850000X0.850000X-0.850000X0.850000X0*%
%ADD18O,1.852400X1.852400*%
%ADD19C,2.527300*%
%ADD20C,1.143000*%
G04 APERTURE END LIST*
D10*
X232410000Y-126428500D02*
X233489500Y-128333500D01*
X231330500Y-128333500D02*
X232410000Y-126428500D01*
X233489500Y-128333500D02*
X231330500Y-128333500D01*
D11*
X272445237Y-129854649D02*
X271903371Y-129854649D01*
X271903371Y-129854649D02*
X272445237Y-130667449D01*
X272445237Y-130667449D02*
X271903371Y-130667449D01*
X271593733Y-130667449D02*
X271593733Y-129854649D01*
X271129276Y-130667449D02*
X271477618Y-130202992D01*
X271129276Y-129854649D02*
X271593733Y-130319106D01*
X270742228Y-130628745D02*
X270742228Y-130667449D01*
X270742228Y-130667449D02*
X270780933Y-130744859D01*
X270780933Y-130744859D02*
X270819637Y-130783564D01*
X269348856Y-129893354D02*
X269426266Y-129854649D01*
X269426266Y-129854649D02*
X269542380Y-129854649D01*
X269542380Y-129854649D02*
X269658494Y-129893354D01*
X269658494Y-129893354D02*
X269735904Y-129970764D01*
X269735904Y-129970764D02*
X269774609Y-130048173D01*
X269774609Y-130048173D02*
X269813313Y-130202992D01*
X269813313Y-130202992D02*
X269813313Y-130319106D01*
X269813313Y-130319106D02*
X269774609Y-130473925D01*
X269774609Y-130473925D02*
X269735904Y-130551335D01*
X269735904Y-130551335D02*
X269658494Y-130628745D01*
X269658494Y-130628745D02*
X269542380Y-130667449D01*
X269542380Y-130667449D02*
X269464971Y-130667449D01*
X269464971Y-130667449D02*
X269348856Y-130628745D01*
X269348856Y-130628745D02*
X269310152Y-130590040D01*
X269310152Y-130590040D02*
X269310152Y-130319106D01*
X269310152Y-130319106D02*
X269464971Y-130319106D01*
X268690875Y-130241697D02*
X268961809Y-130241697D01*
X268961809Y-130667449D02*
X268961809Y-129854649D01*
X268961809Y-129854649D02*
X268574761Y-129854649D01*
X204322437Y-130241697D02*
X204206323Y-130280402D01*
X204206323Y-130280402D02*
X204167618Y-130319106D01*
X204167618Y-130319106D02*
X204128914Y-130396516D01*
X204128914Y-130396516D02*
X204128914Y-130512630D01*
X204128914Y-130512630D02*
X204167618Y-130590040D01*
X204167618Y-130590040D02*
X204206323Y-130628745D01*
X204206323Y-130628745D02*
X204283733Y-130667449D01*
X204283733Y-130667449D02*
X204593371Y-130667449D01*
X204593371Y-130667449D02*
X204593371Y-129854649D01*
X204593371Y-129854649D02*
X204322437Y-129854649D01*
X204322437Y-129854649D02*
X204245028Y-129893354D01*
X204245028Y-129893354D02*
X204206323Y-129932059D01*
X204206323Y-129932059D02*
X204167618Y-130009468D01*
X204167618Y-130009468D02*
X204167618Y-130086878D01*
X204167618Y-130086878D02*
X204206323Y-130164287D01*
X204206323Y-130164287D02*
X204245028Y-130202992D01*
X204245028Y-130202992D02*
X204322437Y-130241697D01*
X204322437Y-130241697D02*
X204593371Y-130241697D01*
X203819275Y-129932059D02*
X203780571Y-129893354D01*
X203780571Y-129893354D02*
X203703161Y-129854649D01*
X203703161Y-129854649D02*
X203509637Y-129854649D01*
X203509637Y-129854649D02*
X203432228Y-129893354D01*
X203432228Y-129893354D02*
X203393523Y-129932059D01*
X203393523Y-129932059D02*
X203354818Y-130009468D01*
X203354818Y-130009468D02*
X203354818Y-130086878D01*
X203354818Y-130086878D02*
X203393523Y-130202992D01*
X203393523Y-130202992D02*
X203857980Y-130667449D01*
X203857980Y-130667449D02*
X203354818Y-130667449D01*
X202851657Y-129854649D02*
X202774247Y-129854649D01*
X202774247Y-129854649D02*
X202696838Y-129893354D01*
X202696838Y-129893354D02*
X202658133Y-129932059D01*
X202658133Y-129932059D02*
X202619428Y-130009468D01*
X202619428Y-130009468D02*
X202580723Y-130164287D01*
X202580723Y-130164287D02*
X202580723Y-130357811D01*
X202580723Y-130357811D02*
X202619428Y-130512630D01*
X202619428Y-130512630D02*
X202658133Y-130590040D01*
X202658133Y-130590040D02*
X202696838Y-130628745D01*
X202696838Y-130628745D02*
X202774247Y-130667449D01*
X202774247Y-130667449D02*
X202851657Y-130667449D01*
X202851657Y-130667449D02*
X202929066Y-130628745D01*
X202929066Y-130628745D02*
X202967771Y-130590040D01*
X202967771Y-130590040D02*
X203006476Y-130512630D01*
X203006476Y-130512630D02*
X203045180Y-130357811D01*
X203045180Y-130357811D02*
X203045180Y-130164287D01*
X203045180Y-130164287D02*
X203006476Y-130009468D01*
X203006476Y-130009468D02*
X202967771Y-129932059D01*
X202967771Y-129932059D02*
X202929066Y-129893354D01*
X202929066Y-129893354D02*
X202851657Y-129854649D01*
X201767924Y-130590040D02*
X201806628Y-130628745D01*
X201806628Y-130628745D02*
X201922743Y-130667449D01*
X201922743Y-130667449D02*
X202000152Y-130667449D01*
X202000152Y-130667449D02*
X202116266Y-130628745D01*
X202116266Y-130628745D02*
X202193676Y-130551335D01*
X202193676Y-130551335D02*
X202232381Y-130473925D01*
X202232381Y-130473925D02*
X202271085Y-130319106D01*
X202271085Y-130319106D02*
X202271085Y-130202992D01*
X202271085Y-130202992D02*
X202232381Y-130048173D01*
X202232381Y-130048173D02*
X202193676Y-129970764D01*
X202193676Y-129970764D02*
X202116266Y-129893354D01*
X202116266Y-129893354D02*
X202000152Y-129854649D01*
X202000152Y-129854649D02*
X201922743Y-129854649D01*
X201922743Y-129854649D02*
X201806628Y-129893354D01*
X201806628Y-129893354D02*
X201767924Y-129932059D01*
D10*
X230293332Y-126688126D02*
X229567618Y-126688126D01*
X229930475Y-127958126D02*
X229930475Y-126688126D01*
X229144285Y-127958126D02*
X229144285Y-126688126D01*
X228599999Y-127958126D02*
X228599999Y-127292888D01*
X228599999Y-127292888D02*
X228660475Y-127171935D01*
X228660475Y-127171935D02*
X228781427Y-127111459D01*
X228781427Y-127111459D02*
X228962856Y-127111459D01*
X228962856Y-127111459D02*
X229083808Y-127171935D01*
X229083808Y-127171935D02*
X229144285Y-127232411D01*
X227995237Y-127958126D02*
X227995237Y-127111459D01*
X227995237Y-126688126D02*
X228055713Y-126748602D01*
X228055713Y-126748602D02*
X227995237Y-126809078D01*
X227995237Y-126809078D02*
X227934760Y-126748602D01*
X227934760Y-126748602D02*
X227995237Y-126688126D01*
X227995237Y-126688126D02*
X227995237Y-126809078D01*
X227450951Y-127897650D02*
X227329998Y-127958126D01*
X227329998Y-127958126D02*
X227088094Y-127958126D01*
X227088094Y-127958126D02*
X226967141Y-127897650D01*
X226967141Y-127897650D02*
X226906665Y-127776697D01*
X226906665Y-127776697D02*
X226906665Y-127716221D01*
X226906665Y-127716221D02*
X226967141Y-127595269D01*
X226967141Y-127595269D02*
X227088094Y-127534792D01*
X227088094Y-127534792D02*
X227269522Y-127534792D01*
X227269522Y-127534792D02*
X227390475Y-127474316D01*
X227390475Y-127474316D02*
X227450951Y-127353364D01*
X227450951Y-127353364D02*
X227450951Y-127292888D01*
X227450951Y-127292888D02*
X227390475Y-127171935D01*
X227390475Y-127171935D02*
X227269522Y-127111459D01*
X227269522Y-127111459D02*
X227088094Y-127111459D01*
X227088094Y-127111459D02*
X226967141Y-127171935D01*
X225455237Y-127897650D02*
X225273808Y-127958126D01*
X225273808Y-127958126D02*
X224971427Y-127958126D01*
X224971427Y-127958126D02*
X224850475Y-127897650D01*
X224850475Y-127897650D02*
X224789999Y-127837173D01*
X224789999Y-127837173D02*
X224729522Y-127716221D01*
X224729522Y-127716221D02*
X224729522Y-127595269D01*
X224729522Y-127595269D02*
X224789999Y-127474316D01*
X224789999Y-127474316D02*
X224850475Y-127413840D01*
X224850475Y-127413840D02*
X224971427Y-127353364D01*
X224971427Y-127353364D02*
X225213332Y-127292888D01*
X225213332Y-127292888D02*
X225334284Y-127232411D01*
X225334284Y-127232411D02*
X225394761Y-127171935D01*
X225394761Y-127171935D02*
X225455237Y-127050983D01*
X225455237Y-127050983D02*
X225455237Y-126930030D01*
X225455237Y-126930030D02*
X225394761Y-126809078D01*
X225394761Y-126809078D02*
X225334284Y-126748602D01*
X225334284Y-126748602D02*
X225213332Y-126688126D01*
X225213332Y-126688126D02*
X224910951Y-126688126D01*
X224910951Y-126688126D02*
X224729522Y-126748602D01*
X224185237Y-127958126D02*
X224185237Y-127111459D01*
X224185237Y-126688126D02*
X224245713Y-126748602D01*
X224245713Y-126748602D02*
X224185237Y-126809078D01*
X224185237Y-126809078D02*
X224124760Y-126748602D01*
X224124760Y-126748602D02*
X224185237Y-126688126D01*
X224185237Y-126688126D02*
X224185237Y-126809078D01*
X223036189Y-127958126D02*
X223036189Y-126688126D01*
X223036189Y-127897650D02*
X223157141Y-127958126D01*
X223157141Y-127958126D02*
X223399046Y-127958126D01*
X223399046Y-127958126D02*
X223519998Y-127897650D01*
X223519998Y-127897650D02*
X223580475Y-127837173D01*
X223580475Y-127837173D02*
X223640951Y-127716221D01*
X223640951Y-127716221D02*
X223640951Y-127353364D01*
X223640951Y-127353364D02*
X223580475Y-127232411D01*
X223580475Y-127232411D02*
X223519998Y-127171935D01*
X223519998Y-127171935D02*
X223399046Y-127111459D01*
X223399046Y-127111459D02*
X223157141Y-127111459D01*
X223157141Y-127111459D02*
X223036189Y-127171935D01*
X221947617Y-127897650D02*
X222068569Y-127958126D01*
X222068569Y-127958126D02*
X222310474Y-127958126D01*
X222310474Y-127958126D02*
X222431427Y-127897650D01*
X222431427Y-127897650D02*
X222491903Y-127776697D01*
X222491903Y-127776697D02*
X222491903Y-127292888D01*
X222491903Y-127292888D02*
X222431427Y-127171935D01*
X222431427Y-127171935D02*
X222310474Y-127111459D01*
X222310474Y-127111459D02*
X222068569Y-127111459D01*
X222068569Y-127111459D02*
X221947617Y-127171935D01*
X221947617Y-127171935D02*
X221887141Y-127292888D01*
X221887141Y-127292888D02*
X221887141Y-127413840D01*
X221887141Y-127413840D02*
X222491903Y-127534792D01*
X219951903Y-127292888D02*
X220375237Y-127292888D01*
X220375237Y-127958126D02*
X220375237Y-126688126D01*
X220375237Y-126688126D02*
X219770475Y-126688126D01*
X218742380Y-127958126D02*
X218742380Y-127292888D01*
X218742380Y-127292888D02*
X218802856Y-127171935D01*
X218802856Y-127171935D02*
X218923808Y-127111459D01*
X218923808Y-127111459D02*
X219165713Y-127111459D01*
X219165713Y-127111459D02*
X219286666Y-127171935D01*
X218742380Y-127897650D02*
X218863332Y-127958126D01*
X218863332Y-127958126D02*
X219165713Y-127958126D01*
X219165713Y-127958126D02*
X219286666Y-127897650D01*
X219286666Y-127897650D02*
X219347142Y-127776697D01*
X219347142Y-127776697D02*
X219347142Y-127655745D01*
X219347142Y-127655745D02*
X219286666Y-127534792D01*
X219286666Y-127534792D02*
X219165713Y-127474316D01*
X219165713Y-127474316D02*
X218863332Y-127474316D01*
X218863332Y-127474316D02*
X218742380Y-127413840D01*
X217593332Y-127897650D02*
X217714284Y-127958126D01*
X217714284Y-127958126D02*
X217956189Y-127958126D01*
X217956189Y-127958126D02*
X218077141Y-127897650D01*
X218077141Y-127897650D02*
X218137618Y-127837173D01*
X218137618Y-127837173D02*
X218198094Y-127716221D01*
X218198094Y-127716221D02*
X218198094Y-127353364D01*
X218198094Y-127353364D02*
X218137618Y-127232411D01*
X218137618Y-127232411D02*
X218077141Y-127171935D01*
X218077141Y-127171935D02*
X217956189Y-127111459D01*
X217956189Y-127111459D02*
X217714284Y-127111459D01*
X217714284Y-127111459D02*
X217593332Y-127171935D01*
X216565237Y-127897650D02*
X216686189Y-127958126D01*
X216686189Y-127958126D02*
X216928094Y-127958126D01*
X216928094Y-127958126D02*
X217049047Y-127897650D01*
X217049047Y-127897650D02*
X217109523Y-127776697D01*
X217109523Y-127776697D02*
X217109523Y-127292888D01*
X217109523Y-127292888D02*
X217049047Y-127171935D01*
X217049047Y-127171935D02*
X216928094Y-127111459D01*
X216928094Y-127111459D02*
X216686189Y-127111459D01*
X216686189Y-127111459D02*
X216565237Y-127171935D01*
X216565237Y-127171935D02*
X216504761Y-127292888D01*
X216504761Y-127292888D02*
X216504761Y-127413840D01*
X216504761Y-127413840D02*
X217109523Y-127534792D01*
X216020952Y-127897650D02*
X215899999Y-127958126D01*
X215899999Y-127958126D02*
X215658095Y-127958126D01*
X215658095Y-127958126D02*
X215537142Y-127897650D01*
X215537142Y-127897650D02*
X215476666Y-127776697D01*
X215476666Y-127776697D02*
X215476666Y-127716221D01*
X215476666Y-127716221D02*
X215537142Y-127595269D01*
X215537142Y-127595269D02*
X215658095Y-127534792D01*
X215658095Y-127534792D02*
X215839523Y-127534792D01*
X215839523Y-127534792D02*
X215960476Y-127474316D01*
X215960476Y-127474316D02*
X216020952Y-127353364D01*
X216020952Y-127353364D02*
X216020952Y-127292888D01*
X216020952Y-127292888D02*
X215960476Y-127171935D01*
X215960476Y-127171935D02*
X215839523Y-127111459D01*
X215839523Y-127111459D02*
X215658095Y-127111459D01*
X215658095Y-127111459D02*
X215537142Y-127171935D01*
X213964762Y-127958126D02*
X213964762Y-126688126D01*
X213964762Y-126688126D02*
X213480952Y-126688126D01*
X213480952Y-126688126D02*
X213360000Y-126748602D01*
X213360000Y-126748602D02*
X213299523Y-126809078D01*
X213299523Y-126809078D02*
X213239047Y-126930030D01*
X213239047Y-126930030D02*
X213239047Y-127111459D01*
X213239047Y-127111459D02*
X213299523Y-127232411D01*
X213299523Y-127232411D02*
X213360000Y-127292888D01*
X213360000Y-127292888D02*
X213480952Y-127353364D01*
X213480952Y-127353364D02*
X213964762Y-127353364D01*
X212513333Y-127958126D02*
X212634285Y-127897650D01*
X212634285Y-127897650D02*
X212694762Y-127837173D01*
X212694762Y-127837173D02*
X212755238Y-127716221D01*
X212755238Y-127716221D02*
X212755238Y-127353364D01*
X212755238Y-127353364D02*
X212694762Y-127232411D01*
X212694762Y-127232411D02*
X212634285Y-127171935D01*
X212634285Y-127171935D02*
X212513333Y-127111459D01*
X212513333Y-127111459D02*
X212331904Y-127111459D01*
X212331904Y-127111459D02*
X212210952Y-127171935D01*
X212210952Y-127171935D02*
X212150476Y-127232411D01*
X212150476Y-127232411D02*
X212090000Y-127353364D01*
X212090000Y-127353364D02*
X212090000Y-127716221D01*
X212090000Y-127716221D02*
X212150476Y-127837173D01*
X212150476Y-127837173D02*
X212210952Y-127897650D01*
X212210952Y-127897650D02*
X212331904Y-127958126D01*
X212331904Y-127958126D02*
X212513333Y-127958126D01*
X211666666Y-127111459D02*
X211424761Y-127958126D01*
X211424761Y-127958126D02*
X211182856Y-127353364D01*
X211182856Y-127353364D02*
X210940952Y-127958126D01*
X210940952Y-127958126D02*
X210699047Y-127111459D01*
X209731428Y-127897650D02*
X209852380Y-127958126D01*
X209852380Y-127958126D02*
X210094285Y-127958126D01*
X210094285Y-127958126D02*
X210215238Y-127897650D01*
X210215238Y-127897650D02*
X210275714Y-127776697D01*
X210275714Y-127776697D02*
X210275714Y-127292888D01*
X210275714Y-127292888D02*
X210215238Y-127171935D01*
X210215238Y-127171935D02*
X210094285Y-127111459D01*
X210094285Y-127111459D02*
X209852380Y-127111459D01*
X209852380Y-127111459D02*
X209731428Y-127171935D01*
X209731428Y-127171935D02*
X209670952Y-127292888D01*
X209670952Y-127292888D02*
X209670952Y-127413840D01*
X209670952Y-127413840D02*
X210275714Y-127534792D01*
X209126667Y-127958126D02*
X209126667Y-127111459D01*
X209126667Y-127353364D02*
X209066190Y-127232411D01*
X209066190Y-127232411D02*
X209005714Y-127171935D01*
X209005714Y-127171935D02*
X208884762Y-127111459D01*
X208884762Y-127111459D02*
X208763809Y-127111459D01*
X207433334Y-127897650D02*
X207251905Y-127958126D01*
X207251905Y-127958126D02*
X206949524Y-127958126D01*
X206949524Y-127958126D02*
X206828572Y-127897650D01*
X206828572Y-127897650D02*
X206768096Y-127837173D01*
X206768096Y-127837173D02*
X206707619Y-127716221D01*
X206707619Y-127716221D02*
X206707619Y-127595269D01*
X206707619Y-127595269D02*
X206768096Y-127474316D01*
X206768096Y-127474316D02*
X206828572Y-127413840D01*
X206828572Y-127413840D02*
X206949524Y-127353364D01*
X206949524Y-127353364D02*
X207191429Y-127292888D01*
X207191429Y-127292888D02*
X207312381Y-127232411D01*
X207312381Y-127232411D02*
X207372858Y-127171935D01*
X207372858Y-127171935D02*
X207433334Y-127050983D01*
X207433334Y-127050983D02*
X207433334Y-126930030D01*
X207433334Y-126930030D02*
X207372858Y-126809078D01*
X207372858Y-126809078D02*
X207312381Y-126748602D01*
X207312381Y-126748602D02*
X207191429Y-126688126D01*
X207191429Y-126688126D02*
X206889048Y-126688126D01*
X206889048Y-126688126D02*
X206707619Y-126748602D01*
X205619048Y-127111459D02*
X205619048Y-127958126D01*
X206163334Y-127111459D02*
X206163334Y-127776697D01*
X206163334Y-127776697D02*
X206102857Y-127897650D01*
X206102857Y-127897650D02*
X205981905Y-127958126D01*
X205981905Y-127958126D02*
X205800476Y-127958126D01*
X205800476Y-127958126D02*
X205679524Y-127897650D01*
X205679524Y-127897650D02*
X205619048Y-127837173D01*
X205014286Y-127111459D02*
X205014286Y-128381459D01*
X205014286Y-127171935D02*
X204893333Y-127111459D01*
X204893333Y-127111459D02*
X204651428Y-127111459D01*
X204651428Y-127111459D02*
X204530476Y-127171935D01*
X204530476Y-127171935D02*
X204470000Y-127232411D01*
X204470000Y-127232411D02*
X204409524Y-127353364D01*
X204409524Y-127353364D02*
X204409524Y-127716221D01*
X204409524Y-127716221D02*
X204470000Y-127837173D01*
X204470000Y-127837173D02*
X204530476Y-127897650D01*
X204530476Y-127897650D02*
X204651428Y-127958126D01*
X204651428Y-127958126D02*
X204893333Y-127958126D01*
X204893333Y-127958126D02*
X205014286Y-127897650D01*
X203865238Y-127111459D02*
X203865238Y-128381459D01*
X203865238Y-127171935D02*
X203744285Y-127111459D01*
X203744285Y-127111459D02*
X203502380Y-127111459D01*
X203502380Y-127111459D02*
X203381428Y-127171935D01*
X203381428Y-127171935D02*
X203320952Y-127232411D01*
X203320952Y-127232411D02*
X203260476Y-127353364D01*
X203260476Y-127353364D02*
X203260476Y-127716221D01*
X203260476Y-127716221D02*
X203320952Y-127837173D01*
X203320952Y-127837173D02*
X203381428Y-127897650D01*
X203381428Y-127897650D02*
X203502380Y-127958126D01*
X203502380Y-127958126D02*
X203744285Y-127958126D01*
X203744285Y-127958126D02*
X203865238Y-127897650D01*
X202534761Y-127958126D02*
X202655713Y-127897650D01*
X202655713Y-127897650D02*
X202716190Y-127776697D01*
X202716190Y-127776697D02*
X202716190Y-126688126D01*
X202171904Y-127111459D02*
X201869523Y-127958126D01*
X201567142Y-127111459D02*
X201869523Y-127958126D01*
X201869523Y-127958126D02*
X201990475Y-128260507D01*
X201990475Y-128260507D02*
X202050952Y-128320983D01*
X202050952Y-128320983D02*
X202171904Y-128381459D01*
D12*
X232410000Y-127923701D02*
X232371295Y-127962406D01*
X232371295Y-127962406D02*
X232410000Y-128001110D01*
X232410000Y-128001110D02*
X232448704Y-127962406D01*
X232448704Y-127962406D02*
X232410000Y-127923701D01*
X232410000Y-127923701D02*
X232410000Y-128001110D01*
X232410000Y-127691472D02*
X232448704Y-127227015D01*
X232448704Y-127227015D02*
X232410000Y-127188310D01*
X232410000Y-127188310D02*
X232371295Y-127227015D01*
X232371295Y-127227015D02*
X232410000Y-127691472D01*
X232410000Y-127691472D02*
X232410000Y-127188310D01*
%LPC*%
D13*
G36*
X276606000Y-139446000D02*
G01*
X276098000Y-139954000D01*
X198882000Y-139954000D01*
X198374000Y-139446000D01*
X198374000Y-132080000D01*
X276606000Y-132080000D01*
X276606000Y-139446000D01*
G37*
D14*
X274320000Y-135282000D03*
X271780000Y-135282000D03*
X269240000Y-135282000D03*
X266700000Y-135282000D03*
X264160000Y-135282000D03*
X261620000Y-135282000D03*
X259080000Y-135282000D03*
X256540000Y-135282000D03*
X254000000Y-135282000D03*
X251460000Y-135282000D03*
X248920000Y-135282000D03*
X246380000Y-135282000D03*
X243840000Y-135282000D03*
X241300000Y-135282000D03*
X238760000Y-135282000D03*
X236220000Y-135282000D03*
X233680000Y-135282000D03*
X231140000Y-135282000D03*
X228600000Y-135282000D03*
X226060000Y-135282000D03*
X223520000Y-135282000D03*
X220980000Y-135282000D03*
X218440000Y-135282000D03*
X215900000Y-135282000D03*
X213360000Y-135282000D03*
X210820000Y-135282000D03*
X208280000Y-135282000D03*
X205740000Y-135282000D03*
X203200000Y-135282000D03*
X200660000Y-135282000D03*
D15*
X274320000Y-128397000D03*
D16*
X200660000Y-129540000D03*
X200914000Y-92202000D03*
X274066000Y-92202000D03*
X274320000Y-125857000D03*
D17*
X202946000Y-98425000D03*
D18*
X202946000Y-100965000D03*
D19*
X208026000Y-111760000D03*
D20*
X205486000Y-111760000D03*
D19*
X202946000Y-111760000D03*
X208026000Y-117475000D03*
X202946000Y-117475000D03*
D20*
X206502000Y-119380000D03*
X204470000Y-119380000D03*
%LPD*%
M02*
