M48
; DRILL file {KiCad (5.1.10-1-10_14)} date Friday, July 02, 2021 at 02:27:01 AM
; FORMAT={-:-/ absolute / inch / decimal}
; #@! TF.CreationDate,2021-07-02T02:27:01-04:00
; #@! TF.GenerationSoftware,Kicad,Pcbnew,(5.1.10-1-10_14)
FMAT,2
INCH
T1C0.0079
T2C0.0118
T3C0.0150
T4C0.0157
T5C0.0197
T6C0.0394
T7C0.0433
T8C0.0390
T9C0.0454
T10C0.0935
%
G90
G05
T1
X7.84Y-3.665
X7.84Y-3.825
X7.84Y-4.025
X7.84Y-4.225
X7.84Y-4.425
X7.84Y-4.625
X7.84Y-4.825
X7.84Y-5.05
X7.84Y-5.165
X7.865Y-3.58
X7.9362Y-4.561
X7.94Y-3.725
X7.94Y-4.125
X7.94Y-4.925
X7.95Y-5.165
X7.955Y-3.56
X7.965Y-4.72
X8.0327Y-4.5
X8.04Y-4.825
X8.05Y-5.165
X8.09Y-4.35
X8.09Y-4.74
X8.14Y-3.56
X8.14Y-3.705
X8.14Y-3.925
X8.14Y-4.125
X8.14Y-4.925
X8.15Y-5.165
X8.17Y-4.8825
X8.17Y-4.9675
X8.2Y-4.185
X8.2106Y-3.9587
X8.24Y-3.66
X8.24Y-4.825
X8.2441Y-4.0512
X8.25Y-5.165
X8.27Y-4.57
X8.3071Y-4.0276
X8.3071Y-4.0591
X8.3327Y-4.4567
X8.34Y-4.725
X8.3425Y-3.8051
X8.3425Y-3.9941
X8.3425Y-4.0886
X8.3425Y-4.1516
X8.3425Y-4.561
X8.35Y-3.5541
X8.3878Y-3.6319
X8.4331Y-3.7421
X8.4331Y-3.8051
X8.4331Y-3.8996
X8.4331Y-3.9941
X8.4331Y-4.0886
X8.4331Y-4.1516
X8.4331Y-4.561
X8.437Y-4.2461
X8.437Y-4.3091
X8.437Y-4.372
X8.437Y-4.435
X8.437Y-4.498
X8.445Y-4.8825
X8.445Y-4.9675
X8.4469Y-3.6319
X8.4469Y-3.7028
X8.4547Y-4.1831
X8.4587Y-4.2776
X8.4587Y-4.3406
X8.4587Y-4.4035
X8.4587Y-4.4665
X8.4587Y-4.5295
X8.4606Y-3.7736
X8.4606Y-3.8327
X8.4606Y-3.872
X8.4606Y-3.9272
X8.4606Y-3.9665
X8.4606Y-4.0217
X8.4606Y-4.061
X8.4606Y-4.1201
X8.4764Y-4.2146
X8.4823Y-4.7894
X8.5453Y-5.0039
X8.55Y-3.5541
X8.55Y-5.165
X8.5522Y-4.7894
X8.5522Y-4.8484
X8.5669Y-4.1516
X8.5669Y-4.561
X8.5768Y-4.7441
X8.5768Y-4.8346
X8.5768Y-5.0669
X8.6Y-5.135
X8.6024Y-4.8346
X8.6083Y-4.9567
X8.6142Y-3.7421
X8.6142Y-3.8051
X8.6142Y-3.8524
X8.6142Y-3.8996
X8.6142Y-3.9469
X8.6142Y-3.9941
X8.6142Y-4.0413
X8.6142Y-4.0886
X8.628Y-4.7461
X8.65Y-5.165
X8.6535Y-4.8327
X8.6614Y-4.1516
X8.6614Y-4.561
X8.6791Y-4.7461
X8.6909Y-4.6437
X8.7047Y-4.8327
X8.7224Y-4.6102
X8.7224Y-4.6772
X8.7303Y-4.7461
X8.75Y-3.5541
X8.75Y-5.165
X8.7559Y-4.8327
X8.7677Y-3.7736
X8.7677Y-3.8327
X8.7677Y-3.872
X8.7677Y-3.9272
X8.7677Y-3.9665
X8.7677Y-4.0217
X8.7677Y-4.061
X8.7677Y-4.1201
X8.7815Y-3.6319
X8.7815Y-3.7028
X8.7815Y-4.6102
X8.7815Y-4.6772
X8.7815Y-4.7461
X8.7953Y-3.7421
X8.7953Y-3.8051
X8.7953Y-3.8996
X8.7953Y-3.9941
X8.7953Y-4.0886
X8.7953Y-4.1516
X8.7953Y-4.561
X8.8Y-5.1378
X8.8071Y-4.8327
X8.8071Y-4.9764
X8.8071Y-5.065
X8.8287Y-4.6358
X8.8406Y-3.6319
X8.8465Y-4.7894
X8.85Y-5.165
X8.874Y-3.6673
X8.8858Y-3.7421
X8.8858Y-3.8051
X8.8858Y-3.8996
X8.8858Y-4.0886
X8.8858Y-4.1516
X8.8858Y-4.561
X8.8878Y-4.372
X8.8878Y-4.435
X8.8878Y-4.498
X8.8898Y-4.2146
X8.9075Y-5.0217
X8.9094Y-3.5945
X8.9094Y-4.2776
X8.9114Y-4.3406
X8.9114Y-4.4035
X8.9114Y-4.4665
X8.9114Y-4.5295
X8.9134Y-4.1811
X8.9144Y-4.7894
X8.9144Y-4.8484
X8.9213Y-3.9921
X8.939Y-4.8346
X8.95Y-3.56
X8.95Y-5.165
X8.9528Y-3.6
X8.9528Y-3.6398
X8.9557Y-4.1398
X8.9567Y-3.9665
X8.9567Y-4.0886
X8.9646Y-4.9764
X8.9665Y-4.8386
X8.9862Y-3.6181
X8.9902Y-5.0669
X9.0Y-5.15
X9.0157Y-3.6437
X9.0236Y-4.5827
X9.0236Y-4.6398
X9.0354Y-4.0945
X9.0354Y-4.1417
X9.0354Y-4.4705
X9.0354Y-4.5217
X9.0413Y-4.9469
X9.05Y-5.165
X9.0512Y-3.6811
X9.061Y-4.3681
X9.065Y-4.9134
X9.0669Y-4.9764
X9.0689Y-4.0571
X9.0846Y-4.4035
X9.1Y-5.13
X9.1024Y-4.5217
X9.1043Y-4.1043
X9.1043Y-4.1319
X9.1043Y-4.2854
X9.1043Y-4.3248
X9.1043Y-4.3642
X9.1043Y-4.439
X9.1043Y-4.4665
X9.1181Y-4.9764
X9.122Y-3.9567
X9.1496Y-4.0079
X9.1496Y-4.5236
X9.15Y-3.56
X9.15Y-5.165
X9.1614Y-3.8504
X9.1614Y-3.9173
X9.1693Y-5.0669
X9.1929Y-4.0492
X9.1929Y-4.187
X9.1929Y-4.2657
X9.1929Y-4.3051
X9.1929Y-4.3445
X9.1949Y-5.0217
X9.1969Y-4.1043
X9.1969Y-4.1319
X9.1969Y-4.439
X9.1969Y-4.4665
X9.2028Y-4.5059
X9.2087Y-4.2264
X9.2087Y-4.3937
X9.2087Y-4.7894
X9.2165Y-5.124
X9.2224Y-4.6476
X9.2283Y-4.0689
X9.2283Y-4.1673
X9.25Y-5.165
X9.252Y-4.0157
X9.2539Y-3.9193
X9.2559Y-4.0984
X9.2559Y-4.1378
X9.2598Y-4.6811
X9.2697Y-4.5197
X9.2697Y-4.6142
X9.2756Y-4.8445
X9.2756Y-5.0217
X9.2766Y-4.7894
X9.2894Y-3.8504
X9.2933Y-3.9193
X9.2933Y-4.0079
X9.2972Y-4.5197
X9.2972Y-4.6122
X9.2992Y-5.1004
X9.3031Y-4.8346
X9.3071Y-4.6811
X9.3307Y-4.8346
X9.3327Y-3.8484
X9.3327Y-3.9193
X9.3327Y-4.0079
X9.3346Y-3.6575
X9.3425Y-4.5079
X9.35Y-5.165
X9.3524Y-4.0433
X9.3642Y-4.1575
X9.37Y-3.56
X9.372Y-4.0079
X9.3917Y-4.0433
X9.4016Y-4.5079
X9.4114Y-4.0079
X9.4311Y-4.0433
X9.45Y-5.165
X9.4508Y-4.0079
X9.4547Y-4.8327
X9.4705Y-4.0433
X9.4744Y-4.5059
X9.4783Y-4.6476
X9.4803Y-3.9154
X9.4803Y-4.1969
X9.4902Y-4.0079
X9.5Y-5.1398
X9.5059Y-4.8327
X9.5118Y-4.4488
X9.5157Y-4.6811
X9.5256Y-4.5197
X9.5256Y-4.6122
X9.5315Y-5.0669
X9.5335Y-4.9764
X9.5433Y-3.9193
X9.5472Y-4.6831
X9.55Y-3.56
X9.55Y-5.165
X9.5531Y-4.5197
X9.5531Y-4.6122
X9.5551Y-4.0118
X9.5571Y-5.0217
X9.5689Y-4.4665
X9.5709Y-4.7894
X9.5748Y-5.1319
X9.5906Y-4.5039
X9.5965Y-3.878
X9.6102Y-4.2756
X9.6339Y-3.8504
X9.6339Y-3.9173
X9.6388Y-4.7894
X9.6388Y-4.8484
X9.6496Y-4.7028
X9.65Y-5.165
X9.6516Y-4.2165
X9.6634Y-4.7441
X9.6634Y-4.8346
X9.6634Y-4.9764
X9.6693Y-4.3799
X9.6713Y-4.4508
X9.6772Y-5.0728
X9.6772Y-5.1358
X9.6811Y-3.8504
X9.687Y-3.9193
X9.7047Y-4.065
X9.7047Y-4.0925
X9.7047Y-4.3996
X9.7047Y-4.4272
X9.7087Y-3.9646
X9.7087Y-4.4665
X9.7146Y-5.0669
X9.7185Y-3.9331
X9.7402Y-4.6142
X9.7402Y-4.6811
X9.75Y-3.56
X9.75Y-3.76
X9.75Y-5.165
X9.752Y-4.5256
X9.7677Y-4.002
X9.78Y-5.135
X9.7972Y-4.3996
X9.7972Y-4.4272
X9.7972Y-4.4823
X9.7992Y-4.065
X9.815Y-4.0886
X9.8228Y-4.5492
X9.8268Y-5.0768
X9.8327Y-4.3524
X9.8386Y-4.4744
X9.85Y-3.86
X9.85Y-5.165
X9.8583Y-4.5295
X9.8661Y-4.3898
X9.8661Y-4.437
X9.8681Y-5.0669
X9.8937Y-4.9764
X9.9035Y-4.1693
X9.9193Y-5.0217
X9.9331Y-4.7894
X9.95Y-3.56
X9.95Y-3.76
X9.95Y-3.96
X9.95Y-5.165
X10.001Y-4.7894
X10.001Y-4.8484
X10.0098Y-5.0728
X10.0256Y-4.7441
X10.0256Y-4.8346
X10.0256Y-4.9764
X10.05Y-3.66
X10.05Y-3.86
X10.05Y-4.06
X10.05Y-5.165
X10.1024Y-5.0846
X10.1457Y-5.1122
X10.15Y-3.56
X10.15Y-3.76
X10.15Y-3.96
X10.15Y-5.165
X10.1909Y-5.1122
X10.25Y-3.86
X10.25Y-5.165
X10.2559Y-4.9764
X10.2559Y-5.0669
X10.26Y-4.85
X10.2815Y-5.0217
X10.345Y-4.55
X10.345Y-4.75
X10.35Y-3.56
X10.35Y-3.76
X10.35Y-3.96
X10.35Y-5.165
X10.36Y-4.95
X10.4016Y-4.9016
X10.445Y-4.65
X10.445Y-4.85
X10.45Y-3.86
X10.45Y-5.165
X10.4665Y-5.1122
X10.5236Y-4.9016
X10.5394Y-4.3248
X10.5394Y-4.4035
X10.545Y-4.55
X10.545Y-4.75
X10.55Y-3.56
X10.55Y-3.76
X10.55Y-3.96
X10.55Y-5.165
X10.5925Y-5.0138
X10.645Y-4.65
X10.645Y-4.85
X10.65Y-3.86
X10.65Y-5.165
X10.745Y-3.56
X10.745Y-4.55
X10.745Y-4.75
X10.75Y-3.76
X10.75Y-3.96
X10.75Y-5.185
X10.835Y-3.58
X10.86Y-3.665
X10.86Y-3.86
X10.86Y-4.06
X10.86Y-4.26
X10.86Y-4.46
X10.86Y-4.66
X10.86Y-4.86
X10.86Y-5.165
T2
X8.34Y-4.925
X8.35Y-5.165
X8.3878Y-3.7146
X8.3878Y-4.5886
X8.45Y-5.165
X8.8406Y-3.7146
X8.8406Y-4.5886
X9.6535Y-4.6476
X9.6929Y-4.6831
X10.5354Y-4.1398
X10.5787Y-4.0728
X10.5787Y-4.2087
X10.622Y-4.1398
X10.6831Y-4.0728
T3
X8.2677Y-4.0925
X8.2677Y-4.1516
X8.3071Y-3.8976
X8.3071Y-4.189
X8.3504Y-4.6437
X8.3878Y-4.6831
X8.4469Y-4.6043
X8.4469Y-4.6831
X8.4783Y-4.8484
X8.5167Y-4.752
X8.5167Y-4.8858
X8.8406Y-4.8484
X8.9213Y-4.0512
X9.2028Y-4.8484
X9.565Y-4.8484
X9.6083Y-4.752
X9.9272Y-4.8484
X9.9656Y-4.752
T4
X8.2677Y-3.7461
X8.2677Y-3.8051
X8.2677Y-3.935
X8.2677Y-3.9941
X8.3071Y-3.7087
X8.3071Y-3.8425
X8.4843Y-4.6437
X8.9272Y-3.8622
X9.2421Y-4.8878
X9.6772Y-4.1378
X10.1772Y-4.1378
X10.1772Y-4.2913
T5
X10.1772Y-4.4409
X10.2303Y-4.1102
X10.2303Y-4.1772
X10.2303Y-4.3287
X10.2303Y-4.3957
X10.2303Y-4.4862
X10.2835Y-4.065
X10.2835Y-4.2244
X10.2835Y-4.2835
X10.2835Y-4.4409
X10.3366Y-4.3287
X10.3366Y-4.3957
X10.3366Y-4.4862
X10.3386Y-4.1102
X10.3386Y-4.1772
X10.3898Y-4.065
X10.3898Y-4.2224
X10.3898Y-4.2835
X10.3898Y-4.4409
X10.4409Y-4.1102
X10.4429Y-4.1772
X10.4429Y-4.3287
X10.4429Y-4.3957
X10.4429Y-4.4862
X10.4961Y-4.2835
X10.4961Y-4.4409
X10.5453Y-4.9685
X10.5492Y-4.4862
X10.5925Y-4.9154
X10.6024Y-4.4409
X10.6831Y-4.4744
X10.7343Y-4.1102
X10.7362Y-4.4291
X10.795Y-4.85
T6
X7.99Y-3.875
X7.99Y-3.975
T7
X10.8Y-5.055
T8
X8.05Y-4.7
X8.09Y-4.4
X8.13Y-4.7
T9
X7.9Y-5.1
X7.91Y-3.63
X10.79Y-3.63
X10.8Y-4.955
T10
X7.99Y-4.4
X7.99Y-4.625
X8.19Y-4.4
X8.19Y-4.625
T0
M30
