G04 #@! TF.GenerationSoftware,KiCad,Pcbnew,7.0.10*
G04 #@! TF.CreationDate,2024-02-07T20:48:26-05:00*
G04 #@! TF.ProjectId,RAM2E,52414d32-452e-46b6-9963-61645f706362,2.1*
G04 #@! TF.SameCoordinates,Original*
G04 #@! TF.FileFunction,Soldermask,Bot*
G04 #@! TF.FilePolarity,Negative*
%FSLAX46Y46*%
G04 Gerber Fmt 4.6, Leading zero omitted, Abs format (unit mm)*
G04 Created by KiCad (PCBNEW 7.0.10) date 2024-02-07 20:48:26*
%MOMM*%
%LPD*%
G01*
G04 APERTURE LIST*
G04 APERTURE END LIST*
G36*
X201125999Y-131543771D02*
G01*
X201137712Y-131547869D01*
X201148592Y-131549176D01*
X201204857Y-131571364D01*
X201254635Y-131588782D01*
X201261071Y-131593532D01*
X201264788Y-131594998D01*
X201327758Y-131642749D01*
X201364289Y-131669711D01*
X201391259Y-131706253D01*
X201439001Y-131769211D01*
X201440466Y-131772926D01*
X201445218Y-131779365D01*
X201462642Y-131829162D01*
X201484822Y-131885406D01*
X201486127Y-131896280D01*
X201490229Y-131908001D01*
X201498200Y-131993000D01*
X201498200Y-132042804D01*
X201535396Y-132080000D01*
X202324603Y-132080000D01*
X202361800Y-132042803D01*
X202361800Y-131996798D01*
X202361800Y-131993000D01*
X202369771Y-131908001D01*
X202373869Y-131896288D01*
X202375176Y-131885407D01*
X202397367Y-131829133D01*
X202414782Y-131779365D01*
X202419531Y-131772929D01*
X202420998Y-131769211D01*
X202468777Y-131706204D01*
X202495711Y-131669711D01*
X202532204Y-131642777D01*
X202595211Y-131594998D01*
X202598929Y-131593531D01*
X202605365Y-131588782D01*
X202655140Y-131571365D01*
X202711406Y-131549177D01*
X202722284Y-131547870D01*
X202734001Y-131543771D01*
X202819000Y-131535800D01*
X203581000Y-131535800D01*
X203665999Y-131543771D01*
X203677712Y-131547869D01*
X203688592Y-131549176D01*
X203744857Y-131571364D01*
X203794635Y-131588782D01*
X203801071Y-131593532D01*
X203804788Y-131594998D01*
X203867758Y-131642749D01*
X203904289Y-131669711D01*
X203931259Y-131706253D01*
X203979001Y-131769211D01*
X203980466Y-131772926D01*
X203985218Y-131779365D01*
X204002642Y-131829162D01*
X204024822Y-131885406D01*
X204026127Y-131896280D01*
X204030229Y-131908001D01*
X204038200Y-131993000D01*
X204038200Y-132042804D01*
X204075396Y-132080000D01*
X204864603Y-132080000D01*
X204901800Y-132042803D01*
X204901800Y-131996798D01*
X204901800Y-131993000D01*
X204909771Y-131908001D01*
X204913869Y-131896288D01*
X204915176Y-131885407D01*
X204937367Y-131829133D01*
X204954782Y-131779365D01*
X204959531Y-131772929D01*
X204960998Y-131769211D01*
X205008777Y-131706204D01*
X205035711Y-131669711D01*
X205072204Y-131642777D01*
X205135211Y-131594998D01*
X205138929Y-131593531D01*
X205145365Y-131588782D01*
X205195140Y-131571365D01*
X205251406Y-131549177D01*
X205262284Y-131547870D01*
X205274001Y-131543771D01*
X205359000Y-131535800D01*
X206121000Y-131535800D01*
X206205999Y-131543771D01*
X206217712Y-131547869D01*
X206228592Y-131549176D01*
X206284857Y-131571364D01*
X206334635Y-131588782D01*
X206341071Y-131593532D01*
X206344788Y-131594998D01*
X206407758Y-131642749D01*
X206444289Y-131669711D01*
X206471259Y-131706253D01*
X206519001Y-131769211D01*
X206520466Y-131772926D01*
X206525218Y-131779365D01*
X206542642Y-131829162D01*
X206564822Y-131885406D01*
X206566127Y-131896280D01*
X206570229Y-131908001D01*
X206578200Y-131993000D01*
X206578200Y-132042804D01*
X206615396Y-132080000D01*
X207404603Y-132080000D01*
X207441800Y-132042803D01*
X207441800Y-131996798D01*
X207441800Y-131993000D01*
X207449771Y-131908001D01*
X207453869Y-131896288D01*
X207455176Y-131885407D01*
X207477367Y-131829133D01*
X207494782Y-131779365D01*
X207499531Y-131772929D01*
X207500998Y-131769211D01*
X207548777Y-131706204D01*
X207575711Y-131669711D01*
X207612204Y-131642777D01*
X207675211Y-131594998D01*
X207678929Y-131593531D01*
X207685365Y-131588782D01*
X207735140Y-131571365D01*
X207791406Y-131549177D01*
X207802284Y-131547870D01*
X207814001Y-131543771D01*
X207899000Y-131535800D01*
X208661000Y-131535800D01*
X208745999Y-131543771D01*
X208757712Y-131547869D01*
X208768592Y-131549176D01*
X208824857Y-131571364D01*
X208874635Y-131588782D01*
X208881071Y-131593532D01*
X208884788Y-131594998D01*
X208947758Y-131642749D01*
X208984289Y-131669711D01*
X209011259Y-131706253D01*
X209059001Y-131769211D01*
X209060466Y-131772926D01*
X209065218Y-131779365D01*
X209082642Y-131829162D01*
X209104822Y-131885406D01*
X209106127Y-131896280D01*
X209110229Y-131908001D01*
X209118200Y-131993000D01*
X209118200Y-132042804D01*
X209155396Y-132080000D01*
X209944603Y-132080000D01*
X209981800Y-132042803D01*
X209981800Y-131996798D01*
X209981800Y-131993000D01*
X209989771Y-131908001D01*
X209993869Y-131896288D01*
X209995176Y-131885407D01*
X210017367Y-131829133D01*
X210034782Y-131779365D01*
X210039531Y-131772929D01*
X210040998Y-131769211D01*
X210088777Y-131706204D01*
X210115711Y-131669711D01*
X210152204Y-131642777D01*
X210215211Y-131594998D01*
X210218929Y-131593531D01*
X210225365Y-131588782D01*
X210275140Y-131571365D01*
X210331406Y-131549177D01*
X210342284Y-131547870D01*
X210354001Y-131543771D01*
X210439000Y-131535800D01*
X211201000Y-131535800D01*
X211285999Y-131543771D01*
X211297712Y-131547869D01*
X211308592Y-131549176D01*
X211364857Y-131571364D01*
X211414635Y-131588782D01*
X211421071Y-131593532D01*
X211424788Y-131594998D01*
X211487758Y-131642749D01*
X211524289Y-131669711D01*
X211551259Y-131706253D01*
X211599001Y-131769211D01*
X211600466Y-131772926D01*
X211605218Y-131779365D01*
X211622642Y-131829162D01*
X211644822Y-131885406D01*
X211646127Y-131896280D01*
X211650229Y-131908001D01*
X211658200Y-131993000D01*
X211658200Y-132042804D01*
X211695396Y-132080000D01*
X212484603Y-132080000D01*
X212521800Y-132042803D01*
X212521800Y-131996798D01*
X212521800Y-131993000D01*
X212529771Y-131908001D01*
X212533869Y-131896288D01*
X212535176Y-131885407D01*
X212557367Y-131829133D01*
X212574782Y-131779365D01*
X212579531Y-131772929D01*
X212580998Y-131769211D01*
X212628777Y-131706204D01*
X212655711Y-131669711D01*
X212692204Y-131642777D01*
X212755211Y-131594998D01*
X212758929Y-131593531D01*
X212765365Y-131588782D01*
X212815140Y-131571365D01*
X212871406Y-131549177D01*
X212882284Y-131547870D01*
X212894001Y-131543771D01*
X212979000Y-131535800D01*
X213741000Y-131535800D01*
X213825999Y-131543771D01*
X213837712Y-131547869D01*
X213848592Y-131549176D01*
X213904857Y-131571364D01*
X213954635Y-131588782D01*
X213961071Y-131593532D01*
X213964788Y-131594998D01*
X214027758Y-131642749D01*
X214064289Y-131669711D01*
X214091259Y-131706253D01*
X214139001Y-131769211D01*
X214140466Y-131772926D01*
X214145218Y-131779365D01*
X214162642Y-131829162D01*
X214184822Y-131885406D01*
X214186127Y-131896280D01*
X214190229Y-131908001D01*
X214198200Y-131993000D01*
X214198200Y-132042804D01*
X214235396Y-132080000D01*
X215024603Y-132080000D01*
X215061800Y-132042803D01*
X215061800Y-131996798D01*
X215061800Y-131993000D01*
X215069771Y-131908001D01*
X215073869Y-131896288D01*
X215075176Y-131885407D01*
X215097367Y-131829133D01*
X215114782Y-131779365D01*
X215119531Y-131772929D01*
X215120998Y-131769211D01*
X215168777Y-131706204D01*
X215195711Y-131669711D01*
X215232204Y-131642777D01*
X215295211Y-131594998D01*
X215298929Y-131593531D01*
X215305365Y-131588782D01*
X215355140Y-131571365D01*
X215411406Y-131549177D01*
X215422284Y-131547870D01*
X215434001Y-131543771D01*
X215519000Y-131535800D01*
X216281000Y-131535800D01*
X216365999Y-131543771D01*
X216377712Y-131547869D01*
X216388592Y-131549176D01*
X216444857Y-131571364D01*
X216494635Y-131588782D01*
X216501071Y-131593532D01*
X216504788Y-131594998D01*
X216567758Y-131642749D01*
X216604289Y-131669711D01*
X216631259Y-131706253D01*
X216679001Y-131769211D01*
X216680466Y-131772926D01*
X216685218Y-131779365D01*
X216702642Y-131829162D01*
X216724822Y-131885406D01*
X216726127Y-131896280D01*
X216730229Y-131908001D01*
X216738200Y-131993000D01*
X216738200Y-132042804D01*
X216775396Y-132080000D01*
X217564603Y-132080000D01*
X217601800Y-132042803D01*
X217601800Y-131996798D01*
X217601800Y-131993000D01*
X217609771Y-131908001D01*
X217613869Y-131896288D01*
X217615176Y-131885407D01*
X217637367Y-131829133D01*
X217654782Y-131779365D01*
X217659531Y-131772929D01*
X217660998Y-131769211D01*
X217708777Y-131706204D01*
X217735711Y-131669711D01*
X217772204Y-131642777D01*
X217835211Y-131594998D01*
X217838929Y-131593531D01*
X217845365Y-131588782D01*
X217895140Y-131571365D01*
X217951406Y-131549177D01*
X217962284Y-131547870D01*
X217974001Y-131543771D01*
X218059000Y-131535800D01*
X218821000Y-131535800D01*
X218905999Y-131543771D01*
X218917712Y-131547869D01*
X218928592Y-131549176D01*
X218984857Y-131571364D01*
X219034635Y-131588782D01*
X219041071Y-131593532D01*
X219044788Y-131594998D01*
X219107758Y-131642749D01*
X219144289Y-131669711D01*
X219171259Y-131706253D01*
X219219001Y-131769211D01*
X219220466Y-131772926D01*
X219225218Y-131779365D01*
X219242642Y-131829162D01*
X219264822Y-131885406D01*
X219266127Y-131896280D01*
X219270229Y-131908001D01*
X219278200Y-131993000D01*
X219278200Y-132042804D01*
X219315396Y-132080000D01*
X220104603Y-132080000D01*
X220141800Y-132042803D01*
X220141800Y-131996798D01*
X220141800Y-131993000D01*
X220149771Y-131908001D01*
X220153869Y-131896288D01*
X220155176Y-131885407D01*
X220177367Y-131829133D01*
X220194782Y-131779365D01*
X220199531Y-131772929D01*
X220200998Y-131769211D01*
X220248777Y-131706204D01*
X220275711Y-131669711D01*
X220312204Y-131642777D01*
X220375211Y-131594998D01*
X220378929Y-131593531D01*
X220385365Y-131588782D01*
X220435140Y-131571365D01*
X220491406Y-131549177D01*
X220502284Y-131547870D01*
X220514001Y-131543771D01*
X220599000Y-131535800D01*
X221361000Y-131535800D01*
X221445999Y-131543771D01*
X221457712Y-131547869D01*
X221468592Y-131549176D01*
X221524857Y-131571364D01*
X221574635Y-131588782D01*
X221581071Y-131593532D01*
X221584788Y-131594998D01*
X221647758Y-131642749D01*
X221684289Y-131669711D01*
X221711259Y-131706253D01*
X221759001Y-131769211D01*
X221760466Y-131772926D01*
X221765218Y-131779365D01*
X221782642Y-131829162D01*
X221804822Y-131885406D01*
X221806127Y-131896280D01*
X221810229Y-131908001D01*
X221818200Y-131993000D01*
X221818200Y-132042804D01*
X221855396Y-132080000D01*
X222644603Y-132080000D01*
X222681800Y-132042803D01*
X222681800Y-131996798D01*
X222681800Y-131993000D01*
X222689771Y-131908001D01*
X222693869Y-131896288D01*
X222695176Y-131885407D01*
X222717367Y-131829133D01*
X222734782Y-131779365D01*
X222739531Y-131772929D01*
X222740998Y-131769211D01*
X222788777Y-131706204D01*
X222815711Y-131669711D01*
X222852204Y-131642777D01*
X222915211Y-131594998D01*
X222918929Y-131593531D01*
X222925365Y-131588782D01*
X222975140Y-131571365D01*
X223031406Y-131549177D01*
X223042284Y-131547870D01*
X223054001Y-131543771D01*
X223139000Y-131535800D01*
X223901000Y-131535800D01*
X223985999Y-131543771D01*
X223997712Y-131547869D01*
X224008592Y-131549176D01*
X224064857Y-131571364D01*
X224114635Y-131588782D01*
X224121071Y-131593532D01*
X224124788Y-131594998D01*
X224187758Y-131642749D01*
X224224289Y-131669711D01*
X224251259Y-131706253D01*
X224299001Y-131769211D01*
X224300466Y-131772926D01*
X224305218Y-131779365D01*
X224322642Y-131829162D01*
X224344822Y-131885406D01*
X224346127Y-131896280D01*
X224350229Y-131908001D01*
X224358200Y-131993000D01*
X224358200Y-132042804D01*
X224395396Y-132080000D01*
X225184603Y-132080000D01*
X225221800Y-132042803D01*
X225221800Y-131996798D01*
X225221800Y-131993000D01*
X225229771Y-131908001D01*
X225233869Y-131896288D01*
X225235176Y-131885407D01*
X225257367Y-131829133D01*
X225274782Y-131779365D01*
X225279531Y-131772929D01*
X225280998Y-131769211D01*
X225328777Y-131706204D01*
X225355711Y-131669711D01*
X225392204Y-131642777D01*
X225455211Y-131594998D01*
X225458929Y-131593531D01*
X225465365Y-131588782D01*
X225515140Y-131571365D01*
X225571406Y-131549177D01*
X225582284Y-131547870D01*
X225594001Y-131543771D01*
X225679000Y-131535800D01*
X226441000Y-131535800D01*
X226525999Y-131543771D01*
X226537712Y-131547869D01*
X226548592Y-131549176D01*
X226604857Y-131571364D01*
X226654635Y-131588782D01*
X226661071Y-131593532D01*
X226664788Y-131594998D01*
X226727758Y-131642749D01*
X226764289Y-131669711D01*
X226791259Y-131706253D01*
X226839001Y-131769211D01*
X226840466Y-131772926D01*
X226845218Y-131779365D01*
X226862642Y-131829162D01*
X226884822Y-131885406D01*
X226886127Y-131896280D01*
X226890229Y-131908001D01*
X226898200Y-131993000D01*
X226898200Y-132042804D01*
X226935396Y-132080000D01*
X227724603Y-132080000D01*
X227761800Y-132042803D01*
X227761800Y-131996798D01*
X227761800Y-131993000D01*
X227769771Y-131908001D01*
X227773869Y-131896288D01*
X227775176Y-131885407D01*
X227797367Y-131829133D01*
X227814782Y-131779365D01*
X227819531Y-131772929D01*
X227820998Y-131769211D01*
X227868777Y-131706204D01*
X227895711Y-131669711D01*
X227932204Y-131642777D01*
X227995211Y-131594998D01*
X227998929Y-131593531D01*
X228005365Y-131588782D01*
X228055140Y-131571365D01*
X228111406Y-131549177D01*
X228122284Y-131547870D01*
X228134001Y-131543771D01*
X228219000Y-131535800D01*
X228981000Y-131535800D01*
X229065999Y-131543771D01*
X229077712Y-131547869D01*
X229088592Y-131549176D01*
X229144857Y-131571364D01*
X229194635Y-131588782D01*
X229201071Y-131593532D01*
X229204788Y-131594998D01*
X229267758Y-131642749D01*
X229304289Y-131669711D01*
X229331259Y-131706253D01*
X229379001Y-131769211D01*
X229380466Y-131772926D01*
X229385218Y-131779365D01*
X229402642Y-131829162D01*
X229424822Y-131885406D01*
X229426127Y-131896280D01*
X229430229Y-131908001D01*
X229438200Y-131993000D01*
X229438200Y-132042804D01*
X229475396Y-132080000D01*
X230264603Y-132080000D01*
X230301800Y-132042803D01*
X230301800Y-131996798D01*
X230301800Y-131993000D01*
X230309771Y-131908001D01*
X230313869Y-131896288D01*
X230315176Y-131885407D01*
X230337367Y-131829133D01*
X230354782Y-131779365D01*
X230359531Y-131772929D01*
X230360998Y-131769211D01*
X230408777Y-131706204D01*
X230435711Y-131669711D01*
X230472204Y-131642777D01*
X230535211Y-131594998D01*
X230538929Y-131593531D01*
X230545365Y-131588782D01*
X230595140Y-131571365D01*
X230651406Y-131549177D01*
X230662284Y-131547870D01*
X230674001Y-131543771D01*
X230759000Y-131535800D01*
X231521000Y-131535800D01*
X231605999Y-131543771D01*
X231617712Y-131547869D01*
X231628592Y-131549176D01*
X231684857Y-131571364D01*
X231734635Y-131588782D01*
X231741071Y-131593532D01*
X231744788Y-131594998D01*
X231807758Y-131642749D01*
X231844289Y-131669711D01*
X231871259Y-131706253D01*
X231919001Y-131769211D01*
X231920466Y-131772926D01*
X231925218Y-131779365D01*
X231942642Y-131829162D01*
X231964822Y-131885406D01*
X231966127Y-131896280D01*
X231970229Y-131908001D01*
X231978200Y-131993000D01*
X231978200Y-132042804D01*
X232015396Y-132080000D01*
X232804603Y-132080000D01*
X232841800Y-132042803D01*
X232841800Y-131996798D01*
X232841800Y-131993000D01*
X232849771Y-131908001D01*
X232853869Y-131896288D01*
X232855176Y-131885407D01*
X232877367Y-131829133D01*
X232894782Y-131779365D01*
X232899531Y-131772929D01*
X232900998Y-131769211D01*
X232948777Y-131706204D01*
X232975711Y-131669711D01*
X233012204Y-131642777D01*
X233075211Y-131594998D01*
X233078929Y-131593531D01*
X233085365Y-131588782D01*
X233135140Y-131571365D01*
X233191406Y-131549177D01*
X233202284Y-131547870D01*
X233214001Y-131543771D01*
X233299000Y-131535800D01*
X234061000Y-131535800D01*
X234145999Y-131543771D01*
X234157712Y-131547869D01*
X234168592Y-131549176D01*
X234224857Y-131571364D01*
X234274635Y-131588782D01*
X234281071Y-131593532D01*
X234284788Y-131594998D01*
X234347758Y-131642749D01*
X234384289Y-131669711D01*
X234411259Y-131706253D01*
X234459001Y-131769211D01*
X234460466Y-131772926D01*
X234465218Y-131779365D01*
X234482642Y-131829162D01*
X234504822Y-131885406D01*
X234506127Y-131896280D01*
X234510229Y-131908001D01*
X234518200Y-131993000D01*
X234518200Y-132042804D01*
X234555396Y-132080000D01*
X235344603Y-132080000D01*
X235381800Y-132042803D01*
X235381800Y-131996798D01*
X235381800Y-131993000D01*
X235389771Y-131908001D01*
X235393869Y-131896288D01*
X235395176Y-131885407D01*
X235417367Y-131829133D01*
X235434782Y-131779365D01*
X235439531Y-131772929D01*
X235440998Y-131769211D01*
X235488777Y-131706204D01*
X235515711Y-131669711D01*
X235552204Y-131642777D01*
X235615211Y-131594998D01*
X235618929Y-131593531D01*
X235625365Y-131588782D01*
X235675140Y-131571365D01*
X235731406Y-131549177D01*
X235742284Y-131547870D01*
X235754001Y-131543771D01*
X235839000Y-131535800D01*
X236601000Y-131535800D01*
X236685999Y-131543771D01*
X236697712Y-131547869D01*
X236708592Y-131549176D01*
X236764857Y-131571364D01*
X236814635Y-131588782D01*
X236821071Y-131593532D01*
X236824788Y-131594998D01*
X236887758Y-131642749D01*
X236924289Y-131669711D01*
X236951259Y-131706253D01*
X236999001Y-131769211D01*
X237000466Y-131772926D01*
X237005218Y-131779365D01*
X237022642Y-131829162D01*
X237044822Y-131885406D01*
X237046127Y-131896280D01*
X237050229Y-131908001D01*
X237058200Y-131993000D01*
X237058200Y-132042804D01*
X237095396Y-132080000D01*
X237884603Y-132080000D01*
X237921800Y-132042803D01*
X237921800Y-131996798D01*
X237921800Y-131993000D01*
X237929771Y-131908001D01*
X237933869Y-131896288D01*
X237935176Y-131885407D01*
X237957367Y-131829133D01*
X237974782Y-131779365D01*
X237979531Y-131772929D01*
X237980998Y-131769211D01*
X238028777Y-131706204D01*
X238055711Y-131669711D01*
X238092204Y-131642777D01*
X238155211Y-131594998D01*
X238158929Y-131593531D01*
X238165365Y-131588782D01*
X238215140Y-131571365D01*
X238271406Y-131549177D01*
X238282284Y-131547870D01*
X238294001Y-131543771D01*
X238379000Y-131535800D01*
X239141000Y-131535800D01*
X239225999Y-131543771D01*
X239237712Y-131547869D01*
X239248592Y-131549176D01*
X239304857Y-131571364D01*
X239354635Y-131588782D01*
X239361071Y-131593532D01*
X239364788Y-131594998D01*
X239427758Y-131642749D01*
X239464289Y-131669711D01*
X239491259Y-131706253D01*
X239539001Y-131769211D01*
X239540466Y-131772926D01*
X239545218Y-131779365D01*
X239562642Y-131829162D01*
X239584822Y-131885406D01*
X239586127Y-131896280D01*
X239590229Y-131908001D01*
X239598200Y-131993000D01*
X239598200Y-132042804D01*
X239635396Y-132080000D01*
X240424603Y-132080000D01*
X240461800Y-132042803D01*
X240461800Y-131996798D01*
X240461800Y-131993000D01*
X240469771Y-131908001D01*
X240473869Y-131896288D01*
X240475176Y-131885407D01*
X240497367Y-131829133D01*
X240514782Y-131779365D01*
X240519531Y-131772929D01*
X240520998Y-131769211D01*
X240568777Y-131706204D01*
X240595711Y-131669711D01*
X240632204Y-131642777D01*
X240695211Y-131594998D01*
X240698929Y-131593531D01*
X240705365Y-131588782D01*
X240755140Y-131571365D01*
X240811406Y-131549177D01*
X240822284Y-131547870D01*
X240834001Y-131543771D01*
X240919000Y-131535800D01*
X241681000Y-131535800D01*
X241765999Y-131543771D01*
X241777712Y-131547869D01*
X241788592Y-131549176D01*
X241844857Y-131571364D01*
X241894635Y-131588782D01*
X241901071Y-131593532D01*
X241904788Y-131594998D01*
X241967758Y-131642749D01*
X242004289Y-131669711D01*
X242031259Y-131706253D01*
X242079001Y-131769211D01*
X242080466Y-131772926D01*
X242085218Y-131779365D01*
X242102642Y-131829162D01*
X242124822Y-131885406D01*
X242126127Y-131896280D01*
X242130229Y-131908001D01*
X242138200Y-131993000D01*
X242138200Y-132042804D01*
X242175396Y-132080000D01*
X242964603Y-132080000D01*
X243001800Y-132042803D01*
X243001800Y-131996798D01*
X243001800Y-131993000D01*
X243009771Y-131908001D01*
X243013869Y-131896288D01*
X243015176Y-131885407D01*
X243037367Y-131829133D01*
X243054782Y-131779365D01*
X243059531Y-131772929D01*
X243060998Y-131769211D01*
X243108777Y-131706204D01*
X243135711Y-131669711D01*
X243172204Y-131642777D01*
X243235211Y-131594998D01*
X243238929Y-131593531D01*
X243245365Y-131588782D01*
X243295140Y-131571365D01*
X243351406Y-131549177D01*
X243362284Y-131547870D01*
X243374001Y-131543771D01*
X243459000Y-131535800D01*
X244221000Y-131535800D01*
X244305999Y-131543771D01*
X244317712Y-131547869D01*
X244328592Y-131549176D01*
X244384857Y-131571364D01*
X244434635Y-131588782D01*
X244441071Y-131593532D01*
X244444788Y-131594998D01*
X244507758Y-131642749D01*
X244544289Y-131669711D01*
X244571259Y-131706253D01*
X244619001Y-131769211D01*
X244620466Y-131772926D01*
X244625218Y-131779365D01*
X244642642Y-131829162D01*
X244664822Y-131885406D01*
X244666127Y-131896280D01*
X244670229Y-131908001D01*
X244678200Y-131993000D01*
X244678200Y-132042804D01*
X244715396Y-132080000D01*
X245504603Y-132080000D01*
X245541800Y-132042803D01*
X245541800Y-131996798D01*
X245541800Y-131993000D01*
X245549771Y-131908001D01*
X245553869Y-131896288D01*
X245555176Y-131885407D01*
X245577367Y-131829133D01*
X245594782Y-131779365D01*
X245599531Y-131772929D01*
X245600998Y-131769211D01*
X245648777Y-131706204D01*
X245675711Y-131669711D01*
X245712204Y-131642777D01*
X245775211Y-131594998D01*
X245778929Y-131593531D01*
X245785365Y-131588782D01*
X245835140Y-131571365D01*
X245891406Y-131549177D01*
X245902284Y-131547870D01*
X245914001Y-131543771D01*
X245999000Y-131535800D01*
X246761000Y-131535800D01*
X246845999Y-131543771D01*
X246857712Y-131547869D01*
X246868592Y-131549176D01*
X246924857Y-131571364D01*
X246974635Y-131588782D01*
X246981071Y-131593532D01*
X246984788Y-131594998D01*
X247047758Y-131642749D01*
X247084289Y-131669711D01*
X247111259Y-131706253D01*
X247159001Y-131769211D01*
X247160466Y-131772926D01*
X247165218Y-131779365D01*
X247182642Y-131829162D01*
X247204822Y-131885406D01*
X247206127Y-131896280D01*
X247210229Y-131908001D01*
X247218200Y-131993000D01*
X247218200Y-132042804D01*
X247255396Y-132080000D01*
X248044603Y-132080000D01*
X248081800Y-132042803D01*
X248081800Y-131996798D01*
X248081800Y-131993000D01*
X248089771Y-131908001D01*
X248093869Y-131896288D01*
X248095176Y-131885407D01*
X248117367Y-131829133D01*
X248134782Y-131779365D01*
X248139531Y-131772929D01*
X248140998Y-131769211D01*
X248188777Y-131706204D01*
X248215711Y-131669711D01*
X248252204Y-131642777D01*
X248315211Y-131594998D01*
X248318929Y-131593531D01*
X248325365Y-131588782D01*
X248375140Y-131571365D01*
X248431406Y-131549177D01*
X248442284Y-131547870D01*
X248454001Y-131543771D01*
X248539000Y-131535800D01*
X249301000Y-131535800D01*
X249385999Y-131543771D01*
X249397712Y-131547869D01*
X249408592Y-131549176D01*
X249464857Y-131571364D01*
X249514635Y-131588782D01*
X249521071Y-131593532D01*
X249524788Y-131594998D01*
X249587758Y-131642749D01*
X249624289Y-131669711D01*
X249651259Y-131706253D01*
X249699001Y-131769211D01*
X249700466Y-131772926D01*
X249705218Y-131779365D01*
X249722642Y-131829162D01*
X249744822Y-131885406D01*
X249746127Y-131896280D01*
X249750229Y-131908001D01*
X249758200Y-131993000D01*
X249758200Y-132042804D01*
X249795396Y-132080000D01*
X250584603Y-132080000D01*
X250621800Y-132042803D01*
X250621800Y-131996798D01*
X250621800Y-131993000D01*
X250629771Y-131908001D01*
X250633869Y-131896288D01*
X250635176Y-131885407D01*
X250657367Y-131829133D01*
X250674782Y-131779365D01*
X250679531Y-131772929D01*
X250680998Y-131769211D01*
X250728777Y-131706204D01*
X250755711Y-131669711D01*
X250792204Y-131642777D01*
X250855211Y-131594998D01*
X250858929Y-131593531D01*
X250865365Y-131588782D01*
X250915140Y-131571365D01*
X250971406Y-131549177D01*
X250982284Y-131547870D01*
X250994001Y-131543771D01*
X251079000Y-131535800D01*
X251841000Y-131535800D01*
X251925999Y-131543771D01*
X251937712Y-131547869D01*
X251948592Y-131549176D01*
X252004857Y-131571364D01*
X252054635Y-131588782D01*
X252061071Y-131593532D01*
X252064788Y-131594998D01*
X252127758Y-131642749D01*
X252164289Y-131669711D01*
X252191259Y-131706253D01*
X252239001Y-131769211D01*
X252240466Y-131772926D01*
X252245218Y-131779365D01*
X252262642Y-131829162D01*
X252284822Y-131885406D01*
X252286127Y-131896280D01*
X252290229Y-131908001D01*
X252298200Y-131993000D01*
X252298200Y-132042804D01*
X252335396Y-132080000D01*
X253124603Y-132080000D01*
X253161800Y-132042803D01*
X253161800Y-131996798D01*
X253161800Y-131993000D01*
X253169771Y-131908001D01*
X253173869Y-131896288D01*
X253175176Y-131885407D01*
X253197367Y-131829133D01*
X253214782Y-131779365D01*
X253219531Y-131772929D01*
X253220998Y-131769211D01*
X253268777Y-131706204D01*
X253295711Y-131669711D01*
X253332204Y-131642777D01*
X253395211Y-131594998D01*
X253398929Y-131593531D01*
X253405365Y-131588782D01*
X253455140Y-131571365D01*
X253511406Y-131549177D01*
X253522284Y-131547870D01*
X253534001Y-131543771D01*
X253619000Y-131535800D01*
X254381000Y-131535800D01*
X254465999Y-131543771D01*
X254477712Y-131547869D01*
X254488592Y-131549176D01*
X254544857Y-131571364D01*
X254594635Y-131588782D01*
X254601071Y-131593532D01*
X254604788Y-131594998D01*
X254667758Y-131642749D01*
X254704289Y-131669711D01*
X254731259Y-131706253D01*
X254779001Y-131769211D01*
X254780466Y-131772926D01*
X254785218Y-131779365D01*
X254802642Y-131829162D01*
X254824822Y-131885406D01*
X254826127Y-131896280D01*
X254830229Y-131908001D01*
X254838200Y-131993000D01*
X254838200Y-132042804D01*
X254875396Y-132080000D01*
X255664603Y-132080000D01*
X255701800Y-132042803D01*
X255701800Y-131996798D01*
X255701800Y-131993000D01*
X255709771Y-131908001D01*
X255713869Y-131896288D01*
X255715176Y-131885407D01*
X255737367Y-131829133D01*
X255754782Y-131779365D01*
X255759531Y-131772929D01*
X255760998Y-131769211D01*
X255808777Y-131706204D01*
X255835711Y-131669711D01*
X255872204Y-131642777D01*
X255935211Y-131594998D01*
X255938929Y-131593531D01*
X255945365Y-131588782D01*
X255995140Y-131571365D01*
X256051406Y-131549177D01*
X256062284Y-131547870D01*
X256074001Y-131543771D01*
X256159000Y-131535800D01*
X256921000Y-131535800D01*
X257005999Y-131543771D01*
X257017712Y-131547869D01*
X257028592Y-131549176D01*
X257084857Y-131571364D01*
X257134635Y-131588782D01*
X257141071Y-131593532D01*
X257144788Y-131594998D01*
X257207758Y-131642749D01*
X257244289Y-131669711D01*
X257271259Y-131706253D01*
X257319001Y-131769211D01*
X257320466Y-131772926D01*
X257325218Y-131779365D01*
X257342642Y-131829162D01*
X257364822Y-131885406D01*
X257366127Y-131896280D01*
X257370229Y-131908001D01*
X257378200Y-131993000D01*
X257378200Y-132042804D01*
X257415396Y-132080000D01*
X258204603Y-132080000D01*
X258241800Y-132042803D01*
X258241800Y-131996798D01*
X258241800Y-131993000D01*
X258249771Y-131908001D01*
X258253869Y-131896288D01*
X258255176Y-131885407D01*
X258277367Y-131829133D01*
X258294782Y-131779365D01*
X258299531Y-131772929D01*
X258300998Y-131769211D01*
X258348777Y-131706204D01*
X258375711Y-131669711D01*
X258412204Y-131642777D01*
X258475211Y-131594998D01*
X258478929Y-131593531D01*
X258485365Y-131588782D01*
X258535140Y-131571365D01*
X258591406Y-131549177D01*
X258602284Y-131547870D01*
X258614001Y-131543771D01*
X258699000Y-131535800D01*
X259461000Y-131535800D01*
X259545999Y-131543771D01*
X259557712Y-131547869D01*
X259568592Y-131549176D01*
X259624857Y-131571364D01*
X259674635Y-131588782D01*
X259681071Y-131593532D01*
X259684788Y-131594998D01*
X259747758Y-131642749D01*
X259784289Y-131669711D01*
X259811259Y-131706253D01*
X259859001Y-131769211D01*
X259860466Y-131772926D01*
X259865218Y-131779365D01*
X259882642Y-131829162D01*
X259904822Y-131885406D01*
X259906127Y-131896280D01*
X259910229Y-131908001D01*
X259918200Y-131993000D01*
X259918200Y-132042804D01*
X259955396Y-132080000D01*
X260744603Y-132080000D01*
X260781800Y-132042803D01*
X260781800Y-131996798D01*
X260781800Y-131993000D01*
X260789771Y-131908001D01*
X260793869Y-131896288D01*
X260795176Y-131885407D01*
X260817367Y-131829133D01*
X260834782Y-131779365D01*
X260839531Y-131772929D01*
X260840998Y-131769211D01*
X260888777Y-131706204D01*
X260915711Y-131669711D01*
X260952204Y-131642777D01*
X261015211Y-131594998D01*
X261018929Y-131593531D01*
X261025365Y-131588782D01*
X261075140Y-131571365D01*
X261131406Y-131549177D01*
X261142284Y-131547870D01*
X261154001Y-131543771D01*
X261239000Y-131535800D01*
X262001000Y-131535800D01*
X262085999Y-131543771D01*
X262097712Y-131547869D01*
X262108592Y-131549176D01*
X262164857Y-131571364D01*
X262214635Y-131588782D01*
X262221071Y-131593532D01*
X262224788Y-131594998D01*
X262287758Y-131642749D01*
X262324289Y-131669711D01*
X262351259Y-131706253D01*
X262399001Y-131769211D01*
X262400466Y-131772926D01*
X262405218Y-131779365D01*
X262422642Y-131829162D01*
X262444822Y-131885406D01*
X262446127Y-131896280D01*
X262450229Y-131908001D01*
X262458200Y-131993000D01*
X262458200Y-132042804D01*
X262495396Y-132080000D01*
X263284603Y-132080000D01*
X263321800Y-132042803D01*
X263321800Y-131996798D01*
X263321800Y-131993000D01*
X263329771Y-131908001D01*
X263333869Y-131896288D01*
X263335176Y-131885407D01*
X263357367Y-131829133D01*
X263374782Y-131779365D01*
X263379531Y-131772929D01*
X263380998Y-131769211D01*
X263428777Y-131706204D01*
X263455711Y-131669711D01*
X263492204Y-131642777D01*
X263555211Y-131594998D01*
X263558929Y-131593531D01*
X263565365Y-131588782D01*
X263615140Y-131571365D01*
X263671406Y-131549177D01*
X263682284Y-131547870D01*
X263694001Y-131543771D01*
X263779000Y-131535800D01*
X264541000Y-131535800D01*
X264625999Y-131543771D01*
X264637712Y-131547869D01*
X264648592Y-131549176D01*
X264704857Y-131571364D01*
X264754635Y-131588782D01*
X264761071Y-131593532D01*
X264764788Y-131594998D01*
X264827758Y-131642749D01*
X264864289Y-131669711D01*
X264891259Y-131706253D01*
X264939001Y-131769211D01*
X264940466Y-131772926D01*
X264945218Y-131779365D01*
X264962642Y-131829162D01*
X264984822Y-131885406D01*
X264986127Y-131896280D01*
X264990229Y-131908001D01*
X264998200Y-131993000D01*
X264998200Y-132042804D01*
X265035396Y-132080000D01*
X265824603Y-132080000D01*
X265861800Y-132042803D01*
X265861800Y-131996798D01*
X265861800Y-131993000D01*
X265869771Y-131908001D01*
X265873869Y-131896288D01*
X265875176Y-131885407D01*
X265897367Y-131829133D01*
X265914782Y-131779365D01*
X265919531Y-131772929D01*
X265920998Y-131769211D01*
X265968777Y-131706204D01*
X265995711Y-131669711D01*
X266032204Y-131642777D01*
X266095211Y-131594998D01*
X266098929Y-131593531D01*
X266105365Y-131588782D01*
X266155140Y-131571365D01*
X266211406Y-131549177D01*
X266222284Y-131547870D01*
X266234001Y-131543771D01*
X266319000Y-131535800D01*
X267081000Y-131535800D01*
X267165999Y-131543771D01*
X267177712Y-131547869D01*
X267188592Y-131549176D01*
X267244857Y-131571364D01*
X267294635Y-131588782D01*
X267301071Y-131593532D01*
X267304788Y-131594998D01*
X267367758Y-131642749D01*
X267404289Y-131669711D01*
X267431259Y-131706253D01*
X267479001Y-131769211D01*
X267480466Y-131772926D01*
X267485218Y-131779365D01*
X267502642Y-131829162D01*
X267524822Y-131885406D01*
X267526127Y-131896280D01*
X267530229Y-131908001D01*
X267538200Y-131993000D01*
X267538200Y-132042804D01*
X267575396Y-132080000D01*
X268364603Y-132080000D01*
X268401800Y-132042803D01*
X268401800Y-131996798D01*
X268401800Y-131993000D01*
X268409771Y-131908001D01*
X268413869Y-131896288D01*
X268415176Y-131885407D01*
X268437367Y-131829133D01*
X268454782Y-131779365D01*
X268459531Y-131772929D01*
X268460998Y-131769211D01*
X268508777Y-131706204D01*
X268535711Y-131669711D01*
X268572204Y-131642777D01*
X268635211Y-131594998D01*
X268638929Y-131593531D01*
X268645365Y-131588782D01*
X268695140Y-131571365D01*
X268751406Y-131549177D01*
X268762284Y-131547870D01*
X268774001Y-131543771D01*
X268859000Y-131535800D01*
X269621000Y-131535800D01*
X269705999Y-131543771D01*
X269717712Y-131547869D01*
X269728592Y-131549176D01*
X269784857Y-131571364D01*
X269834635Y-131588782D01*
X269841071Y-131593532D01*
X269844788Y-131594998D01*
X269907758Y-131642749D01*
X269944289Y-131669711D01*
X269971259Y-131706253D01*
X270019001Y-131769211D01*
X270020466Y-131772926D01*
X270025218Y-131779365D01*
X270042642Y-131829162D01*
X270064822Y-131885406D01*
X270066127Y-131896280D01*
X270070229Y-131908001D01*
X270078200Y-131993000D01*
X270078200Y-132042804D01*
X270115396Y-132080000D01*
X270904603Y-132080000D01*
X270941800Y-132042803D01*
X270941800Y-131996798D01*
X270941800Y-131993000D01*
X270949771Y-131908001D01*
X270953869Y-131896288D01*
X270955176Y-131885407D01*
X270977367Y-131829133D01*
X270994782Y-131779365D01*
X270999531Y-131772929D01*
X271000998Y-131769211D01*
X271048777Y-131706204D01*
X271075711Y-131669711D01*
X271112204Y-131642777D01*
X271175211Y-131594998D01*
X271178929Y-131593531D01*
X271185365Y-131588782D01*
X271235140Y-131571365D01*
X271291406Y-131549177D01*
X271302284Y-131547870D01*
X271314001Y-131543771D01*
X271399000Y-131535800D01*
X272161000Y-131535800D01*
X272245999Y-131543771D01*
X272257712Y-131547869D01*
X272268592Y-131549176D01*
X272324857Y-131571364D01*
X272374635Y-131588782D01*
X272381071Y-131593532D01*
X272384788Y-131594998D01*
X272447758Y-131642749D01*
X272484289Y-131669711D01*
X272511259Y-131706253D01*
X272559001Y-131769211D01*
X272560466Y-131772926D01*
X272565218Y-131779365D01*
X272582642Y-131829162D01*
X272604822Y-131885406D01*
X272606127Y-131896280D01*
X272610229Y-131908001D01*
X272618200Y-131993000D01*
X272618200Y-132042804D01*
X272655396Y-132080000D01*
X273444603Y-132080000D01*
X273481800Y-132042803D01*
X273481800Y-131996798D01*
X273481800Y-131993000D01*
X273489771Y-131908001D01*
X273493869Y-131896288D01*
X273495176Y-131885407D01*
X273517367Y-131829133D01*
X273534782Y-131779365D01*
X273539531Y-131772929D01*
X273540998Y-131769211D01*
X273588777Y-131706204D01*
X273615711Y-131669711D01*
X273652204Y-131642777D01*
X273715211Y-131594998D01*
X273718929Y-131593531D01*
X273725365Y-131588782D01*
X273775140Y-131571365D01*
X273831406Y-131549177D01*
X273842284Y-131547870D01*
X273854001Y-131543771D01*
X273939000Y-131535800D01*
X274701000Y-131535800D01*
X274785999Y-131543771D01*
X274797712Y-131547869D01*
X274808592Y-131549176D01*
X274864857Y-131571364D01*
X274914635Y-131588782D01*
X274921071Y-131593532D01*
X274924788Y-131594998D01*
X274987758Y-131642749D01*
X275024289Y-131669711D01*
X275051259Y-131706253D01*
X275099001Y-131769211D01*
X275100466Y-131772926D01*
X275105218Y-131779365D01*
X275122642Y-131829162D01*
X275144822Y-131885406D01*
X275146127Y-131896280D01*
X275150229Y-131908001D01*
X275158200Y-131993000D01*
X275158200Y-132042804D01*
X275195396Y-132080000D01*
X276606000Y-132080000D01*
X276606000Y-139446000D01*
X276098000Y-139954000D01*
X276085372Y-139954000D01*
X198894631Y-139954000D01*
X198882000Y-139954000D01*
X198374000Y-139446000D01*
X198374000Y-132080000D01*
X199784603Y-132080000D01*
X199821800Y-132042803D01*
X199821800Y-131996798D01*
X199821800Y-131993000D01*
X199829771Y-131908001D01*
X199833869Y-131896288D01*
X199835176Y-131885407D01*
X199857367Y-131829133D01*
X199874782Y-131779365D01*
X199879531Y-131772929D01*
X199880998Y-131769211D01*
X199928777Y-131706204D01*
X199955711Y-131669711D01*
X199992204Y-131642777D01*
X200055211Y-131594998D01*
X200058929Y-131593531D01*
X200065365Y-131588782D01*
X200115140Y-131571365D01*
X200171406Y-131549177D01*
X200182284Y-131547870D01*
X200194001Y-131543771D01*
X200279000Y-131535800D01*
X201041000Y-131535800D01*
X201125999Y-131543771D01*
G37*
G36*
X200821105Y-128834152D02*
G01*
X200974132Y-128887699D01*
X201111407Y-128973954D01*
X201226046Y-129088593D01*
X201312301Y-129225868D01*
X201365848Y-129378895D01*
X201384000Y-129540000D01*
X201365848Y-129701105D01*
X201312301Y-129854132D01*
X201226046Y-129991407D01*
X201111407Y-130106046D01*
X200974132Y-130192301D01*
X200821105Y-130245848D01*
X200660000Y-130264000D01*
X200498895Y-130245848D01*
X200345868Y-130192301D01*
X200208593Y-130106046D01*
X200093954Y-129991407D01*
X200007699Y-129854132D01*
X199954152Y-129701105D01*
X199936000Y-129540000D01*
X199954152Y-129378895D01*
X200007699Y-129225868D01*
X200093954Y-129088593D01*
X200208593Y-128973954D01*
X200345868Y-128887699D01*
X200498895Y-128834152D01*
X200660000Y-128816000D01*
X200821105Y-128834152D01*
G37*
G36*
X274614516Y-127361883D02*
G01*
X274799704Y-127433625D01*
X274968555Y-127538174D01*
X275115321Y-127671969D01*
X275235004Y-127830454D01*
X275323527Y-128008232D01*
X275377876Y-128199249D01*
X275396200Y-128397000D01*
X275377876Y-128594751D01*
X275323527Y-128785768D01*
X275235004Y-128963546D01*
X275115321Y-129122031D01*
X274968555Y-129255826D01*
X274799704Y-129360375D01*
X274614516Y-129432117D01*
X274419299Y-129468609D01*
X274220701Y-129468609D01*
X274025484Y-129432117D01*
X273840296Y-129360375D01*
X273671445Y-129255826D01*
X273524679Y-129122031D01*
X273404996Y-128963546D01*
X273316473Y-128785768D01*
X273262124Y-128594751D01*
X273243800Y-128397000D01*
X273262124Y-128199249D01*
X273316473Y-128008232D01*
X273404996Y-127830454D01*
X273524679Y-127671969D01*
X273671445Y-127538174D01*
X273840296Y-127433625D01*
X274025484Y-127361883D01*
X274220701Y-127325391D01*
X274419299Y-127325391D01*
X274614516Y-127361883D01*
G37*
G36*
X274481105Y-125151152D02*
G01*
X274634132Y-125204699D01*
X274771407Y-125290954D01*
X274886046Y-125405593D01*
X274972301Y-125542868D01*
X275025848Y-125695895D01*
X275044000Y-125857000D01*
X275025848Y-126018105D01*
X274972301Y-126171132D01*
X274886046Y-126308407D01*
X274771407Y-126423046D01*
X274634132Y-126509301D01*
X274481105Y-126562848D01*
X274320000Y-126581000D01*
X274158895Y-126562848D01*
X274005868Y-126509301D01*
X273868593Y-126423046D01*
X273753954Y-126308407D01*
X273667699Y-126171132D01*
X273614152Y-126018105D01*
X273596000Y-125857000D01*
X273614152Y-125695895D01*
X273667699Y-125542868D01*
X273753954Y-125405593D01*
X273868593Y-125290954D01*
X274005868Y-125204699D01*
X274158895Y-125151152D01*
X274320000Y-125133000D01*
X274481105Y-125151152D01*
G37*
G36*
X204505169Y-118813130D02*
G01*
X204538830Y-118813130D01*
X204577423Y-118822642D01*
X204617915Y-118827973D01*
X204645633Y-118839454D01*
X204672491Y-118846074D01*
X204713213Y-118867446D01*
X204755750Y-118885066D01*
X204775156Y-118899957D01*
X204794383Y-118910048D01*
X204833690Y-118944871D01*
X204874112Y-118975888D01*
X204885600Y-118990860D01*
X204897424Y-119001335D01*
X204931331Y-119050458D01*
X204964934Y-119094250D01*
X204969998Y-119106476D01*
X204975625Y-119114628D01*
X205000030Y-119178979D01*
X205022027Y-119232085D01*
X205023014Y-119239584D01*
X205024440Y-119243344D01*
X205035489Y-119334342D01*
X205041500Y-119380000D01*
X205035488Y-119425661D01*
X205024440Y-119516655D01*
X205023014Y-119520413D01*
X205022027Y-119527915D01*
X205000025Y-119581031D01*
X204975625Y-119645371D01*
X204969999Y-119653521D01*
X204964934Y-119665750D01*
X204931324Y-119709550D01*
X204897424Y-119758664D01*
X204885603Y-119769136D01*
X204874112Y-119784112D01*
X204833681Y-119815135D01*
X204794383Y-119849951D01*
X204775160Y-119860039D01*
X204755750Y-119874934D01*
X204713204Y-119892556D01*
X204672491Y-119913925D01*
X204645638Y-119920543D01*
X204617915Y-119932027D01*
X204577420Y-119937358D01*
X204538830Y-119946870D01*
X204505169Y-119946870D01*
X204470000Y-119951500D01*
X204434831Y-119946870D01*
X204401170Y-119946870D01*
X204362578Y-119937357D01*
X204322085Y-119932027D01*
X204294363Y-119920544D01*
X204267508Y-119913925D01*
X204226790Y-119892555D01*
X204184250Y-119874934D01*
X204164841Y-119860041D01*
X204145616Y-119849951D01*
X204106310Y-119815129D01*
X204065888Y-119784112D01*
X204054399Y-119769139D01*
X204042575Y-119758664D01*
X204008665Y-119709537D01*
X203975066Y-119665750D01*
X203970002Y-119653524D01*
X203964374Y-119645371D01*
X203939962Y-119581002D01*
X203917973Y-119527915D01*
X203916985Y-119520417D01*
X203915559Y-119516655D01*
X203904498Y-119425563D01*
X203898500Y-119380000D01*
X203904497Y-119334439D01*
X203915559Y-119243344D01*
X203916986Y-119239580D01*
X203917973Y-119232085D01*
X203939958Y-119179008D01*
X203964374Y-119114628D01*
X203970003Y-119106472D01*
X203975066Y-119094250D01*
X204008658Y-119050471D01*
X204042575Y-119001335D01*
X204054401Y-118990857D01*
X204065888Y-118975888D01*
X204106302Y-118944877D01*
X204145616Y-118910048D01*
X204164845Y-118899955D01*
X204184250Y-118885066D01*
X204226781Y-118867448D01*
X204267508Y-118846074D01*
X204294367Y-118839453D01*
X204322085Y-118827973D01*
X204362575Y-118822642D01*
X204401170Y-118813130D01*
X204434831Y-118813130D01*
X204470000Y-118808500D01*
X204505169Y-118813130D01*
G37*
G36*
X206537169Y-118813130D02*
G01*
X206570830Y-118813130D01*
X206609423Y-118822642D01*
X206649915Y-118827973D01*
X206677633Y-118839454D01*
X206704491Y-118846074D01*
X206745213Y-118867446D01*
X206787750Y-118885066D01*
X206807156Y-118899957D01*
X206826383Y-118910048D01*
X206865690Y-118944871D01*
X206906112Y-118975888D01*
X206917600Y-118990860D01*
X206929424Y-119001335D01*
X206963331Y-119050458D01*
X206996934Y-119094250D01*
X207001998Y-119106476D01*
X207007625Y-119114628D01*
X207032030Y-119178979D01*
X207054027Y-119232085D01*
X207055014Y-119239584D01*
X207056440Y-119243344D01*
X207067489Y-119334342D01*
X207073500Y-119380000D01*
X207067488Y-119425661D01*
X207056440Y-119516655D01*
X207055014Y-119520413D01*
X207054027Y-119527915D01*
X207032025Y-119581031D01*
X207007625Y-119645371D01*
X207001999Y-119653521D01*
X206996934Y-119665750D01*
X206963324Y-119709550D01*
X206929424Y-119758664D01*
X206917603Y-119769136D01*
X206906112Y-119784112D01*
X206865681Y-119815135D01*
X206826383Y-119849951D01*
X206807160Y-119860039D01*
X206787750Y-119874934D01*
X206745204Y-119892556D01*
X206704491Y-119913925D01*
X206677638Y-119920543D01*
X206649915Y-119932027D01*
X206609420Y-119937358D01*
X206570830Y-119946870D01*
X206537169Y-119946870D01*
X206502000Y-119951500D01*
X206466831Y-119946870D01*
X206433170Y-119946870D01*
X206394578Y-119937357D01*
X206354085Y-119932027D01*
X206326363Y-119920544D01*
X206299508Y-119913925D01*
X206258790Y-119892555D01*
X206216250Y-119874934D01*
X206196841Y-119860041D01*
X206177616Y-119849951D01*
X206138310Y-119815129D01*
X206097888Y-119784112D01*
X206086399Y-119769139D01*
X206074575Y-119758664D01*
X206040665Y-119709537D01*
X206007066Y-119665750D01*
X206002002Y-119653524D01*
X205996374Y-119645371D01*
X205971962Y-119581002D01*
X205949973Y-119527915D01*
X205948985Y-119520417D01*
X205947559Y-119516655D01*
X205936498Y-119425563D01*
X205930500Y-119380000D01*
X205936497Y-119334439D01*
X205947559Y-119243344D01*
X205948986Y-119239580D01*
X205949973Y-119232085D01*
X205971958Y-119179008D01*
X205996374Y-119114628D01*
X206002003Y-119106472D01*
X206007066Y-119094250D01*
X206040658Y-119050471D01*
X206074575Y-119001335D01*
X206086401Y-118990857D01*
X206097888Y-118975888D01*
X206138302Y-118944877D01*
X206177616Y-118910048D01*
X206196845Y-118899955D01*
X206216250Y-118885066D01*
X206258781Y-118867448D01*
X206299508Y-118846074D01*
X206326367Y-118839453D01*
X206354085Y-118827973D01*
X206394575Y-118822642D01*
X206433170Y-118813130D01*
X206466831Y-118813130D01*
X206502000Y-118808500D01*
X206537169Y-118813130D01*
G37*
G36*
X203165431Y-116230548D02*
G01*
X203378194Y-116287557D01*
X203577825Y-116380647D01*
X203758259Y-116506988D01*
X203914012Y-116662741D01*
X204040353Y-116843175D01*
X204133443Y-117042806D01*
X204190452Y-117255569D01*
X204209650Y-117475000D01*
X204190452Y-117694431D01*
X204133443Y-117907194D01*
X204040353Y-118106825D01*
X203914012Y-118287259D01*
X203758259Y-118443012D01*
X203577825Y-118569353D01*
X203378194Y-118662443D01*
X203165431Y-118719452D01*
X202946000Y-118738650D01*
X202726569Y-118719452D01*
X202513806Y-118662443D01*
X202314175Y-118569353D01*
X202133741Y-118443012D01*
X201977988Y-118287259D01*
X201851647Y-118106825D01*
X201758557Y-117907194D01*
X201701548Y-117694431D01*
X201682350Y-117475000D01*
X201701548Y-117255569D01*
X201758557Y-117042806D01*
X201851647Y-116843175D01*
X201977988Y-116662741D01*
X202133741Y-116506988D01*
X202314175Y-116380647D01*
X202513806Y-116287557D01*
X202726569Y-116230548D01*
X202946000Y-116211350D01*
X203165431Y-116230548D01*
G37*
G36*
X208245431Y-116230548D02*
G01*
X208458194Y-116287557D01*
X208657825Y-116380647D01*
X208838259Y-116506988D01*
X208994012Y-116662741D01*
X209120353Y-116843175D01*
X209213443Y-117042806D01*
X209270452Y-117255569D01*
X209289650Y-117475000D01*
X209270452Y-117694431D01*
X209213443Y-117907194D01*
X209120353Y-118106825D01*
X208994012Y-118287259D01*
X208838259Y-118443012D01*
X208657825Y-118569353D01*
X208458194Y-118662443D01*
X208245431Y-118719452D01*
X208026000Y-118738650D01*
X207806569Y-118719452D01*
X207593806Y-118662443D01*
X207394175Y-118569353D01*
X207213741Y-118443012D01*
X207057988Y-118287259D01*
X206931647Y-118106825D01*
X206838557Y-117907194D01*
X206781548Y-117694431D01*
X206762350Y-117475000D01*
X206781548Y-117255569D01*
X206838557Y-117042806D01*
X206931647Y-116843175D01*
X207057988Y-116662741D01*
X207213741Y-116506988D01*
X207394175Y-116380647D01*
X207593806Y-116287557D01*
X207806569Y-116230548D01*
X208026000Y-116211350D01*
X208245431Y-116230548D01*
G37*
G36*
X203165431Y-110515548D02*
G01*
X203378194Y-110572557D01*
X203577825Y-110665647D01*
X203758259Y-110791988D01*
X203914012Y-110947741D01*
X204040353Y-111128175D01*
X204133443Y-111327806D01*
X204190452Y-111540569D01*
X204209650Y-111760000D01*
X204190452Y-111979431D01*
X204133443Y-112192194D01*
X204040353Y-112391825D01*
X203914012Y-112572259D01*
X203758259Y-112728012D01*
X203577825Y-112854353D01*
X203378194Y-112947443D01*
X203165431Y-113004452D01*
X202946000Y-113023650D01*
X202726569Y-113004452D01*
X202513806Y-112947443D01*
X202314175Y-112854353D01*
X202133741Y-112728012D01*
X201977988Y-112572259D01*
X201851647Y-112391825D01*
X201758557Y-112192194D01*
X201701548Y-111979431D01*
X201682350Y-111760000D01*
X201701548Y-111540569D01*
X201758557Y-111327806D01*
X201851647Y-111128175D01*
X201977988Y-110947741D01*
X202133741Y-110791988D01*
X202314175Y-110665647D01*
X202513806Y-110572557D01*
X202726569Y-110515548D01*
X202946000Y-110496350D01*
X203165431Y-110515548D01*
G37*
G36*
X208245431Y-110515548D02*
G01*
X208458194Y-110572557D01*
X208657825Y-110665647D01*
X208838259Y-110791988D01*
X208994012Y-110947741D01*
X209120353Y-111128175D01*
X209213443Y-111327806D01*
X209270452Y-111540569D01*
X209289650Y-111760000D01*
X209270452Y-111979431D01*
X209213443Y-112192194D01*
X209120353Y-112391825D01*
X208994012Y-112572259D01*
X208838259Y-112728012D01*
X208657825Y-112854353D01*
X208458194Y-112947443D01*
X208245431Y-113004452D01*
X208026000Y-113023650D01*
X207806569Y-113004452D01*
X207593806Y-112947443D01*
X207394175Y-112854353D01*
X207213741Y-112728012D01*
X207057988Y-112572259D01*
X206931647Y-112391825D01*
X206838557Y-112192194D01*
X206781548Y-111979431D01*
X206762350Y-111760000D01*
X206781548Y-111540569D01*
X206838557Y-111327806D01*
X206931647Y-111128175D01*
X207057988Y-110947741D01*
X207213741Y-110791988D01*
X207394175Y-110665647D01*
X207593806Y-110572557D01*
X207806569Y-110515548D01*
X208026000Y-110496350D01*
X208245431Y-110515548D01*
G37*
G36*
X205521169Y-111193130D02*
G01*
X205554830Y-111193130D01*
X205593423Y-111202642D01*
X205633915Y-111207973D01*
X205661633Y-111219454D01*
X205688491Y-111226074D01*
X205729213Y-111247446D01*
X205771750Y-111265066D01*
X205791156Y-111279957D01*
X205810383Y-111290048D01*
X205849690Y-111324871D01*
X205890112Y-111355888D01*
X205901600Y-111370860D01*
X205913424Y-111381335D01*
X205947331Y-111430458D01*
X205980934Y-111474250D01*
X205985998Y-111486476D01*
X205991625Y-111494628D01*
X206016030Y-111558979D01*
X206038027Y-111612085D01*
X206039014Y-111619584D01*
X206040440Y-111623344D01*
X206051489Y-111714342D01*
X206057500Y-111760000D01*
X206051488Y-111805661D01*
X206040440Y-111896655D01*
X206039014Y-111900413D01*
X206038027Y-111907915D01*
X206016025Y-111961031D01*
X205991625Y-112025371D01*
X205985999Y-112033521D01*
X205980934Y-112045750D01*
X205947324Y-112089550D01*
X205913424Y-112138664D01*
X205901603Y-112149136D01*
X205890112Y-112164112D01*
X205849681Y-112195135D01*
X205810383Y-112229951D01*
X205791160Y-112240039D01*
X205771750Y-112254934D01*
X205729204Y-112272556D01*
X205688491Y-112293925D01*
X205661638Y-112300543D01*
X205633915Y-112312027D01*
X205593420Y-112317358D01*
X205554830Y-112326870D01*
X205521169Y-112326870D01*
X205486000Y-112331500D01*
X205450831Y-112326870D01*
X205417170Y-112326870D01*
X205378578Y-112317357D01*
X205338085Y-112312027D01*
X205310363Y-112300544D01*
X205283508Y-112293925D01*
X205242790Y-112272555D01*
X205200250Y-112254934D01*
X205180841Y-112240041D01*
X205161616Y-112229951D01*
X205122310Y-112195129D01*
X205081888Y-112164112D01*
X205070399Y-112149139D01*
X205058575Y-112138664D01*
X205024665Y-112089537D01*
X204991066Y-112045750D01*
X204986002Y-112033524D01*
X204980374Y-112025371D01*
X204955962Y-111961002D01*
X204933973Y-111907915D01*
X204932985Y-111900417D01*
X204931559Y-111896655D01*
X204920498Y-111805563D01*
X204914500Y-111760000D01*
X204920497Y-111714439D01*
X204931559Y-111623344D01*
X204932986Y-111619580D01*
X204933973Y-111612085D01*
X204955958Y-111559008D01*
X204980374Y-111494628D01*
X204986003Y-111486472D01*
X204991066Y-111474250D01*
X205024658Y-111430471D01*
X205058575Y-111381335D01*
X205070401Y-111370857D01*
X205081888Y-111355888D01*
X205122302Y-111324877D01*
X205161616Y-111290048D01*
X205180845Y-111279955D01*
X205200250Y-111265066D01*
X205242781Y-111247448D01*
X205283508Y-111226074D01*
X205310367Y-111219453D01*
X205338085Y-111207973D01*
X205378575Y-111202642D01*
X205417170Y-111193130D01*
X205450831Y-111193130D01*
X205486000Y-111188500D01*
X205521169Y-111193130D01*
G37*
G36*
X202994402Y-100043874D02*
G01*
X203042814Y-100043874D01*
X203084615Y-100052759D01*
X203126630Y-100056897D01*
X203179411Y-100072908D01*
X203232212Y-100084131D01*
X203266000Y-100099174D01*
X203300325Y-100109587D01*
X203354873Y-100138743D01*
X203409100Y-100162887D01*
X203434310Y-100181203D01*
X203460399Y-100195148D01*
X203513618Y-100238823D01*
X203565749Y-100276699D01*
X203582674Y-100295497D01*
X203600705Y-100310294D01*
X203649154Y-100369330D01*
X203695312Y-100420593D01*
X203705009Y-100437389D01*
X203715851Y-100450600D01*
X203755961Y-100525642D01*
X203792126Y-100588281D01*
X203796285Y-100601083D01*
X203801412Y-100610674D01*
X203829680Y-100703862D01*
X203851960Y-100772432D01*
X203852744Y-100779892D01*
X203854102Y-100784369D01*
X203867308Y-100918457D01*
X203872200Y-100965000D01*
X203867307Y-101011546D01*
X203854102Y-101145630D01*
X203852744Y-101150105D01*
X203851960Y-101157568D01*
X203829675Y-101226151D01*
X203801412Y-101319325D01*
X203796286Y-101328914D01*
X203792126Y-101341719D01*
X203755954Y-101404370D01*
X203715851Y-101479399D01*
X203705011Y-101492607D01*
X203695312Y-101509407D01*
X203649145Y-101560679D01*
X203600705Y-101619705D01*
X203582678Y-101634499D01*
X203565749Y-101653301D01*
X203513607Y-101691183D01*
X203460399Y-101734851D01*
X203434315Y-101748792D01*
X203409100Y-101767113D01*
X203354862Y-101791261D01*
X203300325Y-101820412D01*
X203266007Y-101830822D01*
X203232212Y-101845869D01*
X203179400Y-101857094D01*
X203126630Y-101873102D01*
X203084624Y-101877239D01*
X203042814Y-101886126D01*
X202994391Y-101886126D01*
X202946000Y-101890892D01*
X202897608Y-101886126D01*
X202849186Y-101886126D01*
X202807376Y-101877239D01*
X202765369Y-101873102D01*
X202712596Y-101857093D01*
X202659788Y-101845869D01*
X202625994Y-101830822D01*
X202591674Y-101820412D01*
X202537131Y-101791258D01*
X202482900Y-101767113D01*
X202457687Y-101748794D01*
X202431600Y-101734851D01*
X202378383Y-101691177D01*
X202326251Y-101653301D01*
X202309324Y-101634502D01*
X202291294Y-101619705D01*
X202242843Y-101560667D01*
X202196688Y-101509407D01*
X202186991Y-101492611D01*
X202176148Y-101479399D01*
X202136032Y-101404347D01*
X202099874Y-101341719D01*
X202095714Y-101328918D01*
X202090587Y-101319325D01*
X202062308Y-101226105D01*
X202040040Y-101157568D01*
X202039256Y-101150110D01*
X202037897Y-101145630D01*
X202024676Y-101011394D01*
X202019800Y-100965000D01*
X202024675Y-100918608D01*
X202037897Y-100784369D01*
X202039256Y-100779887D01*
X202040040Y-100772432D01*
X202062304Y-100703908D01*
X202090587Y-100610674D01*
X202095715Y-100601078D01*
X202099874Y-100588281D01*
X202136024Y-100525665D01*
X202176148Y-100450600D01*
X202186993Y-100437385D01*
X202196688Y-100420593D01*
X202242833Y-100369342D01*
X202291294Y-100310294D01*
X202309327Y-100295494D01*
X202326251Y-100276699D01*
X202378373Y-100238830D01*
X202431600Y-100195148D01*
X202457692Y-100181201D01*
X202482900Y-100162887D01*
X202537120Y-100138746D01*
X202591674Y-100109587D01*
X202626001Y-100099173D01*
X202659788Y-100084131D01*
X202712585Y-100072908D01*
X202765369Y-100056897D01*
X202807384Y-100052758D01*
X202849186Y-100043874D01*
X202897598Y-100043874D01*
X202946000Y-100039107D01*
X202994402Y-100043874D01*
G37*
G36*
X203825160Y-97504600D02*
G01*
X203849882Y-97521118D01*
X203866400Y-97545840D01*
X203872200Y-97575000D01*
X203872200Y-99275000D01*
X203866400Y-99304160D01*
X203849882Y-99328882D01*
X203825160Y-99345400D01*
X203796000Y-99351200D01*
X202096000Y-99351200D01*
X202066840Y-99345400D01*
X202042118Y-99328882D01*
X202025600Y-99304160D01*
X202019800Y-99275000D01*
X202019800Y-97575000D01*
X202025600Y-97545840D01*
X202042118Y-97521118D01*
X202066840Y-97504600D01*
X202096000Y-97498800D01*
X203796000Y-97498800D01*
X203825160Y-97504600D01*
G37*
G36*
X201075105Y-91496152D02*
G01*
X201228132Y-91549699D01*
X201365407Y-91635954D01*
X201480046Y-91750593D01*
X201566301Y-91887868D01*
X201619848Y-92040895D01*
X201638000Y-92202000D01*
X201619848Y-92363105D01*
X201566301Y-92516132D01*
X201480046Y-92653407D01*
X201365407Y-92768046D01*
X201228132Y-92854301D01*
X201075105Y-92907848D01*
X200914000Y-92926000D01*
X200752895Y-92907848D01*
X200599868Y-92854301D01*
X200462593Y-92768046D01*
X200347954Y-92653407D01*
X200261699Y-92516132D01*
X200208152Y-92363105D01*
X200190000Y-92202000D01*
X200208152Y-92040895D01*
X200261699Y-91887868D01*
X200347954Y-91750593D01*
X200462593Y-91635954D01*
X200599868Y-91549699D01*
X200752895Y-91496152D01*
X200914000Y-91478000D01*
X201075105Y-91496152D01*
G37*
G36*
X274227105Y-91496152D02*
G01*
X274380132Y-91549699D01*
X274517407Y-91635954D01*
X274632046Y-91750593D01*
X274718301Y-91887868D01*
X274771848Y-92040895D01*
X274790000Y-92202000D01*
X274771848Y-92363105D01*
X274718301Y-92516132D01*
X274632046Y-92653407D01*
X274517407Y-92768046D01*
X274380132Y-92854301D01*
X274227105Y-92907848D01*
X274066000Y-92926000D01*
X273904895Y-92907848D01*
X273751868Y-92854301D01*
X273614593Y-92768046D01*
X273499954Y-92653407D01*
X273413699Y-92516132D01*
X273360152Y-92363105D01*
X273342000Y-92202000D01*
X273360152Y-92040895D01*
X273413699Y-91887868D01*
X273499954Y-91750593D01*
X273614593Y-91635954D01*
X273751868Y-91549699D01*
X273904895Y-91496152D01*
X274066000Y-91478000D01*
X274227105Y-91496152D01*
G37*
M02*
